<svg width="110" height="61" viewBox="0 0 110 61" fill="none" xmlns="http://www.w3.org/2000/svg">
<g id="Camada_1">
<g id="Group">
<path id="Vector" d="M26.3373 0H23.7363C23.0748 0 22.4828 0.292482 22.1312 0.783435L21.9501 0.964496C21.884 1.03065 21.8352 1.11074 21.8039 1.19779L14.7355 22.2704C14.5545 22.8136 13.7885 22.8101 13.6074 22.2704L6.71317 1.53901C6.52514 0.626748 5.74171 0 4.7598 0H0V59.0049C0 60.1434 0.880929 61 2.04738 61H4.64838C5.30995 61 5.90188 60.7075 6.25355 60.2166L6.43461 60.0355C6.50077 59.9693 6.54952 59.8893 6.58085 59.8022L13.6457 38.7295C13.8268 38.1864 14.5928 38.1898 14.7738 38.7295L21.6716 59.461C21.8596 60.3733 22.643 61 23.6249 61H28.3847V1.99515C28.3847 0.856556 27.5038 0 26.3373 0ZM24.2343 23.7677V52.2778C24.2343 52.6155 23.7607 52.6921 23.6528 52.3718L16.4765 30.7942C16.3964 30.5505 16.3964 30.2859 16.4765 30.0421L18.6388 23.5797C18.7189 23.3359 18.9487 23.1723 19.2029 23.1723H23.6388C23.9662 23.1723 24.2343 23.4404 24.2343 23.7677ZM20.3902 18.3463L23.6528 8.59689C23.7607 8.27656 24.2343 8.35316 24.2343 8.69091V18.5343C24.2343 18.8616 23.9662 19.1297 23.6388 19.1297H20.9543C20.5469 19.1297 20.2614 18.7328 20.3902 18.3463ZM7.30161 44.7254L4.73195 52.4031C4.62401 52.7234 4.15047 52.6468 4.15047 52.3091V44.5339C4.15047 44.2066 4.41857 43.9385 4.74588 43.9385H6.73406C7.14145 43.9385 7.42696 44.3355 7.29813 44.722L7.30161 44.7254ZM4.15395 39.3041V8.72224C4.15395 8.3845 4.62749 8.30789 4.73543 8.62823L11.9152 30.2058C11.9953 30.4495 11.9953 30.7141 11.9152 30.9579L9.05999 39.4921C8.97991 39.7358 8.7501 39.8995 8.49592 39.8995H4.75284C4.42554 39.8995 4.15743 39.6314 4.15743 39.3041H4.15395Z" fill="#366836"/>
<g id="Group_2">
<path id="Vector_2" d="M41.2301 28.3532C37.87 28.3532 34.9766 26.358 34.9766 22.03V3.46777H37.205C39.9662 3.46777 41.2963 4.73172 41.2963 7.82715V21.1003C41.2963 22.7298 42.1946 23.2312 43.9565 23.2312H45.3527V25.4283C45.3527 27.6568 43.2218 28.3566 41.2266 28.3566L41.2301 28.3532Z" fill="#366836"/>
<path id="Vector_3" d="M50.68 8.76039C48.852 8.76039 47.3547 7.36413 47.3547 5.63361C47.3547 3.90309 48.852 2.50684 50.68 2.50684C52.508 2.50684 53.9739 3.90309 53.9739 5.63361C53.9739 7.36413 52.5115 8.76039 50.68 8.76039ZM53.6744 28.3532C50.3144 28.3532 47.6855 26.6889 47.6855 22.3643V10.3551H49.2489C52.8423 10.3551 54.0052 11.3858 54.0052 14.7145V21.4346C54.0052 23.0642 54.7713 23.5656 56.5331 23.5656H57.2991V25.4284C57.2991 27.6255 55.6348 28.3567 53.671 28.3567L53.6744 28.3532Z" fill="#366836"/>
<path id="Vector_4" d="M85.8788 28.0887C82.5187 28.0887 81.7527 26.6577 81.7527 24.3944V17.6394C81.7527 15.2787 80.9553 14.4117 79.1238 14.4117C77.2923 14.4117 76.7631 15.7105 76.7631 17.5385V28.0852H74.566C72.0033 28.0852 70.6418 27.2531 70.6418 24.3909V17.4723C70.6418 15.31 69.8096 14.4117 68.1453 14.4117C66.3834 14.4117 65.6835 15.31 65.6835 17.5733V28.0852H63.4864C60.6591 28.0852 59.3604 26.7203 59.3604 24.3909V17.9702C59.3604 12.6464 62.421 9.25146 68.2428 9.25146C71.1049 9.25146 73.2672 11.0133 73.8661 12.5106C74.7296 11.1143 76.9615 9.25146 79.5869 9.25146C84.9108 9.25146 88.0724 12.4131 88.0724 18.1339V28.0818H85.8753L85.8788 28.0887Z" fill="#366836"/>
<path id="Vector_5" d="M98.9569 28.5866C95.4298 28.5866 91.14 26.9222 91.14 22.7648C91.14 18.6074 94.0683 16.6435 100.722 16.6435H101.621V15.8775C101.621 14.3803 100.458 14.0147 97.9611 14.0147C94.5349 14.0147 93.271 14.812 91.9722 16.0098H91.8051V13.7814C91.8051 11.5181 94.1658 9.25488 99.3922 9.25488C104.619 9.25488 107.742 11.8176 107.742 17.2076V20.035C107.742 26.6889 105.611 28.5866 98.9569 28.5866ZM101.753 20.5712H100.489C98.0934 20.5712 97.1289 21.1701 97.1289 22.4027C97.1289 23.5656 97.8601 24.1645 99.6255 24.1645C100.757 24.1645 101.756 23.6004 101.756 21.9361V20.5712H101.753Z" fill="#366836"/>
<path id="Vector_6" d="M61.3242 59.9759C57.9641 59.9759 57.1981 58.5449 57.1981 56.2816V49.5267C57.1981 47.1659 56.4007 46.2989 54.5692 46.2989C52.7377 46.2989 52.2085 47.5977 52.2085 49.4257V59.9725H50.0114C47.4487 59.9725 46.0873 59.1403 46.0873 56.2781V49.3595C46.0873 47.1972 45.2551 46.2989 43.5907 46.2989C41.8288 46.2989 41.129 47.1972 41.129 49.4605V59.9725H38.9319C36.1045 59.9725 34.8058 58.6075 34.8058 56.2781V49.8574C34.8058 44.5336 37.8664 41.1387 43.6882 41.1387C46.5504 41.1387 48.7126 42.9005 49.3115 44.3978C50.175 43.0015 52.407 41.1387 55.0323 41.1387C60.3562 41.1387 63.5178 44.3003 63.5178 50.0211V59.969H61.3207L61.3242 59.9759Z" fill="#366836"/>
<path id="Vector_7" d="M74.4024 60.4743C70.8752 60.4743 66.5854 58.8099 66.5854 54.6525C66.5854 50.4951 69.5138 48.5312 76.1677 48.5312H77.0661V47.7652C77.0661 46.268 75.9031 45.9024 73.4066 45.9024C69.9803 45.9024 68.7164 46.6997 67.4176 47.8975H67.2505V45.6691C67.2505 43.4058 69.6112 41.1426 74.8376 41.1426C80.064 41.1426 83.1873 43.7053 83.1873 49.0953V51.9226C83.1873 58.5766 81.0564 60.4743 74.4024 60.4743ZM77.1984 52.4554H75.9344C73.5389 52.4554 72.5744 53.0543 72.5744 54.2869C72.5744 55.4498 73.3056 56.0487 75.0709 56.0487C76.2025 56.0487 77.2019 55.4847 77.2019 53.8203V52.4554H77.1984Z" fill="#366836"/>
<path id="Vector_8" d="M97.6617 46.4C96.8643 46.1005 96.2654 46.0344 95.4332 46.0344C93.9012 46.0344 92.7034 46.8004 92.7034 49.0288V59.976H90.9729C88.2465 59.976 86.5822 58.7121 86.5822 55.6515V47.6987C86.5822 44.0044 89.0787 41.0796 93.2361 41.0796C96.3977 41.0796 97.8601 42.3784 97.8601 44.0741V46.4035H97.6617V46.4Z" fill="#366836"/>
<path id="Vector_9" d="M103.083 40.6447C101.255 40.6447 99.7579 39.2484 99.7579 37.5179C99.7579 35.7874 101.255 34.3911 103.083 34.3911C104.911 34.3911 106.377 35.7874 106.377 37.5179C106.377 39.2484 104.915 40.6447 103.083 40.6447ZM106.078 60.241C102.718 60.241 100.089 58.5766 100.089 54.2521V42.2429H101.652C105.245 42.2429 106.408 43.2735 106.408 46.6023V53.3224C106.408 54.9519 107.174 55.4533 108.936 55.4533H109.702V57.3162C109.702 59.5133 108.038 60.2445 106.074 60.2445L106.078 60.241Z" fill="#366836"/>
</g>
</g>
</g>
</svg>
