<svg xmlns="http://www.w3.org/2000/svg" width="35" height="30" viewBox="0 0 35 30" fill="none">
<path d="M34.4044 13.1257C34.1867 13.9195 33.4354 14.7664 31.9805 14.7664C31.8717 14.7664 31.7575 14.7637 31.646 14.7531C30.9186 14.6973 30.2894 14.6708 29.6628 14.6602C29.0681 20.4823 25.2106 25.8451 19.5504 28.5664C17.5965 29.5062 15.5204 30.0027 13.5505 30.0027C12.8443 30.0027 12.1513 29.9389 11.4876 29.8115C9.68497 29.469 8.32833 28.3593 7.48408 27.446C6.90532 27.0159 6.34514 26.4796 5.77435 25.808C1.98054 21.3345 0.0902744 15.0451 8.92202e-06 6.57876C8.92202e-06 6.28407 -0.0106105 5.38938 0.700894 4.72035C1.12833 4.31416 1.69116 4.10973 2.37611 4.10973H2.46638L10.2319 4.22124L11.7664 4.24248L11.5248 5.75575L11.4531 6.21239C11.0283 8.85929 11.6124 11.6442 12.1938 14.0442C12.754 16.3619 13.8982 19.1575 15.5496 20.8088C16.731 18.9106 17.5328 16.7973 17.9044 14.6018C17.2168 14.5301 16.5239 14.4903 15.831 14.4823C15.0451 14.4717 14.3443 14.0257 14.0018 13.3195C13.6593 12.6133 13.7416 11.7903 14.2195 11.169C16.9301 7.64071 19.7867 4.1469 22.7097 0.788496C23.1478 0.289381 23.7717 0 24.4274 0C24.4593 0 24.4912 0.00265487 24.5257 0.00265487C25.2133 0.0265487 25.8478 0.353097 26.2673 0.897345C27.3956 2.36549 28.4549 3.78584 29.4797 5.16372C30.9584 7.15221 32.3549 9.0292 33.9186 10.9885L33.9398 11.0177L33.9584 11.0442L33.985 11.0814L34.0089 11.1133L34.0301 11.1478C34.1894 11.4 34.6699 12.1673 34.4071 13.1257H34.4044Z" fill="#366836"/>
<path d="M13.5531 28.6725C12.9319 28.6725 12.3239 28.6167 11.7398 28.5052C10.2345 28.2185 9.08495 27.2362 8.37876 26.4477C7.84778 26.0707 7.32743 25.5796 6.79115 24.9477C3.19911 20.7238 1.41239 14.7105 1.32743 6.56275C1.32743 6.35036 1.32212 5.95478 1.6115 5.68133C1.87964 5.42646 2.25132 5.43177 2.44778 5.43443L10.2133 5.54328L10.1416 5.99726C9.67964 8.88841 10.2929 11.8247 10.9035 14.3521C11.2593 15.8256 12.6611 20.7397 15.8442 22.7362C17.769 20.1291 18.9956 17.0282 19.3593 13.7946C19.3858 13.5636 19.3646 13.4999 19.3487 13.4813C19.3274 13.4548 19.2372 13.4309 19.0805 13.407C18.0159 13.2504 16.9274 13.1627 15.8469 13.1495C15.5655 13.1468 15.3159 12.9875 15.1938 12.7353C15.0717 12.4858 15.1035 12.1937 15.2708 11.9734C17.9655 8.46363 20.8035 4.99106 23.708 1.65655C23.8991 1.4362 24.1752 1.31142 24.4699 1.32469C24.7646 1.33266 25.0354 1.47071 25.2133 1.70434C26.3283 3.15124 27.385 4.5716 28.4071 5.94682C29.8938 7.94593 31.2982 9.83354 32.8752 11.8114L32.9018 11.8486C33.008 12.0185 33.231 12.3743 33.1221 12.7725C33.0451 13.0512 32.7637 13.5079 31.7496 13.4282C30.5044 13.33 29.5513 13.322 28.431 13.3194C28.431 13.3194 28.4097 13.3327 28.4097 13.3459C28.3035 19.1601 24.6 24.6636 18.9717 27.3663C17.1823 28.2265 15.3106 28.6698 13.5478 28.6698L13.5531 28.6725ZM10.7257 27.3158C11.0814 27.499 11.469 27.6451 11.8885 27.7247C13.9726 28.1229 16.3673 27.7406 18.6345 26.6521C23.992 24.0769 27.5203 18.8495 27.6212 13.3327C27.6292 12.8787 27.9876 12.5256 28.4389 12.5256C29.5752 12.5256 30.5469 12.5362 31.8186 12.6371C32.2035 12.6689 32.3442 12.5893 32.3575 12.5707C32.3628 12.5495 32.3628 12.4884 32.2434 12.2973C30.6637 10.3167 29.2593 8.42912 27.7726 6.43C26.7504 5.05744 25.6938 3.63708 24.5867 2.19814C24.5416 2.13974 24.4832 2.12912 24.4513 2.12912C24.4221 2.12912 24.3611 2.13443 24.3133 2.18752C21.4487 5.47691 18.6478 8.90168 15.9876 12.3636C17.0602 12.3822 18.1407 12.4725 19.2 12.6291C19.3832 12.6557 19.7283 12.7061 19.9566 12.9742C20.2221 13.2822 20.1743 13.6937 20.1531 13.8928C19.6752 18.1566 17.7584 22.1893 14.7557 25.253C13.8823 26.1424 12.531 27.3238 10.8504 27.3238C10.8106 27.3238 10.7708 27.3238 10.7283 27.3238L10.7257 27.3158ZM2.39469 6.23354C2.22743 6.23354 2.17168 6.24947 2.15575 6.26275C2.14513 6.27337 2.11858 6.32646 2.12123 6.55744C2.20619 14.5088 3.9292 20.3574 7.39115 24.4353C7.89557 25.03 8.37876 25.484 8.86725 25.8265C9.52301 26.2831 10.1788 26.5194 10.8159 26.5247C10.8239 26.5247 10.8345 26.5247 10.8425 26.5247C11.8938 26.5247 12.9557 25.9406 14.1796 24.6928C14.5911 24.2734 14.9814 23.8327 15.3504 23.376C11.9575 21.1937 10.4947 16.0831 10.123 14.5459C9.52566 12.0743 8.92566 9.21496 9.28407 6.33443L2.4292 6.23885C2.41593 6.23885 2.40265 6.23885 2.38938 6.23885L2.39469 6.23354Z" fill="#FFC1B0"/>
</svg>
