<svg xmlns="http://www.w3.org/2000/svg" width="92" height="80" viewBox="0 0 92 80" fill="none">
<path d="M91.7451 35.0018C91.1646 37.1186 89.1611 39.377 85.2814 39.377C84.9912 39.377 84.6867 39.3699 84.3894 39.3416C82.4496 39.1929 80.7717 39.1221 79.1009 39.0938C77.5151 54.6195 67.2283 68.9203 52.1345 76.177C46.9239 78.6832 41.3876 80.0071 36.1345 80.0071C34.2514 80.0071 32.4036 79.8372 30.6337 79.4973C25.8266 78.5841 22.2089 75.6248 19.9575 73.1894C18.4142 72.0425 16.9204 70.6124 15.3983 68.8212C5.28144 56.892 0.240732 40.1204 2.37921e-05 17.5434C2.37921e-05 16.7575 -0.0282948 14.3717 1.86905 12.5876C3.00887 11.5044 4.50976 10.9593 6.33631 10.9593H6.57701L27.285 11.2566L31.377 11.3133L30.7328 15.3487L30.5416 16.5664C29.4089 23.6248 30.9664 31.0513 32.5168 37.4513C34.0106 43.6319 37.062 51.0867 41.4655 55.4903C44.616 50.4283 46.754 44.7929 47.7452 38.9381C45.9115 38.7469 44.0637 38.6407 42.216 38.6195C40.1204 38.5911 38.2514 37.4018 37.3381 35.5186C36.4248 33.6354 36.6443 31.4407 37.9186 29.7841C45.1469 20.3752 52.7646 11.0584 60.5593 2.10265C61.7275 0.771681 63.3912 0 65.1398 0C65.2248 0 65.3098 0.00707965 65.4018 0.00707965C67.2354 0.0707965 68.9275 0.941593 70.046 2.39292C73.0549 6.30796 75.8797 10.0956 78.6124 13.7699C82.5558 19.0726 86.2797 24.0779 90.4496 29.3027L90.5062 29.3805L90.5558 29.4513L90.6266 29.5504L90.6903 29.6354L90.7469 29.7274C91.1717 30.4 92.4531 32.446 91.7522 35.0018H91.7451Z" fill="#FFE7DE"/>
<path d="M36.1416 76.4603C34.4849 76.4603 32.8637 76.3116 31.3062 76.0143C27.292 75.2497 24.2265 72.6302 22.3434 70.5275C20.9274 69.5222 19.5398 68.2125 18.1097 66.5275C8.53096 55.2638 3.76636 39.2284 3.53981 17.501C3.53981 16.9346 3.52565 15.8797 4.29733 15.1505C5.01238 14.4709 6.00353 14.4851 6.52742 14.4921L27.2354 14.7824L27.0442 15.993C25.8124 23.7028 27.4478 31.5328 29.0761 38.2727C30.0248 42.2019 33.7628 55.3063 42.2513 60.6302C47.3841 53.678 50.6549 45.4089 51.6248 36.7859C51.6956 36.17 51.6389 36.0001 51.5965 35.9505C51.5398 35.8797 51.2991 35.816 50.8814 35.7523C48.0425 35.3346 45.1398 35.101 42.2584 35.0656C41.508 35.0585 40.8425 34.6337 40.5168 33.9612C40.1911 33.2957 40.2761 32.5169 40.7221 31.9293C47.908 22.57 55.4761 13.3098 63.2212 4.41779C63.731 3.83018 64.4672 3.49744 65.2531 3.53284C66.0389 3.55408 66.7611 3.92222 67.2354 4.54523C70.2088 8.40364 73.0265 12.1912 75.7522 15.8585C79.7168 21.1895 83.4619 26.2231 87.6673 31.4974L87.738 31.5966C88.0212 32.0497 88.6159 32.9983 88.3257 34.0603C88.1204 34.8036 87.3699 36.0213 84.6655 35.8089C81.3451 35.547 78.8035 35.5258 75.8159 35.5187C75.8159 35.5187 75.7593 35.5541 75.7593 35.5895C75.4761 51.0939 65.6 65.77 50.5911 72.9771C45.8195 75.2709 40.8283 76.4532 36.1274 76.4532L36.1416 76.4603ZM28.6018 72.8426C29.5504 73.3311 30.5841 73.7205 31.7026 73.9328C37.2602 74.9948 43.646 73.9753 49.692 71.0727C63.9788 64.2054 73.3876 50.2656 73.6566 35.5541C73.6779 34.3435 74.6336 33.4019 75.8372 33.4019C78.8673 33.4019 81.4584 33.4302 84.8495 33.6992C85.8761 33.7842 86.2513 33.5718 86.2867 33.5222C86.3009 33.4656 86.3009 33.3027 85.9823 32.793C81.7699 27.5116 78.0248 22.478 74.0602 17.147C71.3345 13.4868 68.5168 9.69921 65.5646 5.86204C65.4442 5.70629 65.2885 5.67797 65.2035 5.67797C65.1257 5.67797 64.9628 5.69213 64.8354 5.83372C57.1965 14.6054 49.7274 23.7381 42.6336 32.97C45.4938 33.0196 48.3752 33.2603 51.2 33.678C51.6885 33.7488 52.6088 33.8833 53.2177 34.5983C53.9257 35.4196 53.7982 36.5169 53.7416 37.0479C52.4673 48.4178 47.3557 59.1718 39.3487 67.3417C37.0195 69.7134 33.4159 72.8638 28.9345 72.8638C28.8283 72.8638 28.7221 72.8638 28.6088 72.8638L28.6018 72.8426ZM6.38583 16.6231C5.93981 16.6231 5.79114 16.6656 5.74866 16.701C5.72034 16.7293 5.64955 16.8709 5.65663 17.4868C5.88318 38.6904 10.4779 54.2868 19.7097 65.1612C21.0549 66.747 22.3434 67.9576 23.646 68.8709C25.3947 70.0886 27.1434 70.7187 28.8425 70.7328C28.8637 70.7328 28.892 70.7328 28.9133 70.7328C31.7168 70.7328 34.5487 69.1753 37.8124 65.8479C38.9097 64.7293 39.9504 63.5541 40.9345 62.3364C31.8867 56.5169 27.9858 42.8886 26.9947 38.7895C25.4018 32.1983 23.8018 24.5735 24.7575 16.8921L6.47787 16.6373C6.44247 16.6373 6.40707 16.6373 6.37167 16.6373L6.38583 16.6231Z" fill="#FF7336"/>
</svg>
