<svg xmlns="http://www.w3.org/2000/svg" width="68" height="58" viewBox="0 0 68 58" fill="none">
<g clip-path="url(#clip0_458_695)">
<path fill-rule="evenodd" clip-rule="evenodd" d="M33.5686 0.813343C33.7021 0.85443 35.5151 1.4194 37.1945 1.86622C42.2688 3.20668 50.4401 5.20452 54.4358 6.79664C55.8071 7.34105 56.7879 7.91624 57.2861 8.37333L58.0257 9.31831L58.0359 9.34916C60.3779 12.2663 63.9782 15.8306 65.5858 18.9173C66.5616 20.7816 66.8852 22.5689 66.5051 24.0994C66.2072 25.3114 65.5138 26.4362 64.2093 27.376C63.4235 27.9359 62.2011 28.6292 60.6809 29.4099C60.912 32.3116 61.4051 38.4572 61.138 41.6204C61.0456 42.6851 60.8454 43.5145 60.6194 44.024L60.152 44.8021L59.5306 45.3901C54.3639 49.014 54.1174 48.4039 34.524 56.8077L33.6561 57.1805L32.7521 56.9001C31.4527 56.4964 19.7377 52.51 6.14309 45.5755L4.9464 44.9638L4.76684 43.6306C3.2004 31.9881 3.73433 30.0262 3.79083 25.635C2.65066 24.916 1.85985 24.3973 1.59278 24.2072L1.01751 23.6936L0.540031 23.0568L0.21628 22.3532L0.0417409 21.6444C-0.0917917 20.7148 0.108547 19.5439 0.724852 18.2804C2.09613 15.4814 5.98393 11.6346 6.96488 9.99114L7.41176 9.23618L8.23355 8.91776C13.6108 6.81205 16.5382 5.62565 18.9263 4.72687C22.0746 3.54562 24.1753 2.6417 31.7096 0.607896L32.7109 0.34082L33.5686 0.813343Z" fill="#FFE7DE"/>
<path fill-rule="evenodd" clip-rule="evenodd" d="M8.77705 10.7973C8.89004 10.6022 9.06489 10.4584 9.27032 10.3762C14.6373 8.27564 17.5595 7.08925 19.9425 6.1956C23.0549 5.02463 25.1348 4.13616 32.5819 2.12289C32.8335 2.05613 33.1007 2.08691 33.3267 2.2153C33.7529 2.44642 35.2476 2.85216 37.2608 3.38116C42.2786 4.70621 50.3674 6.67838 54.322 8.25509C55.4571 8.70705 56.2789 9.15386 56.6949 9.53392C56.777 9.60582 56.8489 9.68289 56.9105 9.75479L57.1056 10.0475L57.1623 10.1862C59.4426 13.0571 63.0634 16.5804 64.6657 19.6413C65.9959 22.1939 66.0215 24.4742 63.7617 26.1022C62.8681 26.7391 61.3684 27.5454 59.504 28.4647C59.6684 30.668 60.3412 37.9553 60.0382 41.4872C59.9663 42.328 59.8276 42.9869 59.653 43.3886L59.3962 43.822L59.0933 44.1066C53.9882 47.6878 53.7315 47.0612 34.3744 55.3664C34.0919 55.4871 33.7683 55.4722 33.5012 55.3254C33.3368 55.236 33.2034 55.104 33.111 54.9463C31.3494 54.3937 20.4305 50.8664 7.32381 44.1784C7.03106 44.0295 6.83062 43.7465 6.78439 43.4214C5.14091 31.1816 5.83933 29.7487 5.82393 24.7669C4.33966 23.8373 3.29217 23.1645 2.97888 22.9386C1.8644 22.122 1.75643 20.689 2.59871 18.9685C3.95458 16.2054 7.80637 12.4151 8.77705 10.7973ZM7.29798 23.334C7.33393 23.3494 7.36472 23.37 7.39553 23.3905C10.9187 25.5835 16.558 28.9783 20.831 31.3152C22.4334 32.1934 23.8459 32.9186 24.873 33.3685C25.4123 33.6058 25.8129 33.7742 26.0389 33.7912C26.0594 33.7757 26.085 33.7511 26.1056 33.7316C26.1467 33.6848 26.1928 33.6309 26.239 33.5698C26.3725 33.3936 26.5165 33.1712 26.6809 32.9011C27.5694 31.4743 29.0536 28.8448 32.7719 24.5153C21.6374 18.7374 13.3635 14.9677 10.3539 13.165C10.1434 13.0366 9.95339 12.9185 9.78391 12.8055C8.55644 14.3565 6.394 16.6779 5.04326 18.7271C4.57076 19.4564 4.19589 20.1395 4.0675 20.725C4.01614 20.9664 3.97514 21.1872 4.16003 21.3207C4.48873 21.5621 5.6545 22.312 7.29798 23.334ZM32.7052 52.7148C31.4213 42.9839 33.4038 36.6236 33.4089 26.8572C29.8292 31.1816 28.6941 33.5749 27.9237 34.6529C27.2663 35.5702 26.7014 35.8368 25.9208 35.7875C25.3764 35.7526 24.0975 35.259 22.4129 34.41C18.5456 32.4605 12.213 28.701 7.81157 25.9944C7.73453 29.9336 7.30311 32.0958 8.70006 42.6351C19.8963 48.3072 29.4029 51.6285 32.7052 52.7148ZM57.5781 29.3995C52.057 32.0444 44.5486 35.3889 39.7876 38.4802C39.5514 38.6322 39.2637 38.6795 38.9967 38.6101C38.7245 38.5413 38.4934 38.3621 38.365 38.1161C37.2505 36.0515 36.172 33.1733 35.304 30.5961C34.9034 38.4396 33.5167 44.3711 34.7699 53.0224C52.5297 45.4326 53.0174 45.9144 57.8349 42.5468C57.8606 42.4605 57.9222 42.2474 57.953 42.0661C58.0557 41.4657 58.1021 40.6414 58.1175 39.6943C58.1535 36.432 57.7733 31.7979 57.5781 29.3995ZM56.2635 12.2457C55.8886 12.5692 55.3852 12.9544 54.7792 13.3807C50.0696 16.6882 38.7295 22.954 35.5453 24.7002C36.177 26.8367 37.8206 32.4296 39.6387 36.2112C44.8516 33.0156 52.6478 29.6203 57.8916 27.0575C57.9789 27.001 58.0712 26.9497 58.1739 26.9189C60.1153 25.9687 61.6766 25.1316 62.5908 24.4742C63.957 23.4984 63.6899 22.1014 62.8887 20.5658C61.4918 17.8849 58.472 14.8547 56.2635 12.2457ZM11.6585 11.5883C11.9871 11.7886 12.3672 12.0094 12.7626 12.22C16.6042 14.2692 24.3594 17.8797 34.3435 23.0772C37.1221 21.557 48.8421 15.1064 53.6339 11.7424C54.1115 11.4085 54.5686 11.0285 54.8973 10.7511C54.5532 10.5611 54.0704 10.3043 53.5825 10.1091C48.2823 7.99829 35.5657 5.17357 32.777 4.14126C25.6997 6.06207 23.6661 6.93004 20.6462 8.06507C18.5251 8.86626 15.9777 9.88829 11.6585 11.5883ZM26.0336 33.7953C26.0285 33.7994 26.0233 33.8055 26.0233 33.8055C26.0233 33.8055 26.0285 33.8019 26.0336 33.7953ZM37.6202 50.4345C37.0912 50.5978 36.5314 50.303 36.3671 49.7761C36.2027 49.2491 36.5005 48.6883 37.0243 48.5249C40.3524 47.4926 50.2801 42.3675 51.41 41.7856C51.9031 41.533 52.504 41.7255 52.7557 42.2165C53.0073 42.707 52.8172 43.3105 52.3241 43.5632C51.1737 44.1579 41.0201 49.3796 37.6202 50.4345ZM55.4829 40.0025C55.7397 40.04 55.9861 40.1771 56.1504 40.4036L56.2994 40.6758L56.3661 40.9999L56.3455 41.3239L56.243 41.6013L56.022 41.9043L55.7652 42.099L55.4879 42.2181L55.1797 42.2699L54.9023 42.252L54.6097 42.1647L54.3376 41.9993L54.1114 41.7677L53.9524 41.5001L53.8599 41.2243L53.824 40.6866C53.8599 40.136 54.3375 39.718 54.887 39.7534C55.1181 39.7683 55.3237 39.8602 55.4829 40.0025ZM54.3529 41.1611C54.3734 41.2988 54.43 41.4405 54.5327 41.5792C54.4402 41.4508 54.3786 41.3075 54.3529 41.1611Z" fill="#FF7336"/>
</g>
<defs>
<clipPath id="clip0_458_695">
<rect width="67.32" height="57.322" fill="white" transform="translate(0 0.339111)"/>
</clipPath>
</defs>
</svg>
