<svg xmlns="http://www.w3.org/2000/svg" width="68" height="73" viewBox="0 0 68 73" fill="none">
<g clip-path="url(#clip0_458_683)">
<path fill-rule="evenodd" clip-rule="evenodd" d="M2.78833 72.663C2.48981 72.663 2.20082 72.5443 1.98805 72.3327C1.77528 72.1214 1.65776 71.8347 1.65776 71.5362C1.65776 71.3086 1.65776 71.1374 1.65776 71.1374C0.495461 36.95 -0.685803 36.4972 0.482851 2.36412C0.482851 2.36412 0.486033 2.30729 0.489209 2.21887C0.514614 1.44834 1.14976 0.838867 1.92463 0.838867C10.8356 0.838867 59.7635 0.838867 66.2927 0.838867C66.4833 0.838867 66.6642 0.914671 66.7976 1.05046C66.9342 1.18309 67.0072 1.36624 67.004 1.55572C66.9087 8.50624 66.1593 63.9061 66.0576 71.3528C66.0513 71.8119 65.6766 72.1824 65.2161 72.1858C57.7977 72.243 3.26794 72.663 3.26794 72.663H2.78833Z" fill="#FFE7DE"/>
<path fill-rule="evenodd" clip-rule="evenodd" d="M42.3536 43.5979C43.0872 43.2638 43.897 43.0733 44.8084 43.0733C45.7897 43.0733 46.8599 43.3051 47.9872 43.7618C51.29 45.0316 53.9608 48.953 56.5458 52.745C57.2317 53.7546 57.9082 54.744 58.5751 55.6557V58.2739C57.4541 56.927 56.3553 55.3146 55.2216 53.6548C52.7763 50.0656 50.2485 46.3553 47.3999 45.2599C46.4567 44.8771 45.5832 44.6845 44.8052 44.6845C41.8645 44.6845 40.2291 47.411 38.3364 50.568C36.9201 52.9332 35.4528 55.3784 33.2457 56.6959C30.6099 58.3039 27.736 59.9314 24.5952 60.9319C24.5825 60.9363 24.5667 60.9407 24.554 60.9445C22.0579 64.1169 17.5896 64.3137 17.0815 64.3257C17.0688 64.326 17.0592 64.3266 17.0497 64.3276C16.8115 64.3484 16.567 64.3591 16.3257 64.3591C13.9884 64.3591 11.6637 63.3537 9.71069 61.5436V59.2029C11.5653 61.4624 13.9565 62.7492 16.3288 62.7492C16.5225 62.7492 16.7195 62.7407 16.9132 62.724C16.9609 62.7199 17.0021 62.7173 17.0466 62.7164C17.4785 62.706 21.2702 62.5411 23.3059 59.9327C23.3122 59.8023 23.3439 59.6741 23.4011 59.5535L25.5225 55.0904C25.8718 54.3552 26.1291 53.6084 26.2942 52.871C26.6912 51.0663 26.6562 49.3575 26.1894 47.9289L25.8368 47.1262C22.696 44.2443 20.616 41.2323 19.8666 36.5611C19.7522 36.6783 19.6157 36.7746 19.4759 36.8416C19.1044 37.0178 18.6471 36.8993 18.3835 36.5899C18.1199 36.2836 18.0754 35.8803 18.1612 35.4982C18.2025 35.2992 18.2756 35.1126 18.2629 34.9058C18.2534 34.7078 18.1834 34.5148 18.1199 34.3282C17.9929 33.9467 17.8658 33.5333 17.9833 33.1317C18.0945 32.754 18.4058 32.4833 18.8059 32.4953C19.0854 32.5036 19.3647 32.6106 19.5648 32.8045C19.5616 32.6532 19.5617 32.5004 19.5617 32.3463C19.5617 22.4684 25.1827 15.0158 32.6329 15.0158C36.6438 15.0158 40.2291 17.2105 42.6236 20.8989C42.6522 20.8768 42.6839 20.8579 42.7188 20.8484C45.5039 20.0147 48.3557 21.9094 49.6259 24.1137C51.0709 26.6169 51.1154 29.6014 50.9916 31.9225C50.9567 32.6141 50.8994 33.3164 50.8486 33.9956C50.6994 35.8825 50.5469 37.8338 50.785 39.7222C51.1026 42.233 52.1539 44.6987 53.7385 46.6651C54.4626 47.5623 55.3137 48.3827 56.1394 49.1763C56.7999 49.8126 57.4827 50.4704 58.1051 51.1714C58.2671 51.3565 58.4258 51.5416 58.5751 51.7263V52.7175C58.3052 52.337 58.0003 51.9543 57.6573 51.5706C57.0507 50.8869 56.3775 50.237 55.7233 49.6089C54.8881 48.8027 54.0244 47.969 53.2749 47.0425C51.595 44.9611 50.5279 42.456 50.1913 39.7977C49.9436 37.8483 50.1024 35.8658 50.2516 33.9483C50.3056 33.2728 50.3596 32.5746 50.3977 31.8906C50.5152 29.6526 50.4738 26.7805 49.1115 24.4137C47.9618 22.421 45.415 20.7 42.9412 21.4073C43.7796 22.8126 44.4559 24.4136 44.9291 26.1799C45.1704 26.2992 45.3991 26.4417 45.6151 26.6119C46.2058 27.0764 46.4694 27.7553 46.282 28.4927C46.1518 29.0062 45.8692 29.4647 45.5929 29.9188C45.6691 30.7114 45.7072 31.5278 45.7072 32.3463C45.7072 37.2587 44.2876 40.9073 42.3536 43.5979ZM27.9709 48.7358C28.2694 50.1173 28.2313 51.5201 27.8597 53.2187C27.6692 54.0758 27.3707 54.9385 26.9674 55.7835L25.4812 58.9133C27.9551 57.9574 30.2701 56.628 32.42 55.3165C34.2873 54.2014 35.6465 51.9325 36.9644 49.7381C37.3773 49.0465 37.7965 48.3502 38.2316 47.6816C37.8537 47.9529 37.4758 48.2018 37.1074 48.4301C35.7736 49.2515 34.0365 49.6594 32.293 49.6594C30.7718 49.6594 29.2476 49.3506 27.9709 48.7358ZM44.0082 25.8369C42.1821 19.721 37.7775 15.8116 32.6329 15.8116C25.6337 15.8116 20.3524 22.92 20.3524 32.3463C20.3524 40.0051 23.0136 43.752 27.6089 47.627C30.07 49.2142 34.2239 49.2729 36.6914 47.7524C40.445 45.4411 44.9164 40.8925 44.9164 32.3463C44.9164 32.0349 44.9101 31.7242 44.9006 31.415C44.5258 32.5935 44.2494 33.8548 43.2173 34.6399C42.4012 35.2598 41.3502 35.5146 40.3467 35.5863C39.3527 35.6573 38.2919 35.5424 37.3614 35.1609C36.9295 34.9834 36.5516 34.7428 36.2214 34.4472C36.0308 34.3465 35.8594 34.2331 35.7101 34.1081C34.3414 32.9943 33.684 30.2501 33.992 28.3348C33.9698 28.3307 33.9507 28.3269 33.9284 28.3231C33.9189 28.3216 33.9159 28.3206 33.9095 28.3197C33.9064 28.319 33.9031 28.319 33.8936 28.3184C33.8205 28.3108 33.7443 28.3054 33.6681 28.3045C33.5951 28.3036 33.5189 28.3061 33.4426 28.3124C33.4204 28.3146 33.3949 28.3171 33.3727 28.32C33.3632 28.3222 33.2934 28.3339 33.2839 28.3361C33.1695 28.3585 33.0616 28.3936 32.9505 28.4286C32.9314 29.0485 32.8106 29.6867 32.7821 30.2286C32.7313 30.6893 32.6869 31.1507 32.6202 31.6089C32.5027 32.3889 32.2962 33.1718 31.8103 33.8062C31.4546 34.271 30.9942 34.6474 30.4829 34.9253C29.3905 35.5156 28.0979 35.7224 26.8689 35.6333C25.6844 35.5471 24.2998 35.2222 23.4995 34.2707C23.4074 34.1592 23.3185 34.0436 23.2423 33.9249C22.3309 32.9286 22.2006 31.4075 21.7084 30.1793C21.3495 29.1849 20.4762 28.1592 21.0066 27.1661C21.0923 26.9813 21.2417 26.8152 21.4449 26.6674C21.4735 26.6321 21.5053 26.598 21.537 26.5651C22.0928 26.0024 22.947 25.7561 23.6965 25.5953C25.7511 25.1558 27.9963 25.1864 30.0542 25.5963C30.8164 25.7485 31.661 25.9632 32.2739 26.4751C32.6645 26.8023 32.8456 27.2292 32.9154 27.6966C32.9948 27.6732 33.0743 27.6521 33.1569 27.6379C33.3379 27.6072 33.5188 27.5886 33.703 27.5933C33.8554 27.5974 34.0079 27.6158 34.1572 27.6467C34.1857 27.5605 34.2174 27.4774 34.2524 27.3979L34.2842 27.3467C34.6208 26.879 35.0972 26.5613 35.6498 26.3469C36.431 25.8372 37.3996 25.6471 38.3174 25.5609C38.908 25.5053 39.4987 25.4971 40.0894 25.5019C40.6325 25.5063 41.1818 25.4955 41.7249 25.5262C42.4775 25.5691 43.2651 25.6351 44.0082 25.8369ZM40.8007 34.7428C40.9118 34.7254 41.0198 34.7059 41.1246 34.6838C41.8995 34.5211 42.7379 34.1952 43.2206 33.5349C43.9796 32.4919 44.024 31.0954 44.6433 29.9757C44.9609 29.3962 45.4816 28.7835 45.5515 28.1033C45.6246 27.4165 44.891 27.0031 44.3479 26.784C44.1796 26.7167 44.0114 26.6592 43.8399 26.6103C44.0686 26.735 44.2813 26.8844 44.4782 27.065C45.4055 28.0127 44.4687 29.0914 43.9193 30.1017C43.3477 31.1131 43.2809 32.3384 42.6807 33.336C42.3218 34.0146 41.6295 34.4757 40.8007 34.7428ZM28.9872 34.6654C29.5747 34.5148 30.1399 34.2676 30.6163 33.8965C31.0228 33.5817 31.3626 33.1664 31.5436 32.6826C31.8389 31.8972 31.8993 31.0553 31.9914 30.2286C32.0105 29.8711 32.058 29.5165 32.0993 29.1606C32.1755 28.5063 32.2549 27.7958 31.8897 27.2131C31.8865 27.2065 31.8834 27.2027 31.8802 27.198C31.8802 27.1967 31.877 27.1951 31.8739 27.191C31.8548 27.1727 31.8389 27.1528 31.823 27.1358C31.8039 27.1181 31.7373 27.0609 31.7214 27.0439C31.7024 27.0306 31.6643 27.0035 31.6548 26.9968C31.6262 26.9769 31.5943 26.9576 31.5658 26.939C31.5054 26.9024 31.4419 26.8686 31.3784 26.8367C31.2959 26.7947 31.2483 26.7701 31.1975 26.7495C31.28 26.8165 31.3499 26.8863 31.4039 26.9592L31.4705 27.0492C32.0009 27.9195 31.6325 29.1461 31.5881 30.1531C31.4833 31.0977 31.4197 32.0766 31.0164 32.9485C30.6035 33.7572 29.8637 34.3225 28.9872 34.6654ZM19.2187 36.3631C19.3807 36.3034 19.6411 36.0874 19.6538 35.9018C19.6602 35.2661 19.6062 34.6313 19.4665 34.0105C19.3934 33.6799 19.3426 33.1875 18.9711 33.0735C18.8599 33.0391 18.717 33.0082 18.6153 33.0884C18.5233 33.161 18.4883 33.3066 18.482 33.4162C18.4598 33.713 18.5867 34.0036 18.6757 34.2799C18.7773 34.5941 18.8377 34.9096 18.7805 35.2386C18.7329 35.508 18.5994 35.7773 18.6915 36.0524C18.7613 36.2652 18.9837 36.4493 19.2187 36.3631ZM37.7584 40.2369C37.7361 40.2641 37.7075 40.2859 37.6662 40.2985C37.047 40.4908 36.4246 40.7194 35.7832 40.8401C35.2274 40.9446 34.6939 40.9083 34.1413 40.8139C33.6269 40.7258 33.0901 40.5985 32.563 40.6803C32.2867 40.7229 32.0391 40.8432 31.7723 40.9197C31.5119 40.9958 31.2356 41.0081 30.9657 41.0043C30.3877 40.9954 29.8097 40.9515 29.2381 40.8789C29.1428 40.8669 29.0602 40.8072 29.0602 40.7011C29.0602 40.6137 29.1428 40.511 29.2381 40.5233C29.8764 40.6039 30.5305 40.6648 31.1751 40.6478C31.7214 40.6332 32.1914 40.3418 32.7345 40.3064C33.2616 40.272 33.7856 40.3964 34.3032 40.4823C34.8558 40.5735 35.3798 40.5751 35.926 40.4466C36.45 40.3222 36.9677 40.1453 37.4822 39.9833C36.5485 39.0628 35.4751 37.559 33.5729 38.622C34.1731 37.6727 36.2214 36.5517 37.8822 37.7716C38.457 38.1938 40.6927 40.3152 42.9982 38.0176C41.7756 41.4057 38.2602 40.5555 38.2094 40.5344C38.0602 40.4696 37.9076 40.3658 37.7584 40.2369ZM34.3826 44.7044C34.462 44.76 34.5002 44.8591 34.4462 44.9479C34.4017 45.0259 34.2842 45.0672 34.2048 45.0117C33.6236 44.6005 32.8678 44.616 32.2994 45.0451C32.2231 45.1032 32.1025 45.0568 32.0581 44.9813C32.0041 44.8917 32.0453 44.7953 32.1215 44.7379C32.782 44.2399 33.7094 44.2285 34.3826 44.7044ZM33.4617 38.622C31.0577 37.277 29.9748 40.0418 28.8252 40.5344C28.7744 40.5555 25.2588 41.4057 24.0362 38.0176C26.3418 40.3152 28.5775 38.1938 29.1523 37.7716C30.8132 36.5517 32.8615 37.6727 33.4617 38.622ZM31.9723 37.2786C31.6198 37.3399 31.2673 37.0219 31.3626 36.6527C31.4515 36.3009 31.9247 36.1566 32.2423 36.1553C32.5884 36.1534 32.9249 36.312 33.1472 36.5738C33.2203 36.6638 33.2998 36.8232 33.4077 36.8832C33.4332 36.8791 33.4617 36.8747 33.4871 36.8709C33.5634 36.8223 33.611 36.7534 33.6586 36.6701C33.7222 36.5649 33.7792 36.4598 33.8554 36.3644C34.0047 36.1812 34.2366 36.0565 34.4716 36.066C34.6685 36.0824 34.8495 36.179 34.9543 36.3505C35.0528 36.5134 35.0464 36.7219 34.948 36.8829C34.8527 37.0408 34.6843 37.1548 34.5033 37.1924C34.3 37.235 34.0968 37.2041 33.8936 37.1646C33.7983 37.1798 33.7031 37.1949 33.6047 37.2101C33.5761 37.2224 33.5475 37.2338 33.5189 37.2388C33.4872 37.2435 33.4586 37.2489 33.4268 37.2483C33.3982 37.248 33.3664 37.2432 33.3378 37.2372C33.3346 37.2369 33.3347 37.2372 33.3347 37.2372C33.1759 37.2126 33.0107 37.1984 32.8551 37.1624C32.8043 37.1507 32.7567 37.1295 32.7059 37.1229C32.6265 37.1125 32.5439 37.1191 32.4645 37.1343C32.2962 37.1671 32.1406 37.2495 31.9723 37.2786ZM32.1375 36.5169C31.9946 36.5359 31.5562 36.6676 31.75 36.8791C31.8325 36.9701 31.9437 36.923 32.0421 36.8877C32.185 36.8362 32.3312 36.7932 32.4805 36.774C32.6202 36.7563 32.744 36.774 32.8742 36.8033C32.6868 36.5965 32.4201 36.48 32.1375 36.5169ZM34.4811 36.4222C34.4779 36.4222 34.4748 36.4219 34.4716 36.4219C34.3827 36.4181 34.3223 36.437 34.2429 36.4879C34.1794 36.5286 34.1191 36.5968 34.0714 36.6695C34.0397 36.719 34.0111 36.7702 33.9793 36.8207C33.9857 36.8217 33.9888 36.8217 33.992 36.8226C34.1 36.8434 34.2048 36.8615 34.316 36.8586C34.4144 36.8561 34.4812 36.8371 34.551 36.7923C34.6082 36.7557 34.6525 36.7032 34.6684 36.6495C34.6684 36.642 34.6717 36.6344 34.6717 36.6271C34.6717 36.6259 34.6717 36.6202 34.6717 36.6095C34.6717 36.5981 34.6748 36.5949 34.6748 36.5943C34.6748 36.5924 34.6717 36.5914 34.6717 36.5854C34.6621 36.5516 34.6526 36.5286 34.6335 36.5093C34.5986 36.4705 34.6018 36.4765 34.5574 36.4481C34.5383 36.4389 34.5351 36.4373 34.551 36.443C34.5383 36.4386 34.5255 36.4348 34.516 36.431C34.5033 36.4279 34.4906 36.4247 34.4811 36.4222ZM9.71069 43.4109V41.0731C9.8536 40.9358 9.99654 40.7993 10.1458 40.6632C11.9845 38.2838 11.7622 35.5285 11.5082 32.34C11.216 28.685 10.8857 24.5431 13.674 20.1505C15.989 16.1495 19.8539 12.8779 24.5571 10.9421C27.412 9.76418 30.4734 9.14209 33.4077 9.14209C35.256 9.14209 37.0566 9.38525 38.7556 9.85894C38.7778 9.86525 38.8001 9.87155 38.8191 9.88103C42.2362 11.1694 44.6497 14.6747 44.7227 18.341C45.0434 18.2937 45.3578 18.2684 45.6627 18.2684C46.8409 18.2684 47.9143 18.6284 48.8511 19.3358C53.332 22.7116 53.6845 33.3912 53.8719 39.1282C53.8941 39.7838 53.9131 40.3497 53.9353 40.8325C54.0242 43.5467 56.2823 45.6473 58.5751 47.3779V49.3743C55.717 47.3097 52.4588 44.736 52.3349 40.8966C52.3095 40.4251 52.2936 39.8633 52.2713 39.2128V39.1815C52.103 34.103 51.7537 23.5358 47.8889 20.621C47.222 20.1189 46.4979 19.8758 45.6691 19.8758C45.2848 19.8758 44.8688 19.9294 44.4369 20.0368C44.3289 20.0747 44.2146 20.0968 44.1003 20.0968C43.897 20.0968 43.7032 20.0337 43.5349 19.92C43.2364 19.7179 43.0746 19.3768 43.1 19.0137C43.3413 15.8147 41.2739 12.5463 38.2919 11.4C36.7739 10.98 35.1576 10.7653 33.4871 10.7653C26.1068 10.7653 18.5233 14.9652 15.0491 20.981L15.0394 20.9937C12.5275 24.9505 12.8229 28.6408 13.1055 32.2111C13.3786 35.6119 13.6358 38.8241 11.3652 41.7113C11.3366 41.7455 11.308 41.7783 11.2731 41.8083C10.7015 42.3309 10.1807 42.8659 9.71069 43.4109ZM19.8856 60.9189C19.8761 60.9189 19.8634 60.9189 19.8538 60.9183C17.2466 60.8204 14.8331 59.5253 13.2357 57.3657C10.8476 54.1427 10.5268 49.1254 12.4894 45.6947L12.5973 45.5049C13.4707 43.9853 16.1319 39.3615 15.1315 36.3559C15.0807 36.1986 15.1665 36.0287 15.3221 35.9766C15.4777 35.9232 15.646 36.0091 15.7 36.1661C16.7829 39.4279 14.1186 44.0608 13.1151 45.8049L13.007 45.9935C11.1556 49.2293 11.4605 53.9646 13.7152 57.0082C15.2046 59.021 17.4498 60.228 19.876 60.3192C19.9967 60.3243 20.0381 60.2419 20.0508 60.1926C20.0603 60.1579 20.0793 60.0398 19.9523 59.9731L20.0635 59.6933L19.9205 59.9577C19.314 59.6314 18.844 59.1082 18.428 58.6465C17.904 58.0604 17.3577 57.4544 16.9512 56.7445C16.8972 56.6545 16.8465 56.5623 16.7957 56.4698C16.6178 56.1407 16.4495 55.8297 16.1954 55.6206C16.0684 55.5161 16.0493 55.3272 16.1509 55.1987C16.2557 55.0705 16.4463 55.0516 16.5733 55.1564C16.9163 55.4397 17.1228 55.8173 17.3229 56.183C17.3705 56.2708 17.4181 56.3583 17.4657 56.4442C17.8436 57.0994 18.3677 57.6818 18.8726 58.2451C19.2727 58.691 19.6856 59.1521 20.2032 59.4287L20.0889 59.7076L20.2254 59.4417C20.562 59.6166 20.724 59.9801 20.6256 60.3461C20.5367 60.6922 20.2413 60.9189 19.8856 60.9189Z" fill="#FF7336"/>
<path fill-rule="evenodd" clip-rule="evenodd" d="M1.60504 2.41778C1.60504 2.41146 1.60504 2.40833 1.60504 2.40201C1.60822 2.29464 1.64953 2.19357 1.71622 2.11147C1.80514 2.00726 1.93849 1.94409 2.0814 1.94409H2.0845H65.4143C65.4175 1.94409 65.4206 1.94409 65.4237 1.94409C65.5667 1.94725 65.7 2.01359 65.7889 2.12411C65.8556 2.20938 65.8906 2.31041 65.8906 2.41778C65.8906 2.42093 65.8906 2.42726 65.8906 2.42726L64.9665 70.6106C64.9665 70.6135 64.9665 70.616 64.9665 70.6188C64.9665 70.7294 64.9251 70.8339 64.8553 70.9166C64.7664 71.0221 64.6361 71.0849 64.4932 71.0862H64.4901L3.27228 71.5574L3.26903 71.5577C3.11977 71.5611 2.97687 71.4961 2.88478 71.3808C2.82127 71.3006 2.78313 71.2027 2.77996 71.1001C2.77996 71.0973 2.77996 71.0947 2.77996 71.0922C1.61765 36.955 0.436389 36.4953 1.60504 2.41778ZM3.39928 2.89146L8.85192 7.39462H58.2435L64.0328 2.89146H3.39928ZM3.71685 70.1092L9.47124 65.511C9.76023 43.0192 8.15966 40.1764 8.34067 8.20934C5.76836 6.34303 4.98085 5.54727 2.84679 3.69674C2.75787 3.62095 2.66892 3.54516 2.57682 3.46306L3.71685 70.1092ZM63.1404 70.1407C61.5621 68.8517 59.733 67.2389 58.885 66.3756C58.7358 66.2224 58.6151 66.0854 58.523 65.9707L10.1127 66.2133L4.63141 70.5936C19.8207 70.4038 20.1829 70.1811 36.1916 70.1811C39.5737 70.1811 57.9545 70.1493 63.1404 70.1407ZM64.9189 3.4062L58.7263 8.24095C58.7263 8.24411 58.723 8.24412 58.723 8.24412C58.6563 12.8831 59.463 45.8294 59.2439 65.2867L63.9852 69.524C63.493 49.3523 64.6521 16.4641 64.9189 3.4062ZM9.29338 8.34199C9.11872 40.0706 10.7002 43.0362 10.427 65.2643L58.2943 65.0243C58.5007 45.698 57.7164 13.3978 57.7672 8.34199H9.29338Z" fill="#FF7336"/>
</g>
<defs>
<clipPath id="clip0_458_683">
<rect width="67.3247" height="72" fill="white" transform="translate(0 0.838867)"/>
</clipPath>
</defs>
</svg>
