<svg xmlns="http://www.w3.org/2000/svg" width="41" height="30" viewBox="0 0 41 30" fill="none">
<path d="M40.2721 14.7956C40.1925 16.2425 40.0225 17.3336 39.7703 18.0425C39.5579 18.6345 39.2287 19.1018 38.8225 19.3885C37.8402 20.0867 36.3243 20.5965 34.3199 20.9018C32.9287 21.1142 31.5243 21.1965 30.4624 21.2283C30.4252 21.3558 30.388 21.4752 30.3482 21.5867C30.1385 22.1814 29.8093 22.646 29.4031 22.9354C28.4128 23.6389 26.8464 24.1487 24.7544 24.4487C23.4402 24.6398 22.1155 24.7248 21.0854 24.7619C20.9287 25.6673 20.6102 26.4743 20.1323 27.1752C19.1898 28.5584 17.6261 29.477 15.6137 29.8301C14.9633 29.9416 14.2517 30 13.5004 30C11.9792 30 10.6703 29.7637 10.2402 29.6867L10.1473 29.6681H10.1287C9.36414 29.5274 8.7721 28.8929 8.68715 28.1204C8.60485 27.3398 9.05617 26.5911 9.78095 26.2991C11.0341 25.7947 11.7482 25.4602 11.942 25.131C12.0721 24.9159 12.1332 24.515 12.1703 23.9655C10.0225 23.7106 6.35883 23.2566 4.36768 22.9009C2.94467 22.6487 2.62343 22.4496 2.48007 22.3619C2.13759 22.1549 1.84556 21.831 1.63848 21.4301C1.41281 21 1.24025 20.3947 1.1075 19.5796C0.579184 16.3168 0.664139 9.51239 0.701308 7.50265C0.714582 6.86549 0.929626 5.85929 1.37299 5.16637C1.74202 4.5823 2.2783 4.18673 2.8783 4.05664C3.03494 4.02478 3.15971 3.99292 3.26856 3.96903C4.15529 3.75664 4.40219 3.74336 7.64113 3.74071L10.511 3.69823C10.527 3.27876 10.5615 2.84071 10.6358 2.46903C10.7181 2.03894 10.8588 1.67788 11.05 1.38584C11.1296 1.26372 11.2146 1.16018 11.3075 1.06726L11.3367 1.03805L11.3686 1.0115L11.5969 0.809734L11.7296 0.738053L11.8252 0.684956L11.9341 0.626549L12.0482 0.586726L12.1597 0.549557L12.2287 0.528319L12.3004 0.512389C12.4571 0.477876 12.5792 0.448673 12.688 0.422124C13.5774 0.209735 13.8243 0.19646 17.0633 0.193805L26.3287 0.0610619C27.5075 0.0451327 28.5615 0.0292035 29.496 0.0185841C30.4305 0.0079646 31.2482 0 31.9464 0C33.1677 0 34.0199 0.0212389 34.7102 0.0690265C35.6394 0.130088 36.4783 0.223009 37.3146 0.724779C37.9119 1.08584 38.4243 1.60089 38.9261 2.34956C39.0615 2.55133 39.4756 3.16991 39.8128 5.26726C40.2376 7.92212 40.4314 11.931 40.2721 14.7956Z" fill="#264A26"/>
<path fill-rule="evenodd" clip-rule="evenodd" d="M4.05971 20.3761C4.18448 20.4478 4.59068 20.5221 5.16413 20.623C7.78183 21.0902 13.5562 21.746 14.2172 21.823C14.419 21.8442 14.5677 22.0194 14.5597 22.2212C14.4907 24.1088 14.4349 25.1655 13.9783 25.9327C13.6385 26.5088 13.0756 26.9363 12.0907 27.4088C12.9854 27.5097 14.204 27.5708 15.3827 27.3663C16.5641 27.1593 17.7137 26.6867 18.4066 25.6672C18.8712 24.9849 19.1287 24.0637 19.0756 22.8318C19.0703 22.7256 19.1101 22.6221 19.1818 22.5478C19.2562 22.4708 19.357 22.4256 19.4606 22.4283C19.8801 22.4283 22.142 22.4336 24.3349 22.115C25.7473 21.9106 27.1358 21.584 27.9455 21.0079C27.9801 20.9814 28.004 20.9336 28.0332 20.8752C28.0863 20.7663 28.134 20.6283 28.1792 20.4663C28.3278 19.9088 28.4234 19.0911 28.4765 18.1327C28.6252 15.4566 28.4367 11.7 28.0517 9.30528C27.8978 8.34422 27.7278 7.61413 27.5181 7.30086C27.2022 6.82829 26.9155 6.53626 26.6101 6.35042C26.1588 6.07962 25.6703 6.05307 25.0172 6.00794C23.5809 5.91236 21.3907 5.94688 17.0314 6.00794L7.99953 6.13803H7.99422C4.4128 6.13803 4.89599 6.15927 3.79156 6.3982C3.75174 6.40882 3.72519 6.44599 3.69599 6.48581C3.65086 6.54422 3.61103 6.6159 3.57387 6.69024C3.41457 7.02741 3.32962 7.47608 3.32431 7.74157C3.31103 8.46635 3.19953 14.161 3.52608 17.7504C3.60838 18.6478 3.71457 19.4097 3.86059 19.9221C3.90307 20.0681 3.94555 20.1929 3.99599 20.2885C4.01457 20.323 4.04643 20.3681 4.0544 20.3761H4.05971ZM29.1933 18.9796C29.8756 18.9796 31.7712 18.9504 33.6349 18.669C34.9783 18.4646 36.3084 18.1354 37.1181 17.5593C37.1526 17.5327 37.1765 17.4849 37.2057 17.4265C37.2588 17.3177 37.3066 17.1796 37.3517 17.0177C37.5004 16.4602 37.596 15.6425 37.6491 14.684C37.7978 12.0079 37.6093 8.2513 37.2243 5.85661C37.0703 4.89555 36.9004 4.16546 36.6907 3.85219C36.3748 3.37962 36.088 3.08758 35.7827 2.90174C35.3314 2.63095 34.8429 2.6044 34.1898 2.55927C32.7535 2.46369 30.5632 2.4982 26.204 2.55927L17.1721 2.68935H17.1668C13.6703 2.68935 14.0473 2.71059 13.0411 2.9336C13.0199 2.9867 12.9748 3.10882 12.9562 3.20705C12.8314 3.84688 12.8632 4.869 12.8659 5.29643L17.0208 5.23803C21.4146 5.17431 23.6234 5.14245 25.0703 5.23803C25.8668 5.29112 26.4588 5.36015 27.0084 5.68935C27.3933 5.92033 27.7624 6.27873 28.1606 6.87342C28.4048 7.23714 28.6385 8.07342 28.8163 9.18581C29.2066 11.6256 29.4004 15.454 29.2491 18.1805C29.2332 18.4593 29.2146 18.7274 29.1907 18.9796H29.1933ZM12.0933 5.30705C12.0933 4.87431 12.0615 3.7513 12.1995 3.05573C12.2473 2.81413 12.319 2.61236 12.4066 2.47962C12.4332 2.4398 12.4597 2.40528 12.4889 2.37608L12.6004 2.27785L12.696 2.22741L12.8048 2.19024C13.9517 1.94068 13.45 1.91413 17.1668 1.91148L26.196 1.78139C30.5898 1.71767 32.7986 1.68581 34.2455 1.78139C35.0447 1.83449 35.634 1.90351 36.1836 2.23272C36.5686 2.46369 36.9376 2.8221 37.3358 3.41679C37.5801 3.7805 37.8137 4.61679 37.9916 5.72918C38.3818 8.169 38.5756 11.9973 38.4243 14.7239C38.3579 15.9292 38.2199 16.9248 38.0101 17.5115C37.888 17.8486 37.7287 18.0743 37.5694 18.1858C36.6827 18.8177 35.2305 19.2053 33.7544 19.4283C31.7526 19.7336 29.7137 19.7469 29.1084 19.7469C29.0367 20.2407 28.9491 20.6575 28.8402 20.9601C28.7208 21.2973 28.5588 21.523 28.3995 21.6345C27.5128 22.2663 25.9995 22.654 24.4517 22.877C22.604 23.1451 20.711 23.1876 19.8588 23.1929C19.8482 24.4301 19.5402 25.3725 19.0491 26.0947C18.234 27.292 16.904 27.8761 15.5181 28.1177C13.3199 28.5026 10.9969 28.0194 10.6438 27.961C10.4739 27.9292 10.3438 27.7911 10.3252 27.6212C10.3066 27.4486 10.4048 27.2867 10.5668 27.223C12.1199 26.5964 12.9137 26.2088 13.3172 25.5318C13.6969 24.892 13.7261 24.0212 13.7765 22.5451C12.3163 22.3778 7.39422 21.7991 5.03139 21.377C4.3013 21.2469 3.79687 21.1141 3.65086 21.0239C3.5367 20.9548 3.41723 20.8274 3.319 20.6363C3.16767 20.3469 3.03758 19.861 2.9367 19.2371C2.40307 15.9504 2.54378 8.55396 2.55971 7.72033C2.56767 7.31148 2.72165 6.57608 3.00838 6.13006C3.17829 5.86192 3.39864 5.68935 3.63758 5.63891C4.78448 5.38935 4.28272 5.36281 7.99953 5.36015L12.0986 5.30174L12.0933 5.30705ZM26.2332 10.4389C26.2252 10.2186 26.4004 10.0354 26.6181 10.0301C26.8385 10.0221 27.0217 10.1947 27.0296 10.415C27.1332 13.7734 27.1411 13.7203 27.0349 17.0681C27.027 17.2858 26.8438 17.4584 26.6234 17.4531C26.4031 17.4451 26.2305 17.2619 26.2385 17.0416C26.3447 13.7203 26.334 13.7734 26.2332 10.4389ZM30.9774 18.4885C30.7597 18.5177 30.5579 18.3663 30.5261 18.1486C30.4942 17.9309 30.6455 17.7292 30.8632 17.6973C32.342 17.4902 33.6137 17.4345 34.5774 17.2354C35.196 17.1079 35.6818 16.9301 35.9739 16.5557C36.2686 16.1761 36.3509 15.6132 36.2473 14.7637C36.2208 14.546 36.3748 14.3469 36.5951 14.3203C36.8128 14.2938 37.0119 14.4504 37.0385 14.6681C37.1765 15.7991 36.996 16.5371 36.6031 17.0442C36.2075 17.5513 35.5783 17.8407 34.7394 18.0159C33.7597 18.2177 32.4747 18.2761 30.9747 18.4885H30.9774Z" fill="#FFE7DE"/>
</svg>
