<svg xmlns="http://www.w3.org/2000/svg" width="57" height="46" viewBox="0 0 57 46" fill="none">
  <g filter="url(#filter0_d_764_737)">
    <g filter="url(#filter1_d_764_737)">
      <path fill-rule="evenodd" clip-rule="evenodd" d="M19.4092 4.97702C19.4092 4.97702 19.9791 4.54158 20.32 4.49364C21.2681 4.35968 21.0285 4.17911 25.1006 4.17431L34.4219 4.04115C38.707 3.98016 45.2373 3.72423 46.6328 5.91074C48.3453 8.59581 48.8326 18.2822 47.9005 22.072C47.1841 25.0013 39.3355 25.2279 38.5472 25.2506C37.6763 28.4965 29.9211 28.7756 29.1168 28.8047C27.9982 35.4164 19.0976 33.8994 18.1495 33.7378L17.6142 33.5532L17.1775 33.2166L16.8712 32.7601L16.7193 32.2155L16.7513 31.6511L16.9564 31.1395L17.3106 30.7185L17.7953 30.425C19.5956 29.7019 20.1683 29.9429 20.2455 28.0092C19.4572 27.9157 11.3636 26.9561 10.4475 26.3907L9.96803 25.9816L9.62186 25.473C8.83887 23.9722 7.70694 10.2454 9.95737 8.48262L10.3649 8.22668L10.8442 8.05944C12.104 7.78486 11.5527 7.74491 15.6274 7.74012L18.5543 7.6983C18.5623 7.50681 18.6129 6.07932 19.0817 5.36291L19.3027 5.07848C19.3374 5.0428 19.3719 5.00898 19.4092 4.97702Z" fill="#264A26"/>
    </g>
    <path fill-rule="evenodd" clip-rule="evenodd" d="M19.8133 8.98379C19.8133 8.53579 19.7792 7.37553 19.9197 6.65835C19.9728 6.40739 20.0449 6.20161 20.136 6.06531C20.1626 6.02468 20.1893 5.989 20.2196 5.95711L20.3335 5.85763L20.4321 5.80373L20.5422 5.76728C21.7268 5.50873 21.2106 5.48292 25.0528 5.47836L34.3811 5.34546C38.9219 5.28054 41.1998 5.24714 42.6957 5.34889C43.5196 5.4047 44.1309 5.47303 44.7004 5.81511C45.0991 6.05354 45.4787 6.42524 45.8887 7.03764C46.1431 7.41237 46.3823 8.27723 46.5683 9.42686C46.9708 11.9486 47.172 15.9024 47.0125 18.7188C46.9442 19.9637 46.8037 20.9918 46.5872 21.597C46.462 21.9467 46.2988 22.1783 46.1318 22.296C45.213 22.9471 43.7132 23.3477 42.1907 23.5789C40.1215 23.8929 38.0144 23.908 37.388 23.908C37.3158 24.421 37.2247 24.8489 37.1108 25.1628C36.9855 25.5125 36.8222 25.7441 36.6552 25.8618C35.7402 26.5122 34.1798 26.9142 32.5777 27.1451C30.6679 27.4211 28.7127 27.4659 27.8319 27.4727C27.8243 28.7507 27.5015 29.726 26.9965 30.4698C26.1537 31.706 24.7793 32.3123 23.348 32.5625C21.0776 32.9592 18.6782 32.46 18.3137 32.3977C18.1353 32.3677 18.0024 32.2242 17.9834 32.0465C17.9644 31.8685 18.0631 31.6999 18.2301 31.6331C19.8361 30.9888 20.6562 30.589 21.07 29.8885C21.4649 29.2268 21.4953 28.3258 21.5485 26.8003C20.0374 26.6264 14.9536 26.0308 12.5123 25.5957C11.7568 25.4613 11.2368 25.3223 11.0849 25.2297C10.9672 25.1564 10.8456 25.0269 10.743 24.8303C10.5874 24.5315 10.4509 24.0292 10.3484 23.3837C9.79785 19.9876 9.94202 12.3488 9.95721 11.4839C9.9648 11.0621 10.1243 10.3031 10.4205 9.8407C10.5951 9.56507 10.8229 9.38663 11.0697 9.3331C12.2542 9.07455 11.734 9.04872 15.5762 9.04416L19.8133 8.98379ZM37.4792 23.1089C38.1854 23.1073 40.1444 23.0811 42.0693 22.7892C43.4589 22.5785 44.8332 22.2375 45.6685 21.6445C45.7065 21.6187 45.7291 21.5686 45.7595 21.5082C45.8165 21.3966 45.8621 21.2542 45.9076 21.086C46.0633 20.5108 46.162 19.666 46.2152 18.6744C46.3708 15.91 46.1735 12.0287 45.7786 9.55329C45.6192 8.56123 45.4444 7.80607 45.228 7.48298C44.8977 6.99549 44.6055 6.68986 44.2904 6.50003C43.8234 6.22022 43.3183 6.19175 42.6425 6.14581C41.158 6.0452 38.8952 6.07974 34.3924 6.14428L25.0604 6.27718C25.0566 6.27756 25.0566 6.27755 25.0528 6.27755C21.4422 6.28172 21.8331 6.29804 20.7929 6.53002C20.7701 6.58659 20.7245 6.71076 20.7055 6.81289C20.5764 7.47236 20.6106 8.53011 20.6106 8.97242L24.9047 8.91129C29.4454 8.84636 31.7273 8.81294 33.2232 8.91469C34.047 8.9705 34.6543 9.03885 35.2238 9.38093C35.6225 9.61936 36.0022 9.99104 36.416 10.6034C36.6666 10.9782 36.9097 11.8431 37.0919 12.9927C37.4944 15.5144 37.6955 19.4682 37.5398 22.2846C37.5246 22.5716 37.502 22.8473 37.4792 23.1089ZM11.51 24.5539C11.6391 24.6267 12.0606 24.7038 12.6529 24.809C15.3561 25.2908 21.3206 25.9708 22.004 26.0486C22.2128 26.0721 22.3647 26.2513 22.3571 26.4598C22.2888 28.4082 22.228 29.5024 21.7572 30.2959C21.4079 30.8889 20.8271 31.332 19.8096 31.8202C20.7322 31.9254 21.9926 31.9884 23.2114 31.7755C24.4301 31.5621 25.6184 31.0735 26.336 30.0199C26.8182 29.3152 27.0801 28.363 27.0269 27.0911C27.0231 26.9822 27.0611 26.8759 27.137 26.7973C27.213 26.7187 27.3194 26.6743 27.4257 26.6747C27.8623 26.6758 30.1972 26.6819 32.4638 26.3546C33.9255 26.1435 35.3567 25.8037 36.1958 25.2103C36.23 25.1845 36.2527 25.1344 36.2831 25.0744C36.34 24.9624 36.3896 24.82 36.4351 24.6518C36.587 24.0766 36.6855 23.2319 36.7425 22.2402C36.8943 19.4758 36.7008 15.5945 36.3022 13.1191C36.1427 12.1274 35.968 11.3719 35.7516 11.0488C35.4251 10.5613 35.1291 10.2557 34.8139 10.0659C34.3469 9.78604 33.842 9.75756 33.17 9.712C31.6817 9.61101 29.4226 9.64594 24.916 9.7101L15.5838 9.84337H15.5801C11.8783 9.84755 12.3794 9.865 11.2404 10.1137C11.1987 10.1224 11.1721 10.1634 11.1379 10.2037C11.0924 10.2636 11.0507 10.3358 11.0128 10.4144C10.8495 10.7621 10.7621 11.225 10.7545 11.4995C10.7431 12.2482 10.6292 18.1307 10.9633 21.8415C11.0506 22.7691 11.1607 23.5576 11.3125 24.085C11.3543 24.2365 11.4 24.3636 11.4494 24.4612C11.4683 24.4969 11.5024 24.544 11.51 24.5539Z" fill="#FFE7DE"/>
    <path fill-rule="evenodd" clip-rule="evenodd" d="M39.0613 7.53837C38.8403 7.53837 38.6619 7.35994 38.6619 7.13889C38.6619 6.92051 38.8403 6.73941 39.0613 6.73941C39.3863 6.73941 41.1679 6.47574 43.0855 6.93648C44.0069 7.15753 44.5555 7.90322 44.8565 8.75012C45.2586 9.882 45.2134 11.1763 45.2188 11.2536C45.2321 11.472 45.0642 11.6611 44.8458 11.6744C44.6248 11.6877 44.4357 11.5199 44.4224 11.3015C44.4171 11.2323 44.4704 10.0498 44.1029 9.01911C43.8925 8.42521 43.5436 7.86862 42.8991 7.71416C41.0695 7.27206 39.3703 7.53837 39.0613 7.53837Z" fill="#FFE7DE"/>
    <path fill-rule="evenodd" clip-rule="evenodd" d="M37.4341 6.80061C37.4474 6.78196 37.4634 6.766 37.4793 6.75002C37.6338 6.59289 37.8869 6.59289 38.044 6.74735L38.1132 6.8299L38.1691 6.92844L38.209 7.10422L38.1825 7.28267L38.1371 7.37054L38.0758 7.44779L37.9188 7.54899L37.7617 7.57828L37.5673 7.54632L37.4154 7.46641C37.2369 7.33858 37.1943 7.08824 37.3221 6.90714C37.3541 6.86453 37.3915 6.82724 37.4341 6.80061Z" fill="#FFE7DE"/>
  </g>
  <defs>
    <filter id="filter0_d_764_737" x="0.633423" y="0" width="55.7333" height="46" filterUnits="userSpaceOnUse" color-interpolation-filters="sRGB">
      <feFlood flood-opacity="0" result="BackgroundImageFix"/>
      <feColorMatrix in="SourceAlpha" type="matrix" values="0 0 0 0 0 0 0 0 0 0 0 0 0 0 0 0 0 0 127 0" result="hardAlpha"/>
      <feOffset dy="4"/>
      <feGaussianBlur stdDeviation="4"/>
      <feComposite in2="hardAlpha" operator="out"/>
      <feColorMatrix type="matrix" values="0 0 0 0 0.119097 0 0 0 0 0.204167 0 0 0 0 0.119097 0 0 0 0.16 0"/>
      <feBlend mode="normal" in2="BackgroundImageFix" result="effect1_dropShadow_764_737"/>
      <feBlend mode="normal" in="SourceGraphic" in2="effect1_dropShadow_764_737" result="shape"/>
    </filter>
    <filter id="filter1_d_764_737" x="0.633423" y="0" width="55.7333" height="46" filterUnits="userSpaceOnUse" color-interpolation-filters="sRGB">
      <feFlood flood-opacity="0" result="BackgroundImageFix"/>
      <feColorMatrix in="SourceAlpha" type="matrix" values="0 0 0 0 0 0 0 0 0 0 0 0 0 0 0 0 0 0 127 0" result="hardAlpha"/>
      <feOffset dy="4"/>
      <feGaussianBlur stdDeviation="4"/>
      <feComposite in2="hardAlpha" operator="out"/>
      <feColorMatrix type="matrix" values="0 0 0 0 0.119097 0 0 0 0 0.204167 0 0 0 0 0.119097 0 0 0 0.16 0"/>
      <feBlend mode="normal" in2="BackgroundImageFix" result="effect1_dropShadow_764_737"/>
      <feBlend mode="normal" in="SourceGraphic" in2="effect1_dropShadow_764_737" result="shape"/>
    </filter>
  </defs>
</svg>
