<svg xmlns="http://www.w3.org/2000/svg" width="41" height="30" viewBox="0 0 41 30" fill="none">
  <path fill-rule="evenodd" clip-rule="evenodd" d="M11.4091 0.977019C11.4091 0.977019 11.979 0.541581 12.3199 0.493643C13.268 0.359682 13.0284 0.179106 17.1005 0.174312L26.4218 0.0411502C30.7069 -0.0198377 37.2372 -0.275769 38.6327 1.91074C40.3452 4.59581 40.8325 14.2822 39.9003 18.072C39.1839 21.0013 31.3354 21.2279 30.547 21.2506C29.6762 24.4965 21.9209 24.7756 21.1166 24.8047C19.9981 31.4164 11.0975 29.8994 10.1494 29.7378L9.61403 29.5532L9.17735 29.2166L8.87111 28.7601L8.71922 28.2155L8.75121 27.6511L8.95629 27.1395L9.31052 26.7185L9.79518 26.425C11.5955 25.7019 12.1682 25.9429 12.2454 24.0092C11.4571 23.9157 3.36352 22.9561 2.44737 22.3907L1.96791 21.9816L1.62174 21.473C0.83875 19.9722 -0.293185 6.24541 1.95724 4.48262L2.36479 4.22668L2.84412 4.05944C4.10383 3.78486 3.55253 3.74491 7.62727 3.74012L10.5542 3.6983C10.5622 3.50681 10.6128 2.07932 11.0815 1.36291L11.3026 1.07848C11.3372 1.0428 11.3718 1.00898 11.4091 0.977019Z" fill="#FFE7DE"/>
  <path fill-rule="evenodd" clip-rule="evenodd" d="M11.8132 4.98367C11.8132 4.53567 11.7791 3.37541 11.9196 2.65823C11.9727 2.40727 12.0448 2.20148 12.1359 2.06518C12.1625 2.02456 12.1892 1.98888 12.2195 1.95699L12.3334 1.85751L12.432 1.80361L12.5421 1.76716C13.7266 1.50861 13.2104 1.48279 17.0526 1.47824L26.3809 1.34534C30.9217 1.28042 33.1997 1.24702 34.6956 1.34877C35.5194 1.40458 36.1308 1.47291 36.7003 1.81499C37.0989 2.05342 37.4786 2.42512 37.8886 3.03752C38.143 3.41225 38.3822 4.27711 38.5682 5.42674C38.9707 7.94847 39.1719 11.9023 39.0124 14.7187C38.9441 15.9636 38.8035 16.9917 38.5871 17.5969C38.4618 17.9466 38.2987 18.1782 38.1316 18.2959C37.2129 18.947 35.713 19.3475 34.1906 19.5788C32.1214 19.8927 30.0143 19.9079 29.3879 19.9079C29.3157 20.4208 29.2246 20.8487 29.1107 21.1627C28.9854 21.5124 28.8221 21.744 28.655 21.8617C27.74 22.512 26.1797 22.9141 24.5775 23.1449C22.6678 23.421 20.7126 23.4658 19.8317 23.4726C19.8241 24.7505 19.5013 25.7259 18.9964 26.4697C18.1535 27.7059 16.7792 28.3122 15.3479 28.5624C13.0775 28.9591 10.6781 28.4599 10.3136 28.3976C10.1352 28.3676 10.0022 28.2241 9.98325 28.0464C9.96426 27.8683 10.0629 27.6998 10.23 27.633C11.836 26.9887 12.656 26.5889 13.0699 25.8884C13.4647 25.2267 13.4952 24.3257 13.5484 22.8002C12.0373 22.6263 6.95346 22.0306 4.51222 21.5955C3.75669 21.4611 3.23664 21.3222 3.08477 21.2295C2.96707 21.1563 2.84543 21.0268 2.74292 20.8301C2.58726 20.5313 2.45075 20.029 2.34824 19.3836C1.79773 15.9875 1.9419 8.34865 1.95708 7.48377C1.96468 7.06196 2.12422 6.30301 2.42036 5.84058C2.595 5.56495 2.82279 5.38651 3.06957 5.33298C4.25412 5.07443 3.73384 5.04859 7.57605 5.04404L11.8132 4.98367ZM29.4791 19.1087C30.1852 19.1072 32.1443 19.081 34.0692 18.789C35.4587 18.5783 36.8331 18.2374 37.6684 17.6444C37.7063 17.6186 37.729 17.5684 37.7594 17.5081C37.8163 17.3964 37.862 17.2541 37.9075 17.0859C38.0632 16.5107 38.1619 15.6659 38.2151 14.6742C38.3707 11.9099 38.1733 8.02858 37.7785 5.55317C37.619 4.56111 37.4443 3.80595 37.2279 3.48286C36.8976 2.99537 36.6054 2.68974 36.2902 2.49991C35.8232 2.22009 35.3182 2.19163 34.6424 2.14569C33.1579 2.04508 30.8951 2.07961 26.3923 2.14416L17.0603 2.27705C17.0565 2.27743 17.0564 2.27742 17.0526 2.27742C13.442 2.2816 13.833 2.29792 12.7927 2.52989C12.7699 2.58646 12.7244 2.71064 12.7054 2.81277C12.5763 3.47224 12.6105 4.52998 12.6105 4.97229L16.9045 4.91116C21.4453 4.84624 23.7272 4.81282 25.223 4.91457C26.0469 4.97038 26.6542 5.03873 27.2237 5.38081C27.6223 5.61924 28.0021 5.99092 28.4159 6.60332C28.6665 6.97805 28.9096 7.84294 29.0918 8.99256C29.4942 11.5143 29.6954 15.4681 29.5397 18.2845C29.5245 18.5715 29.5018 18.8471 29.4791 19.1087ZM3.50985 20.5537C3.63894 20.6266 4.06046 20.7037 4.65274 20.8089C7.35595 21.2907 13.3204 21.9706 14.0038 22.0485C14.2127 22.072 14.3646 22.2512 14.357 22.4597C14.2887 24.4081 14.2279 25.5023 13.7571 26.2958C13.4078 26.8888 12.827 27.3319 11.8095 27.8201C12.732 27.9253 13.9925 27.9883 15.2112 27.7753C16.43 27.562 17.6183 27.0733 18.3359 26.0198C18.818 25.3151 19.0799 24.3629 19.0268 23.091C19.023 22.9821 19.061 22.8758 19.1369 22.7972C19.2128 22.7186 19.3192 22.6742 19.4256 22.6745C19.8622 22.6757 22.1971 22.6817 24.4637 22.3545C25.9254 22.1434 27.3566 21.8036 28.1957 21.2102C28.2298 21.1844 28.2526 21.1342 28.283 21.0743C28.3399 20.9623 28.3894 20.8199 28.435 20.6517C28.5869 20.0765 28.6854 19.2317 28.7424 18.2401C28.8942 15.4757 28.7007 11.5944 28.3021 9.11899C28.1426 8.12731 27.9679 7.37177 27.7515 7.04868C27.425 6.56119 27.1289 6.25556 26.8138 6.06573C26.3468 5.78592 25.8418 5.75744 25.1698 5.71188C23.6816 5.61089 21.4225 5.64582 16.9158 5.70998L7.58365 5.84325H7.57994C3.87821 5.84742 4.3793 5.86488 3.24031 6.11356C3.19854 6.12229 3.17196 6.1633 3.13779 6.20354C3.09223 6.26353 3.05062 6.33566 3.01266 6.41425C2.8494 6.76202 2.76201 7.22485 2.75442 7.49934C2.74303 8.24804 2.62905 14.1306 2.96316 17.8414C3.05048 18.7689 3.16055 19.5575 3.31242 20.0848C3.35418 20.2363 3.39988 20.3635 3.44923 20.4611C3.46822 20.4968 3.50226 20.5439 3.50985 20.5537Z" fill="#FF7336"/>
  <path fill-rule="evenodd" clip-rule="evenodd" d="M31.0611 3.53825C30.8401 3.53825 30.6616 3.35982 30.6616 3.13877C30.6616 2.92038 30.8401 2.73928 31.0611 2.73928C31.386 2.73928 33.1677 2.47562 35.0852 2.93636C36.0067 3.15741 36.5553 3.9031 36.8562 4.75C37.2584 5.88188 37.2132 7.17621 37.2185 7.25345C37.2318 7.47183 37.064 7.66094 36.8456 7.67426C36.6245 7.68757 36.4355 7.51978 36.4222 7.3014C36.4168 7.23215 36.4702 6.04966 36.1026 5.01899C35.8923 4.42509 35.5434 3.8685 34.8989 3.71403C33.0692 3.27194 31.37 3.53825 31.0611 3.53825Z" fill="#FF7336"/>
  <path fill-rule="evenodd" clip-rule="evenodd" d="M29.4338 2.80048C29.4472 2.78184 29.4631 2.76588 29.4791 2.7499C29.6336 2.59277 29.8866 2.59276 30.0437 2.74723L30.1129 2.82978L30.1688 2.92831L30.2088 3.1041L30.1822 3.28254L30.1368 3.37042L30.0756 3.44766L29.9185 3.54887L29.7614 3.57816L29.567 3.5462L29.4151 3.46629C29.2367 3.33846 29.194 3.08812 29.3219 2.90702C29.3538 2.86441 29.3912 2.82712 29.4338 2.80048Z" fill="#FF7336"/>
</svg>
