<svg xmlns="http://www.w3.org/2000/svg" width="41" height="30" viewBox="0 0 41 30" fill="none">
  <path fill-rule="evenodd" clip-rule="evenodd" d="M11.4091 0.977019C11.4091 0.977019 11.979 0.541581 12.3199 0.493643C13.268 0.359682 13.0284 0.179106 17.1005 0.174312L26.4218 0.0411502C30.7069 -0.0198377 37.2372 -0.275769 38.6327 1.91074C40.3452 4.59581 40.8325 14.2822 39.9003 18.072C39.1839 21.0013 31.3354 21.2279 30.547 21.2506C29.6762 24.4965 21.9209 24.7756 21.1166 24.8047C19.9981 31.4164 11.0975 29.8994 10.1494 29.7378L9.61403 29.5532L9.17735 29.2166L8.87111 28.7601L8.71922 28.2155L8.75121 27.6511L8.95629 27.1395L9.31052 26.7185L9.79518 26.425C11.5955 25.7019 12.1682 25.9429 12.2454 24.0092C11.4571 23.9157 3.36352 22.9561 2.44737 22.3907L1.96791 21.9816L1.62174 21.473C0.83875 19.9722 -0.293185 6.24541 1.95724 4.48262L2.36479 4.22668L2.84412 4.05944C4.10383 3.78486 3.55253 3.74491 7.62727 3.74012L10.5542 3.6983C10.5622 3.50681 10.6128 2.07932 11.0815 1.36291L11.3026 1.07848C11.3372 1.0428 11.3718 1.00898 11.4091 0.977019Z" fill="#FFE7DE"/>
  <path fill-rule="evenodd" clip-rule="evenodd" d="M11.8132 4.98379C11.8132 4.53579 11.7791 3.37553 11.9196 2.65835C11.9727 2.40739 12.0448 2.20161 12.1359 2.06531C12.1625 2.02468 12.1892 1.989 12.2195 1.95711L12.3334 1.85763L12.432 1.80373L12.5421 1.76728C13.7266 1.50873 13.2104 1.48292 17.0526 1.47836L26.3809 1.34546C30.9217 1.28054 33.1997 1.24714 34.6956 1.34889C35.5194 1.4047 36.1308 1.47303 36.7003 1.81511C37.0989 2.05354 37.4786 2.42524 37.8886 3.03764C38.143 3.41237 38.3822 4.27723 38.5682 5.42686C38.9707 7.94859 39.1719 11.9024 39.0124 14.7188C38.9441 15.9637 38.8035 16.9918 38.5871 17.597C38.4618 17.9467 38.2987 18.1783 38.1316 18.296C37.2129 18.9471 35.713 19.3477 34.1906 19.5789C32.1214 19.8929 30.0143 19.908 29.3879 19.908C29.3157 20.421 29.2246 20.8489 29.1107 21.1628C28.9854 21.5125 28.8221 21.7441 28.655 21.8618C27.74 22.5122 26.1797 22.9142 24.5775 23.1451C22.6678 23.4211 20.7126 23.4659 19.8317 23.4727C19.8241 24.7507 19.5013 25.726 18.9964 26.4698C18.1535 27.706 16.7792 28.3123 15.3479 28.5625C13.0775 28.9592 10.6781 28.46 10.3136 28.3977C10.1352 28.3677 10.0022 28.2242 9.98325 28.0465C9.96426 27.8685 10.0629 27.6999 10.23 27.6331C11.836 26.9888 12.656 26.589 13.0699 25.8885C13.4647 25.2268 13.4952 24.3258 13.5484 22.8003C12.0373 22.6264 6.95346 22.0308 4.51222 21.5957C3.75669 21.4613 3.23664 21.3223 3.08477 21.2297C2.96707 21.1564 2.84543 21.0269 2.74292 20.8303C2.58726 20.5315 2.45075 20.0292 2.34824 19.3837C1.79773 15.9876 1.9419 8.34877 1.95708 7.48389C1.96468 7.06209 2.12422 6.30314 2.42036 5.8407C2.595 5.56507 2.82279 5.38663 3.06957 5.3331C4.25412 5.07455 3.73384 5.04872 7.57605 5.04416L11.8132 4.98379ZM29.4791 19.1089C30.1852 19.1073 32.1443 19.0811 34.0692 18.7892C35.4587 18.5785 36.8331 18.2375 37.6684 17.6445C37.7063 17.6187 37.729 17.5686 37.7594 17.5082C37.8163 17.3966 37.862 17.2542 37.9075 17.086C38.0632 16.5108 38.1619 15.666 38.2151 14.6744C38.3707 11.91 38.1733 8.02871 37.7785 5.55329C37.619 4.56123 37.4443 3.80607 37.2279 3.48298C36.8976 2.99549 36.6054 2.68986 36.2902 2.50003C35.8232 2.22022 35.3182 2.19175 34.6424 2.14581C33.1579 2.0452 30.8951 2.07974 26.3923 2.14428L17.0603 2.27718C17.0565 2.27756 17.0564 2.27755 17.0526 2.27755C13.442 2.28172 13.833 2.29804 12.7927 2.53002C12.7699 2.58659 12.7244 2.71076 12.7054 2.81289C12.5763 3.47236 12.6105 4.53011 12.6105 4.97242L16.9045 4.91129C21.4453 4.84636 23.7272 4.81294 25.223 4.91469C26.0469 4.9705 26.6542 5.03885 27.2237 5.38093C27.6223 5.61936 28.0021 5.99104 28.4159 6.60344C28.6665 6.97817 28.9096 7.84306 29.0918 8.99268C29.4942 11.5144 29.6954 15.4682 29.5397 18.2846C29.5245 18.5716 29.5018 18.8473 29.4791 19.1089ZM3.50985 20.5539C3.63894 20.6267 4.06046 20.7038 4.65274 20.809C7.35595 21.2908 13.3204 21.9708 14.0038 22.0486C14.2127 22.0721 14.3646 22.2513 14.357 22.4598C14.2887 24.4082 14.2279 25.5024 13.7571 26.2959C13.4078 26.8889 12.827 27.332 11.8095 27.8202C12.732 27.9254 13.9925 27.9884 15.2112 27.7755C16.43 27.5621 17.6183 27.0735 18.3359 26.0199C18.818 25.3152 19.0799 24.363 19.0268 23.0911C19.023 22.9822 19.061 22.8759 19.1369 22.7973C19.2128 22.7187 19.3192 22.6743 19.4256 22.6747C19.8622 22.6758 22.1971 22.6819 24.4637 22.3546C25.9254 22.1435 27.3566 21.8037 28.1957 21.2103C28.2298 21.1845 28.2526 21.1344 28.283 21.0744C28.3399 20.9624 28.3894 20.82 28.435 20.6518C28.5869 20.0766 28.6854 19.2319 28.7424 18.2402C28.8942 15.4758 28.7007 11.5945 28.3021 9.11911C28.1426 8.12743 27.9679 7.3719 27.7515 7.0488C27.425 6.56131 27.1289 6.25568 26.8138 6.06585C26.3468 5.78604 25.8418 5.75756 25.1698 5.712C23.6816 5.61101 21.4225 5.64594 16.9158 5.7101L7.58365 5.84337H7.57994C3.87821 5.84755 4.3793 5.865 3.24031 6.11368C3.19854 6.12241 3.17196 6.16342 3.13779 6.20366C3.09223 6.26365 3.05062 6.33578 3.01266 6.41437C2.8494 6.76215 2.76201 7.22497 2.75442 7.49947C2.74303 8.24817 2.62905 14.1307 2.96316 17.8415C3.05048 18.7691 3.16055 19.5576 3.31242 20.085C3.35418 20.2365 3.39988 20.3636 3.44923 20.4612C3.46822 20.4969 3.50226 20.544 3.50985 20.5539Z" fill="#FF7336"/>
  <path fill-rule="evenodd" clip-rule="evenodd" d="M31.0611 3.53813C30.8401 3.53813 30.6616 3.35969 30.6616 3.13865C30.6616 2.92026 30.8401 2.73916 31.0611 2.73916C31.386 2.73916 33.1677 2.4755 35.0852 2.93624C36.0067 3.15729 36.5553 3.90297 36.8562 4.74988C37.2584 5.88175 37.2132 7.17609 37.2185 7.25332C37.2318 7.47171 37.064 7.66082 36.8456 7.67413C36.6245 7.68745 36.4355 7.51966 36.4222 7.30128C36.4168 7.23203 36.4702 6.04954 36.1026 5.01887C35.8923 4.42497 35.5434 3.86838 34.8989 3.71391C33.0692 3.27182 31.37 3.53813 31.0611 3.53813Z" fill="#FF7336"/>
  <path fill-rule="evenodd" clip-rule="evenodd" d="M29.4338 2.80061C29.4472 2.78196 29.4631 2.766 29.4791 2.75002C29.6336 2.59289 29.8866 2.59289 30.0437 2.74735L30.1129 2.8299L30.1688 2.92844L30.2088 3.10422L30.1822 3.28267L30.1368 3.37054L30.0756 3.44779L29.9185 3.54899L29.7614 3.57828L29.567 3.54632L29.4151 3.46641C29.2367 3.33858 29.194 3.08824 29.3219 2.90714C29.3538 2.86453 29.3912 2.82724 29.4338 2.80061Z" fill="#FF7336"/>
</svg>
