<svg xmlns="http://www.w3.org/2000/svg" width="28" height="31" viewBox="0 0 28 31" fill="none">
  <path d="M26.843 8.17062C26.5563 7.80953 26.1474 7.57853 25.6907 7.52543L23.8401 7.30771C23.872 7.27851 23.9038 7.2493 23.9357 7.22009C24.1242 7.04751 24.7004 6.51915 24.7349 5.63765V5.62969V5.62172C24.7508 4.99777 24.4747 4.5411 24.3844 4.38976C23.564 3.03565 22.2842 2.22319 21.047 1.50631C20.569 1.23018 20.0938 0.964673 19.5415 0.776161C19.4406 0.741645 19.3344 0.709784 19.2309 0.680577C18.7822 0.561098 18.3095 0.502686 17.8157 0.502686C17.6219 0.502686 17.4227 0.510651 17.221 0.529237C16.4536 0.598269 15.6836 0.800057 14.9588 1.12132C14.7305 0.996535 14.4809 0.87971 14.2021 0.789437C13.8304 0.667302 13.4427 0.606235 13.0498 0.606235C11.4434 0.606235 9.98049 1.59128 9.40964 3.05689C9.33264 3.25603 9.27423 3.45781 9.2344 3.66491C7.1236 5.79696 5.01545 8.12283 2.97367 10.377L2.48248 10.916C2.35238 11.0594 2.22228 11.2027 2.09218 11.3461C1.56381 11.524 1.0859 11.8532 0.708871 12.3046L0.66639 12.3551L0.629218 12.4082L0.568151 12.4984L0.55222 12.5223L0.538945 12.5462C0.0849223 13.279 -0.215104 14.5137 0.204402 15.4881C0.483188 16.1306 0.992967 16.6537 1.6355 16.9643C2.95774 18.2335 4.33574 19.561 5.6686 20.8487L6.59523 21.7408C7.83517 22.9383 9.10696 24.165 10.3522 25.3651C9.91411 25.5695 9.47071 25.8934 9.13617 26.4165C9.08041 26.4961 9.02996 26.5784 8.98483 26.6687L8.9742 26.6926L8.96358 26.7165C8.85472 26.9581 8.76976 27.1891 8.68745 27.4148C8.65559 27.4998 8.62373 27.5874 8.59187 27.6723C8.42725 28.1051 8.4538 28.5937 8.66887 29.0185C8.8919 29.4619 9.28751 29.7885 9.7548 29.9186C11.1726 30.3036 12.6834 30.4974 14.2525 30.4974C16.1855 30.4974 18.2299 30.2053 20.3274 29.6318C21.0284 29.438 21.5116 28.8539 21.5886 28.1051C21.6709 27.282 21.3709 26.4802 20.6965 25.7208C20.1602 25.1155 19.4725 24.7703 18.5963 24.6641C18.2485 24.6243 17.8847 24.6004 17.4944 24.5924C17.0404 23.8065 16.2651 23.2171 15.3703 22.9808C13.0923 20.9762 10.8992 18.6901 8.77507 16.4758C8.13785 15.812 7.38645 15.0288 6.61382 14.2375L10.7717 9.53003C10.9682 10.369 11.3107 11.1682 11.786 11.8825C12.5772 13.0693 13.6339 13.9163 14.5659 14.6199L14.5791 14.6305H14.5844C14.8792 14.8509 15.2402 14.9677 15.604 14.9677C16.0819 14.9677 16.5412 14.7659 16.8678 14.4181L17.2926 13.9614C17.4227 13.8233 17.5528 13.6826 17.6829 13.5419C17.6909 13.5419 17.7015 13.5419 17.7095 13.5419C17.7095 13.5525 17.7095 13.5631 17.7121 13.5738C17.8104 14.1154 17.8741 14.6677 17.9033 15.2173C17.9511 16.1333 18.7078 16.8528 19.6265 16.8528C19.6504 16.8528 19.6716 16.8528 19.6955 16.8528H19.7061H19.7167C20.6673 16.8024 21.3974 15.9899 21.3496 15.0394C21.3125 14.3437 21.2328 13.6454 21.108 12.9631C21.0894 12.8648 21.0629 12.7719 21.031 12.6816C21.0974 12.7613 21.1691 12.8356 21.2487 12.902L22.5073 13.9561C22.8153 14.2136 23.2082 14.357 23.6144 14.357C24.1269 14.357 24.6101 14.1313 24.9393 13.7384C25.2341 13.3852 25.3748 12.9392 25.3349 12.4799C25.2951 12.0205 25.0774 11.6037 24.7216 11.309L24.1402 10.8231L25.2845 10.9585C25.3509 10.9664 25.4226 10.9718 25.4916 10.9718C26.3651 10.9718 27.1032 10.3159 27.2041 9.44773C27.2572 8.99105 27.1298 8.53968 26.8457 8.17593L26.843 8.17062Z" fill="#FFE7DE"/>
  <path d="M21.9683 9.49563C22.2232 8.75485 22.2365 7.94239 22.0241 7.18834C22.3586 6.86973 22.6985 6.55112 23.0383 6.24047C23.1631 6.1263 23.3967 5.91389 23.4074 5.58466C23.4153 5.38022 23.3304 5.21295 23.2481 5.07754C22.5869 3.98894 21.5143 3.30924 20.3806 2.65343C19.9451 2.40119 19.5495 2.18082 19.1088 2.03213C19.0318 2.00558 18.9548 1.98169 18.8778 1.96045C18.4184 1.83566 17.9007 1.79849 17.3378 1.84893C16.4722 1.92593 15.6332 2.20737 14.8845 2.64281C14.542 2.4065 14.1995 2.18613 13.7959 2.05072C13.2357 1.86486 12.6277 1.92593 12.0834 2.15692C10.9709 2.62688 10.5301 3.4473 10.4876 4.27835C8.31576 6.45288 6.0961 8.89823 3.95078 11.2666C3.56313 11.6941 3.17814 12.1189 2.79846 12.5384C2.40551 12.5888 2.01786 12.8065 1.7258 13.157L1.66473 13.2499C1.42312 13.6402 1.18947 14.4315 1.42312 14.9704C1.60367 15.3873 1.96211 15.6953 2.37896 15.8466C4.05433 17.453 5.7828 19.123 7.51392 20.7931C9.2185 22.4393 10.9231 24.0854 12.5745 25.6705C12.5586 25.721 12.5427 25.7741 12.5321 25.8245L11.9161 26.3369C11.247 26.4007 10.5965 26.5706 10.2327 27.1733C10.2115 27.1998 10.1903 27.2291 10.1743 27.2662C10.0442 27.5583 9.94334 27.8583 9.82917 28.1557C9.75218 28.3575 9.91679 28.5938 10.108 28.6469C13.3366 29.5231 16.7776 29.2337 19.9743 28.3575C20.1575 28.307 20.2478 28.1504 20.2664 27.9725C20.3221 27.4468 20.0407 26.9874 19.7035 26.6078C19.3557 26.2148 18.9548 26.0502 18.4397 25.9891C17.829 25.9174 17.205 25.9121 16.5838 25.936C16.5652 25.8325 16.5439 25.7289 16.5094 25.6254C16.2572 24.8448 15.5164 24.2978 14.7199 24.2155L14.7385 24.1969C12.3356 22.1127 10.0389 19.7178 7.82192 17.4025C6.83953 16.3777 5.82528 15.3209 4.80572 14.2934L11.6293 6.5697C11.7382 6.64139 11.8497 6.70777 11.9692 6.76353L12.0117 6.66794C11.7223 8.20259 12.0249 9.84875 12.8958 11.1524C13.5729 12.1693 14.5287 12.9313 15.3704 13.5659C15.5323 13.688 15.7633 13.6694 15.9014 13.5181C16.3368 13.0508 16.7855 12.5676 17.2449 12.079C17.4865 12.1799 17.76 12.2357 18.0733 12.2357C18.2591 12.2357 18.4556 12.2171 18.6627 12.1826C19.1858 12.0923 19.669 11.9304 20.0911 11.702C20.9726 11.2294 21.6603 10.4276 21.9789 9.49828L21.9683 9.49563ZM4.54287 11.8003C6.54481 9.59387 8.60783 7.31844 10.6337 5.26605C10.7266 5.53687 10.862 5.79176 11.0346 6.01744L4.40745 13.5208C4.31718 13.3429 4.20832 13.1783 4.07026 13.0375C3.94812 12.9127 3.82333 12.8145 3.69323 12.7349C3.97467 12.4242 4.25611 12.1136 4.54021 11.8003H4.54287ZM2.34178 13.6668L2.35506 13.6456C2.56216 13.4066 2.8436 13.2845 3.07459 13.3296C3.21531 13.3588 3.35338 13.4438 3.50472 13.5978C3.68261 13.7783 3.79678 14.0305 3.82599 14.3093C3.84192 14.4527 3.8074 14.5908 3.73306 14.689C3.56313 14.9094 3.37462 15.0528 3.17018 15.1165C3.04804 15.1563 2.91529 15.1563 2.78784 15.1298C2.78253 15.1244 2.77722 15.1218 2.77457 15.1165L2.7666 15.1271C2.50375 15.0687 2.25948 14.8934 2.15593 14.6518C2.07096 14.4527 2.16655 13.9562 2.34444 13.6668H2.34178ZM18.6786 26.8308C19.0185 26.9317 19.3344 27.2981 19.4353 27.6671C16.605 28.4053 13.5994 28.6575 10.7372 27.9778C10.777 27.8716 10.8142 27.7654 10.862 27.6645C11.0824 27.2344 11.4992 27.1706 11.9294 27.1282C12.4152 27.0804 12.9011 27.0352 13.3844 26.9874C14.5579 26.8733 15.7262 26.7618 16.905 26.7326C17.4732 26.7193 18.1264 26.6662 18.6786 26.8308ZM15.7447 25.8643C15.7554 25.8988 15.7633 25.9387 15.7739 25.9758C15.458 25.9971 15.142 26.0236 14.8314 26.0502C14.3136 26.0927 13.7986 26.1431 13.2835 26.1962C13.3286 25.6732 13.7109 25.1634 14.2154 25.028C14.8234 24.8687 15.5536 25.2669 15.7474 25.8643H15.7447ZM13.7242 24.3615C13.4295 24.4916 13.1719 24.6934 12.9675 24.9404C11.3638 23.4004 9.715 21.81 8.06353 20.2143C6.53419 18.738 5.00751 17.2618 3.51534 15.8307C3.8313 15.7059 4.12336 15.4829 4.36497 15.1696C4.39152 15.1351 4.41277 15.0952 4.43401 15.0554C5.37922 16.0112 6.31913 16.991 7.23514 17.9442C9.31674 20.116 11.4674 22.3543 13.7216 24.3589L13.7242 24.3615ZM12.1736 5.97231C11.4647 5.57139 11.0903 4.58634 11.3877 3.82698C11.6984 3.0278 12.7232 2.54191 13.541 2.80742C13.7561 2.87911 13.9632 2.99328 14.1729 3.12604C13.456 3.68892 12.864 4.4058 12.4683 5.23153C12.3542 5.47315 12.2559 5.72007 12.1763 5.97231H12.1736ZM15.8032 12.4375C15.6598 12.5915 15.4235 12.6074 15.2589 12.4747C14.6376 11.9755 14.0083 11.3967 13.5463 10.7037C12.5507 9.20888 12.4073 7.19631 13.1826 5.57404C13.9579 3.95177 15.6173 2.80211 17.4068 2.64281C17.5449 2.62953 17.6803 2.62422 17.8104 2.62422C18.1211 2.62422 18.4078 2.65874 18.668 2.73043C18.7291 2.74636 18.7901 2.76494 18.8486 2.78618C19.2229 2.91363 19.5814 3.11542 19.9796 3.34376C21.0204 3.94646 22.0002 4.56245 22.5657 5.49173C22.5843 5.52094 22.5949 5.54218 22.6002 5.5528C22.5816 5.5767 22.5471 5.61121 22.4993 5.65635C22.0373 6.07851 21.5833 6.51129 21.1319 6.94673L21.0974 6.96266C21.0974 6.96266 21.1001 6.97062 21.1027 6.97593C19.2309 8.78406 17.4387 10.6851 15.8032 12.4428V12.4375ZM18.514 11.394C18.3122 11.4285 18.0706 11.4498 17.8476 11.4232C18.968 10.2364 20.1416 9.02302 21.3523 7.8415C21.4134 8.3088 21.3709 8.78937 21.2169 9.23808C20.962 9.97886 20.4098 10.6187 19.7035 10.9984C19.3557 11.1843 18.9548 11.3197 18.514 11.3967V11.394Z" fill="#EE733E"/>
  <path d="M19.3371 12.8755C19.1193 12.9154 18.976 13.1225 19.0158 13.3375C19.1247 13.9323 19.1937 14.5429 19.2255 15.1457C19.2362 15.3581 19.4114 15.5227 19.6238 15.5227C19.6318 15.5227 19.6371 15.5227 19.6451 15.5227C19.8654 15.5121 20.0327 15.3235 20.0221 15.1032C19.9876 14.466 19.9132 13.8234 19.8017 13.1942C19.7619 12.9764 19.5548 12.8357 19.3397 12.8729L19.3371 12.8755Z" fill="#EE733E"/>
  <path d="M22.6108 11.2718C22.4409 11.1311 22.1913 11.1523 22.0506 11.3222C21.9099 11.4895 21.9311 11.7417 22.101 11.8824L23.3622 12.9365C23.4365 13.0002 23.5268 13.0294 23.6171 13.0294C23.7313 13.0294 23.8428 12.9817 23.9224 12.8861C24.0631 12.7188 24.0419 12.4666 23.872 12.3258L22.6108 11.2718Z" fill="#EE733E"/>
  <path d="M25.5368 8.8452L23.6835 8.62748C23.4631 8.59827 23.2667 8.75758 23.2401 8.9753C23.2136 9.19302 23.3702 9.39215 23.5879 9.4187L25.4412 9.63642C25.4571 9.63642 25.4731 9.63907 25.489 9.63907C25.6881 9.63907 25.8607 9.49039 25.8846 9.2886C25.9112 9.07088 25.7545 8.87175 25.5368 8.8452Z" fill="#EE733E"/>
</svg>
