<svg xmlns="http://www.w3.org/2000/svg" width="36" height="56" viewBox="0 0 36 56" fill="none">
<path d="M35.0816 46.1111V46.0867C34.9356 45.3177 34.7993 44.5681 34.663 43.8186L34.4781 42.8257C32.9692 34.6146 31.4166 26.1358 31.0272 18.0075L31.0175 17.1509C31.0175 16.9465 30.998 16.742 30.9639 16.5425C30.9639 16.5181 30.9639 16.4938 30.9639 16.4743C30.9055 15.131 29.9807 13.992 28.7493 13.6027L28.2821 10.3075V10.2686C28.0436 8.64292 27.7515 6.61814 26.7391 4.73451C25.3568 2.1646 22.8989 0.543805 20.3241 0.5H20.3046H20.2852H20.2073C19.4626 0.5 18.7228 0.626549 18.0024 0.874779C17.871 0.869911 17.7396 0.865044 17.613 0.865044C15.3838 0.865044 13.1206 1.73628 11.3975 3.25973C8.8179 5.53761 7.82985 8.65266 7.45994 10.8624C7.34799 11.5341 7.27012 12.2252 7.22631 12.9699L5.4887 12.9504H5.4741H5.4595C4.4033 12.9504 3.42498 13.3544 2.6949 14.0942C1.95507 14.8292 1.54136 15.8465 1.55109 16.8881C1.63383 27.5571 1.3856 38.3673 0.816134 49.0071C0.69932 51.0173 2.12543 52.7695 4.13074 53.0712C11.6993 54.181 19.4091 54.9938 27.0458 55.4805C27.1675 55.4903 27.2697 55.4951 27.3475 55.4951C28.0825 55.4951 28.7883 55.2907 29.3967 54.9159C30.0635 54.7602 30.667 54.3951 31.1148 53.8549L31.1245 53.8451L31.1343 53.8354L33.9378 50.404C34.2493 50.0243 34.8334 49.3137 35.0816 48.2624C35.3006 47.3425 35.1644 46.5686 35.0816 46.1062V46.1111Z" fill="#FFE7DE"/>
<path d="M32.2489 45.9554C32.0591 44.9138 31.8693 43.8674 31.6746 42.816C30.1949 34.751 28.6666 26.428 28.2821 18.3581V17.4771C28.2772 17.3651 28.2577 17.2581 28.2334 17.151C28.2334 17.0731 28.2285 17.0001 28.2237 16.9222C28.2139 16.5426 27.8976 16.2311 27.5228 16.2359C27.333 16.1337 27.1188 16.0705 26.8852 16.0656C26.7002 16.0656 26.5153 16.0607 26.3303 16.0559C26.3303 16.0315 26.3303 16.012 26.3303 15.9877L25.644 11.1448C25.4347 9.66515 25.1962 7.99081 24.4078 6.5209C23.4732 4.78815 21.8719 3.69302 20.2268 3.66382C20.2024 3.66382 20.1732 3.66382 20.1489 3.66382C19.5064 3.66382 18.9077 3.81957 18.3626 4.06293C16.5861 3.84391 14.6392 4.44258 13.1644 5.75187C11.1737 7.50895 10.3998 9.99125 10.1029 11.7581C9.87899 13.1063 9.84005 14.4594 9.87899 15.8028C8.53076 15.7882 7.17766 15.7736 5.8343 15.7638H5.82456C5.44492 15.7638 5.08961 15.9098 4.82191 16.1775C4.55421 16.4452 4.40332 16.8103 4.40819 17.1899C4.49093 27.5961 4.24757 38.1386 3.68784 48.5253C3.6489 49.2603 4.1697 49.8979 4.89978 50.005C12.2007 51.0806 19.6378 51.8594 27.002 52.3315C27.0312 52.3315 27.0604 52.3315 27.0896 52.3315C27.4498 52.3315 27.8002 52.1952 28.0631 51.9421C28.1069 51.9032 28.1361 51.8545 28.175 51.8156C28.2431 51.8351 28.3113 51.8497 28.3794 51.8497C28.5839 51.8497 28.7883 51.762 28.9294 51.5917L31.6551 48.2576C31.8741 47.9899 32.1759 47.62 32.2927 47.1382C32.3949 46.7001 32.3219 46.2864 32.2635 45.9554H32.2489ZM23.152 7.19258C23.8237 8.4386 24.033 9.91338 24.2325 11.3443L24.8993 16.0315C24.5392 16.0267 24.179 16.0169 23.8188 16.012C23.5949 13.8267 23.1471 11.9041 22.675 9.91338C22.5047 9.19302 22.3294 8.45807 22.1591 7.68417C22.0131 7.03196 21.8378 6.21426 21.3073 5.54745C21.2246 5.44523 21.137 5.34789 21.0396 5.25541C21.867 5.55718 22.6409 6.25807 23.1471 7.20231L23.152 7.19258ZM14.2985 15.8563C13.9577 12.7753 14.9069 9.50939 16.8489 7.09523C17.2237 6.63284 17.8321 5.97577 18.5865 5.54258C18.825 5.59612 19.0586 5.66913 19.2777 5.76647C19.6865 5.94656 19.9931 6.16559 20.1976 6.42355C20.4993 6.80807 20.6356 7.33373 20.7768 7.98594C20.9471 8.76957 21.1272 9.50939 21.2976 10.2395C21.7648 12.201 22.1785 13.9873 22.3976 15.9877C19.7011 15.939 16.9998 15.9001 14.3033 15.8612L14.2985 15.8563ZM11.49 11.9917C11.748 10.4488 12.41 8.29745 14.0892 6.81293C14.7268 6.2532 15.4666 5.86382 16.2308 5.63992C16.0555 5.82975 15.89 6.01957 15.7392 6.20453C13.5684 8.90099 12.5316 12.3957 12.8675 15.8368C12.3418 15.832 11.8113 15.8222 11.2856 15.8174C11.2516 14.5324 11.2808 13.2426 11.49 11.9917ZM5.08961 48.6032C5.64934 38.1873 5.8927 27.6156 5.80996 17.1802C7.17766 17.1899 8.55509 17.2094 9.92766 17.224C9.94713 17.5842 9.9666 17.9443 9.99094 18.2997C10.0153 18.689 10.3414 18.9811 10.7405 18.9665C11.1299 18.9421 11.4268 18.6063 11.4073 18.2169C11.3878 17.8957 11.3684 17.5696 11.3489 17.2435C15.0626 17.2873 18.7909 17.3457 22.5047 17.409C22.529 17.8713 22.5485 18.3435 22.5485 18.8448C22.5485 19.2342 22.8648 19.5554 23.2591 19.5554C23.6533 19.5554 23.9697 19.239 23.9697 18.8448C23.9697 18.3581 23.9551 17.8957 23.9308 17.4382C24.8945 17.4576 25.8631 17.4722 26.8268 17.4917C26.8365 17.7837 26.8462 18.0709 26.8608 18.3629L27.075 50.92C19.7498 50.4528 12.3516 49.674 5.08961 48.6032ZM30.8958 46.812C30.8569 46.9775 30.6865 47.182 30.5405 47.362L28.4865 49.8736L28.3697 32.1421C28.944 35.8072 29.6157 39.4674 30.2777 43.0691C30.4724 44.1205 30.6622 45.1669 30.852 46.2085C30.8909 46.4324 30.9347 46.6612 30.8958 46.812Z" fill="#EE733E"/>
<path d="M10.5069 21.5801C10.5069 21.5801 10.5458 21.5801 10.5604 21.5801C11.4463 21.5655 12.2542 21.1566 12.7166 20.4898C12.9405 20.1686 12.8626 19.7257 12.5414 19.5018C12.2202 19.2779 11.7772 19.3557 11.5534 19.677C11.3489 19.969 10.9693 20.1491 10.5361 20.1588H10.5069C10.0883 20.1588 9.71353 19.9934 9.49937 19.7159C9.26088 19.4044 8.81796 19.3411 8.50645 19.5748C8.19495 19.8084 8.13167 20.2562 8.3653 20.5677C8.84229 21.2004 9.64052 21.5752 10.5069 21.5752V21.5801Z" fill="#EE733E"/>
<path d="M25.279 19.5116C24.9042 19.4094 24.51 19.6332 24.4078 20.008C24.3007 20.4071 23.9064 20.7332 23.4927 20.7673C23.0887 20.7965 22.641 20.5434 22.4657 20.1638C22.3051 19.8085 21.8817 19.6478 21.5264 19.8133C21.171 19.974 21.0104 20.3974 21.1759 20.7527C21.5702 21.6191 22.4755 22.1934 23.4197 22.1934C23.483 22.1934 23.5463 22.1934 23.6095 22.1837C24.6219 22.1009 25.5126 21.3611 25.7803 20.3828C25.8825 20.0032 25.6587 19.6138 25.2839 19.5116H25.279Z" fill="#EE733E"/>
<path d="M22.0374 47.0555C17.3454 47.4887 12.6631 47.0652 8.12678 45.7949C7.752 45.6878 7.35776 45.9117 7.25068 46.2865C7.1436 46.6612 7.36749 47.0555 7.74227 47.1626C11.2564 48.1458 14.8485 48.6422 18.4697 48.6422C19.7011 48.6422 20.9325 48.5838 22.164 48.4719C22.5533 48.4378 22.8405 48.0922 22.8064 47.7028C22.7724 47.3135 22.417 47.0263 22.0374 47.0604V47.0555Z" fill="#EE733E"/>
<path d="M11.2126 31.6943C11.1202 31.9085 10.8768 32.4828 11.1299 33.0572C11.383 33.6266 11.9719 33.8408 12.1958 33.9187C13.0476 34.2204 13.9237 34.3616 14.7706 34.4979C15.4033 34.6001 16.0069 34.6926 16.5861 34.8532C17.1361 35.0041 18.9564 35.6027 19.302 37.0678C19.5746 38.2165 18.7423 39.3749 17.8175 39.8859C16.8489 40.4213 15.5834 40.5576 14.0502 40.2899C13.4856 40.1926 11.6264 39.774 11.2613 38.4793C11.1542 38.0996 10.7648 37.8806 10.3852 37.9877C10.0056 38.0948 9.78653 38.4842 9.89361 38.8638C10.2927 40.2948 11.7188 41.3218 13.802 41.6868C14.391 41.789 14.9458 41.8377 15.4764 41.8377C16.6202 41.8377 17.6325 41.5992 18.4941 41.1222C20.1441 40.212 21.0591 38.3673 20.6746 36.7368C20.3193 35.2328 18.9272 34.016 16.9463 33.4806C16.2892 33.3005 15.6224 33.1983 14.9799 33.0912C14.1622 32.9598 13.3834 32.8381 12.6582 32.5802C12.5268 32.5315 12.4587 32.4974 12.4294 32.478C12.4343 32.439 12.4538 32.366 12.5073 32.2443C13.4467 30.0249 15.9485 28.6085 18.3334 28.9492C18.7179 29.0027 19.0781 28.735 19.1365 28.3457C19.1901 27.9563 18.9224 27.601 18.533 27.5426C15.5348 27.1191 12.3808 28.9005 11.198 31.6895L11.2126 31.6943Z" fill="#EE733E"/>
</svg>
