<svg xmlns="http://www.w3.org/2000/svg" width="36" height="50" viewBox="0 0 36 50" fill="none">
<path d="M35.2389 22.4204C34.792 20.3894 33.677 18.646 32.0664 17.3628C32.177 17.2655 32.2832 17.1637 32.3849 17.0531C33.2965 16.1062 33.9513 14.9159 34.4469 13.3097C35.1858 10.9027 35.2699 8.54425 34.6903 6.49115C34.3761 5.38938 33.8496 4.33186 33.1549 3.43805C32.1858 2.17699 30.1372 0.0575221 27.3319 0.0486726L20.8451 0.0221239V0L18.6106 0.00884956H17.9336H17.2566L15.0221 0V0.0221239L8.53539 0.0486726C5.73451 0.0619469 3.68583 2.17699 2.71238 3.44248C2.02212 4.33628 1.49114 5.39381 1.18141 6.49558C0.597338 8.54867 0.681408 10.9071 1.42477 13.3142C1.91592 14.9204 2.57079 16.1106 3.48672 17.0575C3.55309 17.1283 3.62389 17.1903 3.69468 17.2566C3.30088 17.6504 2.96902 18.0398 2.71681 18.3673C2.02654 19.2655 1.49557 20.3186 1.18583 21.4204C0.601762 23.4735 0.685833 25.8319 1.4292 28.2389C1.92035 29.8451 2.57521 31.0354 3.49114 31.9823C3.70796 32.208 3.93805 32.4115 4.17256 32.5973C1.30088 34.9027 -0.0354056 38.4469 0.676984 42.0575C1.45574 46.0089 4.44247 48.9646 8.47344 49.7655L8.54424 49.7788C9.22123 49.9248 9.9115 50 10.6018 50C12.9557 50 15.2876 49.1283 17.1593 47.5398C19.5398 45.5221 20.8717 42.5796 20.7389 39.646L20.7522 32.9292C21.6372 33.4248 22.615 33.7876 23.6681 34L23.7345 34.0133C24.3717 34.1504 25.0265 34.2212 25.6814 34.2212C28.323 34.2212 30.9159 33.1018 32.7965 31.1504C35.1106 28.7522 36.0221 25.4911 35.2389 22.4159V22.4204Z" fill="#FFE7DE"/>
<path d="M33.093 22.9247C32.6018 20.6504 30.9868 18.8318 28.6549 17.9336C27.947 17.6592 27.208 17.4955 26.4735 17.4292C28.0266 17.1725 29.6372 16.7212 30.7965 15.5177C31.4602 14.8274 31.947 13.9203 32.3363 12.6592C32.9514 10.6592 33.031 8.73447 32.5664 7.09287C32.3319 6.26101 31.9293 5.46013 31.4071 4.78756C30.8231 4.03093 29.2567 2.26544 27.3275 2.25659L18.6239 2.22119H17.9381H17.2523L8.54872 2.25659C6.61951 2.26544 5.05314 4.0265 4.46907 4.78756C3.94695 5.46455 3.54872 6.26101 3.3142 7.09287C2.8496 8.73447 2.92925 10.6592 3.54429 12.6592C3.93367 13.9203 4.4204 14.8318 5.08412 15.5177C5.96022 16.4247 7.09297 16.907 8.26553 17.1991C6.46907 17.3672 5.02659 18.9911 4.4735 19.7123C3.95137 20.3893 3.55314 21.1858 3.31863 22.0177C2.85403 23.6592 2.93367 25.584 3.54872 27.584C3.9381 28.8451 4.42482 29.7566 5.08854 30.4424C6.47792 31.8849 8.51774 32.2566 10.3275 32.4911H10.3408C8.78766 32.5531 7.3673 33.0132 6.18589 33.8584C3.53102 35.6194 2.25668 38.5973 2.85403 41.6283C3.4558 44.6858 5.77881 46.9734 8.91597 47.5929L9.00447 47.6106C9.53987 47.73 10.0753 47.7876 10.6151 47.7876C12.4425 47.7876 14.2478 47.115 15.7434 45.8495C17.6151 44.261 18.6638 41.9469 18.5443 39.6946L18.5576 32.4203L13.093 32.4601L18.5531 32.3938L18.5841 27.0708C19.4116 29.5132 21.4558 31.3008 24.1195 31.8274L24.2036 31.8451C24.6992 31.9557 25.1992 32.0088 25.7036 32.0088C27.7213 32.0088 29.7434 31.1548 31.2257 29.615C33.0133 27.761 33.7124 25.2522 33.1107 22.9247H33.093ZM27.3231 3.5796C28.2567 3.5796 29.3894 4.33624 30.3585 5.59287C30.7788 6.13712 31.0974 6.77871 31.2877 7.45128C31.6815 8.84509 31.6062 10.5132 31.0664 12.2654C30.7434 13.323 30.3496 14.0619 29.8363 14.5929C28.7567 15.7123 27 16.0309 25.4293 16.2389L18.6549 16.1548L18.5974 5.92916L18.6107 3.53978L27.3186 3.57517L27.3231 3.5796ZM4.80978 12.2654C4.26996 10.5088 4.19474 8.84509 4.58854 7.45128C4.77881 6.77871 5.10181 6.13712 5.51774 5.59287C6.48677 4.33624 7.61951 3.58402 8.55314 3.5796L17.2611 3.5442L17.2744 5.93358L17.2169 16.1592L10.4425 16.2433C8.87173 16.0398 7.11509 15.7212 6.03544 14.5973C5.52217 14.0619 5.13279 13.323 4.80535 12.2654H4.80978ZM17.1992 39.7345C17.2965 41.6106 16.4248 43.5221 14.8673 44.8407C13.2567 46.2079 11.2169 46.7433 9.26111 46.3141L9.15934 46.292C6.56199 45.7743 4.64164 43.8893 4.14606 41.3716C3.65491 38.8761 4.71243 36.4203 6.92925 34.9513C7.9735 34.2035 9.25226 33.8097 10.6284 33.8097H10.677L17.2124 33.761L17.2036 39.73L17.1992 39.7345ZM17.2169 31.084L10.4425 31.1681C8.87173 30.9646 7.11509 30.646 6.03544 29.5221C5.52217 28.9867 5.13279 28.2477 4.80535 27.1902C4.26553 25.438 4.19031 23.7699 4.58412 22.3761C4.77438 21.7035 5.09739 21.0619 5.51332 20.5177C6.48235 19.261 7.61509 18.5088 8.54872 18.5044L17.2832 18.469L17.208 31.084H17.2169ZM18.6195 17.4823L24.1815 17.5486C23.208 17.7477 22.2877 18.1327 21.4912 18.7035C20.1018 19.6238 19.1107 20.8982 18.5885 22.3362L18.6151 17.4823H18.6195ZM30.2523 28.6902C28.7169 30.2831 26.5 30.9955 24.4558 30.5442L24.3585 30.5265C21.9027 30.0398 20.0841 28.2566 19.6151 25.8716C19.1505 23.5088 20.1505 21.1902 22.2523 19.7964C23.2478 19.084 24.4823 18.7168 25.7567 18.7168C26.5664 18.7168 27.3939 18.8672 28.1815 19.1725C30.0841 19.907 31.4027 21.3805 31.8054 23.2345C32.2965 25.1371 31.7213 27.1769 30.2567 28.6946L30.2523 28.6902Z" fill="#FF7336"/>
</svg>
