<svg xmlns="http://www.w3.org/2000/svg" width="34" height="26" viewBox="0 0 34 26" fill="none">
<path fill-rule="evenodd" clip-rule="evenodd" d="M11.5674 0.622554L11.6673 0.649474V0.654348C11.7973 0.702632 11.9157 0.773906 12.0202 0.862581L12.0341 0.819863L12.1478 0.89949C12.2035 0.939882 12.2592 0.98538 12.3079 1.03552C12.359 1.08775 12.5587 1.34635 12.8349 1.75538C12.9463 1.92089 13.0833 2.12075 13.2365 2.3422C20.2609 2.24331 23.5573 2.03022 30.8905 2.12052L31.1898 2.15417L31.4708 2.24448L31.9442 2.56785L32.2623 3.04419L32.3505 3.32647L32.3807 3.62639C32.3831 4.51175 32.3854 4.95071 32.3854 5.44075L32.5363 5.48555L33.0191 5.80358L33.3464 6.27945L33.4393 6.56336L33.4717 6.86583C33.5367 13.0882 33.9129 17.6385 33.5554 20.4964C33.2257 23.1367 32.2159 24.5989 30.5259 25.1467C30.2729 25.2294 29.0194 25.3406 27.1739 25.3884C20.6393 25.5576 5.7385 25.487 5.67815 25.4764C4.49426 25.263 3.50077 24.5636 2.71615 23.4333C2.09867 22.5415 1.60885 21.3518 1.24672 19.9641C-0.241271 14.2454 0.415636 4.85507 0.571167 2.00607L0.696529 1.48448L0.984431 1.05061L1.40223 0.740237L1.91524 0.588663C2.66968 0.506719 10.0098 0.438936 11.3887 0.588663C11.4491 0.595395 11.5094 0.606769 11.5674 0.622554Z" fill="#FFE7DE"/>
<path fill-rule="evenodd" clip-rule="evenodd" d="M8.88064 12.0219C9.58075 12.1326 11.5596 11.8862 12.7134 11.7611C12.9063 11.7397 13.0778 11.8754 13.0992 12.0683C13.1206 12.2577 12.9812 12.4327 12.7919 12.4506C11.7596 12.5649 10.1058 12.7542 9.18063 12.7399C9.19849 13.1864 9.23787 13.69 9.27359 14.5295C9.99871 14.583 10.5095 14.5723 11.9918 14.4044C12.1847 14.3794 12.3562 14.5187 12.3776 14.7081C12.3991 14.9009 12.2632 15.0724 12.0703 15.0939C10.5665 15.2689 10.0237 15.2796 9.29853 15.2296C9.31639 15.8261 9.32705 16.5584 9.33063 17.4871C9.3342 17.68 9.17713 17.8371 8.98424 17.8371C8.79492 17.8371 8.63776 17.68 8.63419 17.4907C8.6199 14.1044 8.48044 13.3007 8.47687 12.3684V12.3648C8.47687 12.347 8.47696 12.3291 8.48053 12.3113C8.50911 12.1398 8.65197 12.0183 8.82343 12.0183C8.84129 12.0183 8.8592 12.0183 8.88064 12.0219ZM14.8924 11.5183L14.8887 11.5111L14.9494 11.4932V11.4968C15.1137 11.4754 15.2781 11.5718 15.3317 11.7326C15.3853 11.8969 15.3139 12.0719 15.1674 12.1505V12.1541L15.1065 12.1755L15.103 12.1684C14.9387 12.1934 14.778 12.0969 14.7244 11.9326C14.6708 11.7719 14.7459 11.5969 14.8924 11.5183ZM18.7464 16.9977C18.7821 17.0084 18.8643 17.0263 18.925 17.0334C19.0893 17.0441 19.2895 17.0263 19.4931 17.0013C19.8681 16.9513 20.261 16.8656 20.5289 16.8263C20.7182 16.8013 20.8969 16.9334 20.9219 17.1227C20.9504 17.312 20.8182 17.4906 20.6288 17.5156C20.1288 17.5907 19.2251 17.7943 18.7071 17.705C18.3142 17.6371 18.082 17.4264 18.0534 17.0942C18.0499 17.0727 18.0892 12.5577 18.0534 12.1362C18.0356 11.9469 18.175 11.7754 18.3679 11.7576C18.5572 11.7433 18.7285 11.8826 18.7464 12.0755C18.7821 12.4756 18.7464 16.5869 18.7464 16.9977ZM22.2399 14.5187C22.2435 13.8436 22.2898 13.0185 22.347 12.0362C22.3041 11.9826 22.2792 11.9147 22.2757 11.8433C22.2685 11.6504 22.4149 11.4861 22.6077 11.479C23.6222 11.429 23.5972 11.4147 24.6153 11.2825C24.8081 11.2575 24.9831 11.3932 25.0046 11.5825C25.0296 11.7719 24.8974 11.9469 24.7046 11.9719C23.8116 12.0898 23.7009 12.1148 23.0365 12.1541C22.9936 12.9292 22.9543 13.6043 22.94 14.1758C23.2472 14.1544 23.6615 14.1187 24.3866 14.0044C24.5795 13.9722 24.7581 14.1044 24.7867 14.2937C24.8153 14.483 24.6867 14.6616 24.4974 14.6902C23.6901 14.8188 23.2615 14.851 22.94 14.8724C22.9472 15.0939 22.9614 15.2974 22.9864 15.4796C23.0364 15.8725 23.1258 16.1655 23.3187 16.3441C23.4473 16.4655 23.6222 16.5262 23.8508 16.5441C24.1401 16.5726 24.4974 16.5333 24.9439 16.4405C25.1296 16.4012 25.3153 16.5191 25.3546 16.7084C25.3939 16.8977 25.2724 17.0834 25.0867 17.1227C24.1651 17.3156 23.5366 17.2799 23.1151 17.0477C22.6829 16.8156 22.4256 16.3833 22.3149 15.7011C22.2613 15.3903 22.2435 15.0188 22.2399 14.5866C22.2399 14.5652 22.2399 14.5402 22.2399 14.5187ZM14.8423 13.5436C14.8423 13.3543 14.9958 13.1935 15.1887 13.1935C15.3816 13.19 15.5387 13.3471 15.5387 13.5364C15.553 14.7295 15.528 16.3154 15.5387 17.5085C15.5423 17.7014 15.3887 17.8586 15.1958 17.8586C15.0029 17.8622 14.8459 17.7085 14.8423 17.5156C14.8316 16.3226 14.8566 14.7366 14.8423 13.5436Z" fill="#FF4A1C"/>
</svg>
