<svg xmlns="http://www.w3.org/2000/svg" width="50" height="46" viewBox="0 0 50 46" fill="none">
<path fill-rule="evenodd" clip-rule="evenodd" d="M37.2899 40.2705C37.192 31.9761 37.2326 23.4639 37.0939 15.2192C37.0857 14.6636 37.2984 14.1279 37.6818 13.7321C38.0653 13.3363 38.5868 13.1144 39.1334 13.1144L42.0381 13.1169C39.558 12.3236 37.7631 9.97035 37.7631 7.19314C37.7631 3.76592 40.5042 0.98291 43.8816 0.98291C47.2589 0.98291 50 3.76592 50 7.19314C50 9.97366 48.1973 12.3302 45.7091 13.121L46.8834 13.1218C47.43 13.1218 47.9521 13.3454 48.3437 13.742C48.719 14.1378 48.9311 14.6736 48.9229 15.2283C48.6782 29.333 49.1028 37.9122 48.7357 42.8547C48.6623 43.8177 47.6262 44.6855 46.6962 44.8818C45.1299 45.2122 39.3541 44.8354 39.3541 44.8354C38.5056 44.8296 37.7716 44.2955 37.4779 43.5395C37.38 43.7515 37.2491 43.9486 37.0859 44.1208C36.7025 44.5356 36.164 44.7692 35.593 44.765C31.8158 44.7369 32.0606 44.919 28.724 44.7625C27.9817 44.7286 27.321 44.2881 26.9865 43.6132C26.3012 42.1981 24.6046 38.9647 23.7154 37.2647L14.0238 37.2639C13.412 38.891 12.3264 41.64 11.1598 43.8004C10.8335 44.4098 10.2302 44.8122 9.54494 44.871C7.99493 45.006 5.37582 44.8942 3.00186 44.8743L2.26813 44.7857L1.59096 44.5257L0.995045 44.1092L0.505887 43.5511L0.171285 42.8895L0 42.1758V41.4405L0.179251 40.7176C0.187409 40.7101 0.188015 40.7035 0.188015 40.6961C10.206 15.3145 10.2871 11.9477 10.54 8.75811C10.0913 6.91326 10.5403 5.71262 11.2745 4.91357C11.9679 4.1642 13.1505 3.65662 14.8229 3.57382C16.8624 3.47362 19.9384 3.92904 23.4708 3.98369C24.2784 3.99611 25.0041 4.49707 25.3223 5.25886C26.4562 8.04104 35.3646 31.2317 37.2899 40.2705Z" fill="#FFE7DE"/>
<path fill-rule="evenodd" clip-rule="evenodd" d="M46.7096 43.4709H46.7017L39.3755 43.4245C39.0247 43.422 38.731 43.1339 38.731 42.7745C38.576 33.6894 38.6492 24.2796 38.5023 15.1945C38.4942 15.0173 38.56 14.8459 38.6824 14.72C38.8047 14.5933 38.9755 14.5221 39.1468 14.5229L46.8969 14.5295C47.0763 14.5295 47.2397 14.6008 47.3621 14.7274C47.4845 14.8541 47.5501 15.0247 47.5501 15.2019C47.3054 29.3049 47.6397 29.0135 47.3541 42.8242L46.7096 43.4709ZM46.0651 42.146C46.318 29.2097 46.0162 29.0557 46.2364 15.8503L39.8081 15.8445C39.9467 24.5057 39.8895 33.4467 40.02 42.1071L46.0651 42.146ZM2.99937 43.4626C2.4691 43.4634 1.97156 43.1968 1.66972 42.7505C1.36788 42.3033 1.29388 41.732 1.48967 41.2253C1.48967 41.2228 1.48967 41.2211 1.48967 41.2186C11.891 14.8541 11.6708 11.9519 11.9564 8.63066C11.6708 7.60804 11.7286 6.86281 11.9978 6.32791C12.2915 5.72345 12.8702 5.32516 13.7186 5.12892C15.6276 4.69089 19.2256 5.32516 23.4595 5.3914C23.7206 5.39554 23.9488 5.55536 24.0467 5.79797C25.2867 8.83022 35.9085 36.3771 36.2756 42.6544C36.2838 42.8374 36.2187 43.0154 36.0964 43.1479C35.974 43.2804 35.8026 43.3549 35.6231 43.3541C31.8705 43.326 32.1149 43.5081 28.8028 43.3533C28.5662 43.3425 28.3544 43.2018 28.2483 42.9865C27.4325 41.3089 25.2132 37.0934 24.5605 35.853H13.0741C12.6336 37.0669 11.3533 40.5305 9.95831 43.1231C9.85226 43.3177 9.65576 43.446 9.44366 43.4651C7.91812 43.5976 5.3407 43.4816 2.99937 43.4626ZM3.00734 42.1419C5.1284 42.1593 7.46182 42.2619 8.9792 42.1742C10.5863 39.0881 12.0058 34.9744 12.0058 34.9744C12.0955 34.7095 12.3402 34.5323 12.6176 34.5323H24.9525C25.1891 34.5323 25.4095 34.6664 25.5237 34.8809C25.5237 34.8809 28.1421 39.8342 29.2434 42.0508C31.9273 42.1642 32.0501 42.0293 34.9053 42.0301C33.9509 34.9703 24.7323 11.0121 23.011 6.70301C19.7315 6.62103 16.8759 6.20536 14.967 6.29975C14.1838 6.33867 13.5805 6.42396 13.2541 6.77587C12.9686 7.09384 13.009 7.59976 13.2374 8.37066C13.2619 8.45181 13.2703 8.53792 13.2621 8.62238C12.9603 12.0397 13.3515 14.7175 2.7054 41.708C2.66461 41.8057 2.68095 41.9158 2.73806 42.0019C2.79517 42.0897 2.90147 42.1427 2.99937 42.1419C3.00753 42.1419 3.00734 42.1419 3.00734 42.1419ZM17.7163 12.9936C17.6918 12.6797 17.8955 12.3833 18.2055 12.3005C18.5481 12.2086 18.9076 12.4197 18.9974 12.7725C20.0987 17.0542 22.6761 22.9912 23.7774 27.2729C23.8264 27.4642 23.7857 27.6687 23.6714 27.8285C23.5572 27.9884 23.3781 28.0885 23.1823 28.1001C23.1823 28.1001 17.7165 28.4247 14.4125 28.0977C14.2167 28.0786 14.0447 27.971 13.9305 27.8054C13.8245 27.6398 13.792 27.4336 13.8572 27.2431C17.3407 15.9124 17.4145 14.0145 17.7163 12.9936ZM18.4668 15.5861C18.067 17.3581 17.2593 20.5601 15.3422 26.8473C17.7407 27.0005 20.8572 26.8896 22.3012 26.8225C21.3385 23.4342 19.6334 19.2071 18.4668 15.5861ZM43.895 2.39062C46.5055 2.39062 48.6264 4.54185 48.6264 7.19154C48.6264 9.84124 46.5055 11.9925 43.895 11.9925C41.2845 11.9925 39.1636 9.84124 39.1636 7.19154C39.1636 4.54185 41.2845 2.39062 43.895 2.39062ZM43.895 3.71216C42.0024 3.71216 40.4685 5.27134 40.4685 7.19154C40.4685 9.11174 42.0024 10.6709 43.895 10.6709C45.7876 10.6709 47.3215 9.11174 47.3215 7.19154C47.3215 5.27134 45.7876 3.71216 43.895 3.71216Z" fill="#FF7336"/>
</svg>
