<svg xmlns="http://www.w3.org/2000/svg" width="47" height="46" viewBox="0 0 47 46" fill="none">
  <g clip-path="url(#clip0_764_721)" filter="url(#filter0_d_764_721)">
    <g filter="url(#filter1_d_764_721)">
      <path fill-rule="evenodd" clip-rule="evenodd" d="M32.1836 11.269C32.2572 11.3175 32.3385 11.3669 32.4246 11.4185C33.937 12.3231 36.5429 13.4051 37.5803 14.3828C38.4075 15.1623 38.6234 16.0223 38.4711 16.7564C38.3434 17.3713 37.9052 18.1544 36.618 18.7062C35.8198 19.0485 29.9877 20.13 26.8036 20.1775C25.1028 20.2026 20.8057 20.5339 17.589 21.8877C18.3323 26.7262 18.6067 29.0344 18.6408 30.188C18.6805 31.5364 18.3795 32.0298 18.1611 32.3303L17.698 32.8046C17.3736 33.0672 17.0518 33.2257 16.7449 33.3146L16.2111 33.4041L15.6885 33.3698C15.137 33.2695 14.5752 32.96 14.0962 32.3475C13.7687 31.929 13.4511 31.3105 13.1813 30.5305C12.0187 27.1698 11.5026 20.0239 10.967 17.8923C10.6934 16.8039 10.557 15.2872 10.49 14.2803C10.2072 14.0736 9.9449 13.8321 9.71541 13.5321C9.27849 12.9608 8.92464 12.1677 8.90388 10.8946C8.87849 9.33309 9.56464 7.8854 11.269 6.91181C12.5426 6.18412 14.5346 5.71899 17.4352 5.89386C24.4849 6.31899 24.5554 6.4754 31.3177 4.49899L31.9293 4.43848L32.5036 4.59489L32.9862 4.94309L33.3234 5.45694C33.5305 5.95335 33.5529 6.79873 33.2331 7.82591C32.9339 8.78668 32.268 10.1098 32.1836 11.269Z" fill="#264A26"/>
    </g>
    <path fill-rule="evenodd" clip-rule="evenodd" d="M16.4062 21.1325C17.2462 26.5312 17.5549 29.0199 17.5906 30.2256C17.6154 31.0674 17.4918 31.3884 17.3554 31.5758C17.2865 31.6707 17.209 31.7384 17.1231 31.8076C16.7785 32.0863 16.4498 32.163 16.149 32.1081C15.8631 32.0563 15.5854 31.8751 15.337 31.5574C15.0775 31.2258 14.8377 30.7294 14.6239 30.1112C13.4713 26.7797 12.9726 19.693 12.4416 17.5797C12.117 16.2887 12.0047 14.3579 11.9618 13.5499C11.5939 13.3453 11.2413 13.1146 10.9649 12.753C10.6549 12.3479 10.4316 11.7769 10.417 10.8738C10.3988 9.75199 10.9118 8.7243 12.1359 8.02481C13.2608 7.38224 15.0277 7.01891 17.5893 7.17353C24.8608 7.61199 24.9331 7.76814 31.9085 5.72968C32.0965 5.67455 32.2959 5.76994 32.3713 5.95071C32.5024 6.26455 32.4424 6.79481 32.24 7.44481C31.8618 8.65994 31.0288 10.411 31.1354 11.8117C31.1375 11.8397 31.16 11.864 31.1821 11.8938C31.2175 11.9415 31.2631 11.9894 31.317 12.0389C31.4842 12.1928 31.7195 12.3522 31.998 12.5187C33.4403 13.3815 35.9426 14.3833 36.9321 15.3158C37.3524 15.7117 37.5242 16.123 37.447 16.4958C37.3752 16.841 37.067 17.2179 36.3442 17.5276C35.5857 17.8528 30.0406 18.8504 27.0159 18.8953C25.0588 18.9246 19.8539 19.3592 16.4062 21.1325ZM12.3903 12.9079C13.1521 12.3361 13.7372 12.2699 14.1652 12.4504C14.6447 12.6525 14.9949 13.2156 15.2159 13.9804C15.4626 14.8333 15.5811 15.9446 15.7331 16.8881C15.8339 17.5146 15.9298 18.1133 16.0208 18.6858C21.547 15.9997 26.9426 15.9751 30.9106 16.0061C32.4967 16.0184 33.8485 16.041 34.8783 15.8925C35.3359 15.8266 35.7252 15.7304 36.0324 15.5746C35.9295 15.501 35.8183 15.4269 35.7006 15.3525C34.4311 14.5502 32.4434 13.732 31.3424 13.0166C31.0198 12.8071 30.7672 12.6015 30.6093 12.4094C30.4575 12.2251 30.3813 12.041 30.3685 11.8702C30.2706 10.5833 30.8826 9.01301 31.3193 7.77173C31.4767 7.32404 31.609 6.92378 31.6603 6.60327C25.0142 8.53686 24.7831 8.37789 17.5429 7.94148C15.1847 7.79917 13.5531 8.10122 12.5177 8.69276C11.5813 9.22763 11.1721 10.0033 11.1862 10.8612C11.1972 11.5425 11.3421 11.9799 11.5757 12.2858C11.798 12.5763 12.0926 12.7463 12.3903 12.9079ZM36.6242 16.1181C35.8357 16.6243 34.5134 16.7676 32.7921 16.7822C28.8057 16.8161 22.5524 16.2879 16.147 19.4812C16.1931 19.773 16.238 20.0574 16.2816 20.3348C19.8406 18.5999 25.0265 18.1556 27.0044 18.1263C29.9336 18.0828 35.3065 17.1356 36.0411 16.8207C36.2852 16.7161 36.4644 16.612 36.5834 16.5004C36.6459 16.4415 36.6895 16.3879 36.6957 16.3261C36.7029 16.2548 36.6736 16.1874 36.6242 16.1181ZM12.7354 13.613C12.78 14.4446 12.8883 16.201 13.1875 17.3922C13.7159 19.4943 14.2044 26.5456 15.3508 29.8599C15.5313 30.381 15.7241 30.8038 15.9429 31.0835C16.0531 31.2246 16.1595 31.3284 16.2865 31.3515C16.3988 31.3717 16.5108 31.3135 16.6395 31.2097C16.7875 31.0899 16.8434 30.9838 16.8216 30.2484C16.778 28.7743 16.3188 25.3681 14.9736 17.0104C14.7924 15.884 14.6731 14.5053 14.2888 13.6733C14.1557 13.3853 14.0075 13.1615 13.7593 13.131C13.4893 13.0976 13.1657 13.2579 12.7354 13.613Z" fill="#FFE7DE"/>
  </g>
  <defs>
    <filter id="filter0_d_764_721" x="-1.58972" y="0" width="49.5897" height="46" filterUnits="userSpaceOnUse" color-interpolation-filters="sRGB">
      <feFlood flood-opacity="0" result="BackgroundImageFix"/>
      <feColorMatrix in="SourceAlpha" type="matrix" values="0 0 0 0 0 0 0 0 0 0 0 0 0 0 0 0 0 0 127 0" result="hardAlpha"/>
      <feOffset dy="4"/>
      <feGaussianBlur stdDeviation="4"/>
      <feComposite in2="hardAlpha" operator="out"/>
      <feColorMatrix type="matrix" values="0 0 0 0 0.119097 0 0 0 0 0.204167 0 0 0 0 0.119097 0 0 0 0.16 0"/>
      <feBlend mode="normal" in2="BackgroundImageFix" result="effect1_dropShadow_764_721"/>
      <feBlend mode="normal" in="SourceGraphic" in2="effect1_dropShadow_764_721" result="shape"/>
    </filter>
    <filter id="filter1_d_764_721" x="0.903198" y="0.438477" width="45.6132" height="44.9656" filterUnits="userSpaceOnUse" color-interpolation-filters="sRGB">
      <feFlood flood-opacity="0" result="BackgroundImageFix"/>
      <feColorMatrix in="SourceAlpha" type="matrix" values="0 0 0 0 0 0 0 0 0 0 0 0 0 0 0 0 0 0 127 0" result="hardAlpha"/>
      <feOffset dy="4"/>
      <feGaussianBlur stdDeviation="4"/>
      <feComposite in2="hardAlpha" operator="out"/>
      <feColorMatrix type="matrix" values="0 0 0 0 0.119097 0 0 0 0 0.204167 0 0 0 0 0.119097 0 0 0 0.16 0"/>
      <feBlend mode="normal" in2="BackgroundImageFix" result="effect1_dropShadow_764_721"/>
      <feBlend mode="normal" in="SourceGraphic" in2="effect1_dropShadow_764_721" result="shape"/>
    </filter>
    <clipPath id="clip0_764_721">
      <rect width="33.5897" height="30" fill="white" transform="translate(6.41028 4)"/>
    </clipPath>
  </defs>
</svg>
