<svg xmlns="http://www.w3.org/2000/svg" width="34" height="30" viewBox="0 0 34 30" fill="none">
<path fill-rule="evenodd" clip-rule="evenodd" d="M26.1833 7.26899C26.2568 7.31745 26.3381 7.36694 26.4243 7.41848C27.9366 8.32309 30.5425 9.40514 31.5799 10.3828C32.4071 11.1623 32.623 12.0223 32.4707 12.7564C32.343 13.3713 31.9048 14.1544 30.6176 14.7062C29.8194 15.0485 23.9874 16.13 20.8033 16.1775C19.1025 16.2026 14.8053 16.5339 11.5886 17.8877C12.332 22.7262 12.6063 25.0344 12.6404 26.188C12.6802 27.5364 12.3792 28.0298 12.1607 28.3303L11.6976 28.8046C11.3733 29.0672 11.0515 29.2257 10.7445 29.3146L10.2107 29.4041L9.68813 29.3698C9.13659 29.2695 8.57479 28.96 8.09582 28.3475C7.76838 27.929 7.45069 27.3105 7.18095 26.5305C6.01838 23.1698 5.50223 16.0239 4.96659 13.8923C4.693 12.8039 4.55659 11.2872 4.48966 10.2803C4.20684 10.0736 3.94454 9.83207 3.71505 9.53207C3.27812 8.96078 2.92428 8.16771 2.90351 6.89463C2.87812 5.33309 3.56428 3.8854 5.26864 2.91181C6.54223 2.18412 8.53428 1.71899 11.4348 1.89386C18.4845 2.31899 18.555 2.4754 25.3174 0.498989L25.9289 0.438477L26.5033 0.594887L26.9858 0.943092L27.323 1.45694C27.5302 1.95335 27.5525 2.79873 27.2327 3.82591C26.9335 4.78668 26.2676 6.10976 26.1833 7.26899Z" fill="#FFE7DE"/>
<path fill-rule="evenodd" clip-rule="evenodd" d="M10.4062 17.1326C11.2462 22.5313 11.5549 25.0201 11.5906 26.2257C11.6154 27.0675 11.4918 27.3885 11.3554 27.576C11.2865 27.6708 11.209 27.7385 11.1231 27.8077C10.7785 28.0865 10.4498 28.1631 10.149 28.1083C9.86312 28.0565 9.58543 27.8752 9.33697 27.5575C9.07748 27.226 8.83774 26.7295 8.62389 26.1113C7.47133 22.7798 6.97261 15.6931 6.44159 13.5798C6.11697 12.2888 6.00466 10.358 5.96184 9.55006C5.59389 9.34544 5.24133 9.11467 4.96492 8.75314C4.65492 8.34801 4.43159 7.77698 4.41697 6.87391C4.39877 5.75211 4.91184 4.72442 6.13595 4.02493C7.26082 3.38237 9.02774 3.01903 11.5893 3.17365C18.8608 3.61211 18.9331 3.76826 25.9085 1.7298C26.0965 1.67467 26.2959 1.77006 26.3713 1.95083C26.5024 2.26467 26.4424 2.79493 26.24 3.44493C25.8618 4.66006 25.0288 6.41108 25.1354 7.81185C25.1375 7.8398 25.16 7.86416 25.1821 7.89391C25.2175 7.9416 25.2631 7.98955 25.317 8.03903C25.4842 8.19288 25.7195 8.35237 25.998 8.51878C27.4403 9.3816 29.9426 10.3834 30.9321 11.316C31.3524 11.7119 31.5242 12.1231 31.447 12.496C31.3752 12.8411 31.067 13.218 30.3442 13.5278C29.5857 13.8529 24.0406 14.8506 21.0159 14.8954C19.0588 14.9247 13.8539 15.3593 10.4062 17.1326ZM6.3903 8.90801C7.1521 8.33621 7.73723 8.27006 8.16518 8.45057C8.64466 8.65262 8.99492 9.2157 9.21594 9.98057C9.46261 10.8334 9.58107 11.9447 9.73313 12.8883C9.83389 13.5147 9.92979 14.1134 10.0208 14.686C15.547 11.9998 20.9426 11.9752 24.9106 12.0062C26.4967 12.0185 27.8485 12.0411 28.8783 11.8926C29.3359 11.8267 29.7252 11.7306 30.0324 11.5747C29.9295 11.5011 29.8183 11.427 29.7006 11.3526C28.4311 10.5503 26.4434 9.73211 25.3424 9.01673C25.0198 8.80724 24.7672 8.6016 24.6093 8.40955C24.4575 8.22519 24.3813 8.04108 24.3685 7.87032C24.2706 6.58339 24.8826 5.01314 25.3193 3.77185C25.4767 3.32416 25.609 2.92391 25.6603 2.60339C19.0142 4.53698 18.7831 4.37801 11.5429 3.9416C9.18466 3.79929 7.55312 4.10134 6.51774 4.69288C5.58133 5.22775 5.1721 6.00339 5.1862 6.86134C5.19723 7.54262 5.3421 7.98006 5.57569 8.28596C5.798 8.57647 6.09261 8.74647 6.3903 8.90801ZM30.6242 12.1183C29.8357 12.6244 28.5134 12.7678 26.7921 12.7824C22.8057 12.8162 16.5524 12.288 10.147 15.4813C10.1931 15.7731 10.238 16.0575 10.2816 16.3349C13.8406 14.6001 19.0265 14.1557 21.0044 14.1265C23.9336 14.0829 29.3065 13.1357 30.0411 12.8208C30.2852 12.7162 30.4644 12.6121 30.5834 12.5006C30.6459 12.4416 30.6895 12.388 30.6957 12.3262C30.7029 12.2549 30.6736 12.1875 30.6242 12.1183ZM6.73543 9.61314C6.78005 10.4447 6.88825 12.2011 7.18748 13.3924C7.71595 15.4944 8.20441 22.5457 9.35082 25.8601C9.53133 26.3811 9.72415 26.8039 9.94287 27.0836C10.0531 27.2247 10.1595 27.3285 10.2865 27.3516C10.3988 27.3719 10.5108 27.3136 10.6395 27.2098C10.7875 27.0901 10.8434 26.9839 10.8216 26.2485C10.778 24.7744 10.3188 21.3683 8.97364 13.0106C8.79236 11.8842 8.67312 10.5054 8.28877 9.67339C8.15569 9.38544 8.00748 9.1616 7.75928 9.13108C7.48928 9.09775 7.16569 9.25801 6.73543 9.61314Z" fill="#FF7336"/>
</svg>
