<svg xmlns="http://www.w3.org/2000/svg" width="52" height="50" viewBox="0 0 52 50" fill="none">
<path d="M51.2346 26.1814L51.1461 4.80531C51.1372 3.96018 50.9425 3.19469 50.5664 2.50885C50.3319 2.07965 50.0354 1.71239 49.6903 1.40265C48.5974 0.429204 47.1859 0.353982 46.3407 0.309735C42.4248 0.106195 38.4292 0 34.4691 0C31.6505 0 28.8009 0.0530973 26 0.154867L25.3054 0.181416L23.0089 0.269912L23.1859 2.55752L23.239 3.24779C23.4691 6.17257 24.6062 8.65929 26.7036 10.8009C25.6151 10.7876 24.531 10.7743 23.4469 10.7743C20.6151 10.7743 17.7567 10.8274 14.9514 10.9292L14.2567 10.9558L11.9602 11.0442L12.1372 13.3319L12.1903 14.0221C12.4204 16.9469 13.5576 19.4336 15.6549 21.5752C14.5045 21.5575 13.354 21.5487 12.208 21.5487C9.38943 21.5487 6.53987 21.6018 3.73456 21.7035L3.03987 21.7301L0.743408 21.8186L0.920399 24.1062L0.973497 24.7965C1.25668 28.3982 2.9204 31.3363 6.05757 33.7832C8.25226 35.5 10.9823 36.5 13.8098 36.6372C13.8054 39.3186 14.593 42.0133 16.0797 44.2257C18.0266 47.1239 21.4204 49.2301 25.1549 49.854C25.5266 49.9115 25.8806 49.9292 26.0354 49.9336L26.7169 49.9469L28.9779 49.9912L28.9691 47.7301L28.916 35.3761C30.8806 37.2699 33.5266 38.6062 36.3717 39.0796C36.7523 39.146 37.1372 39.1549 37.2567 39.1593L37.9204 39.1726L40.1815 39.2168L40.1726 36.9557L40.1239 24.7566C42.0708 26.5664 44.6505 27.8451 47.4115 28.3053C47.7832 28.3628 48.1372 28.3805 48.2921 28.385L48.9735 28.3982L51.2346 28.4425L51.2257 26.1814H51.2346Z" fill="#FFE7DE"/>
<path d="M48.3762 26.1549L47.7169 26.1416C47.6859 26.1416 47.4204 26.1328 47.1771 26.093C44.1196 25.5841 41.3585 23.8806 39.7833 21.5399C38.1505 19.1107 37.5576 15.9514 38.1948 13.093C38.1638 13.093 38.124 13.1018 38.0797 13.1107C35.124 13.5708 31.9426 12.7478 29.5842 10.9071C27.0045 8.88943 25.6948 6.60182 25.4691 3.69916L25.416 3.03102L26.0886 3.00447C32.5842 2.76111 39.1682 2.80978 45.6638 3.14607C46.3895 3.18589 47.1373 3.25669 47.6019 3.66819C47.7567 3.80536 47.8895 3.96908 48.0001 4.17262C48.1948 4.52217 48.2921 4.92925 48.2965 5.37616L48.3806 26.1505L48.3762 26.1549ZM38.2921 11.8054C38.8054 11.8054 39.1682 11.9868 39.3762 12.3496C39.5974 12.7346 39.5089 13.1284 39.4558 13.3629C38.885 15.8894 39.4072 18.677 40.8541 20.8231C42.1815 22.7965 44.4957 24.2567 47.0842 24.7655L47.0045 5.385C47.0045 5.15934 46.9558 4.9558 46.8718 4.79651C46.8319 4.72571 46.7921 4.67262 46.7479 4.63279C46.6328 4.53102 46.2479 4.46465 45.593 4.42925C39.3718 4.10624 33.062 4.04872 26.8275 4.26111C27.1638 6.46465 28.3054 8.26554 30.3762 9.885C32.4603 11.5133 35.2656 12.2434 37.8806 11.8319C38.0266 11.8098 38.1682 11.7965 38.2965 11.7965L38.2921 11.8054Z" fill="#FF7336"/>
<path d="M37.6372 36.6285L36.9779 36.6153C36.9469 36.6153 36.6814 36.6064 36.4381 36.5666C33.3805 36.0578 30.6195 34.3542 29.0443 32.0135C27.4115 29.5843 26.8142 26.425 27.4558 23.5666C27.4248 23.5666 27.385 23.5755 27.3407 23.5843C24.3805 24.0445 21.2036 23.2215 18.8451 21.3808C16.2655 19.3675 14.9558 17.0755 14.7301 14.1728L14.677 13.5047L15.3496 13.4781C21.8451 13.2347 28.4292 13.2834 34.9248 13.6197C35.6505 13.6595 36.3982 13.7303 36.8628 14.1418C37.0177 14.279 37.1505 14.4471 37.2611 14.6462C37.4558 14.9958 37.5531 15.3985 37.5575 15.8498L37.6416 36.6241L37.6372 36.6285ZM27.5531 22.279C28.0664 22.279 28.4292 22.4604 28.6372 22.8232C28.8584 23.2082 28.7699 23.602 28.7168 23.8409C28.146 26.3675 28.6682 29.1551 30.1151 31.3011C31.4425 33.2746 33.7566 34.7347 36.3451 35.2436L36.2655 15.8631C36.2655 15.6374 36.2168 15.4339 36.1328 15.2746C36.0929 15.2038 36.0531 15.1507 36.0089 15.1109C35.8982 15.0091 35.5089 14.9427 34.8584 14.9073C28.6328 14.5843 22.323 14.5268 16.0929 14.7392C16.4292 16.9471 17.5708 18.748 19.6416 20.3631C21.7257 21.9914 24.531 22.7215 27.146 22.31C27.292 22.2878 27.4336 22.2746 27.562 22.2746L27.5531 22.279Z" fill="#FF7336"/>
<path d="M26.7434 47.1017L26.0841 47.0884C26.0531 47.0884 25.7877 47.0796 25.5399 47.0397C22.4868 46.5309 19.7213 44.8274 18.1461 42.4866C16.5133 40.053 15.916 36.8982 16.5576 34.0397C16.5266 34.0397 16.4868 34.0486 16.4425 34.0574C13.4823 34.5176 10.3054 33.6946 7.94695 31.8539C5.3673 29.8362 4.05757 27.5486 3.83191 24.6459L3.77881 23.9778L4.45137 23.9513C10.9469 23.7079 17.531 23.7566 24.0266 24.0928C24.7523 24.1327 25.4956 24.2035 25.9646 24.6194C26.1195 24.7566 26.2523 24.9247 26.3629 25.1238C26.5576 25.4734 26.6549 25.8805 26.6593 26.3274L26.7434 47.1017ZM16.6593 32.7521C17.1726 32.7521 17.5354 32.9336 17.7434 33.2964C17.9646 33.6813 17.8762 34.0751 17.8231 34.3097C17.2523 36.8362 17.7744 39.6238 19.2213 41.7698C20.5487 43.7433 22.8629 45.2035 25.4514 45.7123L25.3717 26.3318C25.3717 26.1061 25.3231 25.9026 25.239 25.7433C25.1992 25.6725 25.1593 25.6194 25.1151 25.5796C25 25.4778 24.6107 25.4114 23.9602 25.376C17.739 25.053 11.4293 24.9955 5.19474 25.2079C5.53102 27.4114 6.67261 29.2123 8.74341 30.8318C10.8275 32.4601 13.6328 33.1902 16.2478 32.7787C16.3939 32.7566 16.5354 32.7433 16.6638 32.7433L16.6593 32.7521Z" fill="#FF7336"/>
</svg>
