<svg xmlns="http://www.w3.org/2000/svg" width="52" height="50" viewBox="0 0 52 50" fill="none">
  <path d="M39.5332 0H12.4668C5.96158 0 0.688049 5.27353 0.688049 11.7788V38.2212C0.688049 44.7265 5.96158 50 12.4668 50H39.5332C46.0384 50 51.3119 44.7265 51.3119 38.2212V11.7788C51.3119 5.27353 46.0384 0 39.5332 0Z" fill="#FFE7DE"/>
  <path d="M39.1925 47.124H12.8075C7.71459 47.124 3.573 42.9824 3.573 37.8895V12.1107C3.573 7.01781 7.71459 2.87622 12.8075 2.87622H39.1925C44.2854 2.87622 48.427 7.01781 48.427 12.1107V37.8851C48.427 42.978 44.2854 47.1196 39.1925 47.1196V47.124ZM12.8075 4.16383C8.42698 4.16383 4.86061 7.7302 4.86061 12.1107V37.8851C4.86061 42.2656 8.42698 45.832 12.8075 45.832H39.1925C43.573 45.832 47.1394 42.2656 47.1394 37.8851V12.1107C47.1394 7.7302 43.573 4.16383 39.1925 4.16383H12.8075Z" fill="#EE733E"/>
  <path d="M13.0155 8.73914C11.3694 9.10639 10.0022 10.456 9.77653 12.1462C9.51989 14.0887 10.6748 16.0356 12.5155 16.7037C14.1217 17.2391 16.0597 16.6772 17.1261 15.3542C18.2279 13.9913 18.2721 12.0444 17.365 10.5621C16.4491 9.06657 14.719 8.35861 13.0199 8.73914H13.0155ZM16.3385 14.1374C15.6615 15.3321 14.1261 15.8232 12.8694 15.4073C11.7987 15.0179 11.104 13.8542 11.0774 12.7524C11.0509 11.5931 11.8075 10.5754 12.9093 10.1683C14.0199 9.75684 15.2367 10.0046 15.9978 10.9515C16.7057 11.8321 16.896 13.1462 16.334 14.1329L16.3385 14.1374Z" fill="#EE733E"/>
  <path d="M17.5022 34.9295C17.3119 30.7171 17.2632 26.4914 17.5376 22.2791C17.5774 21.664 17.6261 21.0445 17.6792 20.4295C17.719 19.9737 17.7942 19.518 17.719 19.0622C17.5553 18.1109 16.7632 17.6773 15.8739 17.5799C14.1305 17.3897 12.3694 17.5888 10.6217 17.5799C10.334 17.5799 10.1438 17.726 10.0464 17.9251C9.98891 18.018 9.95351 18.1242 9.94909 18.2525C9.77652 22.3897 9.86944 26.5313 10.0243 30.6684C10.104 32.7392 10.1924 34.8056 10.2677 36.8764C10.2854 37.3897 10.3031 37.8985 10.3163 38.4118C10.3296 38.8941 10.2986 39.4118 10.4314 39.8853C10.6482 40.6552 11.3208 41.0711 12.073 41.1994C12.9756 41.3543 13.9402 41.3941 14.8562 41.3631C15.6438 41.341 16.7942 41.3145 17.4004 40.726C18.0509 40.0932 17.7278 38.9074 17.6792 38.1153C17.6128 37.0534 17.5553 35.987 17.5066 34.9251L17.5022 34.9295ZM16.4491 39.7127C16.3473 39.9384 15.6261 39.9693 15.365 39.9914C14.5066 40.0711 13.6394 40.0047 12.7854 39.9384C12.5155 39.9162 12.1394 39.9162 11.9048 39.7569C11.5995 39.549 11.6747 39.0755 11.6659 38.7481C11.6394 37.8366 11.6084 36.9251 11.5774 36.0136C11.511 34.1994 11.4314 32.3853 11.365 30.5667C11.219 26.6861 11.1394 22.8012 11.2765 18.9207C12.2942 18.903 13.3119 18.8454 14.334 18.8631C14.7942 18.872 16.219 18.6861 16.396 19.2702C16.4889 19.5755 16.3739 20.0136 16.3429 20.3233C16.2986 20.7923 16.2632 21.2658 16.2278 21.7348C15.9579 25.4649 15.9491 29.2083 16.0774 32.9428C16.1394 34.7791 16.2323 36.6153 16.3473 38.4472C16.365 38.7038 16.3783 38.9605 16.396 39.2127C16.4048 39.3145 16.4845 39.6286 16.4447 39.7127H16.4491Z" fill="#EE733E"/>
  <path d="M42.1216 31.58C42.0774 29.0357 42.3031 26.2702 41.5464 23.8056C40.3473 19.8985 36.3473 17.1684 32.2632 17.6596C30.6128 17.8587 29.0331 18.5047 27.7323 19.518C27.7765 19.0313 27.8031 18.5446 27.7986 18.0534C27.7942 17.6906 27.4933 17.3764 27.1261 17.3808C25.1393 17.403 23.1482 17.403 21.1615 17.403C20.7765 17.3056 20.2986 17.5092 20.3031 18.0269C20.3473 25.3808 20.1039 32.7392 20.0951 40.0932C20.0951 40.4649 20.4048 40.7525 20.7677 40.7658C21.3783 40.7879 21.9933 40.8145 22.6039 40.8366C23.1039 40.8499 23.6039 40.8499 24.1084 40.8543C24.8119 40.8631 25.6747 41.0136 26.3562 40.7968C26.9535 40.6065 27.2146 40.0534 27.2544 39.4693C27.3075 38.6817 27.2323 37.872 27.2323 37.0844C27.2367 35.4251 27.2986 33.7702 27.4225 32.1153C27.5376 30.5313 27.6703 28.9295 27.9314 27.3587C28.1216 26.2083 28.5597 24.9959 29.865 24.8145C30.8473 24.6773 31.9181 25.1021 32.6305 25.7746C33.5464 26.6419 33.9269 27.9649 34.1039 29.1817C34.3429 30.8145 34.2854 32.5003 34.3163 34.1463C34.3562 36.0622 34.3916 37.9826 34.4314 39.8985C34.4402 40.2614 34.7323 40.5711 35.1039 40.5711C37.2677 40.5623 39.4314 40.5534 41.5995 40.5445C41.9579 40.5445 42.2809 40.2392 42.2721 39.872L42.1261 31.5888L42.1216 31.58ZM31.5508 23.6463C30.5243 23.3322 29.334 23.3587 28.396 23.9251C27.1792 24.6552 26.7677 26.0313 26.5774 27.3587C26.0862 30.7569 25.8694 34.2038 25.8871 37.6375C25.8871 38.0799 25.896 38.5224 25.9048 38.9649C25.9048 39.0578 25.9535 39.3764 25.9048 39.4738C25.8385 39.6021 25.7234 39.5313 25.4933 39.5313C24.5685 39.5268 23.6438 39.5268 22.719 39.5003C22.2942 39.487 21.8694 39.4693 21.4402 39.4516C21.4623 32.5534 21.6703 25.6552 21.6438 18.7525C23.2411 18.7525 24.8385 18.7525 26.4358 18.7348C26.4048 19.5932 26.2898 20.4339 26.0818 21.2791C25.9358 21.8764 26.7677 22.4959 27.2057 21.9339C29.5376 18.9384 33.8252 18.0313 37.073 20.0844C38.5862 21.0446 39.7677 22.5401 40.2721 24.2658C40.9314 26.518 40.7234 29.0357 40.7677 31.3587C40.8119 33.9693 40.8606 36.5844 40.9048 39.195C39.188 39.2038 37.4712 39.2083 35.7544 39.2171C35.7234 37.6729 35.6924 36.1286 35.6615 34.5844C35.6305 33.0003 35.6526 31.3985 35.511 29.8189C35.2765 27.2038 34.2854 24.487 31.5464 23.6507L31.5508 23.6463Z" fill="#EE733E"/>
</svg>
