<svg xmlns="http://www.w3.org/2000/svg" width="58" height="46" viewBox="0 0 58 46" fill="none">
  <path d="M54.8392 2.19646C54.5007 1.85 54.1064 1.55929 53.6763 1.33628C52.5971 0.782743 51.4502 0.5 50.2555 0.5C46.6356 0.5 43.6808 3.02876 42.4104 4.31106L31.8772 12.2876C30.8578 13.0602 29.7188 13.9243 28.5679 14.6571C24.1436 11.8177 19.9861 8.54823 16.1989 4.94027L15.9759 4.7292C15.9241 4.66549 15.8684 4.60177 15.8126 4.54204C14.9286 3.59823 11.7109 0.5 7.74449 0.5C6.55378 0.5 5.4029 0.782743 4.32768 1.3323C3.90555 1.55133 3.51927 1.83407 3.17281 2.18053C-0.200201 5.62522 -0.0608203 10.5075 0.0307726 13.7412C0.146259 17.7792 0.122366 22.9363 0.0984717 27.9261V28.2925C0.0785602 31.9004 0.0546664 35.9903 0.0984717 39.5066C0.114401 41.1274 0.763516 42.6447 1.92635 43.7757C3.0613 44.8867 4.56661 45.5 6.15953 45.5H6.24316C6.64537 45.492 7.05953 45.4881 7.47768 45.4841C7.84803 45.4801 8.21838 45.4761 8.59272 45.4681C10.2334 45.4442 12.2803 45.4164 13.5786 45.4164C13.8533 45.4164 14.0963 45.4164 14.2994 45.4204L14.8927 45.4283L16.8679 45.4562L16.9078 43.481L17.2423 26.9743C17.987 27.5319 18.7277 28.0894 19.4564 28.6389L20.4879 29.4155C22.3595 30.8292 24.8286 32.6889 27.2578 34.4929H27.2657L27.2777 34.5088C27.5047 34.6761 28.1936 35.1779 29.1812 35.1779C29.233 35.1779 29.3365 35.1779 29.4679 35.1619C30.3002 35.0823 30.8538 34.6681 31.0609 34.5088C34.3662 32.0358 37.6317 29.5549 40.7578 27.1615L41.0883 43.481L41.1281 45.4562L43.1033 45.4283L43.7007 45.4204C43.9038 45.4204 44.1467 45.4164 44.4215 45.4164C45.7157 45.4164 47.7626 45.4442 49.4073 45.4681C49.7777 45.4721 50.148 45.4801 50.5144 45.4841C50.9365 45.4881 51.3547 45.496 51.7569 45.5H51.7728H51.7887H51.8365C53.4294 45.5 54.9348 44.8867 56.0737 43.7717C57.2325 42.6447 57.8817 41.1274 57.8976 39.5027C57.9374 36.2332 57.9215 32.5097 57.9055 28.9097V28.2885C57.8737 23.1832 57.8458 17.9066 57.9653 13.7412C58.0569 10.4996 58.1963 5.62124 54.8352 2.19646H54.8392Z" fill="#FFE7DE"/>
  <path d="M14.7932 6.40971C14.0246 5.58936 9.97459 1.5991 5.92857 3.68184C5.6976 3.80131 5.48255 3.9606 5.2914 4.15573C2.60335 6.89556 2.71884 10.9774 2.80645 13.9562C2.92194 18.0022 2.89804 23.1593 2.87017 28.1451C2.85025 31.8367 2.83034 35.6597 2.87017 39.0048C2.88211 40.0602 3.30424 41.0478 4.06087 41.7885C4.80556 42.5133 5.78521 42.9115 6.82061 42.9115C6.83654 42.9115 6.85247 42.9115 6.8684 42.9115C7.59716 42.9035 8.3737 42.8916 9.15025 42.8836C11.3485 42.8557 13.6224 42.8239 14.7414 42.8398L15.3188 42.8478L15.7211 23.0597C17.7998 24.6048 19.8666 26.1619 21.8896 27.6871C24.0361 29.304 26.2582 30.9765 28.4564 32.6133C28.5839 32.7088 28.8348 32.896 29.1693 32.896C29.1972 32.896 29.225 32.896 29.2529 32.896C29.5317 32.8721 29.7348 32.7168 29.8423 32.6371C34.0078 29.519 38.1653 26.3451 42.2671 23.1951L42.6693 42.8597L43.2467 42.8518C44.3657 42.8358 46.6396 42.8677 48.8379 42.8956C49.6144 42.9075 50.391 42.9155 51.1197 42.9234C51.1357 42.9234 51.1516 42.9234 51.1675 42.9234C52.2069 42.9234 53.1865 42.5252 53.9272 41.8004C54.6839 41.0637 55.106 40.0761 55.118 39.0168C55.1578 35.6717 55.1379 31.8487 55.118 28.1531C55.0941 23.1672 55.0662 18.0102 55.1817 13.9681C55.2693 10.9894 55.3848 6.9075 52.6967 4.16768C52.5056 3.97255 52.2905 3.81325 52.0595 3.69379C48.0653 1.63892 44.0711 5.49777 43.2308 6.38582L43.2228 6.37387L32.9525 14.1513C31.7379 15.0712 30.4795 16.027 29.1573 16.8194C28.9423 16.9469 28.7352 17.0624 28.568 17.0664C28.3887 17.0664 28.1578 16.9349 27.9029 16.7756C23.375 13.9044 19.11 10.5752 15.2272 6.87564L14.7852 6.42166L14.7932 6.40971ZM44.0511 7.20618C44.7202 6.49334 48.2326 3.01281 51.5379 4.71724C51.6573 4.77697 51.7768 4.86458 51.8764 4.9721C53.748 6.87963 54.0706 9.496 54.0587 12.4907C53.1348 13.2075 52.0118 14.1115 50.9206 14.9836C49.7458 15.9274 48.5312 16.8991 47.5795 17.6358C46.1936 18.7031 44.7918 19.7823 43.3861 20.8655L43.2268 13.1518C43.187 11.1526 43.4538 9.16547 44.0233 7.24998C44.0272 7.23007 44.0352 7.21812 44.0472 7.20618H44.0511ZM6.12371 4.96812C6.22724 4.86458 6.34273 4.77697 6.4622 4.71325C7.09937 4.38671 7.7445 4.25131 8.37371 4.25131C11.014 4.25131 13.4073 6.62874 13.9489 7.20618C13.9609 7.21812 13.9688 7.23007 13.9728 7.24998C14.5423 9.16547 14.8091 11.1526 14.7693 13.1518L14.614 20.7898C14.4069 20.6385 14.2038 20.4871 14.0007 20.3358C12.7463 19.4159 11.4281 18.5318 10.1538 17.6796C8.03521 16.2579 5.84893 14.7925 3.94937 13.1398C3.88963 9.87432 4.11663 7.01901 6.12371 4.9721V4.96812ZM14.1879 41.673C12.9573 41.669 11.0219 41.6969 9.13831 41.7208C8.36176 41.7327 7.58521 41.7407 6.85645 41.7487C6.8445 41.7487 6.83255 41.7487 6.82061 41.7487C6.08786 41.7487 5.39494 41.4659 4.86928 40.9562C4.33565 40.4345 4.03698 39.7376 4.02901 38.9889C3.98919 35.6518 4.0091 31.8407 4.02901 28.1491C4.05291 23.4579 4.0768 18.6155 3.98521 14.677C5.73344 16.1026 7.64494 17.3889 9.50866 18.6354C10.775 19.4836 12.0812 20.3597 13.3118 21.2637C13.7379 21.5743 14.16 21.8889 14.5861 22.2035L14.1879 41.665V41.673ZM29.1693 31.6854C29.1693 31.6854 29.1613 31.6774 29.1534 31.6734C26.9551 30.0407 24.737 28.3681 22.5905 26.7513C20.3525 25.0668 18.0587 23.3385 15.7529 21.6301L15.9241 13.1717C15.956 11.6703 15.8166 10.181 15.5219 8.71547C19.1618 12.0606 23.1082 15.0951 27.2817 17.7394C27.5803 17.9265 28.0264 18.2133 28.564 18.2133H28.5839C29.0418 18.2053 29.4122 18.0062 29.7547 17.7991C31.1286 16.9708 32.4109 15.9991 33.6534 15.0593L42.5458 8.32918C42.1954 9.91812 42.0321 11.5389 42.064 13.1717L42.2392 21.7376C37.9303 25.0509 33.5498 28.4 29.1653 31.6814L29.1693 31.6854ZM53.9671 38.9929C53.9591 39.7416 53.6604 40.4385 53.1268 40.9602C52.5932 41.4818 51.8883 41.7566 51.1396 41.7526C50.4109 41.7447 49.6343 41.7327 48.8578 41.7248C47.0697 41.7009 45.2299 41.677 43.9914 41.677H43.8082L43.414 22.3071C45.0507 21.0487 46.6755 19.7942 48.2843 18.5557C49.248 17.815 50.4666 16.8354 51.6454 15.8876C52.4538 15.2385 53.2821 14.5734 54.0308 13.9841C53.9153 18.038 53.9432 23.1792 53.9671 28.1531C53.987 31.8447 54.0029 35.6597 53.9671 38.9969V38.9929Z" fill="#FF7336"/>
</svg>
