<svg xmlns="http://www.w3.org/2000/svg" width="52" height="50" viewBox="0 0 52 50" fill="none">
<path d="M39.5884 0H12.4115C5.93555 0 0.685791 5.24976 0.685791 11.7257V38.2743C0.685791 44.7502 5.93555 50 12.4115 50H39.5884C46.0644 50 51.3141 44.7502 51.3141 38.2743V11.7257C51.3141 5.24976 46.0644 0 39.5884 0Z" fill="#FFE7DE"/>
<path d="M39.5885 47.7876H12.4115C7.16368 47.7876 2.89819 43.5221 2.89819 38.2743V11.7257C2.89819 6.47789 7.1681 2.2124 12.4115 2.2124H39.5885C44.8362 2.2124 49.1017 6.47789 49.1017 11.7257V38.2743C49.1017 43.5221 44.8362 47.7876 39.5885 47.7876ZM12.4115 3.53984C7.89819 3.53984 4.22563 7.2124 4.22563 11.7257V38.2743C4.22563 42.7876 7.89819 46.4602 12.4115 46.4602H39.5885C44.1017 46.4602 47.7743 42.7876 47.7743 38.2743V11.7257C47.7743 7.2124 44.1017 3.53984 39.5885 3.53984H12.4115Z" fill="#EE733E"/>
<path d="M26.3141 35.2433C25.2079 35.2433 23.9557 34.8672 22.4158 33.9956L23.2875 32.4557C26.5663 34.3141 27.8008 33.5398 30.7654 30.6593L30.845 30.5885C32.5353 29.3053 33.8362 30.3363 35.0972 31.3318L35.2477 31.4557C36.5574 32.6681 38.522 33.2212 40.1415 32.8274C40.9601 32.6283 42.0442 32.0885 42.5707 30.6504C43.1503 28.3982 40.5972 25.5796 38.73 23.5177C38.4822 23.2433 38.2477 22.9823 38.0264 22.7345C37.8229 22.5221 37.5928 22.2787 37.3539 22.0265C35.8627 20.438 34.3273 18.7964 32.3627 18.4646C30.8008 18.177 29.2654 19.0398 27.3804 21.2566C25.8318 23.0575 24.3008 24.9203 22.8141 26.7256C21.7433 28.0265 20.6415 29.3717 19.5397 30.6814C18.522 31.8628 17.4158 33.0841 16.0132 33.9823C13.5132 35.5929 10.7167 35.5619 8.88928 33.8938C7.053 32.2124 6.76539 29.4071 8.15919 26.7478C9.19902 24.6062 10.8583 22.8451 12.4645 21.1416C12.7388 20.854 13.0088 20.5664 13.2742 20.2743L13.6459 19.8717C15.7521 17.5796 18.1415 14.9823 22.1282 16.7389L21.4158 18.3584C18.7256 17.1726 17.2079 18.615 14.9512 21.0664L14.5751 21.4734C14.3052 21.7655 14.0309 22.0575 13.7521 22.3495C12.2388 23.9557 10.6725 25.615 9.73884 27.5398C8.4999 29.9026 9.1061 31.6902 10.084 32.5841C11.3185 33.7124 13.2211 33.677 15.0574 32.4911C16.261 31.7212 17.2698 30.6062 18.1946 29.531C19.2831 28.2389 20.3849 26.8982 21.4512 25.6018C22.9424 23.7876 24.4822 21.9159 26.0397 20.1062C27.4911 18.4026 29.7565 16.1947 32.6725 16.7212C35.2123 17.146 37.0397 19.0973 38.6503 20.8141C38.8804 21.0575 39.1061 21.3009 39.3318 21.531C39.5707 21.8009 39.8052 22.0575 40.0441 22.323C42.1946 24.6991 45.1371 27.9513 44.2698 31.1416L44.2477 31.2079C43.6326 32.9248 42.3185 34.1106 40.5574 34.5398C38.3981 35.0619 35.7964 34.354 34.0707 32.7699L33.9999 32.7124C32.6548 31.646 32.4424 31.6018 31.9557 31.9602C29.9866 33.8672 28.4158 35.2345 26.3096 35.2345L26.3141 35.2433Z" fill="#FF7336"/>
</svg>
