<svg xmlns="http://www.w3.org/2000/svg" width="52" height="50" viewBox="0 0 52 50" fill="none">
<g clip-path="url(#clip0_909_812)">
<path d="M39.5885 0H12.4115C5.93561 0 0.685852 5.24976 0.685852 11.7257V38.2743C0.685852 44.7502 5.93561 50 12.4115 50H39.5885C46.0644 50 51.3142 44.7502 51.3142 38.2743V11.7257C51.3142 5.24976 46.0644 0 39.5885 0Z" fill="#FFE7DE"/>
<path d="M16.0841 38.5354C15.9027 39.031 15.7168 39.5265 15.5354 40.0221L16.177 39.5354C14.677 39.4203 13.177 39.6991 11.677 39.5885L12.3186 40.4292C13.4071 36.1062 14.5133 31.7832 15.3319 27.3982C15.739 25.2212 16.1549 23 16.208 20.7832C16.2567 18.8761 15.9027 17.1858 15.1593 15.438C14.2832 13.3717 13.2257 11.3982 12.4912 9.26989L12.0266 10.0885C13.2257 9.91149 14.4823 9.93804 15.6903 10.0177L15.2213 9.82299C17.9159 12.4469 20.6106 15.0752 23.3097 17.6991C23.4115 17.7964 23.5797 17.9115 23.6505 18.031C23.5575 17.8805 23.5797 18.0044 23.5221 18.1681C23.469 18.323 23.4115 18.4779 23.3584 18.6327C23.0177 19.6018 22.6637 20.5708 22.3142 21.5398C21.2832 24.3849 20.239 27.2256 19.1947 30.0664C18.1505 32.9071 17.1195 35.7079 16.0797 38.531C15.7832 39.3318 17.0664 39.6814 17.3584 38.8849C19.5487 32.9513 21.7434 27.0133 23.8938 21.0664C24.2168 20.177 24.5752 19.2876 24.8496 18.3761C25.1239 17.4646 24.4735 16.9867 23.9027 16.4292C22.0531 14.6283 20.2036 12.8274 18.354 11.0221C17.6505 10.3363 16.9646 9.6283 16.2434 8.96458C15.9204 8.6637 15.5575 8.67697 15.1328 8.65927C13.9735 8.61503 12.8142 8.63273 11.6682 8.80529C11.3274 8.85396 11.0974 9.31414 11.2036 9.62388C11.8451 11.4911 12.7124 13.2566 13.5354 15.0487C14.2611 16.6327 14.8274 18.1725 14.8717 19.9292C14.9292 22.1504 14.5266 24.3672 14.1328 26.5442C13.739 28.7212 13.2876 30.7964 12.792 32.9026C12.2301 35.3009 11.6283 37.6858 11.0266 40.0708C10.9159 40.5133 11.2345 40.8761 11.6682 40.9115C13.1682 41.0265 14.6682 40.7478 16.1682 40.8584C16.4735 40.8805 16.7124 40.6327 16.8097 40.3717C16.9912 39.8761 17.177 39.3805 17.3584 38.8849C17.6549 38.0841 16.3717 37.7345 16.0797 38.531L16.0841 38.5354Z" fill="#EE733E"/>
<path d="M25.0354 38.3761C24.8452 38.9248 24.6549 39.4734 24.4646 40.0177L25.1062 39.5309C23.6062 39.4159 22.1062 39.6947 20.6062 39.584L21.2478 40.4248C22.3363 36.1017 23.4425 31.7787 24.2611 27.3938C24.6682 25.2168 25.0841 22.9955 25.1372 20.7787C25.1859 18.8717 24.8319 17.1814 24.0885 15.4336C23.2124 13.3672 22.1549 11.3938 21.4204 9.26546L20.9558 10.084C22.1549 9.90705 23.4115 9.9336 24.6195 10.0132L24.1505 9.81856C25.416 10.8761 26.6815 11.938 27.9469 12.9955C28.885 13.7832 29.8231 14.5663 30.7611 15.354L31.8098 16.2345C32.0177 16.4115 32.2346 16.6548 32.4735 16.792C32.5045 16.8097 32.5531 16.8495 32.5753 16.8761C32.5177 16.8053 32.5753 16.7301 32.5133 16.8274C32.4779 16.8761 32.4646 16.969 32.4469 17.0265C32.3319 17.3717 32.2124 17.7168 32.093 18.0575C31.7346 19.0929 31.3761 20.1327 31.0177 21.1681C30.0177 24.0575 29.0133 26.9425 28.0089 29.8274C27.0045 32.7124 26.0266 35.5221 25.0354 38.3717C24.7523 39.1814 26.0354 39.5265 26.3142 38.7256C28.416 32.6991 30.5133 26.6725 32.6018 20.6416C32.9514 19.6327 33.3009 18.6283 33.6461 17.6194C33.8275 17.0929 34 16.584 33.6239 16.0752C33.4912 15.8982 33.3186 15.7699 33.1505 15.6283C31.27 14.0531 29.385 12.4778 27.5045 10.8982C26.7301 10.2478 25.9602 9.59289 25.177 8.9513C24.823 8.65926 24.4558 8.66811 24.0133 8.65484C22.8717 8.61502 21.7346 8.63714 20.6018 8.80086C20.2611 8.84953 20.031 9.30971 20.1372 9.61944C20.7788 11.4867 21.6461 13.2522 22.4691 15.0442C23.1947 16.6283 23.7611 18.1681 23.8054 19.9248C23.8629 22.146 23.4602 24.3628 23.0664 26.5398C22.6726 28.7168 22.2213 30.792 21.7257 32.8982C21.1638 35.2964 20.562 37.6814 19.9602 40.0663C19.8496 40.5088 20.1682 40.8717 20.6018 40.9071C22.1018 41.0221 23.6018 40.7433 25.1018 40.854C25.4027 40.8761 25.6505 40.6283 25.7434 40.3672C25.9337 39.8186 26.1239 39.2699 26.3142 38.7256C26.5974 37.9159 25.3142 37.5708 25.0354 38.3717V38.3761Z" fill="#EE733E"/>
<path d="M34.3054 37.9869C34.0974 38.6639 33.885 39.3409 33.677 40.0179L34.3186 39.5312C32.8186 39.4161 31.3186 39.6949 29.8186 39.5843L30.4602 40.425C31.5664 36.0356 32.6903 31.6462 33.5133 27.1949C33.9337 24.9117 34.3717 22.5754 34.3585 20.248C34.3452 18.425 33.9116 16.8586 33.1151 15.2259C32.1549 13.2524 31.0576 11.363 30.3673 9.26567L29.9027 10.0843C30.8275 9.94709 31.7788 9.95594 32.7124 9.97806C33.0178 9.98249 33.3231 10.0046 33.6284 10.009C34.0354 10.009 33.5487 9.97806 33.5266 9.94709C33.6505 10.1108 33.9779 10.2436 34.1461 10.3542L35.4248 11.1905C37.3762 12.4692 39.3275 13.748 41.2788 15.0267C41.3629 15.0843 41.4647 15.1728 41.5576 15.2082C41.5753 15.2126 41.6107 15.2524 41.6239 15.2524C41.5531 15.2568 41.562 15.0002 41.4425 15.1064C41.2877 15.2391 41.2124 15.8099 41.1505 16.0002C40.8098 17.0621 40.4779 18.1241 40.1416 19.186C39.1726 22.2789 38.208 25.3719 37.2478 28.4692C36.2877 31.5666 35.2788 34.8188 34.2965 37.9913C34.0443 38.8099 35.3231 39.1595 35.5753 38.3453C37.4824 32.1816 39.385 26.0135 41.3142 19.8586C41.6638 18.7436 42.0133 17.6241 42.3717 16.5135C42.6328 15.6949 43.1372 14.6993 42.239 14.0754C40.4116 12.8143 38.5178 11.6374 36.6593 10.425C35.8496 9.89399 35.0531 9.29665 34.2036 8.81877C33.8231 8.60196 33.2478 8.66833 32.8275 8.65948C31.7257 8.63293 30.6284 8.65063 29.5354 8.81435C29.1903 8.86302 28.9691 9.3232 29.0708 9.63293C29.677 11.4825 30.562 13.2037 31.4558 14.9294C32.2169 16.4028 32.8939 17.8365 32.9912 19.5135C33.1195 21.7745 32.7169 24.04 32.3231 26.2568C31.9293 28.4736 31.4602 30.6374 30.9558 32.8143C30.3894 35.2436 29.7744 37.6639 29.1638 40.0843C29.0531 40.5267 29.3717 40.8896 29.8054 40.925C31.3054 41.04 32.8054 40.7613 34.3054 40.8719C34.6018 40.894 34.8629 40.6506 34.947 40.3851C35.1549 39.7082 35.3673 39.0312 35.5753 38.3542C35.8275 37.5356 34.5487 37.186 34.2965 38.0002L34.3054 37.9869Z" fill="#EE733E"/>
<path d="M39.5885 47.7876H12.4115C7.16374 47.7876 2.89825 43.5221 2.89825 38.2743V11.7257C2.89825 6.48231 7.16817 2.2124 12.4115 2.2124H39.5885C44.8363 2.2124 49.1018 6.47789 49.1018 11.7257V38.2743C49.1018 43.5221 44.8363 47.7876 39.5885 47.7876ZM12.4115 3.53984C7.89825 3.53984 4.22569 7.2124 4.22569 11.7257V38.2743C4.22569 42.7876 7.89825 46.4602 12.4115 46.4602H39.5885C44.1018 46.4602 47.7744 42.7876 47.7744 38.2743V11.7257C47.7744 7.2124 44.1018 3.53984 39.5885 3.53984H12.4115Z" fill="#EE733E"/>
</g>
<defs>
<clipPath id="clip0_909_812">
<rect width="50.6283" height="50" fill="white" transform="translate(0.685852)"/>
</clipPath>
</defs>
</svg>
