<svg xmlns="http://www.w3.org/2000/svg" width="68" height="46" viewBox="0 0 68 46" fill="none">
<path d="M67.9929 40.0786C67.8097 35.3875 64.365 30.8277 59.2199 28.4463C55.8708 26.9012 52.3424 26.3198 48.9256 25.7543C48.0893 25.6149 47.2212 25.4715 46.3769 25.3162C45.469 25.149 44.4575 24.9379 43.8323 24.5158C43.0756 24.0021 42.5221 22.9826 41.8809 21.7998C41.3035 20.7326 40.6584 19.5379 39.7146 18.4906C38.4522 17.0888 36.7199 16.1211 34.7964 15.7069C35.1031 14.8069 35.6048 13.7397 35.9593 12.979C36.6124 11.5892 37.2854 10.1675 37.5522 8.82551C37.9584 6.75869 37.6159 4.78347 36.5845 3.25427C35.6526 1.86444 34.2389 0.952498 32.5026 0.617984C32.1562 0.550285 31.2601 0.422852 30.3442 0.422852C29.5 0.422852 28.819 0.526391 28.2654 0.741436C26.577 1.39852 24.7053 3.05913 24.315 5.30117C24.0362 6.91002 24.319 8.45117 24.6376 9.7494C24.9084 10.9043 25.9438 11.7286 27.1504 11.7286C27.3495 11.7286 27.5486 11.7047 27.7398 11.6609C28.4247 11.4976 28.9982 11.0835 29.3606 10.4901C29.723 9.89675 29.8305 9.19984 29.6632 8.52285C29.4721 7.71843 29.3048 6.8702 29.4084 6.21312C29.4601 6.07772 29.715 5.77506 30.0416 5.61577C30.1013 5.61179 30.2048 5.60383 30.3641 5.60383C30.7504 5.60383 31.2163 5.64365 31.527 5.70338C32.0008 5.79498 32.184 5.98613 32.2876 6.14542C32.5424 6.52374 32.6101 7.13303 32.4708 7.82197C32.3314 8.52285 31.8137 9.63391 31.3079 10.7091L31.2801 10.7649C30.5035 12.4096 29.6513 14.2255 29.4124 16.0295C28.0942 16.4875 26.8995 17.2282 25.9597 18.1839C25.2827 18.8689 24.761 19.6096 24.3031 20.2627L24.2871 20.2826C23.9407 20.7724 23.642 21.1985 23.3155 21.5569C21.7663 23.2613 19.0424 24.006 16.4101 24.7268L15.6137 24.9459C12.3004 25.8737 8.48536 27.172 5.29156 29.7844C2.81059 31.8153 1.03846 34.4835 0.301736 37.299C-0.0168484 38.5255 -0.0805652 39.7321 0.114568 40.895C0.815452 45.1043 3.71058 45.4308 4.57873 45.4308H4.64244C6.16368 45.4069 7.59333 44.5268 8.37386 43.129C8.70439 42.5317 8.89952 41.9463 9.01501 41.3808C14.9725 41.0861 21.0137 40.9348 26.9991 40.9348C37.9106 40.9348 48.9177 41.4286 59.7376 42.4043C60.2752 43.7662 61.4221 44.7936 62.8677 45.1242C63.1982 45.1998 63.5327 45.2397 63.8593 45.2397C64.7712 45.2397 65.6194 44.941 66.3163 44.3795C67.4234 43.4715 68.0327 41.9662 67.9969 40.2379V40.0786H67.9929Z" fill="#FFE7DE"/>
<path d="M65.0699 39.6363C64.9186 35.8173 62.0155 32.0501 57.6708 30.043C54.6681 28.6532 51.3708 28.1116 48.177 27.5819C47.3367 27.4425 46.4965 27.3032 45.6642 27.1518C44.5412 26.9448 43.3704 26.6899 42.4584 26.0726C41.3314 25.308 40.6584 24.0655 39.9496 22.7554C39.4199 21.7797 38.8743 20.7682 38.1097 19.92C36.8473 18.5182 34.9438 17.6899 32.8889 17.6421C32.8013 17.6421 32.7137 17.6461 32.6221 17.6461C32.3633 16.2642 33.315 14.2332 34.1593 12.4332C34.7646 11.143 35.3381 9.92838 35.5491 8.86112C35.8438 7.36776 35.6168 5.96599 34.908 4.91068C34.2907 3.99475 33.3509 3.39342 32.1801 3.17042C31.758 3.09077 30.0097 2.85581 29.1296 3.19829C28.0385 3.62042 26.7482 4.7275 26.5013 6.14918C26.2903 7.35183 26.5133 8.55847 26.7841 9.68148C26.8597 9.9921 27.1704 10.1832 27.485 10.1076C27.7956 10.0319 27.9867 9.71732 27.9111 9.4067C27.6681 8.40316 27.469 7.3359 27.6403 6.34431C27.7836 5.53192 28.6 4.63988 29.5438 4.27351C29.958 4.11422 31.2044 4.15803 31.9571 4.30139C32.8292 4.46865 33.4943 4.89077 33.9403 5.55183C34.4779 6.34829 34.6451 7.44342 34.4062 8.63015C34.223 9.55404 33.6814 10.7089 33.104 11.9315C32.1642 13.9346 31.1925 16.0014 31.4553 17.7257C29.946 17.9647 28.5761 18.6456 27.5646 19.6731C27.023 20.2226 26.585 20.8439 26.1589 21.4452C25.7965 21.9589 25.454 22.4448 25.0558 22.8828C23.1721 24.9576 20.2531 25.758 17.4296 26.5306L16.6571 26.7417C13.6385 27.5819 10.1739 28.7527 7.34248 31.0704C5.25177 32.7828 3.75841 35.0169 3.14514 37.3624C2.90222 38.2824 2.85443 39.1863 2.99779 40.0465C3.4 42.4598 4.67832 42.8341 5.42699 42.8341H5.45885C6.25133 42.8222 7.00399 42.3443 7.42611 41.5877C7.90797 40.7195 7.95177 39.8434 7.95974 38.9912C25.442 38.0394 43.1314 38.3939 60.562 40.0346C60.5739 40.1381 60.5898 40.2417 60.5978 40.3492C60.6894 41.4563 61.4301 42.3563 62.4456 42.5872C63.2739 42.7744 63.8314 42.5036 64.15 42.2448C64.7473 41.7589 65.0858 40.831 65.0619 39.7678V39.6284L65.0699 39.6363ZM7.99956 37.8363C8.01151 37.6771 8.02744 37.5178 8.05531 37.3624C8.3739 35.6222 9.86328 34.3638 11.062 33.6151C13.4434 32.1217 16.2987 31.4129 19.0584 30.724C22.1487 29.9554 25.3425 29.1589 27.9987 27.2673C28.2376 27.0961 28.4726 26.9209 28.7075 26.7417C29.4642 26.1682 30.177 25.6226 31.0013 25.3956C32.9049 24.874 34.7168 26.0846 36.6323 27.3709C37.146 27.7173 37.6757 28.0717 38.2013 28.3863C40.9969 30.0509 44.2266 30.6403 47.3487 31.2098C48.5434 31.4288 49.7739 31.6518 50.9566 31.9306C53.4456 32.524 58.965 34.3279 60.327 38.8558C42.9841 37.239 25.3863 36.8965 7.99956 37.8363ZM63.4292 41.3527C63.3177 41.4443 63.1186 41.5558 62.7164 41.4642C62.1987 41.3448 61.8164 40.8629 61.7686 40.2616C61.2389 33.862 54.2221 31.5164 51.2274 30.8036C50.0168 30.5169 48.7664 30.2859 47.5597 30.0669C44.3978 29.4894 41.4111 28.9478 38.7947 27.3868C38.2969 27.0881 37.8031 26.7576 37.2774 26.4071C35.2266 25.0332 33.108 23.6076 30.6907 24.2766C29.6513 24.5633 28.815 25.2005 28.0027 25.8178C27.7757 25.989 27.5527 26.1602 27.3257 26.3235C24.8487 28.0837 21.8978 28.8204 18.7757 29.597C15.9283 30.3058 12.9814 31.0425 10.4407 32.6315C9.04691 33.5036 7.30266 35.0009 6.91239 37.1554C6.81284 37.697 6.80885 38.2346 6.80885 38.7563C6.80487 39.5726 6.80089 40.3452 6.41859 41.0341C6.19956 41.4284 5.82921 41.6793 5.45089 41.6832C4.63053 41.6832 4.28806 40.7036 4.14868 39.8673C4.03319 39.1704 4.07699 38.4297 4.27611 37.6691C4.82965 35.5585 6.18363 33.5394 8.08717 31.9824C10.7513 29.804 14.0766 28.681 16.9757 27.8726L17.7403 27.6616C20.723 26.8412 23.8093 25.997 25.9199 23.6753C26.3659 23.1855 26.7443 22.6478 27.1146 22.1262C27.5288 21.5368 27.923 20.9793 28.3969 20.4974C29.4642 19.4142 31.0292 18.8009 32.7097 18.8009C32.7615 18.8009 32.8133 18.8009 32.865 18.8009C34.6053 18.8408 36.2022 19.5297 37.2496 20.6925C37.9226 21.4412 38.4124 22.3452 38.9341 23.3049C39.6788 24.6828 40.4513 26.1045 41.8133 27.0324C42.9124 27.7771 44.2186 28.0638 45.4611 28.2948C46.3013 28.4501 47.1496 28.5894 47.9938 28.7288C51.108 29.2425 54.3297 29.7762 57.1889 31.0983C60.1876 32.4841 63.7518 35.5664 63.915 39.6841V39.8036C63.935 40.4925 63.7438 41.1018 63.4332 41.3567L63.4292 41.3527Z" fill="#EE733E"/>
</svg>
