<svg xmlns="http://www.w3.org/2000/svg" width="50" height="50" viewBox="0 0 50 50" fill="none">
<g clip-path="url(#clip0_1010_1132)">
<path fill-rule="evenodd" clip-rule="evenodd" d="M49.5044 14.2477C49.4071 11.1017 49.1637 10.5177 49.031 10.2079L49.0133 10.1681L48.9956 10.1283C48.8894 9.90261 48.7567 9.69464 48.6018 9.50438L48.5752 9.4734L48.5487 9.44243C46.0354 6.63712 42.6593 4.63712 39.3938 2.70349C38.2168 2.0088 37.1062 1.34951 36.0575 0.668094C35.6018 0.376059 35.0885 0.221191 34.5664 0.221191C34.4956 0.221191 34.4248 0.221191 34.354 0.230041C30.4027 0.499952 25.9381 0.814112 21.6903 1.115C14.646 1.61057 7.9956 2.0796 5.64604 2.20792C5.26994 2.23004 4.90268 2.27871 4.5487 2.36278C3.60622 2.58402 2.61949 2.87606 1.82746 3.72562C1.33631 4.25659 0.995601 4.91588 0.796486 5.74774C0.61507 6.50438 0.52215 7.47783 0.429229 8.90261V8.97783L0.424805 9.05305V9.08845C0.539849 22.2964 0.707991 28.146 0.951353 35.5663C0.982327 36.5353 1.26994 37.4778 1.77436 38.2964C4.40268 42.5575 5.00003 43.261 8.90268 47.8407L10.0133 49.146C10.0664 49.2123 10.1239 49.2787 10.1814 49.3362C10.3673 49.5265 10.5841 49.6946 10.823 49.8318L11.0797 49.9778L11.3629 50.053L11.5974 50.115L11.7478 50.1548L11.9027 50.1725C12.1947 50.2079 12.6947 50.2256 13.3938 50.23H13.677C15.8806 50.23 24.5974 50.1061 44.3629 48.4778C46.8009 48.2787 48.7168 46.3628 48.916 43.9203L48.9248 43.8274V43.8053C49.4204 36.5265 49.7257 21.1106 49.5089 14.2566L49.5044 14.2477Z" fill="#FFE7DE"/>
<path fill-rule="evenodd" clip-rule="evenodd" d="M12.7301 46.3849C12.9071 46.3938 13.2655 46.4115 13.7124 46.4115C16.8009 46.4248 25.9735 46.1637 43.5841 44.7168C44.416 44.6504 45.0753 43.9867 45.1461 43.1549C45.6239 36.1903 45.9204 21.1018 45.7124 14.6372C45.6682 13.208 45.6151 12.2257 45.5222 11.885C42.5576 8.61504 37.9558 6.46902 34.1815 4.03097C23.854 4.74336 9.98677 5.75221 6.33191 5.9469C6.15934 5.95575 5.9912 5.9823 5.82306 6.02212C5.31421 6.14159 4.9735 6.19469 4.75226 6.4292C4.59739 6.60177 4.51775 6.8584 4.44253 7.26991C4.35403 7.78761 4.29208 8.50442 4.23014 9.51769C4.34076 22.146 4.50005 27.8584 4.74341 35.177C4.75668 35.5708 4.87173 35.9513 5.07969 36.2876C7.72129 40.5752 8.06199 40.8672 12.7434 46.3805L12.7301 46.3849ZM6.27881 5.02654C9.95137 4.82743 23.9292 3.80973 34.27 3.10177C34.3673 3.09292 34.4691 3.11946 34.5531 3.17699C38.4425 5.70354 43.2213 7.93362 46.27 11.3407C46.3009 11.3761 46.3275 11.4203 46.3496 11.469C46.4735 11.7655 46.5841 12.9026 46.6372 14.615C46.8408 21.1062 46.5487 36.2434 46.0664 43.2345C45.9602 44.5265 44.9425 45.5487 43.6549 45.6549C25.9912 47.1106 16.7965 47.3717 13.7036 47.354C13.0576 47.354 12.6638 47.3319 12.5045 47.3142L12.2788 47.2566C12.2301 47.2301 12.1815 47.1947 12.1461 47.1504C12.1372 47.146 12.1328 47.1327 12.1239 47.1239C7.28323 41.4248 6.96022 41.1593 4.26553 36.7876C3.9735 36.3142 3.81421 35.7788 3.79208 35.2212C3.54872 27.8938 3.38943 22.1726 3.27881 9.52212V9.48672C3.36288 8.19469 3.4381 7.35398 3.57527 6.79646C3.68589 6.33628 3.84518 6.03539 4.05314 5.80973C4.37615 5.4646 4.84076 5.30531 5.58854 5.13274C5.80978 5.07964 6.03987 5.04867 6.26553 5.03539L6.27881 5.02654Z" fill="#FF7336"/>
<path fill-rule="evenodd" clip-rule="evenodd" d="M8.8717 8.33193C9.70356 9.3098 10.1903 10.0532 10.6328 10.5797C11.031 11.0532 11.3761 11.3319 12 11.4293C13.5974 11.6726 28.9027 10.5443 38.5133 9.99564C36.5752 8.67263 35.0133 7.59741 34.0487 6.88945H34.0443C33.7168 6.63723 33.3142 6.50449 32.8982 6.50892C27.3938 6.69033 14.4292 7.89387 8.8717 8.33193ZM8.48674 7.42927C13.8673 7.00892 27.2567 5.76113 32.8717 5.57971H32.8761C33.5 5.56644 34.1062 5.76998 34.6062 6.14608C35.6372 6.90715 37.354 8.08414 39.4823 9.53546L39.6549 9.69476L39.7655 9.8983L39.8142 10.1195L39.7876 10.354L39.6903 10.5664L39.5354 10.7346L39.3363 10.8496L39.1106 10.8983C29.4735 11.4337 13.5 12.6018 11.8628 12.354C10.9823 12.2213 10.4779 11.8496 9.92037 11.1859C9.4425 10.6195 8.91595 9.80095 7.96019 8.70361C7.96019 8.70361 7.95577 8.69918 7.95135 8.69476L7.84073 8.51334L7.7832 8.3098V8.10184L7.8363 7.8983L7.94692 7.71688L8.09736 7.57529L8.27878 7.47794L8.48674 7.43369V7.42927Z" fill="#FF7336"/>
<path fill-rule="evenodd" clip-rule="evenodd" d="M13.4911 15.7257C12.9778 21.4646 12.9689 37.7345 13.3849 42.3407C13.4734 42.677 13.7831 42.9115 14.1327 42.9026C27.3141 42.3495 29.0088 42.5044 41.2831 41.4911H41.2875C41.9512 41.4469 42.4601 40.8805 42.4247 40.2168V40.1991C42.3318 34.8849 42.9335 25.7743 43.0043 19.6814C43.0353 17.146 42.9778 15.1416 42.73 14.1903C42.7256 14.1726 42.7123 14.1549 42.7034 14.1372C42.1282 13.9248 40.699 13.8717 38.7831 13.8938C31.1636 13.969 16.0707 15.4646 13.4911 15.7257ZM13.0176 14.8407C13.0176 14.8407 30.3981 13.0487 38.7742 12.9646C40.9645 12.9425 42.5619 13.0575 43.1459 13.3141C43.1813 13.3274 43.2123 13.3495 43.2388 13.3717C43.4203 13.5133 43.553 13.6991 43.6238 13.9159C43.6238 13.9203 43.6238 13.9336 43.6282 13.938C43.8937 14.9292 43.9734 17.0265 43.938 19.6991C43.8672 25.7787 43.2654 34.8761 43.3583 40.1814C43.4114 41.3495 42.522 42.3451 41.3583 42.4248C29.0707 43.438 27.3716 43.2832 14.1725 43.8407C13.3627 43.8672 12.6504 43.3141 12.4778 42.5221C12.4778 42.5044 12.4734 42.4867 12.4689 42.4646C12.0397 37.7699 12.0574 20.677 12.6105 15.2655C12.6327 15.0442 12.8052 14.8717 13.022 14.8495L13.0176 14.8407Z" fill="#FF7336"/>
<path fill-rule="evenodd" clip-rule="evenodd" d="M17.7347 19.5001C17.7347 19.6904 17.7392 19.9824 17.7436 20.1284C17.7436 20.3541 17.7701 20.4957 17.8542 20.5753C17.9471 20.655 18.0755 20.655 18.2082 20.6682C18.4206 20.6904 18.6507 20.6948 18.8586 20.7258C19.1905 20.7833 19.487 20.9116 19.7126 21.1859C19.9117 21.4293 20.0622 21.7966 20.071 22.4028C20.2126 33.1815 20.0887 35.9116 20.071 38.2833C20.071 38.3497 20.0533 38.4116 20.0312 38.4736C19.9029 38.7567 19.6595 38.978 19.3542 39.1461C21.1551 39.2346 21.7657 39.0665 23.6817 38.8806C23.5932 38.8187 23.5002 38.7523 23.4162 38.6904C23.0489 38.416 22.7392 38.1417 22.6064 37.9293C22.5622 37.8585 22.5401 37.7789 22.5401 37.6948C22.4427 33.1063 22.2347 27.8939 22.2657 24.2346C22.2657 24.0222 22.4162 23.8364 22.6241 23.7833C22.8321 23.7346 23.0489 23.832 23.1463 24.0266C26.0533 29.7744 26.8896 29.5797 33.1595 38.8497C34.1595 39.1284 35.071 39.124 36.3232 38.8674C37.0179 26.2169 36.1639 21.6063 36.4825 19.8585C36.4958 19.7744 36.5401 19.6948 36.5932 19.6328C36.7834 19.4205 37.0755 19.3054 37.4383 19.2744C37.7038 19.2479 38.0135 19.2744 38.3188 19.2523C38.3188 19.1682 38.3144 19.0665 38.3011 18.9912C38.2923 18.9116 38.2746 18.832 38.2657 18.7567C37.5843 18.7656 35.8277 18.8143 32.0091 19.0089C32.0091 19.1151 32.0091 19.2213 32.0224 19.332C32.0401 19.5222 32.0799 19.7125 32.1905 19.8452C32.2038 19.8629 32.2259 19.8629 32.248 19.8674C32.3011 19.8806 32.3586 19.8895 32.4206 19.8939C32.6418 19.9116 32.894 19.8939 33.1197 19.8939C33.3719 19.8939 33.602 19.916 33.7746 19.978C33.8232 19.9957 33.8719 20.0134 33.9162 20.0399L34.0578 20.1373L34.2215 20.3275C34.2657 20.3939 34.2878 20.478 34.2878 20.562C34.31 23.6063 34.3675 26.5974 34.2878 31.9426C34.2878 32.1505 34.1463 32.332 33.9427 32.3851C33.7392 32.4382 33.5268 32.3497 33.4206 32.1727C30.4516 27.155 26.956 22.27 24.8586 19.5974C22.7436 19.5399 20.6064 19.5576 17.7347 19.5089V19.5001ZM33.3586 20.8275C33.3586 20.8275 33.3277 20.8275 33.3144 20.8231C33.1817 20.8143 33.0312 20.8187 32.8808 20.8231C32.5887 20.8275 32.2967 20.8275 32.0578 20.77C31.81 20.7125 31.6109 20.6019 31.4737 20.4337C31.2923 20.2125 31.1772 19.9293 31.1241 19.6196C31.0578 19.2479 31.0755 18.8364 31.102 18.5266C31.1153 18.2921 31.3055 18.1107 31.5401 18.0974C37.2303 17.7966 38.6462 17.8231 38.6462 17.8231C38.8542 17.8231 39.0356 17.9647 39.0887 18.1682C39.0887 18.1682 39.3321 19.1904 39.2259 19.6284L39.1463 19.832L39.0356 19.978L38.8852 20.0886L38.7038 20.1461C38.3675 20.1992 37.9958 20.1815 37.6728 20.1948C37.5755 20.1948 37.4825 20.2036 37.4029 20.2213C37.3896 20.2213 37.3763 20.2213 37.3675 20.2258C37.133 22.1196 37.9294 26.8851 37.2303 39.2789C37.217 39.4868 37.071 39.6594 36.8675 39.7081C35.1728 40.093 34.0268 40.0974 32.7259 39.6992C32.6241 39.6682 32.5356 39.6019 32.4781 39.5178C26.7657 31.062 25.4914 30.3364 23.1949 26.1373C23.2259 29.5266 23.3763 33.7346 23.4648 37.5311C23.5755 37.6594 23.7657 37.8054 23.9693 37.9559C24.4516 38.3143 25.0179 38.6859 25.2613 38.9205C25.3896 39.0488 25.4383 39.239 25.3719 39.4116C25.31 39.5842 25.1507 39.7036 24.9693 39.7169C21.3011 39.9868 21.3985 40.3098 17.5799 39.9603C17.4073 39.9426 17.2569 39.832 17.1905 39.6682C17.1241 39.509 17.1551 39.3231 17.2701 39.1904C17.5268 38.8939 18.0135 38.7081 18.4914 38.5222C18.664 38.4559 18.8321 38.3895 18.9737 38.301C19.0356 38.2612 19.0932 38.2213 19.133 38.1682C19.1551 35.8231 19.2746 33.0089 19.133 22.4249C19.1286 22.0709 19.0843 21.8629 18.9516 21.7523C18.8675 21.6815 18.7569 21.6638 18.6463 21.6505C18.4471 21.624 18.2347 21.624 18.0401 21.6019C17.7126 21.5665 17.4206 21.4691 17.1993 21.2567C16.9825 21.0488 16.8144 20.7213 16.8055 20.155C16.8055 19.8629 16.7524 19.4028 16.81 19.1328L16.8808 18.9293L16.9781 18.7789L17.1197 18.6594L17.3011 18.5842C17.3365 18.5797 17.3719 18.5753 17.4073 18.5753C20.5533 18.6328 22.8188 18.6107 25.0887 18.6727C25.2259 18.6727 25.3542 18.739 25.4383 18.8497C27.3454 21.2612 30.5047 25.6373 33.3631 30.2966C33.4073 26.1019 33.3631 23.4647 33.3454 20.8408L33.3586 20.8275Z" fill="#FF7336"/>
</g>
<defs>
<clipPath id="clip0_1010_1132">
<rect width="49.1504" height="50" fill="white" transform="translate(0.424805 0.221191)"/>
</clipPath>
</defs>
</svg>
