<svg xmlns="http://www.w3.org/2000/svg" width="50" height="50" viewBox="0 0 50 50" fill="none">
<g clip-path="url(#clip0_909_460)">
<path fill-rule="evenodd" clip-rule="evenodd" d="M49.5044 14.2477C49.4071 11.1017 49.1637 10.5177 49.031 10.2079L49.0133 10.1681L48.9956 10.1283C48.8894 9.90261 48.7567 9.69464 48.6018 9.50438L48.5752 9.4734L48.5487 9.44243C46.0354 6.63712 42.6593 4.63712 39.3938 2.70349C38.2168 2.0088 37.1062 1.34951 36.0575 0.668094C35.6018 0.376059 35.0885 0.221191 34.5664 0.221191C34.4956 0.221191 34.4248 0.221191 34.354 0.230041C30.4027 0.499952 25.9381 0.814112 21.6903 1.115C14.646 1.61057 7.9956 2.0796 5.64604 2.20792C5.26994 2.23004 4.90268 2.27871 4.5487 2.36278C3.60622 2.58402 2.61949 2.87606 1.82746 3.72562C1.33631 4.25659 0.995601 4.91588 0.796486 5.74774C0.61507 6.50438 0.52215 7.47783 0.429229 8.90261V8.97783L0.424805 9.05305V9.08845C0.539849 22.2964 0.707991 28.146 0.951353 35.5663C0.982327 36.5353 1.26994 37.4778 1.77436 38.2964C4.40268 42.5575 5.00003 43.261 8.90268 47.8407L10.0133 49.146C10.0664 49.2123 10.1239 49.2787 10.1814 49.3362C10.3673 49.5265 10.5841 49.6946 10.823 49.8318L11.0797 49.9778L11.3629 50.053L11.5974 50.115L11.7478 50.1548L11.9027 50.1725C12.1947 50.2079 12.6947 50.2256 13.3938 50.23H13.677C15.8806 50.23 24.5974 50.1061 44.3629 48.4778C46.8009 48.2787 48.7168 46.3628 48.916 43.9203L48.9248 43.8274V43.8053C49.4204 36.5265 49.7257 21.1106 49.5089 14.2566L49.5044 14.2477Z" fill="#FFE7DE"/>
<path fill-rule="evenodd" clip-rule="evenodd" d="M12.7301 46.3849C12.9071 46.3938 13.2655 46.4115 13.7124 46.4115C16.8009 46.4248 25.9735 46.1637 43.5841 44.7168C44.416 44.6504 45.0753 43.9867 45.1461 43.1549C45.6239 36.1903 45.9204 21.1018 45.7124 14.6372C45.6682 13.208 45.6151 12.2257 45.5222 11.885C42.5576 8.61504 37.9558 6.46902 34.1815 4.03097C23.854 4.74336 9.98677 5.75221 6.33191 5.9469C6.15934 5.95575 5.9912 5.9823 5.82306 6.02212C5.31421 6.14159 4.9735 6.19469 4.75226 6.4292C4.59739 6.60177 4.51775 6.8584 4.44253 7.26991C4.35403 7.78761 4.29208 8.50442 4.23014 9.51769C4.34076 22.146 4.50005 27.8584 4.74341 35.177C4.75668 35.5708 4.87173 35.9513 5.07969 36.2876C7.72129 40.5752 8.06199 40.8672 12.7434 46.3805L12.7301 46.3849ZM6.27881 5.02654C9.95137 4.82743 23.9293 3.80973 34.27 3.10177C34.3673 3.09292 34.4691 3.11946 34.5531 3.17699C38.4425 5.70354 43.2213 7.93362 46.27 11.3407C46.3009 11.3761 46.3275 11.4203 46.3496 11.469C46.4735 11.7655 46.5841 12.9026 46.6372 14.615C46.8408 21.1062 46.5487 36.2434 46.0664 43.2345C45.9602 44.5265 44.9425 45.5487 43.6549 45.6549C25.9912 47.1106 16.7965 47.3717 13.7036 47.354C13.0576 47.354 12.6638 47.3319 12.5045 47.3142L12.2788 47.2566C12.2301 47.2301 12.1815 47.1947 12.1461 47.1504C12.1372 47.146 12.1328 47.1327 12.1239 47.1239C7.28323 41.4248 6.96022 41.1593 4.26553 36.7876C3.9735 36.3142 3.81421 35.7788 3.79208 35.2212C3.54872 27.8938 3.38943 22.1726 3.27881 9.52212V9.48672C3.36288 8.19469 3.4381 7.35398 3.57527 6.79646C3.68589 6.33628 3.84518 6.03539 4.05314 5.80973C4.37615 5.4646 4.84076 5.30531 5.58854 5.13274C5.80978 5.07964 6.03987 5.04867 6.26553 5.03539L6.27881 5.02654Z" fill="#FF7336" stroke="#FF7336" stroke-miterlimit="10"/>
<path fill-rule="evenodd" clip-rule="evenodd" d="M8.8717 8.33193C9.70356 9.3098 10.1903 10.0532 10.6328 10.5797C11.031 11.0532 11.3761 11.3319 12 11.4293C13.5974 11.6726 28.9027 10.5443 38.5133 9.99564C36.5752 8.67263 35.0133 7.59741 34.0487 6.88945H34.0443C33.7168 6.63723 33.3142 6.50449 32.8982 6.50892C27.3938 6.69033 14.4292 7.89387 8.8717 8.33193ZM8.48674 7.42927C13.8673 7.00892 27.2567 5.76113 32.8717 5.57971H32.8761C33.5 5.56644 34.1062 5.76998 34.6062 6.14608C35.6372 6.90715 37.354 8.08414 39.4823 9.53546L39.6549 9.69476L39.7655 9.8983L39.8142 10.1195L39.7876 10.354L39.6903 10.5664L39.5354 10.7346L39.3363 10.8496L39.1106 10.8983C29.4735 11.4337 13.5 12.6018 11.8628 12.354C10.9823 12.2213 10.4779 11.8496 9.92037 11.1859C9.44249 10.6195 8.91595 9.80095 7.96019 8.70361C7.96019 8.70361 7.95577 8.69918 7.95135 8.69476L7.84073 8.51334L7.7832 8.3098V8.10184L7.8363 7.8983L7.94692 7.71688L8.09736 7.57529L8.27878 7.47794L8.48674 7.43369V7.42927Z" fill="#FF7336" stroke="#FF7336" stroke-miterlimit="10"/>
<path fill-rule="evenodd" clip-rule="evenodd" d="M13.4912 15.7257C12.9779 21.4646 12.9691 37.7345 13.385 42.3407C13.4735 42.677 13.7832 42.9115 14.1328 42.9026C27.3142 42.3495 29.0089 42.5044 41.2832 41.4911H41.2876C41.9514 41.4469 42.4602 40.8805 42.4248 40.2168V40.1991C42.3319 34.8849 42.9337 25.7743 43.0045 19.6814C43.0354 17.146 42.9779 15.1416 42.7301 14.1903C42.7257 14.1726 42.7124 14.1549 42.7036 14.1372C42.1284 13.9248 40.6991 13.8717 38.7832 13.8938C31.1637 13.969 16.0708 15.4646 13.4912 15.7257ZM13.0177 14.8407C13.0177 14.8407 30.3983 13.0487 38.7744 12.9646C40.9646 12.9425 42.562 13.0575 43.146 13.3141C43.1814 13.3274 43.2124 13.3495 43.239 13.3717C43.4204 13.5133 43.5531 13.6991 43.6239 13.9159C43.6239 13.9203 43.6239 13.9336 43.6283 13.938C43.8938 14.9292 43.9735 17.0265 43.9381 19.6991C43.8673 25.7787 43.2655 34.8761 43.3584 40.1814C43.4115 41.3495 42.5222 42.3451 41.3584 42.4248C29.0708 43.438 27.3717 43.2832 14.1726 43.8407C13.3629 43.8672 12.6505 43.3141 12.4779 42.5221C12.4779 42.5044 12.4735 42.4867 12.4691 42.4646C12.0399 37.7699 12.0576 20.677 12.6107 15.2655C12.6328 15.0442 12.8053 14.8717 13.0222 14.8495L13.0177 14.8407Z" fill="#FF7336" stroke="#FF7336" stroke-miterlimit="10"/>
<path fill-rule="evenodd" clip-rule="evenodd" d="M17.7346 19.4999C17.7346 19.6901 17.739 19.9822 17.7434 20.1282C17.7434 20.3538 17.77 20.4954 17.854 20.5751C17.947 20.6547 18.0753 20.6547 18.208 20.668C18.4204 20.6901 18.6505 20.6945 18.8585 20.7255C19.1903 20.783 19.4868 20.9114 19.7124 21.1857C19.9116 21.4291 20.062 21.7963 20.0708 22.4025C20.2124 33.1813 20.0885 35.9114 20.0708 38.283C20.0708 38.3494 20.0531 38.4114 20.031 38.4733C19.9027 38.7565 19.6593 38.9777 19.354 39.1459C21.1549 39.2344 21.7655 39.0662 23.6815 38.8804C23.593 38.8184 23.5001 38.7521 23.416 38.6901C23.0487 38.4158 22.739 38.1415 22.6062 37.9291C22.562 37.8583 22.5399 37.7786 22.5399 37.6945C22.4425 33.1061 22.2346 27.8937 22.2655 24.2344C22.2655 24.022 22.416 23.8361 22.6239 23.783C22.8319 23.7344 23.0487 23.8317 23.1461 24.0264C26.0531 29.7742 26.8894 29.5795 33.1593 38.8494C34.1593 39.1282 35.0708 39.1237 36.3231 38.8671C37.0177 26.2167 36.1638 21.6061 36.4823 19.8583C36.4956 19.7742 36.5399 19.6945 36.593 19.6326C36.7832 19.4202 37.0753 19.3052 37.4381 19.2742C37.7036 19.2476 38.0133 19.2742 38.3186 19.2521C38.3186 19.168 38.3142 19.0662 38.3009 18.991C38.2921 18.9114 38.2744 18.8317 38.2655 18.7565C37.5841 18.7653 35.8275 18.814 32.0089 19.0087C32.0089 19.1149 32.0089 19.2211 32.0222 19.3317C32.0399 19.522 32.0797 19.7122 32.1903 19.845C32.2036 19.8627 32.2257 19.8627 32.2478 19.8671C32.3009 19.8804 32.3585 19.8892 32.4204 19.8937C32.6416 19.9114 32.8939 19.8937 33.1195 19.8937C33.3717 19.8937 33.6018 19.9158 33.7744 19.9777C33.8231 19.9954 33.8717 20.0131 33.916 20.0397L34.0576 20.137L34.2213 20.3273C34.2655 20.3937 34.2877 20.4777 34.2877 20.5618C34.3098 23.6061 34.3673 26.5972 34.2877 31.9423C34.2877 32.1503 34.1461 32.3317 33.9425 32.3848C33.739 32.4379 33.5266 32.3494 33.4204 32.1724C30.4514 27.1547 26.9558 22.2698 24.8585 19.5972C22.7434 19.5397 20.6062 19.5574 17.7346 19.5087V19.4999ZM33.3585 20.8273C33.3585 20.8273 33.3275 20.8273 33.3142 20.8229C33.1815 20.814 33.031 20.8184 32.8806 20.8229C32.5885 20.8273 32.2965 20.8273 32.0576 20.7698C31.8098 20.7122 31.6107 20.6016 31.4735 20.4335C31.2921 20.2122 31.177 19.9291 31.1239 19.6193C31.0576 19.2476 31.0753 18.8361 31.1018 18.5264C31.1151 18.2919 31.3054 18.1105 31.5399 18.0972C37.2301 17.7963 38.6461 17.8229 38.6461 17.8229C38.854 17.8229 39.0354 17.9645 39.0885 18.168C39.0885 18.168 39.3319 19.1901 39.2257 19.6282L39.1461 19.8317L39.0354 19.9777L38.885 20.0884L38.7036 20.1459C38.3673 20.199 37.9956 20.1813 37.6726 20.1945C37.5753 20.1945 37.4824 20.2034 37.4027 20.2211C37.3894 20.2211 37.3762 20.2211 37.3673 20.2255C37.1328 22.1193 37.9293 26.8848 37.2301 39.2786C37.2169 39.4866 37.0708 39.6591 36.8673 39.7078C35.1726 40.0928 34.0266 40.0972 32.7257 39.699C32.6239 39.668 32.5354 39.6016 32.4779 39.5176C26.7655 31.0618 25.4912 30.3361 23.1947 26.137C23.2257 29.5264 23.3762 33.7344 23.4647 37.5308C23.5753 37.6591 23.7655 37.8052 23.9691 37.9556C24.4514 38.314 25.0178 38.6857 25.2611 38.9202C25.3894 39.0485 25.4381 39.2388 25.3717 39.4114C25.3098 39.5839 25.1505 39.7034 24.9691 39.7167C21.3009 39.9866 21.3983 40.3096 17.5797 39.96C17.4071 39.9423 17.2567 39.8317 17.1903 39.668C17.1239 39.5087 17.1549 39.3229 17.27 39.1901C17.5266 38.8937 18.0133 38.7078 18.4912 38.522C18.6638 38.4556 18.8319 38.3892 18.9735 38.3007C19.0354 38.2609 19.093 38.2211 19.1328 38.168C19.1549 35.8229 19.2744 33.0087 19.1328 22.4246C19.1284 22.0707 19.0841 21.8627 18.9514 21.7521C18.8673 21.6813 18.7567 21.6636 18.6461 21.6503C18.447 21.6237 18.2346 21.6237 18.0399 21.6016C17.7124 21.5662 17.4204 21.4689 17.1992 21.2565C16.9824 21.0485 16.8142 20.7211 16.8054 20.1547C16.8054 19.8627 16.7523 19.4025 16.8098 19.1326L16.8806 18.9291L16.9779 18.7786L17.1195 18.6591L17.3009 18.5839C17.3363 18.5795 17.3717 18.5751 17.4071 18.5751C20.5531 18.6326 22.8186 18.6105 25.0885 18.6724C25.2257 18.6724 25.354 18.7388 25.4381 18.8494C27.3452 21.2609 30.5045 25.637 33.3629 30.2963C33.4071 26.1016 33.3629 23.4645 33.3452 20.8406L33.3585 20.8273Z" fill="#FF7336" stroke="#FF7336" stroke-miterlimit="10"/>
</g>
<defs>
<clipPath id="clip0_909_460">
<rect width="49.1504" height="50" fill="white" transform="translate(0.424805 0.221191)"/>
</clipPath>
</defs>
</svg>
