<svg xmlns="http://www.w3.org/2000/svg" width="56" height="50" viewBox="0 0 56 50" fill="none">
<path d="M53.9336 26.7478C52.5929 25.2699 50.708 25.2699 50.0885 25.2699C50.0708 25.2699 50.0575 25.2699 50.0398 25.2699C49.8451 24.8319 49.6637 24.3938 49.4823 23.9558C49.0088 22.8186 48.469 21.5398 47.7168 20.1726C46.7257 18.3628 45.3938 16.7212 43.823 15.3496C43.9823 14.2389 43.8584 13.0133 43.4469 11.6814C43.3496 11.3496 43.2345 11.0221 43.146 10.7699V10.7566C42.9159 10.0973 42.7035 9.47788 42.708 9.0531V8.70796V8.69469V8.68142C42.708 7.23894 41.5354 6.06195 40.0973 6.06195C39.8584 6.06195 39.6195 6.09735 39.385 6.15929L39.0575 6.24779C38.1903 6.48673 37.3673 6.88938 36.6283 7.41593C36.3761 7.25664 36.1195 7.09735 35.8628 6.93805L35.6637 6.81416C35.2876 6.57965 34.8938 6.33628 34.5442 6.09735C33.8451 5.61947 33.0221 5.36726 32.1726 5.36726C31.885 5.36726 31.5973 5.39823 31.3186 5.45575C30.3761 3.30973 28.5 1.52655 26.1991 0.628319C25.146 0.207965 24.0487 0 22.9469 0C21.6062 0 20.2876 0.323009 19.1372 0.933628L19.0929 0.955752L19.0487 0.982301C15.9381 2.81858 14.1814 5.93805 14.354 9.32743C14.4027 10.3142 14.6106 11.2655 14.9646 12.1637C11.2168 13.7168 8.14159 16.6637 6.4823 20.3805C6.27876 20.8407 6.0885 21.2965 5.88496 21.7743L5.81858 21.9292C5.50443 22.677 5.25664 23.4204 5.08407 24.1372C4.54425 26.3142 4.30531 28.3673 4.37611 30.2743C4.36283 30.2743 4.34956 30.2743 4.34071 30.2743C3.63274 30.2743 2.95133 30.4646 2.36283 30.8186C0.628319 31.8717 0.247788 33.885 0.637169 35.4115C1.20354 37.5973 3.28319 39.2522 5.69469 39.4381C5.87168 39.4558 6.04425 39.4558 6.16814 39.4558C6.65044 39.4558 7.11062 39.3982 7.54425 39.2832L10.5442 44.1416C11.3009 45.3628 12.2301 46.8584 13.6637 48.0044C14.8274 48.9381 16.2301 49.5133 17.615 49.6283C17.7212 49.6372 17.854 49.646 17.9823 49.646C19.6195 49.646 21.0487 48.7124 21.7434 47.3186C22.9602 47.6593 24.3451 47.9646 25.9204 48.0929C26.2168 48.1195 26.5265 48.1283 26.8407 48.1283C28.2566 48.1283 29.8142 47.8761 31.3496 47.4027C32.1106 48.8717 33.615 49.8938 35.3363 49.9867H35.4292C35.5265 49.9956 35.6327 50 35.7301 50C37.8496 50 39.7478 48.6372 40.4469 46.6106C40.708 45.8407 41.2699 45.1858 41.6637 44.9602C42.9867 44.1991 44.7522 43.5708 46.3097 43.0133L46.4071 42.9779C48.6726 42.1681 51.0177 41.2124 52.854 39.1283C54.4911 37.2832 55.5044 35.5354 55.5044 32.5398C55.5044 31.0221 55.3009 28.2566 53.9292 26.7478H53.9336Z" fill="#FFE7DE"/>
<path d="M51.5841 28.1415C50.8363 27.3185 49.6416 27.3849 48.5885 27.4424H48.5C48.2389 27.4645 47.9823 27.3141 47.8628 27.0707C47.4956 26.3008 47.177 25.5397 46.8673 24.8096C46.4027 23.7034 45.9248 22.5574 45.2566 21.3495C44.1859 19.4026 42.6859 17.7123 40.8894 16.407C41.3805 15.4468 41.4027 14.2034 40.9381 12.7034C40.854 12.4335 40.7655 12.168 40.6726 11.8981C40.3894 11.0663 40.1195 10.2831 40.1239 9.49547V9.15477C40.1283 8.89813 39.885 8.70786 39.6328 8.77866L39.3053 8.87158C38.2434 9.16804 37.2743 9.81406 36.5752 10.6725C36.5531 10.6548 36.5266 10.6371 36.5044 10.6194C35.8584 10.1371 35.1682 9.71229 34.5044 9.30079C34.0531 9.02202 33.5885 8.73441 33.1505 8.43353C32.6505 8.09724 32.0354 8.00875 31.4602 8.18574C30.8894 8.36716 30.4425 8.78751 30.2301 9.34061C29.7345 10.6326 29.4823 11.876 29.4646 13.0486C29.2699 13.0132 29.0575 12.9911 28.8407 12.9778C28.8496 12.9601 28.8628 12.9424 28.8761 12.9247C29.8451 11.1725 30.0487 9.01317 29.4115 7.29194C28.7965 5.54415 27.3186 4.0707 25.469 3.34503C23.7522 2.67247 21.9071 2.73884 20.3894 3.53972C18.0708 4.9114 16.7611 7.20786 16.885 9.68574C16.9646 11.23 17.5752 12.6503 18.6018 13.7831C18.4602 13.8141 18.323 13.845 18.1814 13.876C14.146 14.8273 10.7345 17.6371 9.05753 21.3981C8.84957 21.8672 8.64603 22.3539 8.43364 22.8583C8.177 23.4734 7.97346 24.0884 7.82302 24.6857C6.93806 28.2433 6.97789 31.3627 7.93806 33.9512C7.99116 34.0972 8.05753 34.2344 8.11948 34.3804C8.11505 34.4158 8.1062 34.4468 8.1062 34.4822C8.09293 34.9026 7.81859 35.3141 7.43806 35.4866C7.2124 35.5884 6.92479 35.6282 6.59293 35.6017C5.83187 35.5441 4.95576 35.0663 4.7478 34.2654C4.677 33.991 4.73452 33.6857 4.87612 33.5972C4.97789 33.5353 5.177 33.5663 5.31859 33.668C5.40267 33.73 5.45134 33.7964 5.46461 33.8539C5.19913 34.053 5.12833 34.4291 5.30975 34.7123C5.50001 35.0132 5.89824 35.1017 6.19913 34.9114C6.61948 34.6459 6.83187 34.1194 6.73452 33.6061C6.6593 33.2256 6.42479 32.876 6.07523 32.6238C5.50886 32.2167 4.75665 32.1636 4.20798 32.4999C3.46461 32.9512 3.32302 33.8981 3.50001 34.5928C3.82302 35.8318 5.05311 36.7787 6.49559 36.8893C6.59293 36.8981 6.69028 36.9026 6.78762 36.9026C7.22567 36.9026 7.6239 36.8229 7.97346 36.6636C8.32744 36.4999 8.63275 36.2477 8.87169 35.9424C9.2124 36.5574 9.57966 37.1548 9.94249 37.7388L12.8717 42.4733C13.5443 43.5574 14.3053 44.7919 15.4159 45.6769C16.2168 46.3141 17.1637 46.7123 18.0885 46.7919C19.146 46.8893 20.0929 46.0928 20.1947 45.0353L20.2212 44.7521C20.2478 44.4778 20.4204 44.3273 20.5177 44.261C20.6903 44.1503 20.8982 44.1238 21.0974 44.1857C22.4735 44.6415 24.1505 45.1326 26.1505 45.2964C27.8584 45.438 29.9735 45.053 31.9513 44.2344C32.1505 44.1503 32.3717 44.168 32.5575 44.2742C32.6593 44.3318 32.8319 44.4733 32.8673 44.7388C32.8805 44.8406 32.8938 44.9468 32.9115 45.0486C33.0841 46.1946 34.0575 47.0707 35.2301 47.1326H35.3274C35.385 47.1415 35.4425 47.1415 35.4956 47.1415C36.6505 47.1415 37.6593 46.4202 38.0443 45.3008C38.4425 44.1415 39.2788 43.053 40.1814 42.5353C41.6239 41.7034 43.4425 41.053 45.0487 40.4822L45.1593 40.4424C47.0708 39.761 49.0575 38.9601 50.5133 37.3185C51.8628 35.7919 52.5487 34.6061 52.5487 32.3406C52.5487 32.022 52.5221 29.199 51.5797 28.1592L51.5841 28.1415ZM38.9204 10.3981C39.031 11.0618 39.2478 11.6946 39.4602 12.3141C39.5487 12.5707 39.6372 12.8229 39.7124 13.0795C40.0443 14.1459 40.0797 15.0087 39.8319 15.6459C39.7566 15.553 39.7036 15.438 39.6859 15.3141C39.4912 13.7388 38.562 12.4557 37.5708 11.5043C37.9381 11.0486 38.3982 10.6636 38.9204 10.3981ZM21.0266 4.65477C22.1859 4.04415 23.6372 3.9999 25.0089 4.5353C26.5177 5.12822 27.7124 6.31406 28.2124 7.72114C28.7168 9.0884 28.5398 10.8804 27.7611 12.2919C27.1593 13.3804 26.2699 14.1061 25.2478 14.3406L21.4823 14.3273C19.5133 13.3716 18.2832 11.6149 18.1814 9.60609C18.0797 7.5884 19.1283 5.77424 21.0266 4.65034V4.65477ZM49.5531 36.4468C48.3053 37.8583 46.4867 38.5884 44.7345 39.2123L44.6239 39.2521C42.969 39.8406 41.0885 40.5087 39.5443 41.4026C38.3717 42.0795 37.3363 43.407 36.8319 44.8672C36.6195 45.4866 36.0443 45.8716 35.4115 45.8362H35.3053C34.7345 45.8008 34.2788 45.3937 34.1947 44.8406C34.1814 44.7477 34.1682 44.6548 34.1549 44.5618C34.0797 43.9645 33.7389 43.4512 33.2168 43.1459C32.6814 42.8362 32.0443 42.7919 31.469 43.0264C29.6726 43.7654 27.7743 44.1194 26.2655 43.9955C24.4027 43.8406 22.8805 43.3981 21.5089 42.9468C20.9381 42.7565 20.323 42.8362 19.823 43.1636C19.323 43.4866 19.0044 44.0132 18.9425 44.6105L18.9159 44.8937C18.8805 45.2565 18.5531 45.5176 18.2035 45.4955C17.5398 45.4379 16.8186 45.1326 16.2257 44.6592C15.2876 43.9114 14.6195 42.8273 13.9735 41.7831L11.0443 37.0486C10.3407 35.9158 9.61948 34.7388 9.15488 33.4999C8.28762 31.1592 8.2655 28.2964 9.08408 24.9955C9.21682 24.4645 9.39824 23.9114 9.63275 23.3539C9.84072 22.8583 10.0398 22.3804 10.2434 21.9203C11.7566 18.5264 14.8363 15.9866 18.4823 15.1282C18.9204 15.0264 19.3628 14.9291 19.7965 14.8362C19.9779 14.9645 20.1726 15.0884 20.3717 15.2034C20.0575 15.3008 19.7212 15.4026 19.3451 15.522C19.0044 15.6326 18.8186 15.9911 18.9292 16.3318C19.0177 16.6061 19.2699 16.7787 19.5443 16.7787C19.6106 16.7787 19.677 16.7698 19.7389 16.7477C23.1726 15.6503 23.2965 15.6857 26.5266 16.5928L27.1018 16.7565C27.4425 16.8539 27.8009 16.6503 27.8938 16.3096C27.9912 15.9689 27.7876 15.6105 27.4469 15.5176L26.8717 15.3539C26.7434 15.3185 26.6283 15.2875 26.5089 15.2521C27.0177 15.0043 27.4867 14.6592 27.9027 14.2344C28.3186 14.2344 29.146 14.2477 29.562 14.3981C29.9469 16.7875 31.5266 18.7875 33.5664 19.4203C33.9115 19.5264 34.2655 19.3362 34.3717 18.9955C34.4779 18.6548 34.2876 18.2964 33.9469 18.1902C32.3097 17.6813 31.0443 15.9911 30.8009 13.9822C30.646 12.7123 30.8584 11.3052 31.4336 9.80078C31.531 9.54857 31.7345 9.45123 31.8451 9.41583C32.0398 9.35388 32.2522 9.38486 32.4204 9.4999C32.8805 9.81406 33.3584 10.1105 33.8186 10.3937C34.4602 10.7919 35.1239 11.2034 35.7301 11.6548C36.8319 12.4734 38.1859 13.7964 38.3938 15.4822C38.4646 16.0707 38.7965 16.584 39.292 16.8937C41.3097 18.1459 42.9779 19.9026 44.1195 21.9778C44.7522 23.1282 45.1991 24.1902 45.6682 25.3141C45.9823 26.0618 46.3053 26.8362 46.6903 27.6371C46.7301 27.7211 46.7743 27.7964 46.823 27.8716C46.6637 27.9734 46.5089 28.0884 46.3628 28.2256C45.9779 28.5884 45.6682 29.0618 45.4115 29.6725C45.0266 30.5884 44.8761 31.5353 44.9779 32.4114C45.0177 32.7388 45.2965 32.9822 45.6195 32.9822C45.646 32.9822 45.6682 32.9822 45.6947 32.9822C46.0487 32.9424 46.3009 32.6238 46.2611 32.2698C46.1859 31.6149 46.3053 30.8893 46.6018 30.1813C46.7876 29.7388 47 29.407 47.2522 29.168C47.5177 28.9158 47.8407 28.7698 48.1372 28.7698C48.1947 28.7698 48.2522 28.7565 48.3097 28.7433C48.3938 28.7477 48.4735 28.7521 48.5575 28.7521H48.646C49.4115 28.7079 50.2832 28.6592 50.6151 29.0264C50.9956 29.4468 51.2522 31.0795 51.2522 32.3406C51.2522 34.2256 50.7478 35.1017 49.5398 36.4645L49.5531 36.4468Z" fill="#EE733E"/>
<path d="M20.5044 12.2257C20.5044 12.2257 20.5443 12.2257 20.562 12.2257C20.9159 12.1947 21.177 11.8805 21.146 11.5266C21.1372 11.4292 21.1328 11.3274 21.1239 11.2301C21.1505 11.2522 21.177 11.2743 21.2036 11.2965C21.5929 11.6018 22.0044 11.7566 22.3894 11.7566C22.6018 11.7566 22.8009 11.708 22.9912 11.6151C23.3097 11.4513 23.4336 11.0664 23.2743 10.7478C23.1151 10.4292 22.7257 10.3053 22.4071 10.4646C22.3805 10.4735 22.2213 10.4513 21.9956 10.2788L21.9513 10.2434C22.1814 10.1328 22.4071 9.98674 22.6018 9.76992C22.9336 9.40267 23.0885 8.88939 23.031 8.35842C22.9646 7.78762 22.6549 7.25665 22.2036 6.94691C21.4248 6.40709 20.2655 6.46461 19.4558 7.08851C19.1726 7.30532 19.1195 7.70798 19.3363 7.99116C19.4469 8.13718 19.6106 8.22125 19.7788 8.23895C19.7345 9.37169 19.7567 10.5133 19.8584 11.6416C19.8894 11.9779 20.1682 12.2257 20.5 12.2257H20.5044ZM21.7522 8.50444C21.7699 8.66815 21.7345 8.80975 21.6505 8.90267C21.5266 9.03983 21.3053 9.12833 21.0487 9.22567C21.0487 8.77435 21.0575 8.32302 21.0841 7.87612C21.0841 7.87612 21.0841 7.87612 21.0841 7.87169C21.2301 7.88497 21.3628 7.92921 21.4735 8.00444C21.6195 8.10621 21.7301 8.29647 21.7522 8.50444Z" fill="#EE733E"/>
<path d="M24.1991 9.21232C24.5088 9.32294 24.8186 9.34948 25.0885 9.37603C25.2478 9.38931 25.3982 9.40258 25.531 9.43355C25.7743 9.48665 25.9115 9.61497 25.9159 9.65037C25.9159 9.66807 25.8894 9.74771 25.8009 9.83178C25.6681 9.95125 25.4602 10.0088 25.2478 9.98223C25.0354 9.9601 24.8451 9.85833 24.7434 9.71232C24.5354 9.42028 24.1372 9.35391 23.8451 9.55745C23.5531 9.76099 23.4867 10.1636 23.6903 10.4557C23.8982 10.7521 24.1991 10.9734 24.5487 11.1105C24.5354 11.1504 24.5265 11.1946 24.5265 11.2433C24.4956 11.6769 24.4956 12.1105 24.5354 12.5397C24.5664 12.876 24.8496 13.1238 25.177 13.1238C25.1947 13.1238 25.2168 13.1238 25.2389 13.1238C25.5929 13.0928 25.854 12.7787 25.823 12.4247C25.792 12.0663 25.7876 11.7035 25.8142 11.3406C25.8142 11.3008 25.8142 11.261 25.8142 11.2212C26.1372 11.1504 26.4336 11.0044 26.6726 10.7875C27.0531 10.4424 27.2522 9.96895 27.208 9.51763C27.1416 8.86718 26.5885 8.33621 25.8053 8.17249C25.6018 8.12824 25.4071 8.11055 25.2168 8.09285C25.031 8.07515 24.8584 8.05745 24.708 8.02205C24.9203 7.82736 25.1991 7.69462 25.4956 7.72117C25.8628 7.72559 26.146 7.44683 26.1549 7.08842C26.1637 6.73002 25.8805 6.43798 25.5221 6.42913C25.3805 6.42913 25.2389 6.44683 25.0973 6.46895C25.1327 6.38488 25.1504 6.28754 25.1416 6.19019L25.0708 5.1194C25.0487 4.76541 24.7257 4.4955 24.3849 4.51763C24.031 4.53975 23.7611 4.84948 23.7832 5.20347L23.854 6.27426C23.8717 6.50435 24.0088 6.69904 24.1991 6.80081C23.9956 6.92471 23.8097 7.07515 23.6549 7.25214C23.3938 7.5486 23.2788 7.86276 23.3053 8.18577C23.3451 8.64594 23.6814 9.02648 24.2035 9.21232H24.1991Z" fill="#EE733E"/>
</svg>
