<svg xmlns="http://www.w3.org/2000/svg" width="50" height="40" viewBox="0 0 50 40" fill="none">
<g clip-path="url(#clip0_909_478)">
<path fill-rule="evenodd" clip-rule="evenodd" d="M28.9865 14.5486C29.3015 13.3232 29.8208 12.3168 30.4822 11.4908C32.1596 9.37796 34.8216 8.39754 37.688 8.15185C41.8695 7.79197 46.4446 8.98579 47.8699 9.40473C47.8778 9.40788 47.8859 9.41025 47.8937 9.41262L48.5866 9.75517L49.1142 10.282L49.461 10.9466L49.5864 11.7042C49.5864 12.8484 49.5865 15.8952 49.5787 17.0772L49.5156 17.5953L49.3264 18.0749L49.0357 18.4962L48.642 18.838L48.1691 19.0727L47.673 19.1861L47.1609 19.1742L46.6571 19.0372C45.5704 18.6033 42.5464 17.4733 40.0343 17.8119C39.9949 17.8198 39.9637 17.8497 39.9559 17.8883C39.948 17.9237 39.9561 17.9599 39.9797 17.9867C41.7279 19.1191 43.8383 20.005 45.5944 21.1831C47.2323 22.2738 48.5789 23.5999 49.3349 25.389C50.083 27.1499 50.2796 29.3957 49.4133 32.4102C48.5314 35.5531 46.0825 38.0124 42.9404 38.9038V38.9046C36.3965 40.7512 31.6398 38.4762 30.057 37.5557C30.0412 37.5454 30.0258 37.5344 30.0101 37.5234L29.4425 37.0595L29.0172 36.4792L28.7496 35.8122L28.6635 35.09C28.6556 34.0159 28.6556 31.6944 28.6635 29.962L28.7581 29.3509L29.0257 28.8059L29.4348 28.3594L29.9624 28.0444L30.5614 27.8988L31.1674 27.9334L31.7342 28.1397L32.2302 28.5106L31.8526 28.2169C32.459 28.5713 33.5297 28.6752 34.7188 28.7437C35.5378 28.791 36.4046 28.7965 37.255 28.7784C35.5383 27.6042 33.6641 26.1521 32.1364 24.5504C30.278 22.6037 28.9547 20.4145 28.7027 18.2332C28.2853 20.2373 27.4428 21.7926 26.3718 23.0014C24.3716 25.256 21.4811 26.3553 18.6146 26.7892C16.1734 27.1577 13.772 27.0443 12.1341 26.8923C12.0868 31.1251 11.8895 37.0312 11.8895 37.0312C11.8501 37.9982 11.0632 38.766 10.0946 38.7684C10.0946 38.7684 7.80263 38.7739 1.80989 38.7684C1.32953 38.7676 0.865006 38.5747 0.526389 38.2313C0.187772 37.888 0.00711214 37.4233 0.014987 36.9422C0.251232 21.1122 0.234897 8.76766 0.203398 2.77256C0.195523 1.8268 0.927974 1.03774 1.87295 0.969234C2.83368 0.899148 7.28308 -0.0844275 12.2363 0.0478694C15.78 0.142367 19.5522 0.809364 22.6313 2.62924C25.7339 4.44123 27.8995 7.51085 28.5689 11.0435C28.813 12.309 28.9471 13.4744 28.9865 14.5486Z" fill="#FFE7DE"/>
<path fill-rule="evenodd" clip-rule="evenodd" d="M47.1376 17.8753L47.1292 17.8745C45.9558 17.4036 42.6173 16.1924 39.8611 16.5657C39.3099 16.6437 38.8691 17.0469 38.7352 17.5855C38.6014 18.1202 38.7978 18.6825 39.2467 19.0132C40.9949 20.1574 43.121 21.0465 44.8928 22.2316C46.3182 23.1829 47.5151 24.3216 48.1766 25.8816C48.8302 27.433 48.9641 29.4119 48.2081 32.0681C47.4442 34.7912 45.318 36.9221 42.6011 37.6946C36.5454 39.4011 32.1519 37.3206 30.6951 36.4693C30.6872 36.4662 30.6868 36.463 30.6789 36.4599C30.2064 36.163 29.9232 35.6456 29.9153 35.0881C29.9153 34.0179 29.9072 31.7011 29.923 29.9702L29.9622 29.7285L30.0645 29.5135L30.2298 29.3371L30.4352 29.2119L30.6712 29.1544L30.915 29.1686L31.1357 29.2505L31.3326 29.3969L31.2226 29.3088C31.955 29.7332 33.2225 29.9206 34.6479 30.0025C36.908 30.1324 39.5461 29.96 41.2392 29.8104C41.2471 29.8096 41.2629 29.8088 41.2707 29.8088V29.8072V29.8049C39.239 28.6481 35.632 26.3911 33.0491 23.683C31.2457 21.7962 29.9545 19.6826 29.923 17.5721C29.8757 15.2262 30.4821 13.5142 31.4664 12.2763C32.939 10.4281 35.2938 9.62327 37.7901 9.40829C41.7905 9.06494 46.1529 10.2147 47.5152 10.6147C47.5152 10.6147 47.515 10.6163 47.5229 10.6171C47.9954 10.7651 48.3265 11.2069 48.3265 11.7062C48.3265 12.8496 48.3267 15.894 48.3188 17.0791L48.295 17.2894L48.2166 17.4847L48.0981 17.6548L47.9405 17.7942L47.7513 17.8895L47.5467 17.9351L47.3345 17.9304L47.1376 17.8753ZM31.0019 30.4057C30.9941 32.0705 30.9942 34.1029 30.9942 35.0857C30.9942 35.27 31.0888 35.4416 31.2542 35.5456C32.6244 36.3417 36.703 38.2364 42.302 36.6567C44.6644 35.9866 46.5077 34.1376 47.1692 31.7751C47.1692 31.7736 47.1692 31.7728 47.1692 31.7712C47.8385 29.4237 47.7673 27.6739 47.1845 26.3022C46.6018 24.939 45.5388 23.9602 44.2945 23.1286C42.5227 21.9411 40.3889 21.052 38.6407 19.9046C38.6328 19.8999 38.6247 19.8952 38.6168 19.8897C37.8136 19.3046 37.4437 18.2895 37.6878 17.3248C37.9241 16.3594 38.7268 15.6365 39.7111 15.4971C42.4752 15.1223 45.7831 16.1995 47.2399 16.7586C47.2478 15.416 47.2476 12.7574 47.2476 11.7062C47.2476 11.6802 47.2322 11.6573 47.2007 11.6487C45.8935 11.2628 41.7119 10.154 37.8847 10.4832C35.6876 10.6714 33.6007 11.3266 32.3093 12.948C31.4588 14.0229 30.9626 15.5176 31.0019 17.5532C31.0334 19.4235 32.2303 21.2662 33.8289 22.938C36.3331 25.5658 39.8373 27.7487 41.806 28.8701L41.8137 28.8725C42.231 29.1142 42.4363 29.6017 42.3181 30.0687C42.2 30.5301 41.7986 30.8617 41.3261 30.8861C39.5936 31.0388 36.8921 31.2129 34.5848 31.0798C33.1516 30.9979 31.8603 30.7869 31.0019 30.4057ZM1.95968 2.22645C2.91254 2.15715 7.31438 1.17831 12.2046 1.30825C15.5436 1.39723 19.0949 2.00281 21.9928 3.71637C24.7805 5.34567 26.7337 8.10579 27.3321 11.2825C28.3637 16.6011 27.348 20.0039 25.4265 22.1687C23.631 24.1988 21.0088 25.1556 18.4337 25.5462C15.2996 26.0187 12.2364 25.6611 10.8819 25.4926C10.8819 29.6497 10.6297 36.9898 10.6297 36.9898C10.6218 37.2804 10.3779 37.5104 10.0944 37.5112C10.0944 37.5112 7.80246 37.5167 1.80972 37.5112C1.66798 37.5112 1.52681 37.4529 1.42444 37.3497C1.32207 37.2474 1.26661 37.108 1.27448 36.9631C1.51073 21.1213 1.49516 8.76728 1.46366 2.76745C1.45579 2.48396 1.67619 2.24693 1.95968 2.22645ZM2.5426 3.23915C2.5741 9.3319 2.58161 21.2497 2.36111 36.4323C6.39302 36.4362 8.63765 36.4339 9.56688 36.4331C9.62988 34.5849 9.81872 28.2653 9.80297 24.8894C9.80297 24.7374 9.86576 24.5917 9.976 24.4894C10.0863 24.3862 10.2363 24.335 10.3859 24.3484C11.0946 24.4098 14.6381 25.0272 18.2684 24.4791C20.6072 24.1255 22.993 23.2916 24.6152 21.4536C26.3713 19.4739 27.2143 16.3484 26.2693 11.4872V11.4849C25.7339 8.61372 23.9698 6.11897 21.4499 4.64796C21.442 4.64717 21.4422 4.6456 21.4422 4.6456C18.7017 3.02339 15.3309 2.47136 12.1731 2.3871C7.93646 2.27449 4.07032 3.00921 2.5426 3.23915ZM10.0629 8.03728C12.8585 8.20029 14.9213 8.45465 16.4097 8.92477C17.6303 9.30749 18.4807 9.83905 19.0713 10.5549C19.6619 11.2762 19.985 12.192 20.0795 13.3741C20.0873 13.3914 20.0872 13.4079 20.0872 13.4252C20.0714 15.4341 19.497 16.9587 18.3945 18.0367C16.7959 19.5967 13.9926 20.2306 9.85834 19.8865C9.58272 19.8637 9.36943 19.64 9.36155 19.3668C9.36155 19.3668 9.14118 12.6228 9.48767 8.52946C9.51917 8.23809 9.77154 8.01996 10.0629 8.03728ZM10.5274 9.14684C10.2912 12.5299 10.3857 17.3241 10.4251 18.847C13.8822 19.0786 16.2684 18.6045 17.6386 17.2642C18.5521 16.372 18.9846 15.0986 19.0082 13.4378C18.9216 12.5212 18.6936 11.8007 18.2369 11.2376C17.7644 10.6635 17.0632 10.2611 16.0867 9.95402C14.7558 9.5335 12.945 9.30276 10.5274 9.14684Z" fill="#FF7336"/>
</g>
<defs>
<clipPath id="clip0_909_478">
<rect width="50" height="39.9281" fill="white" transform="translate(0 0.0361328)"/>
</clipPath>
</defs>
</svg>
