<svg xmlns="http://www.w3.org/2000/svg" width="41" height="30" viewBox="0 0 41 30" fill="none">
<path d="M39.8766 20.1345L39.8474 20.1213L39.8156 20.1106C39.6589 20.0549 39.497 20.023 39.3297 20.0124H39.2952C39.0191 20.0018 38.751 19.9912 38.4828 19.9832C38.4032 14.8089 38.6395 11.4983 38.7961 9.24959C38.881 8.06552 38.9501 7.131 38.9341 6.35578C38.9049 4.34605 38.3421 3.16463 36.7943 1.84251C35.5598 0.788526 33.712 0.180562 31.3094 0.0371988C30.9111 0.013305 30.489 0.00268555 30.051 0.00268555C28.4156 0.00268555 26.8386 0.175252 25.7926 0.289411C25.397 0.329234 25.0572 0.369057 24.8421 0.382332C24.4996 0.403571 24.0775 0.41419 23.5545 0.41419C22.551 0.41419 21.2899 0.374367 19.9598 0.329234C18.351 0.281447 16.5297 0.220385 14.7563 0.220385C12.9828 0.220385 11.5572 0.278792 10.312 0.392951C7.62264 0.645163 5.77751 1.19472 4.65981 2.07879C3.79167 2.77171 3.32707 3.4487 3.16512 5.22481C3.00583 6.97702 3.09609 10.3991 3.29786 17.8965C3.31645 18.6903 3.34034 19.5292 3.36423 20.4186C2.84123 20.4292 2.30229 20.4372 1.75008 20.4452C1.28813 20.4505 0.852731 20.639 0.531492 20.9708C0.207598 21.3027 0.0323766 21.7434 0.0403412 22.208C0.0403412 22.2399 0.042996 22.277 0.042996 22.3089C0.0137925 22.6407 0.0775093 22.9779 0.239456 23.2779C0.494323 23.7691 0.717332 24.2443 0.929722 24.7009C1.17131 25.2133 1.39963 25.6991 1.64919 26.1584C2.0899 26.9629 2.75362 27.9823 3.97485 28.7416C5.37662 29.6098 7.26424 29.9974 10.0943 30H12.3244C18.9271 30.0027 27.3032 29.9788 29.6952 29.862C34.2456 29.6443 36.497 29.0868 37.9943 27.8045C38.9182 27.0186 39.412 26.0443 39.7386 25.2876C39.9456 24.8045 40.1395 24.2761 40.3439 23.7133C40.4952 23.2912 40.6545 22.8558 40.8403 22.3832L40.8456 22.3726V22.362C40.9173 22.1814 40.9518 21.9956 40.9572 21.8071C40.9837 21.0876 40.5483 20.4133 39.8713 20.1372L39.8766 20.1345Z" fill="#264A26"/>
<path fill-rule="evenodd" clip-rule="evenodd" d="M20.6235 11.7345C20.7881 11.8487 20.8279 12.0743 20.7138 12.2389C20.5996 12.4035 20.374 12.446 20.2094 12.3319C20.0209 12.1991 19.8244 12.3106 19.6731 12.4991C19.3173 12.9345 19.1793 13.7788 19.6147 14.5673C19.7076 14.7345 19.8855 14.7584 20.0395 14.7133C20.2041 14.6655 20.3633 14.546 20.3713 14.3788C20.3819 14.1956 20.2306 14.0097 19.9094 13.808C19.7633 13.715 19.7023 13.5319 19.766 13.3699C19.8297 13.208 19.997 13.1124 20.1669 13.1416C20.7802 13.2504 20.7855 13.2743 21.3722 13.0779C21.5633 13.0115 21.7678 13.115 21.8341 13.3035C21.8979 13.4947 21.797 13.6991 21.6058 13.7655C21.3324 13.8584 21.1572 13.9142 21.0085 13.9407C21.0828 14.108 21.1067 14.2699 21.0987 14.4186C21.0722 14.8858 20.7005 15.2788 20.2465 15.4115C19.7819 15.5469 19.2616 15.4248 18.9802 14.9177C18.3749 13.8186 18.6164 12.6478 19.1129 12.0398C19.5297 11.5274 20.1085 11.3734 20.6288 11.7345H20.6235ZM25.0041 14.9947C24.9987 14.9044 24.9881 14.7027 24.9881 14.3947C24.9881 14.2248 24.9934 12.969 24.8049 12.1327C24.7996 12.1062 24.7917 12.0796 24.7864 12.0531C24.6271 12.3929 24.489 12.8734 24.3855 13.954C24.3695 14.1186 24.2474 14.2513 24.0855 14.2779C23.9235 14.3044 23.7642 14.2221 23.6952 14.0708C23.6209 13.9088 23.5996 13.877 22.9678 12.7832C22.9572 13.2982 22.9386 14.0177 22.9226 15.0027C22.9226 15.0027 22.9226 15.0053 22.9226 15.008C22.92 15.2071 22.7554 15.3664 22.5563 15.3637C22.3572 15.3611 22.1952 15.1991 22.1979 15V14.9947C22.2032 13.4496 22.2164 13.4496 22.1899 13.2611C22.0837 12.5124 22.0253 11.7531 22.2483 11.2434C22.3041 11.1159 22.4235 11.0336 22.5616 11.0257C22.6996 11.0177 22.8271 11.0867 22.8961 11.2062C23.3156 11.9336 23.6076 12.4354 23.8094 12.7885C23.9872 11.8221 24.2182 11.5991 24.4704 11.1319C24.5633 10.9566 24.781 10.8903 24.9589 10.9832C25.0784 11.0442 25.1952 11.1557 25.2881 11.3204C25.381 11.485 25.4607 11.7133 25.5191 11.9761C25.7182 12.8708 25.7182 14.2142 25.7182 14.3947C25.7182 14.8646 25.7395 15.0186 25.7395 15.0345L25.7129 15.1699L25.6279 15.2947L25.5642 15.3451L25.4766 15.385L25.3784 15.3982L25.2881 15.3876L25.1766 15.3372L25.1023 15.2734L25.0279 15.146C25.0094 15.0956 25.0041 15.0451 25.0067 14.9947H25.0041ZM17.3607 11.2673L17.2572 11.2752C17.297 11.2779 17.3315 11.2752 17.3607 11.2673ZM17.2757 10.5531C17.4616 10.5212 17.6421 10.6354 17.6899 10.8212C17.7377 11.0071 17.6288 11.1982 17.4483 11.2566C17.4271 11.2699 17.4032 11.2805 17.3766 11.2885C17.1855 11.3496 16.981 11.246 16.92 11.0549L16.8987 10.9513L16.9041 10.8611L16.9306 10.7681L16.9943 10.6726L17.0607 10.6142L17.1271 10.577L17.2094 10.5531H17.2757ZM17.8359 15.1354C17.8837 15.2204 17.8996 15.3239 17.8704 15.4248L17.8041 15.5761L17.751 15.6398L17.6713 15.6956L17.5784 15.7327L17.4589 15.7381L17.3687 15.7168L17.297 15.6796L17.2147 15.6053L17.1642 15.523L17.1324 15.4168C17.1271 15.3876 17.1218 15.3398 17.1191 15.2681C17.1058 14.9841 17.1005 14.1637 17.0501 12.2841C17.0448 12.085 17.2041 11.9177 17.4032 11.9124C17.6023 11.9071 17.7695 12.0637 17.7775 12.2655C17.8253 13.9673 17.8306 14.7903 17.8412 15.1354H17.8359ZM13.7926 15.5549C13.7474 15.5867 13.6917 15.6053 13.6359 15.6106C13.6864 15.608 13.7421 15.592 13.7926 15.5549ZM13.3041 15.4673C13.2589 15.4088 13.2324 15.3345 13.2324 15.2575C13.2324 15.369 13.2775 15.4354 13.3041 15.4673ZM12.8607 12.6743C12.8288 12.6558 12.7996 12.6292 12.7757 12.6C12.6483 12.446 12.6695 12.215 12.8262 12.0876L12.9775 12.0106C13.0226 12 13.1209 11.9841 13.2616 11.9708C13.7872 11.9177 15.0642 11.8513 15.5713 11.6522C15.7572 11.5805 15.9695 11.6708 16.0412 11.8593C16.1156 12.0451 16.0226 12.2549 15.8368 12.3292C15.3589 12.5177 14.2333 12.608 13.5881 12.669C13.6094 12.8628 13.6731 13.0965 13.7341 13.346C13.7501 13.4097 13.766 13.4761 13.7819 13.5398C14.6076 13.4628 14.6341 13.4681 15.5262 13.3991C15.7253 13.3832 15.9005 13.5319 15.9164 13.7336C15.9324 13.9327 15.781 14.108 15.5819 14.1239C14.7218 14.1903 14.674 14.1876 13.9226 14.2566C13.9386 14.3734 13.9465 14.4876 13.9492 14.5965C13.9492 14.7823 13.9439 14.9681 13.9412 15.154L13.9598 15.2442C13.9598 15.2894 13.9545 15.3319 13.9386 15.3717L13.9147 15.4752L13.8695 15.5575L13.7952 15.6292L13.7182 15.6717L13.6439 15.6929H13.535L13.4288 15.6664L13.328 15.5973L13.2456 15.4752L13.2164 15.3398C13.2111 15.0956 13.2271 14.8487 13.2218 14.6044C13.2164 14.1876 13.0731 13.7097 12.9722 13.2929C12.9191 13.0673 12.8766 12.8575 12.8633 12.6743H12.8607ZM27.951 13.0832C27.858 12.5841 27.7279 12.0956 27.5713 11.7531C27.5235 11.6442 27.4386 11.5274 27.4014 11.477C27.3483 11.5035 27.3111 11.5513 27.274 11.6097C27.2182 11.7 27.1731 11.8142 27.1359 11.9442C27.1094 12.0319 27.0881 12.1248 27.0669 12.2257C27.035 12.4885 26.9952 12.8389 26.9527 13.2982C26.9633 13.2956 26.974 13.2956 26.9846 13.2956C27.197 13.277 27.4492 13.2584 27.951 13.0832ZM26.881 14.0336C26.8678 14.1796 26.8545 14.331 26.8412 14.4903C26.8253 14.692 26.6501 14.8407 26.4483 14.8248C26.2492 14.8062 26.1005 14.6336 26.1164 14.4319C26.1324 14.2381 26.1456 14.0496 26.1589 13.8637C26.1297 13.7734 26.1403 13.6779 26.1802 13.5982C26.22 13.0832 26.2625 12.6106 26.3288 12.2124C26.3899 11.6867 26.4297 11.4531 26.4563 11.3469L26.5094 11.1876L26.5625 11.108L26.6288 11.0469C26.6979 10.9965 26.7775 10.9726 26.8572 10.9779C26.9926 10.8531 27.1492 10.7734 27.3271 10.7416L27.4731 10.7336L27.6111 10.7628L27.7306 10.8133C27.7651 10.8345 27.7996 10.8558 27.8315 10.8823C27.9695 10.9938 28.1076 11.1876 28.2271 11.4504C28.5961 12.2655 28.843 13.808 28.8297 14.6416C28.8271 14.8407 28.6598 15 28.4607 14.9973C28.2616 14.9947 28.0996 14.8274 28.1049 14.6283C28.1076 14.4027 28.0917 14.1186 28.0572 13.8133C27.5448 13.9832 27.2713 14.0018 27.0377 14.0204C26.9819 14.023 26.9315 14.0283 26.8784 14.0336H26.881ZM24.2687 21.6956C22.3333 21.7221 20.589 21.7805 18.7545 21.8496C19.766 22.4416 21.0669 22.7283 22.243 22.5823C23.0103 22.4894 23.7271 22.2106 24.266 21.6956H24.2687ZM9.04565 21.4805C19.3465 21.1858 22.3545 20.7664 33.2952 21.0372C33.4943 12.5655 33.1359 12.223 33.0642 8.0761C33.0536 7.42301 32.8864 6.95575 32.589 6.62655C32.2917 6.29469 31.8749 6.10619 31.397 5.99203C30.3138 5.72655 28.9412 5.8354 27.7545 5.80088C17.7987 5.50088 12.9058 5.36283 10.5908 5.96018C9.91645 6.1354 9.4837 6.36106 9.23149 6.69557C8.98459 7.01947 8.91556 7.43363 8.92087 7.94602L9.04565 21.4805ZM5.91025 21.5602C6.75715 21.5416 7.55892 21.5204 8.32087 21.5018L8.19609 7.95398C8.19078 7.25044 8.31822 6.69557 8.65538 6.25221C8.98724 5.81947 9.53149 5.48495 10.4103 5.25664C12.7545 4.65133 17.7058 4.77079 27.7784 5.07345C29.0129 5.11062 30.4439 5.00973 31.5722 5.28584C32.2014 5.43717 32.7403 5.70531 33.1333 6.14071C33.5262 6.57876 33.7784 7.19469 33.7917 8.06548C33.8633 12.2204 34.2244 12.5628 34.0226 21.0558C34.6465 21.0743 35.2943 21.0929 35.9713 21.1142C35.8014 13.9726 36.2262 10.1575 36.3563 7.83717C36.4306 6.50708 36.4173 5.69734 36.0961 5.02035C35.8864 4.57964 35.5465 4.19734 35.0288 3.75664C34.028 2.90442 32.4828 2.58053 30.8979 2.48495C28.4102 2.33363 25.8164 2.75841 24.858 2.81947C22.0518 3 15.489 2.38938 10.774 2.82743C8.83857 3.00531 7.22441 3.34779 6.36158 4.03274C5.96866 4.34336 5.7722 4.58495 5.67397 5.67079C5.50406 7.54779 5.65273 11.6389 5.91291 21.5602H5.91025ZM2.7191 22.3487C3.20229 23.3044 3.55538 24.1513 3.95096 24.8735C4.34919 25.6009 4.79255 26.1956 5.49875 26.6336C6.47574 27.2389 7.93061 27.5442 10.3757 27.5469C11.8943 27.5496 26.2094 27.5655 29.3527 27.4142C33.2633 27.2257 35.1191 26.8248 36.1996 25.9035C36.7147 25.4628 37.0412 24.9027 37.3439 24.2018C37.62 23.5593 37.8749 22.8027 38.2094 21.9159C32.3979 21.7088 28.4766 21.6531 25.1952 21.685C25.1846 21.7354 25.1607 21.7832 25.1288 21.8283C24.4518 22.6965 23.443 23.169 22.3359 23.3044C20.7271 23.5035 18.9218 22.9858 17.7244 22.0195C17.6819 21.985 17.6474 21.9425 17.6262 21.8947C13.9412 22.0434 9.68282 22.2319 2.72441 22.3487H2.7191ZM39.0669 21.7035C38.6341 22.8106 38.3368 23.7265 38.0103 24.4885C37.6598 25.3035 37.2695 25.946 36.6695 26.4558C35.52 27.4381 33.558 27.9398 29.3872 28.1389C26.2386 28.2929 11.8943 28.2743 10.3731 28.2743C7.73415 28.2717 6.16777 27.9027 5.11379 27.2496C4.29609 26.7425 3.77308 26.0655 3.31114 25.2239C2.87839 24.4381 2.5014 23.5035 1.94653 22.4389C1.89344 22.3407 1.89344 22.2265 1.93592 22.131C1.91999 22.0885 1.90937 22.0434 1.90937 21.9982C1.90671 21.7965 2.066 21.6319 2.26777 21.6292C3.29521 21.6133 4.26423 21.5947 5.18282 21.5761C4.92264 11.6044 4.77662 7.49203 4.94919 5.60442C5.07928 4.17345 5.3899 3.8761 5.9076 3.46195C6.84742 2.71593 8.59698 2.29911 10.7049 2.10265C15.428 1.6646 22.0014 2.27522 24.8102 2.09469C25.7819 2.03363 28.4156 1.60619 30.9403 1.76018C32.6952 1.86637 34.3943 2.26195 35.4987 3.20442C36.728 4.25044 37.0917 5.02832 37.1156 6.60796C37.1501 8.76106 36.4917 12.5336 36.6961 21.1354C37.3518 21.1593 38.0315 21.1805 38.7403 21.2071C38.7802 21.2097 38.82 21.2177 38.8598 21.231C39.0032 21.2894 39.0961 21.4301 39.0908 21.5841C39.0908 21.6239 39.0802 21.6637 39.0669 21.7035Z" fill="#FFE7DE"/>
</svg>
