<svg xmlns="http://www.w3.org/2000/svg" width="57" height="47" viewBox="0 0 57 47" fill="none">
  <g filter="url(#filter0_d_764_726)">
    <path fill-rule="evenodd" clip-rule="evenodd" d="M10.9558 25.4573L10.9448 25.3544L10.9602 25.177L11.0083 25.0107L11.0872 24.8618L11.1923 24.7304L11.3193 24.6209L11.466 24.5377L11.6302 24.4852L11.8076 24.4633C12.5323 24.4523 13.2264 24.4392 13.8898 24.426C13.7672 19.7776 13.638 15.127 13.6928 10.4764C13.7519 5.48422 24.8222 7.1001 34.4322 6.57899C35.1919 6.53739 41.9336 6.17392 43.5035 9.47576C44.0575 10.645 43.4291 21.5468 43.4795 24.0363C43.9108 24.0516 44.3553 24.0669 44.8107 24.0845L45.0976 24.1436L45.334 24.2815L45.5113 24.4786L45.6208 24.7216L45.6536 24.9909L45.5945 25.2778C44.1472 28.9825 44.7844 29.9678 40.8936 30.8983C37.6399 31.6756 17.0297 32.1508 14.1022 30.559C13.1432 30.0379 11.2449 26.3879 11.0413 25.9981L10.9711 25.812L10.9448 25.6193L10.9558 25.4573Z" fill="#FFE7DE" stroke="#FFE7DE" stroke-width="4.99573" stroke-miterlimit="2" stroke-linejoin="round"/>
    <path fill-rule="evenodd" clip-rule="evenodd" d="M47.1285 25.9254C46.6911 27.0698 46.3953 28.0149 46.0643 28.7993C45.7096 29.6415 45.3195 30.3037 44.7224 30.8373C43.5697 31.8467 41.5954 32.3675 37.4161 32.5732C34.2535 32.7275 19.8654 32.7147 18.3402 32.7147C15.692 32.7082 14.1255 32.3289 13.0674 31.6538C12.2457 31.133 11.7196 30.4258 11.2585 29.5579C10.821 28.7478 10.4428 27.7834 9.88716 26.684C9.83987 26.5812 9.83394 26.4655 9.87532 26.3626C9.85759 26.324 9.85165 26.279 9.85165 26.2276C9.84574 26.0219 10.0054 25.8482 10.2064 25.8482C11.2409 25.8289 12.2102 25.8097 13.1323 25.7904C12.8722 15.4908 12.7245 11.241 12.8959 9.29299C13.026 7.81427 13.3392 7.5057 13.8594 7.08137C14.7993 6.30987 16.5551 5.87907 18.6713 5.67333C23.4122 5.22329 30.0033 5.85335 32.823 5.6669C33.7984 5.60261 36.4407 5.15904 38.9707 5.31977C40.7323 5.42907 42.4349 5.84051 43.5462 6.81132C44.7758 7.89143 45.1421 8.69506 45.1658 10.3281C45.2012 12.5526 44.5392 16.4552 44.7461 25.3404C45.4082 25.3596 46.0881 25.3854 46.7975 25.4111C46.8388 25.4111 46.88 25.4239 46.9155 25.4367C47.0633 25.4946 47.1581 25.6425 47.1522 25.8032C47.1463 25.8418 47.1403 25.8804 47.1285 25.9254ZM10.6616 26.5876C11.1463 27.5777 11.5009 28.4521 11.897 29.1979C12.2989 29.9501 12.7422 30.5609 13.4516 31.0173C14.4269 31.641 15.887 31.956 18.3402 31.9624C19.8654 31.9624 34.224 31.9817 37.3806 31.821C41.3057 31.6281 43.1679 31.2166 44.2496 30.2651C44.7639 29.8086 45.089 29.23 45.3964 28.5035C45.6742 27.8413 45.9285 27.057 46.2655 26.144C40.4369 25.9318 36.4998 25.874 33.2072 25.9061C33.1954 25.9576 33.1719 26.009 33.1365 26.054C32.4626 26.9541 31.4457 27.4363 30.3343 27.5777C28.7265 27.7834 26.9118 27.2498 25.7118 26.2533C25.6704 26.2147 25.635 26.1697 25.6113 26.1247C21.9109 26.2726 17.6429 26.4719 10.6616 26.5876ZM32.2792 25.9125C30.3344 25.9446 28.5847 26.0025 26.7463 26.0732C27.763 26.684 29.0694 26.9862 30.2457 26.8319C31.0201 26.7355 31.7354 26.4461 32.2792 25.9125ZM13.8594 25.7775C14.7106 25.7582 15.5148 25.7325 16.2773 25.7132L16.1532 11.7168C16.1473 10.9967 16.2772 10.4181 16.6142 9.96165C16.9452 9.5116 17.495 9.17087 18.3757 8.93299C20.7285 8.30936 25.6941 8.43149 35.7966 8.74652C37.0379 8.78509 38.4744 8.67577 39.6034 8.96509C40.2359 9.11939 40.7797 9.39584 41.1699 9.84589C41.5659 10.3024 41.8143 10.9325 41.832 11.8326C41.9029 16.1273 42.2633 16.4809 42.0623 25.2568C42.6889 25.2696 43.3392 25.2953 44.019 25.3146C43.8476 17.9339 44.2731 13.9992 44.4032 11.6011C44.48 10.2253 44.4683 9.38946 44.1431 8.68868C43.9303 8.2322 43.5933 7.84 43.0731 7.38353C42.0682 6.50273 40.5196 6.16838 38.9294 6.07194C36.4349 5.91121 33.828 6.35485 32.8703 6.41915C30.0565 6.59916 23.4712 5.9691 18.7363 6.41915C16.7973 6.60559 15.1776 6.95924 14.3146 7.66645C13.9185 7.98791 13.7176 8.23858 13.623 9.35726C13.4516 11.2989 13.5993 15.5229 13.8594 25.7775ZM17.0044 25.6939C27.3433 25.3917 30.3579 24.9546 41.3352 25.2375C41.5362 16.4873 41.1759 16.1273 41.1049 11.8454C41.0931 11.1704 40.9216 10.6881 40.6261 10.3474C40.3305 10.0066 39.9108 9.81375 39.432 9.69159C38.3443 9.42157 36.9668 9.5309 35.7787 9.49233C25.7885 9.18373 20.8822 9.04229 18.559 9.65949C17.8792 9.83951 17.4477 10.0773 17.1935 10.4181C16.9452 10.7524 16.8803 11.1832 16.8803 11.7104L17.0044 25.6939ZM25.8241 19.1362C25.8773 19.2262 25.8891 19.3354 25.8596 19.4383L25.7943 19.5926L25.7412 19.6569L25.6584 19.7212L25.5698 19.7533L25.4457 19.7598L25.3571 19.7405L25.2861 19.7019L25.2032 19.6248L25.1501 19.5412L25.1146 19.4319C25.1087 19.3997 25.1087 19.3483 25.1028 19.2776C25.0909 18.9818 25.085 18.1331 25.0318 16.1915C25.0258 15.9858 25.1855 15.8122 25.3865 15.8058C25.5875 15.7994 25.7532 15.9666 25.7591 16.1723C25.8064 17.9339 25.8182 18.7825 25.8241 19.1362ZM20.8349 16.5966C20.8054 16.5773 20.7758 16.5516 20.7521 16.5194C20.6221 16.3587 20.6458 16.1208 20.7994 15.9923L20.953 15.9087C20.9944 15.9022 21.0949 15.8829 21.2367 15.8701C21.7628 15.8122 23.0456 15.7415 23.5539 15.5422C23.7372 15.4651 23.9502 15.5615 24.027 15.7544C24.0979 15.9473 24.0033 16.1658 23.8201 16.2366C23.3353 16.4359 22.2123 16.5323 21.562 16.5901C21.5857 16.7894 21.6448 17.0338 21.7098 17.291C21.7275 17.3553 21.7394 17.4259 21.7571 17.4902C22.5847 17.4131 22.6143 17.4131 23.5069 17.3424C23.7079 17.3295 23.885 17.4838 23.8968 17.6896C23.9146 17.8953 23.7608 18.0753 23.5658 18.0946C22.7027 18.1589 22.6496 18.1589 21.8989 18.2296C21.9166 18.3518 21.9225 18.4675 21.9225 18.5832C21.9285 18.7761 21.9227 18.9626 21.9168 19.1555L21.9344 19.2518C21.9403 19.2968 21.9286 19.3419 21.9168 19.3805L21.8931 19.4897L21.8458 19.5733L21.769 19.6504L21.6919 19.6955L21.6212 19.7148L21.5086 19.7212L21.4024 19.6891L21.302 19.6183L21.2191 19.4897L21.1894 19.3483C21.1835 19.0975 21.2014 18.8404 21.1955 18.5897C21.1895 18.1589 21.0477 17.6638 20.9472 17.2331C20.894 17.0016 20.8527 16.7894 20.8349 16.5966ZM21.2783 19.4833C21.2369 19.419 21.2073 19.3483 21.2073 19.2647C21.2132 19.3804 21.2547 19.4447 21.2783 19.4833ZM21.769 19.5733C21.7217 19.6054 21.6685 19.6248 21.6094 19.6312C21.6626 19.6248 21.7158 19.6119 21.769 19.5733ZM34.9038 17.9982C34.8861 18.1525 34.8743 18.3068 34.8625 18.4739C34.8448 18.6797 34.6675 18.834 34.4665 18.8147C34.2655 18.8018 34.1177 18.6218 34.1354 18.4161V18.4096C34.1532 18.2103 34.1649 18.0174 34.1767 17.8246C34.1472 17.7281 34.159 17.6317 34.2004 17.5482C34.2358 17.021 34.2772 16.5323 34.3482 16.1144C34.4073 15.5743 34.4488 15.3365 34.4783 15.2208L34.5315 15.0601L34.5846 14.9765L34.6495 14.9121C34.7204 14.8607 34.7974 14.8414 34.8801 14.8414C35.0161 14.7128 35.17 14.6292 35.3532 14.5971L35.4949 14.5907L35.6369 14.6228L35.755 14.6742C35.7905 14.6935 35.8259 14.7192 35.8554 14.7449C35.9973 14.8607 36.1393 15.06 36.2575 15.33C36.6299 16.1723 36.8723 17.7667 36.8605 18.6282C36.8546 18.834 36.6891 19.0012 36.4881 18.9947C36.2871 18.9947 36.1273 18.8211 36.1273 18.6153C36.1332 18.3839 36.1158 18.0882 36.0803 17.7732C35.5719 17.9468 35.2941 17.966 35.0576 17.9853C35.0044 17.9917 34.957 17.9917 34.9038 17.9982ZM35.9738 17.0209C35.8792 16.5001 35.7492 15.9987 35.5896 15.6451C35.5423 15.5358 35.4594 15.4136 35.4239 15.3558C35.3707 15.3879 35.3295 15.4329 35.294 15.4972C35.2349 15.5872 35.1934 15.7094 35.152 15.8444C35.1284 15.9344 35.1048 16.0308 35.0871 16.1337C35.0516 16.4037 35.016 16.7637 34.9687 17.2395C34.9806 17.2395 34.9924 17.2395 35.0042 17.2395C35.217 17.2202 35.4713 17.2009 35.9738 17.0209ZM25.2624 14.4043C25.4515 14.3721 25.629 14.4878 25.6763 14.6807C25.7236 14.8735 25.6171 15.0729 25.4338 15.1308C25.4161 15.1436 25.3865 15.1564 25.3628 15.1629C25.1737 15.2272 24.9668 15.1179 24.9076 14.925L24.884 14.8157L24.89 14.7193L24.9137 14.6293L24.9787 14.5264L25.0436 14.4685L25.1146 14.4299L25.1974 14.4043H25.2624ZM25.351 15.1436L25.2448 15.15C25.2862 15.15 25.3155 15.15 25.351 15.1436ZM28.6201 15.6257C28.7856 15.7415 28.8271 15.9794 28.7148 16.1466C28.5966 16.3201 28.3717 16.3587 28.2062 16.243C28.017 16.108 27.8163 16.2237 27.6685 16.4166C27.3079 16.8667 27.1719 17.7346 27.6093 18.5511C27.698 18.7247 27.8811 18.7504 28.0348 18.7054C28.1944 18.6539 28.354 18.5318 28.3658 18.3582C28.3777 18.1653 28.2239 17.9789 27.8988 17.7667C27.751 17.6703 27.6921 17.4838 27.7571 17.3166C27.8221 17.1495 27.9874 17.0466 28.1589 17.0788C28.7737 17.1945 28.7797 17.2138 29.3709 17.0145C29.56 16.9438 29.7668 17.053 29.8318 17.2459C29.8969 17.4452 29.7907 17.6574 29.6015 17.7217C29.3296 17.8181 29.1521 17.876 29.0043 17.9081C29.0752 18.0817 29.0988 18.2489 29.0929 18.3968C29.0693 18.8854 28.6911 19.284 28.2359 19.4254C27.7749 19.5669 27.2487 19.4383 26.9708 18.9111C26.362 17.7796 26.6042 16.5709 27.1007 15.9409C27.5204 15.4137 28.0999 15.2529 28.6201 15.6257ZM33.0181 18.9947C33.0122 18.8983 33.0005 18.6925 33.0005 18.371C33.0005 18.1974 33.0064 16.8987 32.8172 16.0372C32.8113 16.0115 32.8052 15.9794 32.7993 15.9536C32.6397 16.3073 32.498 16.8023 32.3975 17.921C32.3798 18.0882 32.2555 18.2232 32.0959 18.2554C31.9304 18.2811 31.7708 18.191 31.6999 18.0367C31.6231 17.8695 31.6053 17.8374 30.9728 16.7059C30.961 17.2395 30.9432 17.9853 30.9255 19.0011C30.9255 19.0011 30.9255 19.0011 30.9255 19.0075C30.9196 19.2133 30.7599 19.3805 30.5589 19.374C30.3579 19.374 30.1984 19.2068 30.1984 19.0011C30.1984 18.9947 30.1984 18.9947 30.1984 18.9947C30.2043 17.3939 30.2161 17.3938 30.1866 17.201C30.0861 16.4294 30.027 15.6451 30.2457 15.1179C30.3048 14.9893 30.4229 14.8993 30.5589 14.8929C30.7008 14.8865 30.831 14.9571 30.896 15.0793C31.3217 15.8315 31.6112 16.3459 31.8122 16.7123C31.9954 15.7158 32.2259 15.4843 32.4801 15.0021C32.5747 14.8221 32.7936 14.7514 32.965 14.8478C33.0891 14.9121 33.2015 15.0279 33.2961 15.195C33.3907 15.3686 33.4673 15.6 33.5264 15.8765C33.7274 16.7959 33.7276 18.1846 33.7276 18.371C33.7276 18.8597 33.751 19.014 33.751 19.0333L33.7215 19.1747L33.6387 19.3033L33.5737 19.3547L33.4851 19.3933L33.3847 19.4126L33.2961 19.3998L33.1835 19.3483L33.1128 19.284L33.0357 19.149C33.018 19.0976 33.0122 19.0462 33.0181 18.9947ZM33.5798 18.7118C33.6448 18.7568 33.6979 18.8147 33.7215 18.8983C33.692 18.8018 33.6389 18.7439 33.5798 18.7118Z" fill="#FF7336"/>
  </g>
  <defs>
    <filter id="filter0_d_764_726" x="0.446899" y="0.0490723" width="55.7046" height="46.0667" filterUnits="userSpaceOnUse" color-interpolation-filters="sRGB">
      <feFlood flood-opacity="0" result="BackgroundImageFix"/>
      <feColorMatrix in="SourceAlpha" type="matrix" values="0 0 0 0 0 0 0 0 0 0 0 0 0 0 0 0 0 0 127 0" result="hardAlpha"/>
      <feOffset dy="4"/>
      <feGaussianBlur stdDeviation="4"/>
      <feComposite in2="hardAlpha" operator="out"/>
      <feColorMatrix type="matrix" values="0 0 0 0 0.119097 0 0 0 0 0.204167 0 0 0 0 0.119097 0 0 0 0.16 0"/>
      <feBlend mode="normal" in2="BackgroundImageFix" result="effect1_dropShadow_764_726"/>
      <feBlend mode="normal" in="SourceGraphic" in2="effect1_dropShadow_764_726" result="shape"/>
    </filter>
  </defs>
</svg>
