<svg xmlns="http://www.w3.org/2000/svg" width="57" height="47" viewBox="0 0 57 47" fill="none">
  <g filter="url(#filter0_d_764_700)">
    <path fill-rule="evenodd" clip-rule="evenodd" d="M10.9558 25.4576L10.9448 25.3546L10.9602 25.1773L11.0083 25.0109L11.0872 24.862L11.1923 24.7306L11.3193 24.6212L11.466 24.538L11.6302 24.4854L11.8076 24.4635C12.5323 24.4526 13.2264 24.4394 13.8898 24.4263C13.7672 19.7779 13.638 15.1273 13.6928 10.4766C13.7519 5.48447 24.8222 7.10035 34.4322 6.57923C35.1919 6.53763 41.9336 6.17416 43.5035 9.47601C44.0575 10.6452 43.4291 21.547 43.4795 24.0365C43.9108 24.0519 44.3553 24.0672 44.8107 24.0847L45.0976 24.1438L45.334 24.2818L45.5113 24.4788L45.6208 24.7219L45.6536 24.9912L45.5945 25.278C44.1472 28.9827 44.7844 29.968 40.8936 30.8986C37.6399 31.6759 17.0297 32.151 14.1022 30.5592C13.1432 30.0381 11.2449 26.3881 11.0413 25.9984L10.9711 25.8123L10.9448 25.6196L10.9558 25.4576Z" fill="#264A26" stroke="#264A26" stroke-width="4.99573" stroke-miterlimit="2" stroke-linejoin="round"/>
    <path fill-rule="evenodd" clip-rule="evenodd" d="M47.1285 25.9256C46.6911 27.07 46.3953 28.0152 46.0643 28.7995C45.7096 29.6418 45.3195 30.3039 44.7224 30.8375C43.5697 31.8469 41.5954 32.3677 37.4161 32.5735C34.2535 32.7278 19.8654 32.7149 18.3402 32.7149C15.692 32.7085 14.1255 32.3291 13.0674 31.6541C12.2457 31.1333 11.7196 30.4261 11.2585 29.5581C10.821 28.748 10.4428 27.7837 9.88716 26.6843C9.83987 26.5814 9.83394 26.4657 9.87532 26.3628C9.85759 26.3243 9.85165 26.2793 9.85165 26.2278C9.84574 26.0221 10.0054 25.8485 10.2064 25.8485C11.2409 25.8292 12.2102 25.8099 13.1323 25.7906C12.8722 15.491 12.7245 11.2413 12.8959 9.29323C13.026 7.81451 13.3392 7.50595 13.8594 7.08162C14.7993 6.31011 16.5551 5.87931 18.6713 5.67358C23.4122 5.22353 30.0033 5.85359 32.823 5.66714C33.7984 5.60285 36.4407 5.15929 38.9707 5.32002C40.7323 5.42932 42.4349 5.84075 43.5462 6.81156C44.7758 7.89167 45.1421 8.6953 45.1658 10.3283C45.2012 12.5528 44.5392 16.4554 44.7461 25.3406C45.4082 25.3599 46.0881 25.3856 46.7975 25.4113C46.8388 25.4113 46.88 25.4241 46.9155 25.437C47.0633 25.4948 47.1581 25.6428 47.1522 25.8035C47.1463 25.8421 47.1403 25.8806 47.1285 25.9256ZM10.6616 26.5878C11.1463 27.5779 11.5009 28.4523 11.897 29.1981C12.2989 29.9504 12.7422 30.5611 13.4516 31.0176C14.4269 31.6412 15.887 31.9562 18.3402 31.9626C19.8654 31.9626 34.224 31.982 37.3806 31.8212C41.3057 31.6283 43.1679 31.2169 44.2496 30.2653C44.7639 29.8089 45.089 29.2302 45.3964 28.5037C45.6742 27.8415 45.9285 27.0572 46.2655 26.1443C40.4369 25.9321 36.4998 25.8742 33.2072 25.9064C33.1954 25.9578 33.1719 26.0092 33.1365 26.0542C32.4626 26.9543 31.4457 27.4365 30.3343 27.578C28.7265 27.7837 26.9118 27.25 25.7118 26.2535C25.6704 26.2149 25.635 26.17 25.6113 26.125C21.9109 26.2728 17.6429 26.4721 10.6616 26.5878ZM32.2792 25.9127C30.3344 25.9449 28.5847 26.0027 26.7463 26.0735C27.763 26.6842 29.0694 26.9864 30.2457 26.8321C31.0201 26.7357 31.7354 26.4464 32.2792 25.9127ZM13.8594 25.7777C14.7106 25.7585 15.5148 25.7328 16.2773 25.7135L16.1532 11.7171C16.1473 10.997 16.2772 10.4184 16.6142 9.96189C16.9452 9.51185 17.495 9.17112 18.3757 8.93323C20.7285 8.3096 25.6941 8.43173 35.7966 8.74676C37.0379 8.78534 38.4744 8.67602 39.6034 8.96533C40.2359 9.11963 40.7797 9.39609 41.1699 9.84613C41.5659 10.3026 41.8143 10.9327 41.832 11.8328C41.9029 16.1275 42.2633 16.4811 42.0623 25.257C42.6889 25.2699 43.3392 25.2956 44.019 25.3149C43.8476 17.9341 44.2731 13.9995 44.4032 11.6014C44.48 10.2255 44.4683 9.38971 44.1431 8.68892C43.9303 8.23245 43.5933 7.84025 43.0731 7.38377C42.0682 6.50297 40.5196 6.16862 38.9294 6.07219C36.4349 5.91146 33.828 6.3551 32.8703 6.41939C30.0565 6.59941 23.4712 5.96934 18.7363 6.41939C16.7973 6.60584 15.1776 6.95948 14.3146 7.6667C13.9185 7.98816 13.7176 8.23882 13.623 9.35751C13.4516 11.2991 13.5993 15.5231 13.8594 25.7777ZM17.0044 25.6942C27.3433 25.392 30.3579 24.9548 41.3352 25.2377C41.5362 16.4876 41.1759 16.1275 41.1049 11.8457C41.0931 11.1706 40.9216 10.6884 40.6261 10.3476C40.3305 10.0069 39.9108 9.81399 39.432 9.69184C38.3443 9.42181 36.9668 9.53115 35.7787 9.49257C25.7885 9.18397 20.8822 9.04253 18.559 9.65974C17.8792 9.83976 17.4477 10.0776 17.1935 10.4183C16.9452 10.7527 16.8803 11.1834 16.8803 11.7106L17.0044 25.6942ZM25.8241 19.1364C25.8773 19.2264 25.8891 19.3357 25.8596 19.4385L25.7943 19.5928L25.7412 19.6571L25.6584 19.7215L25.5698 19.7536L25.4457 19.76L25.3571 19.7407L25.2861 19.7022L25.2032 19.625L25.1501 19.5414L25.1146 19.4321C25.1087 19.4 25.1087 19.3485 25.1028 19.2778C25.0909 18.9821 25.085 18.1334 25.0318 16.1918C25.0258 15.986 25.1855 15.8125 25.3865 15.806C25.5875 15.7996 25.7532 15.9668 25.7591 16.1725C25.8064 17.9341 25.8182 18.7828 25.8241 19.1364ZM20.8349 16.5968C20.8054 16.5775 20.7758 16.5518 20.7521 16.5197C20.6221 16.3589 20.6458 16.1211 20.7994 15.9925L20.953 15.9089C20.9944 15.9025 21.0949 15.8832 21.2367 15.8703C21.7628 15.8124 23.0456 15.7418 23.5539 15.5425C23.7372 15.4653 23.9502 15.5617 24.027 15.7546C24.0979 15.9475 24.0033 16.1661 23.8201 16.2368C23.3353 16.4361 22.2123 16.5325 21.562 16.5904C21.5857 16.7897 21.6448 17.034 21.7098 17.2912C21.7275 17.3555 21.7394 17.4262 21.7571 17.4905C22.5847 17.4133 22.6143 17.4133 23.5069 17.3426C23.7079 17.3298 23.885 17.4841 23.8968 17.6898C23.9146 17.8956 23.7608 18.0756 23.5658 18.0949C22.7027 18.1592 22.6496 18.1591 21.8989 18.2299C21.9166 18.352 21.9225 18.4678 21.9225 18.5835C21.9285 18.7764 21.9227 18.9628 21.9168 19.1557L21.9344 19.2521C21.9403 19.2971 21.9286 19.3421 21.9168 19.3807L21.8931 19.49L21.8458 19.5735L21.769 19.6507L21.6919 19.6957L21.6212 19.715L21.5086 19.7215L21.4024 19.6893L21.302 19.6186L21.2191 19.49L21.1894 19.3485C21.1835 19.0978 21.2014 18.8407 21.1955 18.5899C21.1895 18.1592 21.0477 17.6641 20.9472 17.2333C20.894 17.0018 20.8527 16.7897 20.8349 16.5968ZM21.2783 19.4835C21.2369 19.4192 21.2073 19.3485 21.2073 19.2649C21.2132 19.3807 21.2547 19.4449 21.2783 19.4835ZM21.769 19.5735C21.7217 19.6057 21.6685 19.625 21.6094 19.6315C21.6626 19.625 21.7158 19.6121 21.769 19.5735ZM34.9038 17.9984C34.8861 18.1527 34.8743 18.307 34.8625 18.4742C34.8448 18.6799 34.6675 18.8342 34.4665 18.8149C34.2655 18.8021 34.1177 18.6221 34.1354 18.4163V18.4099C34.1532 18.2106 34.1649 18.0177 34.1767 17.8248C34.1472 17.7284 34.159 17.632 34.2004 17.5484C34.2358 17.0212 34.2772 16.5325 34.3482 16.1146C34.4073 15.5746 34.4488 15.3368 34.4783 15.221L34.5315 15.0603L34.5846 14.9767L34.6495 14.9124C34.7204 14.8609 34.7974 14.8416 34.8801 14.8416C35.0161 14.7131 35.17 14.6295 35.3532 14.5973L35.4949 14.5909L35.6369 14.6231L35.755 14.6745C35.7905 14.6938 35.8259 14.7195 35.8554 14.7452C35.9973 14.8609 36.1393 15.0602 36.2575 15.3303C36.6299 16.1725 36.8723 17.7669 36.8605 18.6285C36.8546 18.8342 36.6891 19.0014 36.4881 18.995C36.2871 18.995 36.1273 18.8213 36.1273 18.6156C36.1332 18.3841 36.1158 18.0884 36.0803 17.7734C35.5719 17.947 35.2941 17.9663 35.0576 17.9855C35.0044 17.992 34.957 17.992 34.9038 17.9984ZM35.9738 17.0212C35.8792 16.5004 35.7492 15.9989 35.5896 15.6453C35.5423 15.536 35.4594 15.4139 35.4239 15.356C35.3707 15.3882 35.3295 15.4331 35.294 15.4974C35.2349 15.5874 35.1934 15.7096 35.152 15.8446C35.1284 15.9347 35.1048 16.0311 35.0871 16.1339C35.0516 16.404 35.016 16.764 34.9687 17.2397C34.9806 17.2397 34.9924 17.2397 35.0042 17.2397C35.217 17.2204 35.4713 17.2012 35.9738 17.0212ZM25.2624 14.4045C25.4515 14.3724 25.629 14.488 25.6763 14.6809C25.7236 14.8738 25.6171 15.0731 25.4338 15.131C25.4161 15.1439 25.3865 15.1567 25.3628 15.1631C25.1737 15.2274 24.9668 15.1181 24.9076 14.9252L24.884 14.816L24.89 14.7195L24.9137 14.6295L24.9787 14.5266L25.0436 14.4688L25.1146 14.4302L25.1974 14.4045H25.2624ZM25.351 15.1438L25.2448 15.1502C25.2862 15.1502 25.3155 15.1502 25.351 15.1438ZM28.6201 15.626C28.7856 15.7417 28.8271 15.9796 28.7148 16.1468C28.5966 16.3204 28.3717 16.359 28.2062 16.2432C28.017 16.1082 27.8163 16.224 27.6685 16.4169C27.3079 16.8669 27.1719 17.7348 27.6093 18.5513C27.698 18.7249 27.8811 18.7506 28.0348 18.7056C28.1944 18.6542 28.354 18.532 28.3658 18.3584C28.3777 18.1655 28.2239 17.9791 27.8988 17.767C27.751 17.6705 27.6921 17.484 27.7571 17.3169C27.8221 17.1497 27.9874 17.0469 28.1589 17.079C28.7737 17.1947 28.7797 17.214 29.3709 17.0147C29.56 16.944 29.7668 17.0533 29.8318 17.2462C29.8969 17.4455 29.7907 17.6576 29.6015 17.7219C29.3296 17.8184 29.1521 17.8762 29.0043 17.9084C29.0752 18.082 29.0988 18.2491 29.0929 18.397C29.0693 18.8856 28.6911 19.2842 28.2359 19.4257C27.7749 19.5671 27.2487 19.4386 26.9708 18.9114C26.362 17.7798 26.6042 16.5712 27.1007 15.9411C27.5204 15.4139 28.0999 15.2531 28.6201 15.626ZM33.0181 18.995C33.0122 18.8985 33.0005 18.6927 33.0005 18.3713C33.0005 18.1977 33.0064 16.899 32.8172 16.0375C32.8113 16.0118 32.8052 15.9796 32.7993 15.9539C32.6397 16.3075 32.498 16.8026 32.3975 17.9213C32.3798 18.0884 32.2555 18.2235 32.0959 18.2556C31.9304 18.2813 31.7708 18.1912 31.6999 18.0369C31.6231 17.8698 31.6053 17.8377 30.9728 16.7061C30.961 17.2398 30.9432 17.9855 30.9255 19.0013C30.9255 19.0013 30.9255 19.0013 30.9255 19.0078C30.9196 19.2135 30.7599 19.3807 30.5589 19.3743C30.3579 19.3743 30.1984 19.2071 30.1984 19.0013C30.1984 18.9949 30.1984 18.995 30.1984 18.995C30.2043 17.3941 30.2161 17.3941 30.1866 17.2012C30.0861 16.4297 30.027 15.6453 30.2457 15.1181C30.3048 14.9896 30.4229 14.8996 30.5589 14.8931C30.7008 14.8867 30.831 14.9574 30.896 15.0795C31.3217 15.8317 31.6112 16.3461 31.8122 16.7126C31.9954 15.716 32.2259 15.4846 32.4801 15.0024C32.5747 14.8224 32.7936 14.7516 32.965 14.8481C33.0891 14.9124 33.2015 15.0281 33.2961 15.1953C33.3907 15.3689 33.4673 15.6003 33.5264 15.8767C33.7274 16.7961 33.7276 18.1848 33.7276 18.3713C33.7276 18.8599 33.751 19.0142 33.751 19.0335L33.7215 19.1749L33.6387 19.3036L33.5737 19.355L33.4851 19.3936L33.3847 19.4128L33.2961 19.4L33.1835 19.3485L33.1128 19.2843L33.0357 19.1493C33.018 19.0978 33.0122 19.0464 33.0181 18.995ZM33.5798 18.712C33.6448 18.7571 33.6979 18.8149 33.7215 18.8985C33.692 18.8021 33.6389 18.7442 33.5798 18.712Z" fill="#FFE7DE"/>
  </g>
  <defs>
    <filter id="filter0_d_764_700" x="0.447021" y="0.0493164" width="55.7043" height="46.0664" filterUnits="userSpaceOnUse" color-interpolation-filters="sRGB">
      <feFlood flood-opacity="0" result="BackgroundImageFix"/>
      <feColorMatrix in="SourceAlpha" type="matrix" values="0 0 0 0 0 0 0 0 0 0 0 0 0 0 0 0 0 0 127 0" result="hardAlpha"/>
      <feOffset dy="4"/>
      <feGaussianBlur stdDeviation="4"/>
      <feComposite in2="hardAlpha" operator="out"/>
      <feColorMatrix type="matrix" values="0 0 0 0 0.119097 0 0 0 0 0.204167 0 0 0 0 0.119097 0 0 0 0.16 0"/>
      <feBlend mode="normal" in2="BackgroundImageFix" result="effect1_dropShadow_764_700"/>
      <feBlend mode="normal" in="SourceGraphic" in2="effect1_dropShadow_764_700" result="shape"/>
    </filter>
  </defs>
</svg>
