<svg width="50" height="50" viewBox="0 0 50 50" fill="none" xmlns="http://www.w3.org/2000/svg">
<circle cx="25" cy="25" r="24.5" fill="#FFE7DE" fill-opacity="0.2" stroke="#FFE7DE"/>
<g clip-path="url(#clip0_1057_1339)">
<path d="M34.8027 38.2726C34.4337 38.7345 33.8841 39 33.2947 39C33.2655 39 33.2337 38.9973 33.2018 38.9973C31.5239 38.9204 29.8115 38.8832 28.1151 38.8832C26.9549 38.8832 25.7868 38.8991 24.6372 38.9363C24.5337 38.9389 24.4248 38.9416 24.3133 38.9416C23.9363 38.9416 23.3682 38.9097 22.7921 38.6363C22.0938 38.3044 21.6797 37.7655 21.4062 37.4071L15.3903 29.5354C14.2965 28.1044 13.1655 26.623 12.2416 24.9717C12.0744 24.6743 11.9921 24.3398 12 24C11.9921 23.6575 12.0744 23.323 12.2416 23.0283C13.1655 21.3743 14.2965 19.8929 15.3903 18.4619L21.4062 10.5903C21.6797 10.2345 22.0938 9.69558 22.7921 9.36106C23.3682 9.08761 23.9363 9.05575 24.3133 9.05575C24.4248 9.05575 24.5337 9.05841 24.6372 9.06372C25.7868 9.09823 26.9576 9.11681 28.1151 9.11681C29.8115 9.11681 31.5239 9.07699 33.2018 9.00265C33.2337 9 33.2682 9 33.3027 9C33.8815 9 34.4416 9.2708 34.8 9.72478C35.1823 10.2053 35.3124 10.8425 35.1452 11.4345C34.9673 12.0664 34.67 12.5947 34.4337 13.0195C32.3523 16.7389 30.1089 20.4292 27.7593 24C30.0744 27.5177 32.2885 31.1522 34.3434 34.8159L34.4337 34.9779C34.67 35.4027 34.9673 35.931 35.1478 36.5681C35.3124 37.1575 35.1823 37.7947 34.8027 38.2726Z" fill="#FFE7DE"/>
<path d="M33.295 37.6725C33.295 37.6725 33.2764 37.6725 33.2684 37.6725C30.3932 37.5424 27.4755 37.5212 24.595 37.6114C24.2286 37.6221 23.7773 37.638 23.3631 37.4415C22.9516 37.2451 22.6808 36.8893 22.4604 36.6052L16.4445 28.7336C15.3773 27.3398 14.2755 25.8955 13.3994 24.3265C13.3596 24.2548 13.3197 24.146 13.3304 24.0026C13.3197 23.8592 13.3596 23.7504 13.3994 23.6787C14.2755 22.1097 15.3799 20.6654 16.4445 19.2716L22.4604 11.3999C22.6781 11.1132 22.9516 10.7575 23.3631 10.5637C23.7773 10.3672 24.2286 10.3831 24.595 10.3937C27.4728 10.4813 30.3932 10.4628 33.2684 10.3327C33.4569 10.3221 33.6427 10.407 33.7622 10.5583C33.879 10.7044 33.9189 10.8982 33.8684 11.0787C33.7304 11.5645 33.4781 12.0159 33.2737 12.3796C31.0649 16.3247 28.6755 20.2353 26.1666 24.0052C28.6755 27.7752 31.0675 31.6858 33.2737 35.6309C33.4781 35.9946 33.7304 36.446 33.8684 36.9318C33.9189 37.1123 33.879 37.3061 33.7622 37.4521C33.6481 37.5955 33.4755 37.6778 33.295 37.6778V37.6725ZM30.0773 36.7752C31.0569 36.7911 32.0339 36.8203 33.0082 36.8628C32.8888 36.5654 32.7295 36.276 32.5808 36.0159C30.3401 32.0097 27.9082 28.0433 25.3569 24.2229L25.2082 24.0026L25.3569 23.7822C27.9082 19.9619 30.3374 15.9929 32.5808 11.9893C32.7268 11.7265 32.8888 11.4398 33.0082 11.1424C32.0339 11.1849 31.0569 11.2141 30.0773 11.23C29.9365 11.6521 29.7215 12.0371 29.5304 12.3796C27.3188 16.33 24.9295 20.2406 22.4233 24.0052C24.9295 27.7725 27.3215 31.6831 29.5304 35.6309C29.7215 35.9734 29.9365 36.3583 30.0773 36.7805V36.7752ZM14.1348 24.0079C14.979 25.4999 16.0463 26.8964 17.0764 28.2477L23.0923 36.1194C23.2755 36.361 23.4666 36.6079 23.7029 36.7221C23.9419 36.8362 24.2578 36.8256 24.5684 36.815C26.1109 36.7672 27.6666 36.7513 29.2171 36.7645C29.1056 36.5017 28.9622 36.2495 28.8321 36.0159C26.5888 32.007 24.1596 28.0406 21.6082 24.2229L21.4596 24.0026L21.6082 23.7822C24.1569 19.9645 26.5888 15.9955 28.8321 11.9893C28.9622 11.7557 29.1056 11.5008 29.2171 11.2406C27.6666 11.2539 26.1109 11.2406 24.5684 11.1902C24.2604 11.1822 23.9419 11.1716 23.7029 11.2831C23.4666 11.3973 23.2755 11.6442 23.0923 11.8858L17.0764 19.7575C16.0436 21.1088 14.9764 22.5052 14.1348 23.9973V24.0052V24.0132V24.0079Z" fill="#FF7336"/>
</g>
<defs>
<clipPath id="clip0_1057_1339">
<rect width="23.2195" height="30" fill="white" transform="translate(12 9)"/>
</clipPath>
</defs>
</svg>
