<svg width="50" height="50" viewBox="0 0 50 50" fill="none" xmlns="http://www.w3.org/2000/svg">
<circle cx="25" cy="25" r="24.5" transform="rotate(-180 25 25)" fill="#FFE7DE" fill-opacity="0.2" stroke="#FFE7DE"/>
<g clip-path="url(#clip0_445_1724)">
<path d="M15.1973 11.7274C15.5663 11.2655 16.1159 11 16.7053 11C16.7345 11 16.7663 11.0027 16.7982 11.0027C18.4761 11.0796 20.1885 11.1168 21.8849 11.1168C23.0451 11.1168 24.2132 11.1009 25.3628 11.0637C25.4663 11.0611 25.5752 11.0584 25.6867 11.0584C26.0637 11.0584 26.6318 11.0903 27.2079 11.3637C27.9062 11.6956 28.3203 12.2345 28.5938 12.5929L34.6097 20.4646C35.7035 21.8956 36.8345 23.377 37.7584 25.0283C37.9256 25.3257 38.0079 25.6602 38 26C38.0079 26.3425 37.9256 26.677 37.7584 26.9717C36.8345 28.6257 35.7035 30.1071 34.6097 31.5381L28.5938 39.4097C28.3203 39.7655 27.9062 40.3044 27.2079 40.6389C26.6318 40.9124 26.0637 40.9442 25.6867 40.9442C25.5752 40.9442 25.4663 40.9416 25.3628 40.9363C24.2132 40.9018 23.0424 40.8832 21.8849 40.8832C20.1885 40.8832 18.4761 40.923 16.7982 40.9973C16.7663 41 16.7318 41 16.6973 41C16.1185 41 15.5584 40.7292 15.2 40.2752C14.8177 39.7947 14.6876 39.1575 14.8548 38.5655C15.0327 37.9336 15.33 37.4053 15.5663 36.9805C17.6477 33.2611 19.8911 29.5708 22.2407 26C19.9256 22.4823 17.7115 18.8478 15.6566 15.1841L15.5663 15.0221C15.33 14.5973 15.0327 14.069 14.8522 13.4319C14.6876 12.8425 14.8177 12.2053 15.1973 11.7274Z" fill="#FFE7DE"/>
<path d="M16.705 12.3275C16.705 12.3275 16.7236 12.3275 16.7316 12.3275C19.6068 12.4576 22.5245 12.4788 25.405 12.3886C25.7714 12.3779 26.2227 12.362 26.6369 12.5585C27.0484 12.7549 27.3192 13.1107 27.5396 13.3948L33.5555 21.2664C34.6227 22.6602 35.7245 24.1045 36.6006 25.6735C36.6404 25.7452 36.6803 25.854 36.6696 25.9974C36.6803 26.1408 36.6404 26.2496 36.6006 26.3213C35.7245 27.8903 34.6201 29.3346 33.5555 30.7284L27.5396 38.6001C27.3219 38.8868 27.0484 39.2425 26.6369 39.4363C26.2227 39.6328 25.7714 39.6169 25.405 39.6063C22.5272 39.5186 19.6068 39.5372 16.7316 39.6673C16.5431 39.6779 16.3573 39.593 16.2378 39.4417C16.121 39.2956 16.0812 39.1018 16.1316 38.9213C16.2696 38.4355 16.5219 37.9841 16.7263 37.6204C18.9351 33.6753 21.3245 29.7647 23.8334 25.9948C21.3245 22.2248 18.9325 18.3142 16.7263 14.3691C16.5219 14.0054 16.2696 13.554 16.1316 13.0682C16.0812 12.8877 16.121 12.6939 16.2378 12.5479C16.3519 12.4045 16.5245 12.3222 16.705 12.3222L16.705 12.3275ZM19.9227 13.2248C18.9431 13.2089 17.9661 13.1797 16.9918 13.1372C17.1112 13.4346 17.2705 13.724 17.4192 13.9841C19.6599 17.9903 22.0918 21.9567 24.6431 25.7771L24.7918 25.9974L24.6431 26.2178C22.0918 30.0381 19.6626 34.0071 17.4192 38.0107C17.2732 38.2735 17.1112 38.5602 16.9918 38.8576C17.9661 38.8151 18.9431 38.7859 19.9227 38.77C20.0635 38.3479 20.2785 37.9629 20.4696 37.6204C22.6812 33.67 25.0705 29.7594 27.5767 25.9948C25.0705 22.2275 22.6785 18.3169 20.4696 14.3691C20.2785 14.0266 20.0635 13.6417 19.9227 13.2195L19.9227 13.2248ZM35.8652 25.9921C35.021 24.5001 33.9537 23.1036 32.9236 21.7523L26.9077 13.8806C26.7245 13.639 26.5334 13.3921 26.2971 13.2779C26.0581 13.1638 25.7422 13.1744 25.4316 13.185C23.8891 13.2328 22.3334 13.2487 20.7829 13.2355C20.8944 13.4983 21.0378 13.7505 21.1679 13.9841C23.4112 17.993 25.8404 21.9594 28.3918 25.7771L28.5404 25.9974L28.3918 26.2178C25.8431 30.0355 23.4112 34.0045 21.1679 38.0107C21.0378 38.2443 20.8944 38.4992 20.7829 38.7594C22.3334 38.7461 23.8891 38.7594 25.4316 38.8098C25.7396 38.8178 26.0581 38.8284 26.2971 38.7169C26.5334 38.6027 26.7245 38.3558 26.9077 38.1142L32.9236 30.2425C33.9564 28.8912 35.0236 27.4948 35.8652 26.0027L35.8652 25.9948L35.8652 25.9868L35.8652 25.9921Z" fill="#FF7336"/>
</g>
<defs>
<clipPath id="clip0_445_1724">
<rect width="23.2195" height="30" fill="white" transform="translate(38 41) rotate(-180)"/>
</clipPath>
</defs>
</svg>
