<svg xmlns="http://www.w3.org/2000/svg" width="30" height="30" viewBox="0 0 30 30" fill="none">
<path fill-rule="evenodd" clip-rule="evenodd" d="M22.0009 25.6595C21.847 26.3338 21.7009 27.2099 21.247 28.4152L20.8832 29.0603L20.3576 29.5595L19.7098 29.8807L18.9797 30.0002L18.247 29.894L17.5912 29.5834L17.0549 29.0975L16.6779 28.4603C16.2532 27.4037 15.7992 26.578 15.2921 26.0524C15.0505 26.4347 14.854 26.963 14.6655 27.6214L14.3655 28.2825L13.8983 28.8134L13.2956 29.1904L12.5974 29.3842L11.8726 29.3603L11.2009 29.1347L10.6195 28.7258L10.1735 28.155C9.6213 27.1807 9.14608 26.4533 8.65493 25.9887C8.58325 25.9196 8.46909 25.8373 8.41599 25.8002C8.22219 25.8347 8.04431 26.0072 7.81068 26.1745C7.14962 26.6497 6.42219 27.3559 5.56997 28.2506L5.19564 28.5745L4.77086 28.8081L3.85493 29.0126L2.92838 28.8586L2.49298 28.6435L2.10272 28.3382L1.75758 27.9294L1.53457 27.5073L1.41245 27.3134L1.23192 26.4347C1.1921 24.4648 0.345194 17.9471 1.62484 12.0692C2.49298 8.04442 4.3567 4.33822 7.76024 2.12407C10.0434 0.63203 13.0434 -0.222837 17.0125 0.0506142C20.6204 0.300172 23.1664 1.49221 24.9877 3.25769C26.785 5.00194 27.8948 7.3515 28.4868 10.1418C28.6594 10.9621 28.7894 11.8223 28.885 12.7117L28.816 12.3692L28.9089 13.2904V12.94C29.3178 17.1453 28.9248 22.1046 28.7257 26.9789L28.5717 27.7382L28.2001 28.3993L27.6452 28.9117L26.9443 29.2409L26.1744 29.3311L25.4337 29.1878L24.7726 28.8214L24.2417 28.2559C24.1063 28.0595 23.2567 26.7851 22.2824 25.9011C22.1868 25.8134 22.0912 25.7311 21.9983 25.6595H22.0009Z" fill="#FFE7DE"/>
<path fill-rule="evenodd" clip-rule="evenodd" d="M13.1814 11.4825C12.9902 11.4825 12.8309 11.6206 12.7061 11.7985C12.523 12.0586 12.4168 12.4224 12.4168 12.8179C12.4168 13.2135 12.523 13.5772 12.7061 13.8427C12.8309 14.0232 12.9902 14.156 13.1814 14.156C13.3725 14.156 13.5318 14.0232 13.6566 13.8427C13.8398 13.5799 13.946 13.2162 13.946 12.8179C13.946 12.4197 13.8398 12.0586 13.6566 11.7985C13.5318 11.6179 13.3725 11.4825 13.1814 11.4825ZM13.6699 15.2286C13.5132 15.279 13.3513 15.3055 13.184 15.3055C12.7353 15.3055 12.3159 15.1117 11.9814 14.7586C11.5619 14.3232 11.2752 13.6197 11.2752 12.8206C11.2752 12.0215 11.5619 11.3232 11.9814 10.8825C12.3159 10.5321 12.738 10.3356 13.184 10.3356C13.4999 10.3356 13.7999 10.4312 14.0681 10.6117C13.8504 9.89758 13.5106 9.28166 13.0778 8.82502C12.6238 8.34449 12.0716 8.04449 11.4637 8.04449C10.8557 8.04449 10.3035 8.34183 9.84951 8.82502C9.0796 9.63741 8.59641 10.9595 8.59641 12.4383C8.59641 13.9171 9.0796 15.2392 9.84951 16.0516C10.3035 16.5321 10.8557 16.8321 11.4637 16.8321C12.0716 16.8321 12.6238 16.5348 13.0778 16.0516C13.3008 15.8153 13.4999 15.5365 13.6699 15.2259V15.2286ZM11.4637 6.90024C12.3769 6.90024 13.2265 7.31705 13.9115 8.03918C14.8513 9.0321 15.4752 10.633 15.4752 12.4409C15.4752 14.2489 14.8486 15.8498 13.9115 16.8427C13.2265 17.5675 12.3769 17.9817 11.4637 17.9817C10.5504 17.9817 9.70083 17.5702 9.01588 16.8427C8.07871 15.8498 7.45216 14.2516 7.45216 12.4409C7.45216 10.6303 8.07871 9.0321 9.01588 8.03918C9.70083 7.31705 10.5504 6.90024 11.4637 6.90024ZM24.7645 11.0339C24.5734 11.0339 24.4141 11.1719 24.2893 11.3498C24.1061 11.61 23.9999 11.9737 23.9999 12.3693C23.9999 12.7648 24.1061 13.1286 24.2893 13.394C24.4141 13.5746 24.5734 13.7073 24.7645 13.7073C24.9557 13.7073 25.115 13.5746 25.2398 13.394C25.423 13.1312 25.5292 12.7702 25.5292 12.3693C25.5292 11.9684 25.423 11.61 25.2398 11.3498C25.115 11.1693 24.9557 11.0339 24.7645 11.0339ZM24.9716 8.37369C24.953 8.36307 24.9345 8.3498 24.9159 8.33652C24.0955 7.72856 23.3893 7.49493 22.7867 7.5905C22.261 7.67546 21.8336 8.00997 21.4938 8.47989C20.8964 9.30024 20.5646 10.5135 20.4902 11.7454C20.4159 12.9879 20.6017 14.2542 21.0902 15.1834C21.3716 15.7171 21.7539 16.1392 22.2637 16.3224C22.8292 16.5241 23.5247 16.4339 24.3716 15.9852C24.584 15.8737 24.8203 15.5763 25.0619 15.2126C25.1601 15.064 25.2557 14.902 25.3486 14.7348C25.1628 14.8117 24.9663 14.8489 24.7619 14.8489C24.3132 14.8489 23.8938 14.6551 23.5592 14.302C23.1398 13.8666 22.853 13.1631 22.853 12.364C22.853 11.5648 23.1424 10.8666 23.5592 10.4259C23.8938 10.0755 24.3159 9.879 24.7619 9.879C25.0274 9.879 25.2822 9.94803 25.5159 10.0781C25.3645 9.47812 25.184 8.90466 24.969 8.36573L24.9716 8.37369ZM4.05924 25.471C4.94597 24.5949 5.7265 23.9365 6.43535 23.5038C7.13092 23.087 7.7734 22.8799 8.38667 22.8772C9.16986 22.8693 9.92384 23.1905 10.6831 23.9126C11.1504 24.356 11.6283 24.964 12.1327 25.7471C12.4646 24.9215 12.8495 24.2949 13.2557 23.8489C13.9486 23.0923 14.7292 22.8135 15.5176 22.925C16.1123 23.01 16.7309 23.3312 17.3256 23.8994C17.8672 24.4197 18.4008 25.1551 18.8973 26.0949C18.9982 25.6755 19.0619 25.3197 19.1336 25.0091C19.269 24.433 19.4442 23.9923 19.8053 23.6153C20.1451 23.2648 20.6628 22.9542 21.5522 22.6648C22.2159 22.4498 23.0123 22.6967 23.7849 23.2489C24.5628 23.8038 25.3353 24.6613 25.9194 25.3914C26.0814 22.0144 26.2938 18.648 26.1955 15.5737C26.0548 15.8073 25.9115 16.0197 25.7654 16.2109C25.4707 16.5932 25.1654 16.8693 24.9106 17.0047C23.6999 17.6392 22.6884 17.6949 21.8814 17.4055C21.1115 17.1268 20.5061 16.5268 20.0814 15.7171C19.5079 14.6232 19.2637 13.1392 19.3539 11.679C19.4814 9.53652 20.3522 7.48431 21.7592 6.74626C22.4017 6.40643 23.169 6.3082 24.0504 6.58696C23.7424 6.12502 23.392 5.69758 22.9938 5.30997C21.5946 3.95334 19.6088 3.10909 16.8371 2.91794C13.6327 2.69758 11.1955 3.32413 9.35039 4.52679C6.57871 6.32944 5.16367 9.40909 4.44951 12.6878C3.39287 17.5463 3.88136 22.8666 4.06455 25.471H4.05924ZM27.1592 12.887C27.1805 12.956 27.1884 13.0277 27.1805 13.102C27.5893 17.2808 27.1858 22.2055 26.9893 27.0533C26.9787 27.3029 26.8115 27.5126 26.5725 27.5817C26.3336 27.6507 26.0814 27.5578 25.9407 27.3533C25.784 27.1197 24.7884 25.6489 23.6575 24.6268C23.3123 24.3135 22.9539 24.0374 22.6035 23.8755C22.3539 23.7613 22.1176 23.687 21.9026 23.7613C21.2628 23.9684 20.8752 24.1595 20.6309 24.4144C20.4106 24.6427 20.3309 24.9215 20.246 25.2772C20.0946 25.9144 19.9752 26.748 19.5371 27.9109C19.4522 28.1286 19.2424 28.2772 19.0061 28.2825C18.7699 28.2825 18.5575 28.1418 18.4699 27.9188C17.8911 26.4772 17.2274 25.3967 16.5318 24.733C16.1389 24.3586 15.746 24.1224 15.3557 24.064C14.9097 24.0029 14.4876 24.202 14.0999 24.6268C13.6035 25.1737 13.1734 26.0445 12.8256 27.2631C12.7619 27.4834 12.5707 27.6454 12.3424 27.6719C12.1141 27.7038 11.8911 27.587 11.7769 27.3852C11.0999 26.1932 10.492 25.3224 9.89464 24.7516C9.39287 24.2737 8.91234 24.0268 8.39464 24.0294C7.84243 24.0294 7.26898 24.3002 6.61322 24.7675C5.86455 25.3011 5.03358 26.0923 4.06986 27.1091C3.85216 27.3374 3.48844 27.3454 3.26013 27.1277C3.19906 27.0693 3.15128 26.9976 3.12207 26.9259C3.03181 26.8277 2.9734 26.6923 2.97075 26.5489C2.93358 24.6162 2.07075 18.2153 3.32384 12.4516C4.10172 8.87546 5.69464 5.5436 8.71853 3.57369C10.7362 2.25953 13.3991 1.54006 16.9088 1.78166C20.0123 1.99935 22.2185 2.97635 23.7849 4.49758C25.346 6.01086 26.2752 8.07104 26.7902 10.4923C26.9522 11.2595 27.0743 12.0613 27.1619 12.8949L27.1592 12.887Z" fill="#FF7336"/>
</svg>
