<svg xmlns="http://www.w3.org/2000/svg" width="30" height="30" viewBox="0 0 30 30" fill="none">
  <g clip-path="url(#clip0_764_706)">
    <g filter="url(#filter0_d_764_706)">
      <path fill-rule="evenodd" clip-rule="evenodd" d="M21.8215 25.6939C21.6755 26.3356 21.5387 27.1649 21.1076 28.3024L20.7633 28.9124L20.2651 29.3835L19.6515 29.6881L18.9601 29.801L18.2665 29.7021L17.6469 29.4096L17.1394 28.9489L16.783 28.3456C16.3801 27.3439 15.9505 26.5621 15.4719 26.0678C15.243 26.426 15.0583 26.9264 14.879 27.5531L14.5951 28.1778L14.1519 28.6824L13.583 29.0396L12.9212 29.2203L12.2355 29.1996L11.5983 28.986L11.0494 28.5992L10.6269 28.0585C10.1051 27.1367 9.65369 26.4499 9.19083 26.0103C9.12369 25.9467 9.01583 25.8681 8.96441 25.8321C8.78083 25.8642 8.61369 26.026 8.39048 26.1856C7.76405 26.6331 7.07583 27.3014 6.2694 28.1496L5.91405 28.4549L5.51333 28.6789L4.64548 28.8706L3.76941 28.7228L3.35798 28.5196L2.98762 28.2324L2.66012 27.8453L2.44905 27.4446L2.33476 27.2642L2.16262 26.4317C2.12619 24.5653 1.32369 18.3974 2.53369 12.8367C3.36262 9.02636 5.12548 5.52172 8.34619 3.42279C10.5065 2.01457 13.3465 1.20172 17.1019 1.46172C20.5162 1.69815 22.9244 2.82707 24.648 4.4985C26.349 6.14779 27.3994 8.37315 27.9601 11.0149C28.1248 11.7896 28.2476 12.6021 28.3362 13.4456L28.2708 13.1199L28.359 13.9914L28.3576 13.6589C28.7462 17.6389 28.3733 22.3299 28.1865 26.946L28.0419 27.6646L27.6912 28.2881L27.1673 28.7756L26.503 29.0849L25.7755 29.1721L25.0733 29.0339L24.4465 28.6885L23.9451 28.1542C23.8173 27.9656 23.0123 26.7596 22.0905 25.9249C22.0005 25.8435 21.9112 25.7639 21.8215 25.6939Z" fill="#FFE7DE"/>
    </g>
    <path fill-rule="evenodd" clip-rule="evenodd" d="M26.6301 13.6324C26.6491 13.6959 26.6566 13.7634 26.6505 13.8327C27.0316 17.7391 26.6555 22.3431 26.4723 26.8741C26.463 27.1052 26.3062 27.3041 26.0837 27.3677C25.8612 27.4309 25.623 27.3445 25.4933 27.1531C25.3469 26.9366 24.4162 25.5588 23.3591 24.6017C23.0355 24.3084 22.7012 24.0545 22.3744 23.9006C22.1423 23.7909 21.9208 23.7252 21.7187 23.7909C21.1216 23.9849 20.7573 24.1638 20.5298 24.4016C20.3237 24.6174 20.2483 24.8788 20.1708 25.2095C20.0305 25.8066 19.9183 26.5863 19.5076 27.6695C19.4294 27.8759 19.2326 28.0131 19.0119 28.0156C18.7916 28.0177 18.5919 27.8841 18.5098 27.6795C17.968 26.3327 17.3483 25.3216 16.698 24.6995C16.3312 24.3488 15.9644 24.1277 15.5973 24.0759C15.1812 24.017 14.7873 24.2024 14.4226 24.6009C13.9583 25.1084 13.5573 25.9249 13.2319 27.0624C13.1726 27.2699 12.9944 27.4216 12.7801 27.447C12.5658 27.4724 12.3569 27.367 12.2505 27.1791C11.6191 26.0631 11.0505 25.2477 10.4901 24.7156C10.0208 24.2699 9.57192 24.0381 9.08727 24.0406C8.57085 24.0434 8.03477 24.2952 7.42227 24.7327C6.72227 25.2331 5.9462 25.9713 5.04513 26.9195C4.8412 27.1338 4.50192 27.1424 4.28763 26.9384C4.22977 26.8834 4.18656 26.8181 4.15906 26.7484C4.0737 26.6556 4.02049 26.5324 4.01799 26.3967C3.98227 24.5874 3.17549 18.6074 4.34834 13.2163C5.07584 9.87272 6.56442 6.76093 9.39085 4.91879C11.2783 3.68879 13.7676 3.01629 17.0483 3.24343C19.9483 3.44415 22.0108 4.36093 23.4748 5.78058C24.9337 7.19522 25.8023 9.11986 26.2833 11.3856C26.4351 12.1016 26.5483 12.8527 26.6301 13.6324ZM5.0362 25.3966C5.86513 24.577 6.59442 23.9584 7.25834 23.5581C7.90834 23.1659 8.50942 22.9724 9.0812 22.9692C9.81477 22.9652 10.5176 23.2641 11.2276 23.9384C11.6648 24.3534 12.1116 24.9202 12.5819 25.6513C12.8937 24.8809 13.2512 24.2941 13.6323 23.8777C14.2794 23.1702 15.0087 22.9106 15.7473 23.0149C16.3044 23.0938 16.8816 23.3927 17.4383 23.9252C17.9455 24.4102 18.4448 25.0988 18.9066 25.9795C19.0005 25.5856 19.0601 25.2524 19.1276 24.9641C19.2548 24.4234 19.418 24.0145 19.7555 23.6613C20.0719 23.3302 20.5569 23.042 21.3873 22.772C22.0087 22.5699 22.7523 22.7988 23.4741 23.3156C24.2012 23.8363 24.9233 24.6399 25.4691 25.3202C25.6205 22.1649 25.8191 19.0163 25.7266 16.1427C25.5958 16.3606 25.4601 16.5616 25.3248 16.7374C25.0487 17.0959 24.7644 17.3541 24.5241 17.4802C23.3916 18.0752 22.4473 18.1266 21.6923 17.8552C20.9726 17.5966 20.4058 17.0356 20.0083 16.2784C19.4723 15.2577 19.2455 13.8677 19.3273 12.5041C19.448 10.4977 20.2601 8.58058 21.5762 7.89058C22.1773 7.57522 22.8944 7.48022 23.7166 7.74058C23.4283 7.30879 23.1008 6.91022 22.7291 6.54986C21.4208 5.28129 19.5658 4.49165 16.9741 4.312C13.9783 4.10486 11.6994 4.69308 9.97585 5.81665C7.38584 7.5045 6.06192 10.3802 5.39513 13.4441C4.4062 17.9891 4.86513 22.9609 5.0362 25.3966ZM24.5851 9.41343C24.5673 9.40343 24.5498 9.392 24.533 9.3795C23.7651 8.80915 23.1066 8.59379 22.5419 8.68308C22.0494 8.76093 21.6516 9.07558 21.3337 9.51343C20.7762 10.2816 20.4662 11.4152 20.3969 12.5684C20.3273 13.7277 20.5012 14.9127 20.9569 15.7806C21.2208 16.2827 21.5773 16.6756 22.0548 16.847C22.5823 17.0366 23.2344 16.9477 24.0258 16.532C24.2248 16.4274 24.4451 16.1509 24.6712 15.8091C24.763 15.6706 24.8533 15.5209 24.9398 15.3638C24.7658 15.4349 24.5819 15.472 24.3926 15.472C23.9741 15.472 23.5808 15.2902 23.2673 14.9616C22.8758 14.5516 22.6069 13.8959 22.6069 13.1506C22.6069 12.4052 22.8758 11.7495 23.2673 11.3395C23.5808 11.0109 23.9741 10.8291 24.3926 10.8291C24.6401 10.8291 24.8787 10.8927 25.0969 11.0124C24.9558 10.4531 24.7869 9.91879 24.5851 9.41343ZM24.3926 11.9006C24.2133 11.9006 24.0655 12.0274 23.948 12.1952C23.7769 12.4395 23.6783 12.7784 23.6783 13.1506C23.6783 13.5227 23.7769 13.8616 23.948 14.1059C24.0655 14.2738 24.2133 14.4006 24.3926 14.4006C24.5719 14.4006 24.7198 14.2738 24.8376 14.1059C25.0083 13.8616 25.1069 13.5227 25.1069 13.1506C25.1069 12.7784 25.0083 12.4395 24.8376 12.1952C24.7198 12.0274 24.5719 11.9006 24.3926 11.9006ZM11.958 8.03593C12.8108 8.03593 13.6058 8.42272 14.2451 9.09986C15.1226 10.0295 15.708 11.5238 15.708 13.2145C15.708 14.9049 15.1226 16.3995 14.2451 17.3288C13.6058 18.0059 12.8108 18.3931 11.958 18.3931C11.1048 18.3931 10.3101 18.0059 9.67049 17.3288C8.79299 16.3995 8.20799 14.9049 8.20799 13.2145C8.20799 11.5238 8.79299 10.0295 9.67049 9.09986C10.3101 8.42272 11.1048 8.03593 11.958 8.03593ZM14.0198 15.8188C13.8737 15.8677 13.7212 15.8931 13.5651 15.8931C13.1462 15.8931 12.7533 15.7113 12.4394 15.3824C12.0483 14.9727 11.7794 14.317 11.7794 13.5716C11.7794 12.8263 12.0483 12.1702 12.4394 11.7606C12.7533 11.4316 13.1462 11.2502 13.5651 11.2502C13.8594 11.2502 14.1412 11.3399 14.3916 11.5077C14.1891 10.8391 13.8698 10.2631 13.4662 9.83558C13.0416 9.38593 12.5241 9.10736 11.958 9.10736C11.3916 9.10736 10.8741 9.38593 10.4494 9.83558C9.73084 10.5966 9.27942 11.8299 9.27942 13.2145C9.27942 14.5988 9.73084 15.832 10.4494 16.5931C10.8741 17.0427 11.3916 17.3216 11.958 17.3216C12.5241 17.3216 13.0416 17.0427 13.4662 16.5931C13.6748 16.3724 13.8608 16.1116 14.0198 15.8188ZM13.5651 12.3216C13.3858 12.3216 13.2376 12.4484 13.1201 12.6163C12.9494 12.8602 12.8508 13.1995 12.8508 13.5716C12.8508 13.9434 12.9494 14.2827 13.1201 14.5266C13.2376 14.6949 13.3858 14.8216 13.5651 14.8216C13.7441 14.8216 13.8923 14.6949 14.0098 14.5266C14.1805 14.2827 14.2794 13.9434 14.2794 13.5716C14.2794 13.1995 14.1805 12.8602 14.0098 12.6163C13.8923 12.4484 13.7441 12.3216 13.5651 12.3216Z" fill="#FF7336"/>
  </g>
  <defs>
    <filter id="filter0_d_764_706" x="-6.13184" y="-2.58643" width="42.6597" height="44.3872" filterUnits="userSpaceOnUse" color-interpolation-filters="sRGB">
      <feFlood flood-opacity="0" result="BackgroundImageFix"/>
      <feColorMatrix in="SourceAlpha" type="matrix" values="0 0 0 0 0 0 0 0 0 0 0 0 0 0 0 0 0 0 127 0" result="hardAlpha"/>
      <feOffset dy="4"/>
      <feGaussianBlur stdDeviation="4"/>
      <feComposite in2="hardAlpha" operator="out"/>
      <feColorMatrix type="matrix" values="0 0 0 0 0.119097 0 0 0 0 0.204167 0 0 0 0 0.119097 0 0 0 0.16 0"/>
      <feBlend mode="normal" in2="BackgroundImageFix" result="effect1_dropShadow_764_706"/>
      <feBlend mode="normal" in="SourceGraphic" in2="effect1_dropShadow_764_706" result="shape"/>
    </filter>
    <clipPath id="clip0_764_706">
      <rect width="28.5714" height="30" fill="white" transform="translate(0.714355)"/>
    </clipPath>
  </defs>
</svg>
