<svg xmlns="http://www.w3.org/2000/svg" width="44" height="45" viewBox="0 0 44 45" fill="none">
  <g clip-path="url(#clip0_764_732)" filter="url(#filter0_d_764_732)">
    <g filter="url(#filter1_d_764_732)">
      <path fill-rule="evenodd" clip-rule="evenodd" d="M28.8214 28.6939C28.6754 29.3356 28.5386 30.1649 28.1075 31.3024L27.7632 31.9124L27.265 32.3835L26.6514 32.6881L25.96 32.801L25.2664 32.7021L24.6468 32.4096L24.1393 31.9489L23.7829 31.3456C23.38 30.3439 22.9504 29.5621 22.4718 29.0678C22.2429 29.426 22.0582 29.9264 21.8789 30.5531L21.595 31.1778L21.1518 31.6824L20.5829 32.0396L19.9211 32.2203L19.2354 32.1996L18.5982 31.986L18.0493 31.5992L17.6268 31.0585C17.105 30.1367 16.6536 29.4499 16.1907 29.0103C16.1236 28.9467 16.0157 28.8681 15.9643 28.8321C15.7807 28.8642 15.6136 29.026 15.3904 29.1856C14.7639 29.6331 14.0757 30.3014 13.2693 31.1496L12.9139 31.4549L12.5132 31.6789L11.6454 31.8706L10.7693 31.7228L10.3579 31.5196L9.9875 31.2324L9.66 30.8453L9.44893 30.4446L9.33464 30.2642L9.1625 29.4317C9.12607 27.5653 8.32357 21.3974 9.53357 15.8367C10.3625 12.0264 12.1254 8.52172 15.3461 6.42279C17.5064 5.01457 20.3464 4.20172 24.1018 4.46172C27.5161 4.69815 29.9243 5.82707 31.6479 7.4985C33.3489 9.14779 34.3993 11.3731 34.96 14.0149C35.1246 14.7896 35.2475 15.6021 35.3361 16.4456L35.2707 16.1199L35.3589 16.9914L35.3575 16.6589C35.7461 20.6389 35.3732 25.3299 35.1864 29.946L35.0418 30.6646L34.6911 31.2881L34.1671 31.7756L33.5029 32.0849L32.7754 32.1721L32.0732 32.0339L31.4464 31.6885L30.945 31.1542C30.8171 30.9656 30.0121 29.7596 29.0904 28.9249C29.0004 28.8435 28.9111 28.7639 28.8214 28.6939Z" fill="#264A26"/>
    </g>
    <path fill-rule="evenodd" clip-rule="evenodd" d="M33.63 16.6321C33.6489 16.6957 33.6564 16.7632 33.6504 16.8325C34.0314 20.7389 33.6554 25.3428 33.4722 29.8739C33.4629 30.105 33.3061 30.3039 33.0836 30.3675C32.8611 30.4307 32.6229 30.3443 32.4932 30.1528C32.3468 29.9364 31.4161 28.5585 30.3589 27.6014C30.0354 27.3082 29.7011 27.0543 29.3743 26.9003C29.1422 26.7907 28.9207 26.725 28.7186 26.7907C28.1214 26.9846 27.7572 27.1635 27.5297 27.4014C27.3236 27.6171 27.2482 27.8785 27.1707 28.2093C27.0304 28.8064 26.9182 29.586 26.5075 30.6693C26.4293 30.8757 26.2325 31.0128 26.0118 31.0153C25.7914 31.0175 25.5918 30.8839 25.5097 30.6793C24.9679 29.3325 24.3482 28.3214 23.6979 27.6993C23.3311 27.3485 22.9643 27.1275 22.5972 27.0757C22.1811 27.0168 21.7872 27.2021 21.4225 27.6007C20.9582 28.1082 20.5572 28.9246 20.2318 30.0621C20.1725 30.2696 19.9943 30.4214 19.78 30.4468C19.5657 30.4721 19.3568 30.3668 19.2504 30.1789C18.6189 29.0628 18.0504 28.2475 17.49 27.7153C17.0207 27.2696 16.5718 27.0378 16.0872 27.0403C15.5707 27.0432 15.0347 27.295 14.4222 27.7325C13.7222 28.2328 12.9461 28.971 12.045 29.9193C11.8411 30.1335 11.5018 30.1421 11.2875 29.9382C11.2297 29.8832 11.1864 29.8178 11.1589 29.7482C11.0736 29.6553 11.0204 29.5321 11.0179 29.3964C10.9822 27.5871 10.1754 21.6071 11.3482 16.216C12.0757 12.8725 13.5643 9.76069 16.3907 7.91855C18.2782 6.68855 20.7675 6.01605 24.0482 6.24319C26.9482 6.4439 29.0107 7.36069 30.4747 8.78033C31.9336 10.195 32.8022 12.1196 33.2832 14.3853C33.435 15.1014 33.5482 15.8525 33.63 16.6321ZM12.0361 28.3964C12.865 27.5768 13.5943 26.9582 14.2582 26.5578C14.9082 26.1657 15.5093 25.9721 16.0811 25.9689C16.8147 25.965 17.5175 26.2639 18.2275 26.9382C18.6647 27.3532 19.1114 27.92 19.5818 28.651C19.8936 27.8807 20.2511 27.2939 20.6322 26.8775C21.2793 26.17 22.0086 25.9103 22.7472 26.0146C23.3043 26.0935 23.8814 26.3925 24.4382 26.925C24.9454 27.41 25.4447 28.0985 25.9064 28.9793C26.0004 28.5853 26.06 28.2521 26.1275 27.9639C26.2547 27.4232 26.4179 27.0143 26.7554 26.661C27.0718 26.33 27.5568 26.0418 28.3872 25.7718C29.0086 25.5696 29.7522 25.7985 30.4739 26.3153C31.2011 26.836 31.9232 27.6396 32.4689 28.32C32.6204 25.1646 32.8189 22.016 32.7264 19.1425C32.5957 19.3603 32.46 19.5614 32.3247 19.7371C32.0486 20.0957 31.7643 20.3539 31.5239 20.48C30.3914 21.075 29.4472 21.1264 28.6922 20.855C27.9725 20.5964 27.4057 20.0353 27.0082 19.2782C26.4722 18.2575 26.2454 16.8675 26.3272 15.5039C26.4479 13.4975 27.26 11.5803 28.5761 10.8903C29.1772 10.575 29.8943 10.48 30.7164 10.7403C30.4282 10.3085 30.1007 9.90998 29.7289 9.54962C28.4207 8.28105 26.5657 7.4914 23.9739 7.31176C20.9782 7.10462 18.6993 7.69283 16.9757 8.8164C14.3857 10.5043 13.0618 13.38 12.395 16.4439C11.4061 20.9889 11.865 25.9607 12.0361 28.3964ZM31.585 12.4132C31.5672 12.4032 31.5497 12.3918 31.5329 12.3793C30.765 11.8089 30.1064 11.5935 29.5418 11.6828C29.0493 11.7607 28.6514 12.0753 28.3336 12.5132C27.7761 13.2814 27.4661 14.415 27.3968 15.5682C27.3272 16.7275 27.5011 17.9125 27.9568 18.7803C28.2207 19.2825 28.5772 19.6753 29.0547 19.8468C29.5822 20.0364 30.2343 19.9475 31.0257 19.5318C31.2247 19.4271 31.445 19.1507 31.6711 18.8089C31.7629 18.6703 31.8532 18.5207 31.9397 18.3635C31.7657 18.4346 31.5818 18.4718 31.3925 18.4718C30.9739 18.4718 30.5807 18.29 30.2672 17.9614C29.8757 17.5514 29.6068 16.8957 29.6068 16.1503C29.6068 15.405 29.8757 14.7493 30.2672 14.3393C30.5807 14.0107 30.9739 13.8289 31.3925 13.8289C31.64 13.8289 31.8786 13.8925 32.0968 14.0121C31.9557 13.4528 31.7868 12.9185 31.585 12.4132ZM31.3925 14.9003C31.2132 14.9003 31.0654 15.0271 30.9479 15.195C30.7768 15.4393 30.6782 15.7782 30.6782 16.1503C30.6782 16.5225 30.7768 16.8614 30.9479 17.1057C31.0654 17.2735 31.2132 17.4003 31.3925 17.4003C31.5718 17.4003 31.7197 17.2735 31.8375 17.1057C32.0082 16.8614 32.1068 16.5225 32.1068 16.1503C32.1068 15.7782 32.0082 15.4393 31.8375 15.195C31.7197 15.0271 31.5718 14.9003 31.3925 14.9003ZM18.9579 11.0357C19.8107 11.0357 20.6057 11.4225 21.245 12.0996C22.1225 13.0293 22.7079 14.5235 22.7079 16.2143C22.7079 17.9046 22.1225 19.3993 21.245 20.3285C20.6057 21.0057 19.8107 21.3928 18.9579 21.3928C18.1047 21.3928 17.31 21.0057 16.6704 20.3285C15.7929 19.3993 15.2079 17.9046 15.2079 16.2143C15.2079 14.5235 15.7929 13.0293 16.6704 12.0996C17.31 11.4225 18.1047 11.0357 18.9579 11.0357ZM21.0197 18.8185C20.8736 18.8675 20.7211 18.8928 20.565 18.8928C20.1461 18.8928 19.7532 18.711 19.4393 18.3821C19.0482 17.9725 18.7793 17.3168 18.7793 16.5714C18.7793 15.826 19.0482 15.17 19.4393 14.7603C19.7532 14.4314 20.1461 14.25 20.565 14.25C20.8593 14.25 21.1411 14.3396 21.3914 14.5075C21.1889 13.8389 20.8697 13.2628 20.4661 12.8353C20.0414 12.3857 19.5239 12.1071 18.9579 12.1071C18.3914 12.1071 17.8739 12.3857 17.4493 12.8353C16.7307 13.5964 16.2793 14.8296 16.2793 16.2143C16.2793 17.5985 16.7307 18.8318 17.4493 19.5928C17.8739 20.0425 18.3914 20.3214 18.9579 20.3214C19.5239 20.3214 20.0414 20.0425 20.4661 19.5928C20.6747 19.3721 20.8607 19.1114 21.0197 18.8185ZM20.565 15.3214C20.3857 15.3214 20.2375 15.4482 20.12 15.616C19.9493 15.86 19.8507 16.1993 19.8507 16.5714C19.8507 16.9432 19.9493 17.2825 20.12 17.5264C20.2375 17.6946 20.3857 17.8214 20.565 17.8214C20.7439 17.8214 20.8922 17.6946 21.0097 17.5264C21.1804 17.2825 21.2793 16.9432 21.2793 16.5714C21.2793 16.1993 21.1804 15.86 21.0097 15.616C20.8922 15.4482 20.7439 15.3214 20.565 15.3214Z" fill="#FFE7DE"/>
  </g>
  <defs>
    <filter id="filter0_d_764_732" x="-0.285767" y="-1" width="44.5714" height="46" filterUnits="userSpaceOnUse" color-interpolation-filters="sRGB">
      <feFlood flood-opacity="0" result="BackgroundImageFix"/>
      <feColorMatrix in="SourceAlpha" type="matrix" values="0 0 0 0 0 0 0 0 0 0 0 0 0 0 0 0 0 0 127 0" result="hardAlpha"/>
      <feOffset dy="4"/>
      <feGaussianBlur stdDeviation="4"/>
      <feComposite in2="hardAlpha" operator="out"/>
      <feColorMatrix type="matrix" values="0 0 0 0 0.119097 0 0 0 0 0.204167 0 0 0 0 0.119097 0 0 0 0.16 0"/>
      <feBlend mode="normal" in2="BackgroundImageFix" result="effect1_dropShadow_764_732"/>
      <feBlend mode="normal" in="SourceGraphic" in2="effect1_dropShadow_764_732" result="shape"/>
    </filter>
    <filter id="filter1_d_764_732" x="0.868042" y="0.413574" width="42.6597" height="44.3875" filterUnits="userSpaceOnUse" color-interpolation-filters="sRGB">
      <feFlood flood-opacity="0" result="BackgroundImageFix"/>
      <feColorMatrix in="SourceAlpha" type="matrix" values="0 0 0 0 0 0 0 0 0 0 0 0 0 0 0 0 0 0 127 0" result="hardAlpha"/>
      <feOffset dy="4"/>
      <feGaussianBlur stdDeviation="4"/>
      <feComposite in2="hardAlpha" operator="out"/>
      <feColorMatrix type="matrix" values="0 0 0 0 0.119097 0 0 0 0 0.204167 0 0 0 0 0.119097 0 0 0 0.16 0"/>
      <feBlend mode="normal" in2="BackgroundImageFix" result="effect1_dropShadow_764_732"/>
      <feBlend mode="normal" in="SourceGraphic" in2="effect1_dropShadow_764_732" result="shape"/>
    </filter>
    <clipPath id="clip0_764_732">
      <rect width="28.5714" height="30" fill="white" transform="translate(7.71423 3)"/>
    </clipPath>
  </defs>
</svg>
