<svg xmlns="http://www.w3.org/2000/svg" width="33" height="33" viewBox="0 0 33 33" fill="none">
<path d="M32.1529 14.9793L26.4609 20.1333L27.9306 29.8607C28.0609 30.7131 27.7041 31.557 27.0074 32.0611C26.6138 32.3471 26.1465 32.5 25.6595 32.5C25.3027 32.5 24.943 32.4122 24.6202 32.2508L16.4559 28.1078L8.28885 32.2508C7.96885 32.4122 7.6092 32.5 7.24956 32.5C6.76531 32.5 6.29805 32.3471 5.90726 32.0639C5.20779 31.557 4.85097 30.7131 4.98124 29.8579L6.45097 20.1333L0.758936 14.9793C0.101945 14.3846 -0.152922 13.4869 0.0934497 12.6373C0.339821 11.7878 1.03646 11.1648 1.9115 11.0147L10.7469 9.49398C11.9108 6.9085 13.137 4.31735 14.3915 1.77717C14.7823 0.989912 15.5724 0.5 16.4559 0.5C17.3395 0.5 18.1267 0.989912 18.5147 1.77717C19.7664 4.29752 20.9926 6.8915 22.165 9.49398L31.0004 11.0147C31.8754 11.1648 32.572 11.7878 32.8184 12.6373C33.0648 13.4869 32.8099 14.3846 32.1529 14.9793Z" fill="#FFE7DE"/>
<path d="M25.6595 31.084C25.5236 31.084 25.3876 31.0529 25.2602 30.9877L16.4531 26.5191L7.64605 30.9877C7.35153 31.1378 7.00038 31.1095 6.73136 30.9169C6.46233 30.7244 6.3264 30.3987 6.37737 30.073L7.86127 20.2578C7.89525 20.0398 7.93206 19.7934 7.86693 19.6206C7.80746 19.4592 7.63755 19.3063 7.47613 19.1591L1.70764 13.9314C1.4556 13.7021 1.35932 13.3594 1.45277 13.0337C1.54622 12.7081 1.81525 12.4674 2.14941 12.4107L11.7296 10.7626C12.9784 7.96472 14.3009 5.15552 15.6602 2.40861C15.8103 2.1056 16.1133 1.9187 16.4531 1.9187C16.7929 1.9187 17.096 2.1056 17.246 2.40861C18.5997 5.13852 19.9222 7.94773 21.1795 10.7626L30.7597 12.4107C31.0938 12.4674 31.3629 12.7081 31.4563 13.0337C31.5498 13.3594 31.4535 13.7049 31.2014 13.9314L25.4301 19.1591C25.2687 19.3063 25.0988 19.4592 25.0393 19.6206C24.9742 19.7934 25.0138 20.0398 25.045 20.2578L26.5289 30.073C26.577 30.4015 26.4411 30.7244 26.1749 30.9198C26.022 31.0302 25.8407 31.0868 25.6595 31.0868V31.084ZM16.456 25.5675L24.9572 29.8805C22.6945 26.4058 19.7777 22.0221 16.7052 18.587C16.6372 18.6805 16.5692 18.7711 16.5041 18.856C15.0429 20.7874 13.4542 22.8518 11.9165 24.8483C10.6535 26.4879 9.35649 28.1729 8.1218 29.7927L16.4531 25.5647L16.456 25.5675ZM3.08392 14.0306L8.051 18.5276C8.26622 18.7229 8.53525 18.9665 8.66835 19.3233C8.80994 19.7028 8.75047 20.0964 8.70516 20.3853L7.33737 29.4274C8.60321 27.7622 9.94268 26.0235 11.2453 24.3329C12.7802 22.3392 14.3689 20.2748 15.8301 18.3463C15.8839 18.2727 15.9406 18.1991 15.9944 18.1254C13.7799 17.4175 11.4464 16.6812 9.11295 15.9421C7.07684 15.2992 5.04357 14.6564 3.08675 14.0306H3.08392ZM17.4075 18.0999C20.4375 21.5067 23.2977 25.7856 25.5434 29.2263L24.2068 20.3853C24.1643 20.0964 24.102 19.7028 24.2436 19.3233C24.3767 18.9665 24.6457 18.7229 24.8581 18.5276L29.8223 14.0334C25.8662 15.4238 21.5306 16.8454 17.4075 18.0999ZM3.02728 13.1215C5.07755 13.7757 7.2241 14.4553 9.36782 15.1322C11.7522 15.8854 14.1367 16.6387 16.3937 17.3608C16.4814 17.0182 16.4701 16.633 16.4616 16.2592C16.4022 14.0419 16.3229 11.6348 16.2464 9.30702C16.1841 7.37852 16.119 5.39622 16.0652 3.51304C14.8022 6.08436 13.576 8.70383 12.4149 11.3148L12.3214 11.5215L3.02728 13.1215ZM16.9175 3.65746C16.9714 5.48967 17.0337 7.40967 17.0931 9.2787C17.1696 11.6065 17.246 14.0164 17.3083 16.2337C17.3168 16.5537 17.3253 16.8992 17.2772 17.2476C21.4683 15.9704 25.8691 14.5233 29.8648 13.113L20.5905 11.5187L20.497 11.312C19.3501 8.73782 18.1494 6.16649 16.9175 3.65746Z" fill="#FF7336"/>
</svg>
