<svg xmlns="http://www.w3.org/2000/svg" width="52" height="50" viewBox="0 0 52 50" fill="none">
<path d="M39.5885 0H12.4115C5.93561 0 0.685852 5.24976 0.685852 11.7257V38.2743C0.685852 44.7502 5.93561 50 12.4115 50H39.5885C46.0644 50 51.3142 44.7502 51.3142 38.2743V11.7257C51.3142 5.24976 46.0644 0 39.5885 0Z" fill="#FFE7DE"/>
<path d="M39.5885 47.7876H12.4115C7.16374 47.7876 2.89825 43.5221 2.89825 38.2743V11.7257C2.89825 6.47789 7.16817 2.2124 12.4115 2.2124H39.5885C44.8363 2.2124 49.1018 6.47789 49.1018 11.7257V38.2743C49.1018 43.5221 44.8363 47.7876 39.5885 47.7876ZM12.4115 3.53984C7.89825 3.53984 4.22569 7.2124 4.22569 11.7257V38.2743C4.22569 42.7876 7.89825 46.4602 12.4115 46.4602H39.5885C44.1018 46.4602 47.7744 42.7876 47.7744 38.2743V11.7257C47.7744 7.2124 44.1018 3.53984 39.5885 3.53984H12.4115Z" fill="#EE733E"/>
<path d="M39.146 29.5265C38.1814 29.5265 37.2213 29.5132 36.2788 29.5044C34.8407 29.4867 33.3496 29.469 31.8982 29.4911C31.3982 29.5 30.8319 29.5088 30.2744 29.3141C28.7434 28.7876 27.969 27.1239 27.9735 24.3761L27.9912 13.0531C27.9912 11.8982 28.0664 10.6991 28.9027 9.83626C29.2655 9.46457 29.739 9.19909 30.3186 9.04422C30.9558 8.87608 31.6328 8.85838 32.2168 8.85838L37.6151 8.8451C38.739 8.84068 42.146 8.83626 43.1593 11.2522C43.4646 11.9823 43.4602 12.7478 43.4558 13.4203L43.3717 24.7035C43.3629 25.7212 43.354 26.9867 42.7876 28.0796C42.5133 28.615 42.0797 29.0796 41.5708 29.3982L41.4159 29.4911H41.2345C40.5398 29.5132 39.8452 29.5177 39.146 29.5177V29.5265ZM33.4248 28.1548C34.3894 28.1548 35.3496 28.1681 36.2921 28.177C37.8407 28.1947 39.4381 28.2168 41.0044 28.1814C41.2522 27.9955 41.4646 27.7433 41.6062 27.4778C42.0266 26.6681 42.031 25.6239 42.0398 24.7035L42.1239 13.4203C42.1239 12.8451 42.1328 12.2522 41.9336 11.7743C41.4867 10.7035 40.0885 10.1814 37.6593 10.1814H37.6195L32.2213 10.1947C31.7213 10.1947 31.1416 10.2079 30.6593 10.3363C30.3142 10.4292 30.0487 10.5708 29.854 10.7699C29.3628 11.2743 29.3186 12.146 29.3186 13.0619L29.3009 24.3849C29.3009 26.5044 29.7699 27.7433 30.708 28.0663C31.0443 28.1814 31.469 28.177 31.8761 28.1681C32.3894 28.1593 32.9071 28.1548 33.4248 28.1548Z" fill="#EE733E"/>
<path d="M19.7168 41.1505C18.7522 41.1505 17.7876 41.1328 16.8451 41.1151C15.4115 41.0886 13.9248 41.0576 12.4779 41.0974C11.9779 41.1107 11.3496 41.1284 10.7434 40.7921C9.23893 39.9647 8.53982 37.5841 8.54867 33.3142L8.56637 15.1859C8.56637 13.4602 8.63274 11.6726 9.38937 10.4293C9.73893 9.85403 10.2168 9.43368 10.8053 9.18589C11.4779 8.89828 12.1814 8.87173 12.792 8.87173L18.1903 8.84961C19.3274 8.85403 22.792 8.83191 23.7655 12.5443C24.0398 13.5974 24.0354 14.7523 24.031 15.77L23.9469 33.8319C23.938 35.4735 23.9292 37.3319 23.4071 38.9558C23.3496 39.1372 23.2832 39.3098 23.208 39.4779C22.7788 40.4691 21.7965 41.1239 20.7035 41.1372C20.3761 41.1416 20.0487 41.1461 19.7212 41.1461L19.7168 41.1505ZM14 39.7478C14.9646 39.7478 15.9292 39.7655 16.8717 39.7832C18.1239 39.8054 19.4159 39.8319 20.6814 39.8142C21.2522 39.8054 21.7655 39.4691 21.9867 38.9514C22.0442 38.8186 22.0929 38.6859 22.1372 38.5487C22.5973 37.1195 22.6062 35.3717 22.615 33.8275L22.6991 15.7655C22.6991 14.8275 22.708 13.7655 22.4779 12.8806C21.9911 11.0133 20.6814 10.177 18.2345 10.177H18.1903L12.792 10.1992C12.3142 10.1992 11.7655 10.2169 11.3186 10.4071C10.9823 10.5487 10.7257 10.7788 10.5177 11.1195C9.94247 12.0664 9.88937 13.6505 9.88937 15.1859L9.87168 33.3142C9.86725 38.0797 10.8142 39.3142 11.3805 39.6284C11.6726 39.7877 12.0442 39.7788 12.438 39.77C12.9557 39.7567 13.4779 39.7523 14 39.7523V39.7478Z" fill="#EE733E"/>
</svg>
