<svg xmlns="http://www.w3.org/2000/svg" width="36" height="46" viewBox="0 0 36 46" fill="none">
<path d="M35.7072 15.5833C35.6355 15.7506 35.5479 15.9059 35.4484 16.0532C35.2094 18.6736 33.501 20.6687 31.7647 21.5528C31.4422 21.7161 31.1116 21.8475 30.7771 21.947C30.7492 24.3922 30.7373 27.0046 30.7293 29.5493V29.6647C30.7134 33.1652 30.6975 36.7811 30.6377 39.9869C30.6218 40.7873 30.5939 42.2807 29.5068 43.5032C28.7103 44.3993 27.5674 44.9369 26.1975 45.0603C23.4258 45.3032 20.7099 45.4267 18.1333 45.4267C14.8001 45.4267 11.6183 45.2196 8.67136 44.8134C6.80366 44.5546 5.83596 43.6307 5.35012 42.9019C4.68906 41.9063 4.66516 40.8431 4.65322 40.2696L4.21118 20.9196C3.74923 20.7404 3.31516 20.5094 2.91693 20.2307C1.5072 19.2431 0.67888 17.7975 0.563393 16.1687C0.52357 16.1169 0.491712 16.0612 0.459853 16.0015C-0.0498812 15.1174 -0.0697927 14.0462 0.400119 13.1382C1.55897 10.9121 3.02446 8.84128 4.45012 6.83819L4.40233 5.15367C4.3864 4.71562 4.36251 3.89128 4.77667 3.03111C5.40189 1.74881 6.6364 0.996151 8.44437 0.789071C10.8059 0.522257 13.1554 0.502345 15.4373 0.482434L20.5864 0.434646C20.9886 0.430664 21.3988 0.430664 21.809 0.430664C23.3023 0.430664 25.0665 0.474469 26.8227 0.812965C27.5315 0.952345 28.3678 1.17137 29.1444 1.76075C29.5068 2.03155 29.8253 2.36208 30.0842 2.73243C30.8607 3.83155 31.0399 5.07801 31.1116 6.26473C31.1196 6.40013 31.1355 6.60323 31.1236 6.84615C31.705 7.65058 32.3103 8.50677 32.8997 9.34704L32.9196 9.37491C33.8395 10.6851 34.7953 12.0431 35.2851 12.6404C35.97 13.4687 36.1293 14.5957 35.7032 15.5833H35.7072Z" fill="#FFE7DE"/>
<path d="M18.1333 43.4395C14.8837 43.4395 11.8134 43.2404 8.94214 42.8422C8.04612 42.7187 7.37709 42.3563 7.00674 41.8028C6.66426 41.2851 6.64833 40.6718 6.64037 40.2258C6.56471 36.9802 6.54878 33.1731 6.52886 29.4935C6.51293 26.0408 6.49701 22.4806 6.43329 19.3824C5.59302 19.3506 4.74878 19.0837 4.05586 18.6019C2.96869 17.8413 2.42709 16.6784 2.55055 15.3882C2.39922 15.3006 2.27178 15.1731 2.18417 15.0138C2.01294 14.7152 2.00497 14.3607 2.16426 14.0581C3.27931 11.9156 4.88816 9.58596 6.45718 7.37578L6.38948 5.08994C6.38152 4.76339 6.36559 4.31339 6.56869 3.89525C7.02665 2.95145 8.21736 2.81605 8.66736 2.76428C10.9333 2.50543 13.2311 2.48552 15.4532 2.46959L20.6023 2.42578C22.5178 2.40985 24.501 2.38994 26.4444 2.76826C26.9581 2.86782 27.4917 3.0072 27.9457 3.34968C28.1408 3.49702 28.316 3.67623 28.4594 3.8833C28.9731 4.61207 29.0727 5.55985 29.1244 6.38817C29.1404 6.61915 29.1643 6.99348 29.0289 7.35189C29.7656 8.34746 30.566 9.4864 31.3386 10.5855C32.3023 11.9554 33.2103 13.2497 33.7519 13.9068C33.959 14.1576 34.0067 14.5001 33.8753 14.7948C33.7957 14.982 33.6563 15.1253 33.4811 15.2169C33.5488 17.0767 32.5851 18.7094 30.8767 19.5656C30.2036 19.9041 29.4988 20.0873 28.8059 20.1231C28.7581 23.1019 28.7421 26.4351 28.7302 29.6607C28.7143 33.1612 28.6983 36.7851 28.6386 39.955C28.6266 40.5762 28.6107 41.5121 28.0094 42.1891C27.4399 42.8302 26.6116 43.0293 26.0143 43.0811C23.2864 43.32 20.6501 43.4435 18.1253 43.4435L18.1333 43.4395ZM7.624 19.2669C7.68771 22.397 7.70763 26.001 7.72355 29.4895C7.73948 33.1652 7.7594 36.9643 7.83506 40.2019C7.84302 40.6041 7.86294 40.9306 8.00232 41.1457C8.22134 41.4762 8.72311 41.6116 9.10541 41.6634C14.1151 42.3563 19.77 42.436 25.9147 41.8904C26.2253 41.8625 26.7948 41.763 27.1213 41.3966C27.4041 41.078 27.4399 40.5205 27.4479 39.9311C27.5076 36.7691 27.5236 33.1532 27.5395 29.6568C27.5514 26.3992 27.5674 23.0382 27.6191 20.0355C27.0337 19.916 26.4802 19.6771 25.9983 19.3346C25.851 19.482 25.6917 19.6174 25.5165 19.7408L25.3691 35.0249C25.3612 35.6143 25.1262 36.1638 24.724 36.5342C24.3775 36.8528 23.9833 36.9882 23.4059 36.9762C19.9333 36.9125 16.409 36.809 12.9364 36.6696C12.3629 36.6457 11.1722 36.5979 10.6107 35.7059C10.3997 35.3714 10.3001 34.9532 10.3041 34.4315C10.324 31.3094 10.3957 28.0678 10.4674 24.9337C10.5032 23.2691 10.539 21.6444 10.5669 20.0953C9.75453 19.9399 9.03373 19.5656 8.42046 18.9842C8.16957 19.1076 7.90276 19.2032 7.62798 19.2709L7.624 19.2669ZM11.7576 20.1709C11.7297 21.7041 11.6939 23.3129 11.6581 24.9576C11.5904 28.0877 11.5187 31.3253 11.4948 34.4355C11.4948 34.7222 11.5346 34.9293 11.6222 35.0647C11.8213 35.3833 12.4545 35.447 12.9842 35.4669C16.4488 35.6063 19.9612 35.7059 23.4258 35.7736C23.7643 35.7855 23.8439 35.7099 23.9076 35.6501C24.0709 35.4988 24.1665 35.2638 24.1705 35.005L24.3138 20.2824C22.9598 20.6368 21.351 20.2983 20.0169 19.3386C19.3957 20.0116 18.651 20.4417 17.9222 20.6647C16.3413 21.1426 14.7125 20.7125 13.689 19.5975C13.3107 19.8523 12.8886 20.0315 12.4306 20.1032C12.1997 20.1391 11.9767 20.1629 11.7576 20.1709ZM14.5572 18.7731C15.274 19.5616 16.4408 19.8603 17.5797 19.5178C18.7744 19.1554 20.0408 18.0045 20.2399 15.8302C18.6948 15.8541 17.1457 15.8621 15.6005 15.8621C15.5806 16.8696 15.2023 17.9528 14.5572 18.7731ZM20.7178 18.3669C21.9921 19.2868 23.5452 19.4939 24.6404 18.8727C25.6081 18.3271 26.0621 17.1961 25.9346 15.6789C24.4413 15.7346 22.9439 15.7784 21.4466 15.8063C21.3709 16.8218 21.1081 17.674 20.7218 18.3629L20.7178 18.3669ZM9.4001 18.2514C10.1528 18.8806 11.0886 19.1037 12.2474 18.9205C13.5696 18.7134 14.366 17.0926 14.4019 15.8541C13.0598 15.8461 11.7138 15.8262 10.3758 15.7944C10.312 16.7899 9.97754 17.6302 9.39612 18.2514H9.4001ZM26.6833 18.347C27.659 19.0479 29.1005 19.1196 30.343 18.4944C31.6014 17.8612 32.3063 16.7143 32.2904 15.3603C30.57 15.4678 28.8497 15.5554 27.1213 15.6311C27.201 16.6705 27.0457 17.5944 26.6793 18.347H26.6833ZM3.73727 15.5594C3.65364 16.6784 4.32267 17.3276 4.74081 17.6222C5.68063 18.2793 6.99878 18.3868 7.94258 17.8811C8.68727 17.4829 9.10939 16.7581 9.18108 15.7665C7.36116 15.7187 5.54922 15.647 3.73727 15.5594ZM15.5727 14.6674C17.1138 14.6674 18.655 14.6594 20.1961 14.6395C20.1404 13.166 19.9691 11.6886 19.8178 10.3745C19.7501 9.801 19.6864 9.24746 19.6346 8.72976C18.5713 8.69791 17.516 8.65012 16.4727 8.60233L16.2576 8.59038C15.9908 10.4023 15.5886 13.1222 15.5727 14.6674ZM9.44789 14.5758C11.0886 14.6196 12.7333 14.6475 14.378 14.6594C14.3939 13.0665 14.7842 10.3784 15.059 8.53463L11.1921 8.35145C11.1165 8.60233 11.0368 8.86915 10.9492 9.14791C10.4156 10.8961 9.75851 13.0545 9.45187 14.5758H9.44789ZM20.8373 8.75366C20.8851 9.22357 20.9408 9.71738 21.0045 10.2351C21.1598 11.5771 21.3351 13.0864 21.3908 14.6156C22.8921 14.5837 24.3935 14.5439 25.8948 14.4842C25.847 13.1143 25.4767 11.5851 25.1421 10.2271C25.0067 9.66959 24.8753 9.13198 24.7758 8.63817C23.4616 8.74171 22.1474 8.76561 20.8373 8.74968V8.75366ZM3.36294 14.3448C4.98373 14.4245 6.60851 14.4922 8.23727 14.5439C8.53993 12.951 9.24081 10.6532 9.80232 8.80145C9.85409 8.62623 9.90586 8.45897 9.95763 8.29569L7.3532 8.17224C5.89966 10.2231 4.41824 12.3696 3.35895 14.3448H3.36294ZM25.9744 8.52667C26.066 8.96472 26.1855 9.44658 26.305 9.94437C26.6514 11.3581 27.0377 12.947 27.0895 14.4364C28.8736 14.3607 30.6536 14.2691 32.4297 14.1537C31.8722 13.4209 31.1355 12.3696 30.3629 11.2665C29.6182 10.2072 28.8536 9.11605 28.1448 8.15631C27.9736 8.21207 27.8182 8.24392 27.7028 8.26384C27.1293 8.36738 26.5519 8.45499 25.9744 8.52269V8.52667ZM20.7297 7.55499C22.02 7.57092 23.3143 7.55499 24.5966 7.45543C24.5328 6.9218 24.4612 6.27667 24.3855 5.63154C24.3059 4.93463 24.2262 4.23773 24.1625 3.68419C22.9917 3.60454 21.809 3.61251 20.6501 3.62047C20.6859 4.23773 20.6859 4.93065 20.6899 5.61162C20.6899 6.28065 20.6899 6.96959 20.7297 7.55499ZM16.3691 7.39968L16.5284 7.40764C17.524 7.45543 18.5236 7.49923 19.5311 7.53109C19.4992 6.93375 19.4992 6.26472 19.4952 5.61561C19.4952 4.93065 19.4952 4.22977 19.4554 3.63242L16.4129 3.6603C16.4567 4.79127 16.4129 6.31251 16.3691 7.39968ZM25.3811 3.80764C25.4408 4.31339 25.5085 4.90676 25.5762 5.49614C25.6519 6.14923 25.7236 6.80631 25.7873 7.34392C26.3567 7.28021 26.9222 7.19658 27.4877 7.09304C27.5753 7.07711 27.8421 7.02932 27.8979 6.96162C27.9616 6.88596 27.9417 6.57932 27.9377 6.46384C27.8939 5.79879 27.8222 5.04614 27.4877 4.57224C27.412 4.46472 27.3284 4.38109 27.2328 4.30543C26.9899 4.12224 26.6514 4.02667 26.2253 3.94304C25.9466 3.89127 25.6678 3.84348 25.389 3.80764H25.3811ZM11.3634 7.16472L15.1744 7.34392C15.2222 6.29658 15.262 4.75941 15.2182 3.66826C13.9041 3.68021 12.566 3.69614 11.2359 3.76384C11.3355 4.78729 11.3833 6.04968 11.3634 7.16472ZM7.63993 6.9895L10.1727 7.10897C10.1886 6.02977 10.1408 4.81516 10.0452 3.8395C9.63108 3.87136 9.21692 3.91118 8.80276 3.95499C8.37665 4.00277 7.79524 4.10631 7.64391 4.42092C7.56824 4.57623 7.57621 4.83109 7.58417 5.05808L7.63993 6.9895ZM17.8545 41.2891C16.8908 41.2891 16.1063 40.5045 16.1063 39.5408C16.1063 38.5771 16.8908 37.7926 17.8545 37.7926C18.8182 37.7926 19.6028 38.5771 19.6028 39.5408C19.6028 40.5045 18.8182 41.2891 17.8545 41.2891ZM17.8545 38.9833C17.5479 38.9833 17.301 39.2342 17.301 39.5368C17.301 39.8395 17.5479 40.0904 17.8545 40.0904C18.1612 40.0904 18.4081 39.8435 18.4081 39.5368C18.4081 39.2302 18.1572 38.9833 17.8545 38.9833Z" fill="#FF7336"/>
</svg>
