<svg xmlns="http://www.w3.org/2000/svg" width="50" height="51" viewBox="0 0 50 51" fill="none">
<path d="M48.4934 19.2448C46.8076 13.4528 42.6837 8.1873 37.1792 4.80235L37.0509 4.7227C32.9713 2.2404 28.4447 0.930664 23.9492 0.930664C19.4536 0.930664 15.1881 2.32447 11.7102 4.85544C7.84296 7.67403 4.79871 11.3333 2.90491 15.4395C-1.36943 24.6962 0.356234 36.205 7.0996 43.4218C11.4934 48.1254 18.2146 50.9307 25.0819 50.9307C25.427 50.9307 25.7766 50.9262 26.1173 50.9085C30.1438 50.7492 34.0155 49.6342 37.312 47.6917C46.7766 42.0988 51.5863 29.8687 48.4934 19.2448Z" fill="#FFE7DE"/>
<path d="M45.7677 20.0235C44.2235 14.7137 40.4845 10.1562 35.7412 7.24027C35.7279 7.20487 35.7146 7.16947 35.7013 7.1385L35.6217 7.16947C32.135 5.05 28.1173 3.80664 24.0288 3.80664H24.0199C20.1482 3.80664 16.3385 5.02788 13.2987 7.24027C9.86063 9.74027 7.15267 12.9925 5.46683 16.6429C1.67922 24.8465 3.20577 35.0367 9.17037 41.4261C13.0819 45.6119 18.9713 48.0544 25.0686 48.0544C25.3739 48.0544 25.6836 48.05 25.989 48.0367C29.5509 47.8951 32.9668 46.9128 35.8695 45.196C44.2456 40.2491 48.4934 29.4261 45.7589 20.0235H45.7677ZM44.9403 22.3288C42.9934 22.8465 40.9182 23.3066 38.7589 23.7049C38.6615 20.1695 38.2589 16.6872 37.5597 13.4305C38.542 13.2757 39.4978 13.112 40.4093 12.9438C42.2677 15.1252 43.6925 17.6562 44.489 20.3996C44.6748 21.0367 44.8208 21.6827 44.9403 22.3288ZM34.1128 44.6385C32.75 45.3243 31.281 45.8465 29.75 46.196C30.9005 42.081 31.7146 38.0633 32.1925 34.1031C33.7279 34.3155 35.2235 34.6341 36.6527 35.0633C36.104 38.4925 35.2589 41.7491 34.1128 44.6385ZM32.3385 32.7358C32.5686 30.4704 32.6925 28.2181 32.6969 25.9792C34.2987 25.7801 35.8695 25.5544 37.4049 25.2978C37.4093 28.1208 37.2279 30.9615 36.8562 33.7137C35.4005 33.2845 33.8872 32.9571 32.3385 32.7403V32.7358ZM14.5111 34.8022C13.8474 32.3066 13.3385 29.6208 13.042 26.8863C14.2987 26.9261 15.5597 26.9482 16.8297 26.9482C17.1792 26.9482 17.5332 26.9438 17.8828 26.9394C18.0199 29.1341 18.2589 31.3243 18.5996 33.4881C17.1969 33.842 15.8297 34.2801 14.5067 34.8022H14.5111ZM18.8341 34.8509C19.5509 38.8686 20.6217 42.7889 22.0465 46.5013C21.2146 46.3819 20.396 46.2181 19.5907 46.0102C17.7589 43.7757 16.104 40.2535 14.8828 36.1164C16.1527 35.6164 17.4757 35.1916 18.8341 34.8509ZM13.3208 14.5279C14.9005 14.6827 16.5288 14.7801 18.1881 14.8243C17.781 18.3774 17.6571 22.0013 17.8164 25.612C16.1748 25.6252 14.5376 25.6075 12.9137 25.5544C12.604 21.8199 12.6969 18.0323 13.3208 14.5279ZM15.6527 7.31549C16.9801 6.5677 18.4226 6.00133 19.9226 5.63407C19.2367 8.18717 18.7146 10.8199 18.3518 13.4969C16.7235 13.4571 15.1261 13.3597 13.5819 13.2093C14.0509 11.0898 14.7323 9.09868 15.6527 7.31549ZM19.5288 14.8465C19.8031 14.8465 20.073 14.8553 20.3474 14.8553C23.6836 14.8553 27.0907 14.665 30.3651 14.3465C30.9668 17.8376 31.2943 21.3111 31.3474 24.8022C27.3783 25.2535 23.2544 25.5235 19.1482 25.5943C18.989 21.9925 19.1173 18.3863 19.5288 14.8465ZM19.219 26.9217C23.3031 26.8465 27.4049 26.581 31.3606 26.1341C31.3518 28.2712 31.2323 30.4128 31.0155 32.5721C27.3518 32.2004 23.542 32.4128 19.9049 33.1872C19.5819 31.1164 19.3518 29.0235 19.219 26.9217ZM32.6792 24.6385C32.6217 21.1562 32.2898 17.6872 31.6925 14.2049C33.2456 14.0367 34.7633 13.842 36.2235 13.6296C36.9182 16.8774 37.3031 20.3819 37.3872 23.9438C35.8518 24.2049 34.281 24.435 32.6792 24.6385ZM31.4624 12.8907C31.0243 10.6075 30.4624 8.31107 29.7987 6.00133C31.489 6.50576 33.1217 7.22257 34.6482 8.1208C35.1394 9.44823 35.5642 10.8553 35.9226 12.3288C34.4845 12.5367 32.9934 12.727 31.4624 12.8907ZM39.3385 11.7757C38.6615 11.8951 37.9668 12.0146 37.2544 12.1252C37.0199 11.165 36.7589 10.227 36.4668 9.31549C37.489 10.0544 38.4536 10.8774 39.3341 11.7757H39.3385ZM24.0288 5.1385H24.0376C25.4757 5.1385 26.9093 5.30222 28.3075 5.61195C29.0509 8.09868 29.6659 10.5677 30.1394 13.0279C26.719 13.3553 23.1659 13.5412 19.7013 13.5146C20.0863 10.727 20.6482 7.99248 21.3916 5.34646C22.2589 5.21372 23.1438 5.14292 24.0288 5.14292V5.1385ZM13.5509 8.73584C13.0199 10.0766 12.5907 11.5323 12.2589 13.0721C11.3252 12.9571 10.4182 12.8155 9.5332 12.6518C10.6925 11.2137 12.042 9.89956 13.5509 8.73584ZM6.68364 17.2049C7.22347 16.0367 7.88276 14.9128 8.63497 13.842C9.71462 14.0589 10.8385 14.2358 11.9978 14.3774C11.4049 17.7491 11.2544 21.5102 11.5686 25.5013C9.25001 25.404 6.97125 25.2358 4.76771 24.9969C4.91373 22.3288 5.54205 19.6695 6.67922 17.2004L6.68364 17.2049ZM4.73674 26.3288C6.99338 26.5677 9.32081 26.7314 11.6925 26.8332C11.7412 27.3111 11.7943 27.7934 11.8606 28.2757C12.1748 30.7093 12.6527 33.0943 13.2589 35.3332C11.4845 36.1296 9.81639 37.081 8.30311 38.1916C5.98453 34.7535 4.75886 30.5633 4.73674 26.3332V26.3288ZM10.1527 40.519C9.77656 40.1164 9.42258 39.7004 9.0863 39.2668C10.4668 38.2535 11.9978 37.3819 13.6305 36.6429C14.6482 40.0367 15.9624 43.0456 17.4491 45.3243C14.6482 44.2624 12.1261 42.6296 10.1527 40.5146V40.519ZM25.9447 46.7049C25.1394 46.7358 24.3385 46.7226 23.542 46.665C22.0155 42.8199 20.8783 38.7403 20.135 34.5544C23.6482 33.8155 27.3341 33.6075 30.8695 33.9482C30.3783 38.0456 29.5199 42.2049 28.2943 46.4748C27.5199 46.5943 26.7367 46.6739 25.9447 46.7049ZM35.9226 43.5987C36.8075 41.0677 37.4845 38.3288 37.9624 35.4881C39.3872 35.9925 40.7323 36.6119 41.9713 37.3509C40.427 39.8332 38.3828 41.9925 35.9226 43.5987ZM42.6394 36.2004C41.2544 35.3774 39.75 34.6916 38.1704 34.1385C38.5951 31.165 38.7987 28.1031 38.781 25.0544C41.0022 24.6473 43.1305 24.1827 45.1394 23.6518C45.6261 27.9704 44.6969 32.3996 42.6438 36.2004H42.6394Z" fill="#FF7336"/>
</svg>
