<svg xmlns="http://www.w3.org/2000/svg" width="52" height="50" viewBox="0 0 52 50" fill="none">
  <path d="M51.0686 23.8097C50.5067 17.6327 47.8474 11.8407 43.5863 7.50442C39.6129 3.53097 34.281 0.946903 28.5598 0.207965C27.4978 0.0707965 26.4093 0 25.3252 0C21.1881 0 17.0686 1.01327 13.4093 2.93363C8.75002 5.37611 5.02436 9.28761 2.91816 13.9425C0.692501 18.8584 0.227899 24.323 1.60843 29.323C1.97126 30.6327 2.42259 31.8938 2.86507 33.1106C2.95799 33.3628 3.04648 33.615 3.13498 33.8673L3.28542 34.2832C3.7102 35.4602 4.10843 36.5752 4.2279 37.6327C4.51551 40.1947 3.56861 42.7743 2.72347 44.4867C2.27215 45.3894 2.31197 46.4425 2.83852 47.292C3.36949 48.1504 4.2987 48.6637 5.32524 48.6637C5.48896 48.6637 5.65268 48.6504 5.81197 48.6239C7.34737 48.3717 8.75445 47.8938 10.1837 47.3805C11.2146 47.0089 12.1394 46.7035 13.0288 46.7035C13.1483 46.7035 13.2721 46.708 13.3916 46.7212C14.7766 46.854 16.1837 47.4292 17.6748 48.031C18.7544 48.469 19.8739 48.9248 21.0686 49.2478C22.9049 49.7478 24.8341 50 26.8031 50C29.7943 50 32.8828 49.4027 35.7323 48.2743C40.5111 46.385 44.6483 43.1018 47.3695 39.0221C50.25 34.6947 51.5642 29.292 51.0598 23.8053L51.0686 23.8097Z" fill="#FFE7DE"/>
  <path d="M48.197 24.0354C47.7014 18.6195 45.3651 13.4071 41.5421 9.5177C37.9713 5.94691 33.2058 3.70354 28.2058 3.05753C23.6085 2.46461 18.8739 3.32301 14.7678 5.47788C10.7324 7.59735 7.42262 10.9867 5.54209 15.1504C3.63058 19.3717 3.15271 24.1416 4.38722 28.6283C4.78545 30.0752 5.32085 31.4779 5.82527 32.8894C6.29872 34.2212 6.83855 35.6106 6.99784 37.0265C7.29872 39.7124 6.51111 42.4779 5.3297 44.8673C5.06864 45.3982 5.49784 45.9071 6.05979 45.8142C7.39607 45.5973 8.65271 45.1593 9.92262 44.7035C11.2501 44.2301 12.5377 43.8097 13.9624 43.9513C16.7014 44.2168 19.1439 45.7566 21.7678 46.469C26.0067 47.6195 30.5952 47.208 34.6616 45.6018C38.8076 43.9646 42.4801 41.1416 44.9624 37.4204C47.5731 33.5088 48.6173 28.6947 48.1925 24.0354H48.197ZM44.4005 35.9071C40.0996 43.1681 30.8031 47.3628 22.5421 45.3363C19.6881 44.6372 17.0996 43.0133 14.1527 42.6814C11.6483 42.3982 9.37837 43.6195 7.01111 44.2788C7.73235 42.5531 8.21908 40.7301 8.33412 38.8628C8.48899 36.3805 7.63501 34.0929 6.80757 31.792C5.97572 29.4867 5.17926 27.1726 5.02439 24.708C4.88722 22.5354 5.14386 20.3584 5.7589 18.2699C7.00669 14.0177 9.71023 10.3009 13.3784 7.81859C17.0509 5.33186 21.4934 4.03983 25.9226 4.16372C31.3828 4.31416 36.7678 6.56195 40.6394 10.4292C47.0686 16.969 49.1881 27.8274 44.4049 35.9027L44.4005 35.9071Z" fill="#EE733E"/>
  <path d="M39.6925 29.8143C38.9978 29.3674 38.1483 29.093 37.3961 28.7567C36.5421 28.3718 35.6881 27.9868 34.8341 27.6063C34.1217 27.2877 33.3828 26.9691 32.5863 27.1594C32.073 27.2789 31.6306 27.593 31.2677 27.9647C30.6394 28.6019 30.1704 29.7213 29.312 30.093C28.6438 30.3806 27.9315 29.8143 27.4093 29.4647C26.7235 29.0001 26.0553 28.5089 25.4138 27.9824C24.166 26.9559 23.0022 25.8275 21.9491 24.6063C21.4668 24.0488 21.0111 23.4691 20.5775 22.8762C23.0465 21.0399 22.5907 17.3983 21.5067 14.8585C20.9934 13.6594 20.1615 12.4382 18.8518 12.0355C17.3739 11.5797 15.8607 12.3939 14.843 13.4337C12.8031 15.5134 12.4049 18.6992 13.1129 21.4205C13.9138 24.5001 15.9005 27.2612 17.9536 29.6373C21.7766 34.0532 27.1129 37.6196 33.1129 37.7744C35.9314 37.8452 38.8828 36.8806 39.9005 34.0089C40.166 33.2656 40.3076 32.4691 40.4182 31.6904C40.5244 30.9382 40.3607 30.2479 39.6881 29.8187L39.6925 29.8143ZM39.166 31.4337C39.0996 32.1151 38.9314 32.8408 38.7191 33.4913C38.3164 34.7302 37.427 35.5974 36.2102 36.0399C33.8385 36.8983 31.0509 36.4603 28.7146 35.6948C26.2589 34.8895 24.0022 33.5134 22.0288 31.8541C19.958 30.1107 18.1483 28.0532 16.6438 25.8054C15.0952 23.4913 13.7412 20.7523 14.1261 17.8895C14.3031 16.5886 14.8297 15.2877 15.7545 14.3408C16.7899 13.2789 18.3031 12.6992 19.4359 13.916C20.4226 14.978 20.927 16.7169 21.0819 18.1151C21.2456 19.5842 20.8828 21.2302 19.5244 22.0311C19.2412 22.1992 19.1748 22.4736 19.2412 22.7213C19.1483 22.8851 19.1438 23.093 19.2943 23.301C20.9978 25.6771 23.0244 27.7833 25.3474 29.562C26.3651 30.3408 27.6881 31.5399 29.0598 31.4514C30.0775 31.3895 30.7722 30.6373 31.3562 29.8851C31.843 29.2523 32.4182 28.239 33.3562 28.416C34.0686 28.5532 34.7633 28.9824 35.4182 29.2789C36.1792 29.6196 36.9359 29.9603 37.6969 30.301C38.0553 30.4647 38.427 30.6107 38.781 30.7877C39.1129 30.9514 39.2014 31.0576 39.166 31.4382V31.4337Z" fill="#EE733E"/>
</svg>
