<svg xmlns="http://www.w3.org/2000/svg" width="50" height="38" viewBox="0 0 50 38" fill="none">
<path d="M40.1941 0.345703L40.1243 1.93459L40.1044 2.41325C40.0778 2.9883 40.0911 3.79604 40.1044 4.73009V4.75336C40.1176 5.76387 40.1343 7.1666 40.0844 8.1073C40.0412 8.11063 39.998 8.11395 39.9514 8.1206C39.7454 8.13722 39.5093 8.16049 39.2534 8.19373H39.2401L39.2268 8.19705C37.3521 8.47627 35.6236 8.96158 34.0879 9.63968C30.4381 11.2518 27.8852 14.6224 27.2603 18.6578V18.691C26.7285 22.1048 26.3396 28.4936 29.6669 33.0109C31.5051 35.5039 34.1377 37.023 37.495 37.5249L37.6213 37.5449C38.4457 37.6712 39.3199 37.7344 40.2273 37.7344C42.5841 37.7344 44.8511 37.3055 46.3369 36.9466C48.2781 36.4945 49.5812 34.9588 49.7274 32.9411V32.9012C49.9634 27.9052 49.8969 22.5203 49.8338 17.3149C49.7739 12.3754 49.7141 7.27297 49.9102 2.59607L49.9302 2.07752L50.0033 0.345703H40.1974H40.1941Z" fill="#FFE7DE"/>
<path d="M26.1069 29.2679C24.6476 26.5621 23.1385 23.7666 21.6793 21.0143C21.5563 20.775 21.2305 20.1135 21.2338 19.6748C21.2338 19.1496 21.6028 18.4249 21.9618 17.7236C22.1014 17.4477 22.2443 17.1684 22.384 16.8726L22.3906 16.8527L22.3973 16.836C23.441 14.4461 24.8005 11.6373 26.1135 8.91821L26.18 8.78193C26.8149 7.46894 27.4697 6.11274 28.0813 4.81969L28.1013 4.77648L28.1212 4.73327L28.1412 4.67676L28.1611 4.63022L28.1777 4.58368C28.6132 3.28399 28.2675 2.35659 27.9018 1.8048C27.0376 0.50178 25.4421 0.382116 24.8404 0.338903H24.8105L24.7806 0.335579C24.5413 0.325607 24.2853 0.308987 24.0161 0.289043C23.5407 0.255803 23.0587 0.219238 22.5601 0.219238C21.6593 0.219238 20.3364 0.322283 19.2328 1.21312C18.4649 1.81809 18.0195 2.59592 17.717 3.20421L17.7104 3.22083L17.7004 3.23745C17.0024 4.73659 16.281 6.3155 15.6462 7.70827L15.6129 7.77475C15.3669 8.31324 15.1176 8.85838 14.8683 9.40685C14.7088 9.06447 14.5526 8.71877 14.3963 8.37972C13.5753 6.58142 12.7277 4.72994 11.6141 3.02472C10.5238 1.21312 8.73883 0.295691 6.31229 0.295691C6.16271 0.295691 6.00648 0.299015 5.85025 0.305663C5.6774 0.302339 5.50455 0.299015 5.3317 0.299015C4.55721 0.299015 2.74561 0.299015 1.80159 1.76159C1.17999 2.72888 1.18997 3.90226 1.83483 5.25514V5.26179C2.62595 7.06673 3.42371 8.86835 4.21815 10.67L4.23477 10.7099C5.25525 13.0167 6.30897 15.4001 7.32612 17.7335C7.40257 17.9263 7.61199 18.4415 7.59537 18.7673V18.7939C7.58539 19.1097 7.33942 19.6083 7.24302 19.8077C6.23251 21.7888 5.18877 23.8132 4.17827 25.7677L4.14503 25.8309L4.08852 25.9372C2.88522 28.2674 1.63871 30.6773 0.435413 33.0606L0.425441 33.0772L0.415469 33.0972C0.222675 33.506 -0.369002 34.7525 0.339016 36.0024C0.814352 36.8434 1.67195 37.3287 2.88854 37.4517C3.43368 37.5048 4.11843 37.5481 4.78324 37.5913H4.82645C5.11232 37.6112 5.39154 37.6278 5.64416 37.6444C5.8569 37.6611 6.07961 37.6744 6.29567 37.6877L6.3688 37.6943L6.48846 37.701C6.66131 37.7109 6.83416 37.7242 7.00036 37.7342C7.32612 37.7575 7.56877 37.7674 7.78816 37.7674C9.75931 37.7674 10.4374 36.6738 10.9626 35.5503L14.4528 28.274C14.988 29.3211 15.5631 30.4679 16.1082 31.5482L16.1281 31.5847L16.1581 31.6479C17.0755 33.4695 17.9464 35.1946 18.3785 36.0157C19.266 37.7841 20.8881 37.7807 21.4233 37.7807C21.533 37.7807 21.6427 37.7807 21.7524 37.7774H21.8388L21.8588 37.7741C22.5335 37.7508 23.5839 37.7043 24.6011 37.6611L24.7274 37.6544C25.5385 37.6179 26.3229 37.5846 26.8747 37.5613C27.6592 37.5314 28.3606 37.106 28.7495 36.4245C29.1384 35.7498 29.1517 34.932 28.7827 34.2373C27.8919 32.5786 26.9977 30.9233 26.1069 29.2679Z" fill="#FFE7DE"/>
<path d="M40.2572 36.0723C39.4761 36.0723 38.6883 36.0225 37.9171 35.9028L37.7808 35.8795C34.8723 35.4474 32.602 34.1477 31.0364 32.0203C28.068 27.9883 28.4403 22.0981 28.929 18.947L28.9356 18.9071C29.4741 15.4368 31.6613 12.5382 34.7925 11.1554C36.192 10.5372 37.7775 10.0951 39.506 9.8358C39.7254 9.80588 39.9348 9.78926 40.1342 9.76932C41.1281 9.67957 41.527 9.59647 41.6899 9.10119C41.8461 8.19705 41.8195 6.27577 41.7996 4.7301C41.7896 3.80934 41.7796 3.0149 41.7996 2.47973L41.8195 2.00439H48.3014L48.2781 2.52294C48.0787 7.24306 48.1418 12.3654 48.2017 17.3215C48.2648 22.507 48.328 27.8686 48.0986 32.8181C48.0055 34.1045 47.2111 35.0386 45.9746 35.3244C44.4488 35.6934 42.3813 36.0657 40.2572 36.0657V36.0723ZM29.4209 19.0267L29.9129 19.1032C29.4508 22.1015 29.0819 27.6891 31.8375 31.432C33.2402 33.3367 35.2911 34.5034 37.9337 34.8956L38.0734 34.9189C40.7824 35.3344 43.7408 34.8458 45.7452 34.3605C46.5629 34.171 47.0449 33.6026 47.1047 32.7649C47.3341 27.8553 47.2676 22.5103 47.2045 17.3381C47.1479 12.5515 47.0881 7.60538 47.261 3.00493H42.7835C42.7802 3.48359 42.7835 4.08856 42.7935 4.72345C42.8134 6.41205 42.84 8.33002 42.6605 9.31393L42.6472 9.37044C42.2816 10.5837 41.188 10.6834 40.2207 10.7699C40.0312 10.7865 39.8351 10.8064 39.639 10.8297C38.0069 11.0723 36.5077 11.4912 35.1914 12.0729C32.376 13.3161 30.4015 15.9287 29.9195 19.0633L29.4209 19.0267Z" fill="#EE733E"/>
<path d="M40.2439 31.6148C38.9641 31.6148 37.465 30.9633 36.4246 30.1423L36.3182 30.0592C35.4573 29.3744 34.6562 28.4936 34.0612 27.5728C33.0341 25.9307 32.7382 23.7369 33.2535 21.543C33.792 19.2561 35.1515 17.2517 36.8966 16.1814C38.2162 15.347 40.2605 14.9016 41.6034 15.6695C42.2084 16.0152 42.9164 16.7464 42.8665 18.2688C42.8532 21.5131 42.7967 24.8371 42.7402 28.0481L42.7269 28.8226C42.7735 30.3683 42.0821 31.0497 41.4937 31.3456C41.1281 31.5317 40.7026 31.6115 40.2505 31.6115L40.2439 31.6148ZM36.9332 29.278L37.0362 29.3578C38.1996 30.2752 40.0577 30.9533 41.0383 30.4581C41.5203 30.2154 41.7497 29.6669 41.7264 28.8293L41.7397 28.0315C41.7962 24.8205 41.856 21.5031 41.866 18.2522C41.8926 17.4112 41.6367 16.8395 41.1048 16.537C40.1508 15.9919 38.4822 16.3609 37.4218 17.029C35.8927 17.9664 34.6994 19.7381 34.2241 21.7724C33.7687 23.707 34.018 25.6249 34.9022 27.0376C35.4373 27.862 36.162 28.6598 36.9365 29.278H36.9332Z" fill="#EE733E"/>
<path d="M21.4565 36.119C20.8383 36.119 20.2732 36.0259 19.8909 35.2547C19.4621 34.4503 18.5779 32.6952 17.6439 30.8371C16.4639 28.497 15.1509 25.8909 14.4295 24.5414C14.3464 24.7142 14.2534 24.9103 14.1603 25.1065C13.9941 25.4621 13.7947 25.8776 13.5686 26.3397L9.48672 34.8492C8.92829 36.0458 8.66236 36.1854 7.14661 36.0791C6.94052 36.0658 6.72446 36.0525 6.50175 36.0359C6.26574 36.0226 6.02309 36.0059 5.78708 35.9893C5.53113 35.9727 5.24859 35.9528 4.9594 35.9361C4.29459 35.8929 3.60652 35.8497 3.078 35.7965C2.65917 35.7566 2.07414 35.6469 1.81487 35.1882C1.56557 34.7461 1.74174 34.2442 1.94783 33.8121C3.16775 31.3988 4.42755 28.959 5.6508 26.5956C6.69454 24.5779 7.73496 22.5636 8.75876 20.5525C9.00806 20.0473 9.26734 19.4456 9.28728 18.8473C9.3172 18.2191 9.08784 17.5775 8.8884 17.0856C7.8646 14.7322 6.81753 12.3655 5.77378 9.99876C4.97934 8.19714 4.18158 6.39552 3.39378 4.59722L3.38049 4.56398C2.98493 3.73962 2.93839 3.12135 3.23423 2.66264C3.71289 1.92138 4.8763 1.94465 5.90675 1.96792C7.99091 1.86155 9.40362 2.49311 10.2413 3.90915C11.295 5.51465 12.1227 7.32292 12.9204 9.06804C13.4323 10.1916 13.9642 11.3516 14.5459 12.4353C14.7885 12.904 14.9481 12.9904 14.9714 13.0004C14.9714 12.9904 15.1276 12.894 15.3437 12.412C15.9619 11.0824 16.5769 9.73949 17.1885 8.39658C17.8599 6.92736 18.5513 5.41161 19.2394 3.93906C19.4688 3.47702 19.7912 2.90862 20.2998 2.50973C21.2305 1.75185 22.5967 1.84825 23.9163 1.94132C24.1989 1.96127 24.4781 1.98121 24.7473 1.99118C25.442 2.04104 26.18 2.16736 26.5489 2.71915C26.7816 3.07149 26.8082 3.51691 26.632 4.04876L26.6088 4.10194C25.9805 5.43155 25.3157 6.80437 24.6509 8.18385C23.328 10.9162 21.9618 13.7449 20.9048 16.1648C20.7784 16.4341 20.6455 16.6967 20.5125 16.9626C20.0671 17.8401 19.6051 18.7443 19.6017 19.6617C19.5984 20.4129 19.9341 21.1841 20.23 21.7725C21.6892 24.5214 23.205 27.3336 24.6742 30.0526C25.565 31.708 26.4592 33.36 27.3467 35.0154C27.4464 35.2015 27.4431 35.4176 27.3367 35.5971C27.2337 35.7766 27.0476 35.8896 26.8415 35.8996C26.2864 35.9195 25.4986 35.9561 24.6875 35.9926C23.6305 36.0392 22.5302 36.089 21.8355 36.1123H21.7491C21.6493 36.1156 21.5529 36.119 21.4565 36.119ZM14.4362 23.1253C14.5991 23.1253 14.7586 23.1985 14.8916 23.3348L14.9614 23.4278C15.5398 24.435 17.132 27.5962 18.538 30.385C19.4721 32.2398 20.353 33.9883 20.7818 34.7993C20.9347 35.1118 21.0012 35.1317 21.7291 35.1151H21.8089C22.497 35.0885 23.5939 35.042 24.6443 34.9954C25.1828 34.9722 25.7146 34.9489 26.17 34.929C25.3822 33.4631 24.5911 31.9938 23.8 30.5279C22.3341 27.8089 20.815 24.9968 19.3491 22.2312C19.0001 21.5331 18.6045 20.6224 18.6112 19.6617C18.6112 18.5083 19.1297 17.4944 19.6283 16.5139C19.758 16.2612 19.8843 16.0086 20.0006 15.7593C21.061 13.3328 22.4305 10.4974 23.7568 7.75172C24.4149 6.38887 25.0764 5.02602 25.698 3.70638C25.7612 3.50362 25.7711 3.34739 25.7213 3.27093C25.6681 3.18783 25.462 3.04158 24.6941 2.98507C24.4282 2.9751 24.139 2.95515 23.8465 2.93188C22.7197 2.85211 21.5563 2.76901 20.9214 3.28423C20.5624 3.56677 20.3131 4.00887 20.1369 4.36454C19.4555 5.82046 18.7641 7.33622 18.0959 8.80211C17.481 10.1483 16.8661 11.4946 16.2511 12.8209C16.1248 13.1001 15.7326 13.9677 14.988 13.9909C14.978 13.9909 14.9714 13.9909 14.9614 13.9909C14.2334 13.9909 13.8046 13.1666 13.665 12.894C13.07 11.7871 12.5315 10.6104 12.013 9.47357C11.2285 7.76169 10.4208 5.98999 9.39697 4.4277C8.74214 3.32412 7.64521 2.86208 5.94331 2.95515H5.92337H5.90342C5.28515 2.94186 4.25138 2.91859 4.07521 3.19448C4.00873 3.29753 4.02535 3.59337 4.27465 4.10859L4.31121 4.18837C5.09901 5.98666 5.89345 7.78496 6.68789 9.58658C7.73496 11.9533 8.7787 14.3233 9.80915 16.6867C10.0551 17.2817 10.3277 18.0595 10.2878 18.8772C10.2645 19.6584 9.95541 20.383 9.65625 20.988C8.62912 23.0057 7.58538 25.0234 6.54496 27.041C5.32504 29.4011 4.06524 31.8376 2.85197 34.2376C2.72233 34.5101 2.70238 34.6364 2.69906 34.683C2.74227 34.7062 2.86859 34.7628 3.18437 34.7927C3.69627 34.8425 4.37437 34.8857 5.03253 34.929C5.32504 34.9489 5.60758 34.9655 5.86686 34.9821C6.10286 34.9988 6.33887 35.0121 6.57487 35.0287C6.79758 35.042 7.01697 35.0553 7.22638 35.0719C7.65851 35.1018 8.09063 35.1251 8.22359 35.0519C8.31666 35.0021 8.43301 34.7561 8.59256 34.4137L8.6258 34.3439L12.6811 25.8909C12.9071 25.4322 13.0999 25.02 13.2661 24.6677C13.6883 23.7735 13.8412 23.4577 14.014 23.2882C14.147 23.1719 14.2966 23.112 14.4428 23.112L14.4362 23.1253Z" fill="#EE733E"/>
</svg>
